<svg width="170" height="47" viewBox="0 0 170 47" fill="none" xmlns="http://www.w3.org/2000/svg">
<path opacity="0.8" d="M0.324824 0.41453C1.16414 0.39847 1.90948 0.383599 2.65541 0.370512C4.7433 0.333632 2.33896 0.473419 4.42625 0.422858C4.80457 0.413936 5.0437 0.501377 5.25249 0.854711C6.49927 2.96639 7.77698 5.05963 9.0422 7.1606C9.78813 8.39846 9.82323 9.64465 9.11775 10.9212C7.08697 14.5955 6.94419 14.8584 4.93006 18.5416C4.7647 18.8438 4.58506 18.9795 4.22459 18.9806C1.46573 18.989 3.19968 18.8522 0.44141 18.873C0.295675 18.8742 0.135073 18.9307 4.48227e-05 18.7998C0.0196743 18.5833 0.160657 18.4197 0.258805 18.2413C2.21166 14.6776 3.22706 12.8229 5.18586 9.26216C4.84046 9.85542 4.69909 10.0006 4.76175 9.69759C4.96221 8.73157 4.776 7.83871 4.26682 6.99702C3.06644 5.01382 1.87618 3.02409 0.683528 1.03673C0.575863 0.857091 0.47474 0.67388 0.326625 0.41453H0.324824Z" fill="url(#paint0_linear_1_3)"/>
<path d="M22.1519 0V46.3796H15.6181V0H22.1519Z" fill="#5FC7CD"/>
<path d="M56.8475 33.4091H34.0925C34.9295 37.7009 37.6973 39.8464 42.3965 39.8464C44.3059 39.8464 45.9798 39.4925 47.4175 38.7841C48.8338 38.0548 49.8528 37.0572 50.475 35.7908L56.333 38.6556C55.1528 41.0807 53.3284 42.9681 50.8616 44.3202C48.3942 45.6937 45.5723 46.3801 42.3971 46.3801C37.8049 46.3801 34.1467 44.943 31.4217 42.067C28.6748 39.2135 27.3019 35.3834 27.3019 30.5765C27.3019 25.7696 28.6426 21.94 31.3254 19.086C34.0075 16.2111 37.5908 14.7734 42.0753 14.7734C46.0018 14.7734 49.2526 15.8893 51.8277 18.1205C54.4027 20.331 55.9903 23.367 56.5911 27.2293C56.7624 28.2167 56.8487 29.2357 56.8487 30.2868V33.4085L56.8475 33.4091ZM49.9599 27.2293C49.0373 23.2814 46.4087 21.3071 42.0741 21.3071C37.7395 21.3071 35.1109 23.2814 34.1883 27.2293H49.9593H49.9599Z" fill="#5FC7CD"/>
<path d="M85.0103 14.8063H91.5441V46.3804H85.0103V43.7732C83.7011 44.8677 82.1456 45.619 80.3432 46.0264L79.9893 46.0907C78.9596 46.284 77.886 46.3804 76.7706 46.3804C75.6553 46.3804 74.5822 46.284 73.552 46.0907L73.198 46.0264C69.7218 45.2972 66.9968 43.5697 65.0232 40.8448C63.0061 38.1198 61.9978 34.6971 61.9978 30.5773C61.9978 26.4574 63.0061 22.9925 65.0232 20.2455C67.0397 17.5206 69.7973 15.8152 73.295 15.1281L73.6168 15.0318C74.625 14.8604 75.6767 14.7742 76.7712 14.7742C77.8657 14.7742 78.9168 14.8604 79.9257 15.0318L80.2475 15.1281C82.0927 15.5142 83.6803 16.2655 85.0109 17.3814V14.8063H85.0103ZM85.0103 30.5446C85.0103 27.9487 84.4845 25.8775 83.4334 24.3327C82.0599 22.3162 79.8394 21.3073 76.7712 21.3073C73.703 21.3073 71.4498 22.3162 70.0769 24.3327C69.0466 25.8995 68.5321 27.9808 68.5321 30.5767C68.5321 33.1726 69.0472 35.2438 70.0769 36.7886C71.4498 38.8271 73.6816 39.8461 76.7712 39.8461C79.8608 39.8461 82.0605 38.8378 83.4334 36.8207C84.4845 35.2759 85.0103 33.2053 85.0103 30.6088V30.5446Z" fill="#5FC7CD"/>
<path d="M118.065 16.1576C120.404 17.3377 122.217 19.1722 123.505 21.6616C124.813 24.1718 125.468 27.1442 125.468 30.5771V46.3801H118.934V30.5771C118.934 27.9812 118.494 25.91 117.615 24.3652C116.456 22.3266 114.568 21.3077 111.95 21.3077C109.333 21.3077 107.509 22.2951 106.35 24.2688C105.449 25.7708 104.987 27.7986 104.966 30.3516V46.3801H98.4321V14.8061H104.966V16.7048C105.244 16.5115 105.534 16.3295 105.835 16.1576C107.659 15.235 109.697 14.7734 111.95 14.7734C114.204 14.7734 116.242 15.235 118.066 16.1576H118.065Z" fill="#5FC7CD"/>
<path d="M135.589 39.1017V46.379H129.124" fill="url(#paint1_linear_1_3)"/>
<path d="M22.1203 0L15.6182 0L15.6182 36.6843H22.1203L22.1203 0Z" fill="#8273B5"/>
<path d="M168.709 14.7284L157.992 30.0163L169.385 46.3024H161.435L154 35.7131L146.597 46.3024H138.615L150.009 30.0163L139.323 14.7284H147.273L154 24.3517L160.727 14.7284H168.709Z" fill="#FCCA39"/>
<defs>
<linearGradient id="paint0_linear_1_3" x1="-0.000550142" y1="9.6726" x2="9.62515" y2="9.6726" gradientUnits="userSpaceOnUse">
<stop stop-color="#FFD74A"/>
<stop offset="1" stop-color="#FDC149"/>
</linearGradient>
<linearGradient id="paint1_linear_1_3" x1="129.124" y1="42.741" x2="135.589" y2="42.741" gradientUnits="userSpaceOnUse">
<stop stop-color="#FFD74A"/>
<stop offset="1" stop-color="#FDC149"/>
</linearGradient>
</defs>
</svg>
