<svg width="80" height="50" viewBox="0 0 80 50" fill="none" xmlns="http://www.w3.org/2000/svg">
<path d="M50.3589 5.38428H28.9214V43.9081H50.3589V5.38428Z" fill="#FF5F00"/>
<path d="M30.2827 24.6462C30.2794 20.9361 31.1201 17.2739 32.7413 13.9367C34.3625 10.5995 36.7217 7.67495 39.6403 5.38435C36.0261 2.54346 31.6854 0.776761 27.1146 0.286167C22.5437 -0.204428 17.927 0.600866 13.7922 2.61004C9.65742 4.61921 6.1713 7.7512 3.73234 11.648C1.29338 15.5448 0 20.0491 0 24.6462C0 29.2434 1.29338 33.7477 3.73234 37.6445C6.1713 41.5413 9.65742 44.6733 13.7922 46.6824C17.927 48.6916 22.5437 49.4969 27.1146 49.0063C31.6854 48.5157 36.0261 46.749 39.6403 43.9081C36.7217 41.6175 34.3626 38.6929 32.7413 35.3558C31.1201 32.0186 30.2794 28.3564 30.2827 24.6462Z" fill="#EB001B"/>
<path d="M79.2792 24.6462C79.2794 29.2433 77.9862 33.7476 75.5473 37.6444C73.1085 41.5412 69.6225 44.6732 65.4878 46.6824C61.353 48.6916 56.7364 49.4969 52.1656 49.0063C47.5948 48.5157 43.2543 46.749 39.6401 43.9081C42.5561 41.6152 44.9135 38.6902 46.5345 35.3535C48.1554 32.0169 48.9976 28.3558 48.9976 24.6462C48.9976 20.9367 48.1554 17.2756 46.5345 13.939C44.9135 10.6023 42.5561 7.67727 39.6401 5.38435C43.2543 2.54345 47.5948 0.776748 52.1656 0.28616C56.7364 -0.204428 61.353 0.600902 65.4878 2.6101C69.6225 4.61929 73.1085 7.75127 75.5473 11.6481C77.9862 15.5448 79.2794 20.0492 79.2792 24.6462Z" fill="#F79E1B"/>
<path d="M76.9421 39.8279V39.0392H77.2601V38.8785H76.4502V39.0392H76.7684V39.8279H76.9421ZM78.5145 39.8279V38.877H78.2663L77.9807 39.531L77.6951 38.877H77.4467V39.8279H77.622V39.1106L77.8898 39.729H78.0716L78.3394 39.109V39.8279H78.5145Z" fill="#F79E1B"/>
</svg>
