<svg width="113" height="37" viewBox="0 0 113 37" fill="none" xmlns="http://www.w3.org/2000/svg">
<path d="M113 35.3906C113 35.4985 113 35.5525 113 35.6604C112.836 35.6604 112.673 35.6604 112.509 35.6604C109.999 35.6604 107.489 35.6604 104.979 35.6604C104.652 35.6604 104.488 35.5525 104.433 35.2287C104.161 33.7175 103.833 32.2603 103.506 30.7491C103.451 30.4793 103.342 30.3713 103.069 30.3713C99.4137 30.3713 95.758 30.3713 92.1023 30.3713C91.7749 30.3713 91.6658 30.4793 91.5566 30.7491C91.011 32.2603 90.4654 33.7715 89.9197 35.2826C89.8106 35.5525 89.7015 35.6604 89.3741 35.6604C86.4277 35.6604 83.5359 35.6604 80.5895 35.6604C80.4803 35.6604 80.3166 35.7144 80.2075 35.6064C80.2621 35.4445 80.3166 35.3366 80.3712 35.2287C83.6996 27.403 86.9733 19.5773 90.3017 11.7516C91.5021 8.94519 92.6479 6.13874 93.8483 3.38627C94.3939 2.09098 95.376 1.17349 96.7947 0.84967C97.3403 0.741729 97.8859 0.633789 98.4316 0.633789C100.723 0.633789 103.015 0.633789 105.252 0.633789C105.525 0.633789 105.634 0.687759 105.688 0.95761C106.452 4.62758 107.216 8.29755 107.98 11.9675C109.399 18.7138 110.817 25.514 112.291 32.2603C112.509 33.2857 112.673 34.3651 113 35.3906ZM99.1954 10.1325C99.1409 10.2405 99.0863 10.2405 99.0863 10.2944C97.5586 14.4501 95.9762 18.6598 94.4485 22.8155C94.3393 23.1933 94.503 23.1393 94.7213 23.1393C96.9584 23.1393 99.25 23.1393 101.487 23.1393C101.814 23.1393 101.869 23.0854 101.814 22.7616C100.941 18.6059 100.068 14.3962 99.1954 10.1325Z" fill="#01579F"/>
<path d="M77.4251 0.202082C78.8983 0.471933 80.3715 0.795754 81.7902 1.33546C82.063 1.4434 82.063 1.55134 82.063 1.76722C81.681 4.08793 81.2991 6.40865 80.9172 8.72937C80.8626 9.10716 80.6443 8.89128 80.5352 8.83731C78.9529 8.1357 77.3706 7.59599 75.6791 7.43408C73.824 7.2182 71.9688 7.16423 70.1682 7.81187C69.568 8.02775 69.0224 8.35158 68.5859 8.83731C67.7675 9.7548 67.7675 10.8882 68.5859 11.8057C69.1861 12.4533 69.8954 12.939 70.7139 13.3708C72.0779 14.1264 73.442 14.774 74.8061 15.5296C76.2793 16.3392 77.5888 17.3106 78.7346 18.5519C80.5352 20.6028 81.1354 22.9775 80.7535 25.622C80.0441 30.4793 76.9886 33.3398 72.5144 34.9589C70.0045 35.8764 67.331 36.1462 64.6574 36.1462C64.4937 36.1462 62.7477 36.0922 62.2566 36.0383C59.8013 35.7684 57.4551 35.3906 55.1634 34.4731C54.836 34.3652 54.7269 34.2033 54.7815 33.8255C55.1634 31.5048 55.5453 29.1841 55.9273 26.9173C55.9819 26.4316 55.9819 26.4316 56.4729 26.6475C58.4372 27.5649 60.4015 28.3745 62.5294 28.6444C64.4391 28.8602 66.3488 29.0761 68.2585 28.5364C69.077 28.3205 69.7863 27.9427 70.3865 27.403C71.4777 26.3776 71.5323 24.8664 70.5502 23.7331C69.7863 22.8695 68.7496 22.2759 67.7129 21.7362C66.1851 20.9266 64.6574 20.225 63.2387 19.3075C61.9292 18.39 60.7288 17.4186 59.8013 16.0693C58.0552 13.4787 58.1098 10.7263 59.1465 7.91981C60.2378 5.0594 62.4203 3.17044 65.1484 1.82119C67.2218 0.795754 69.4589 0.202082 71.8051 0.0941419C73.2783 -0.0677685 76.061 -0.0137984 77.4251 0.202082Z" fill="#01579F"/>
<path d="M0 1.06558C0.054563 0.579849 0.381941 0.525879 0.818445 0.525879C5.40174 0.525879 9.98503 0.525879 14.5683 0.525879C15.0594 0.525879 15.605 0.579849 16.0961 0.687789C17.7875 1.01161 18.7697 1.98307 19.0971 3.65615C20.0792 8.67537 21.1159 13.6946 22.098 18.7138C22.1526 18.8757 22.2071 19.1996 22.2071 19.3615C22.2071 19.3075 22.098 19.0916 22.0435 19.0376C19.6972 13.2089 15.6596 8.78331 10.2578 5.49113C10.0942 5.38319 9.49397 5.05937 9.38484 5.0054C6.493 3.3863 3.49203 2.19895 0.272815 1.3894C0.163689 1.33543 0 1.28146 0 1.28146C0 1.17352 0 1.17352 0 1.06558Z" fill="#01579F"/>
<path d="M9.60303 5.11333C9.87584 5.27524 10.0395 5.38318 10.2578 5.49112C15.605 8.7833 19.6426 13.2088 22.0434 19.0376C22.0434 19.0916 22.1525 19.2535 22.2071 19.3614C22.5345 20.9266 22.8618 22.4917 23.1892 24.1108C23.1892 24.1648 23.1892 24.2727 23.2983 24.3267C23.4075 24.0029 23.5712 23.6251 23.6803 23.3013C26.463 15.8534 29.2457 8.40551 32.083 0.957625C32.1375 0.741744 32.1921 0.579834 32.5195 0.579834C35.6296 0.579834 38.7397 0.579834 41.8498 0.579834C41.9043 0.741744 41.7952 0.849685 41.7952 0.957625C37.1028 12.3993 32.4104 23.841 27.7179 35.2287C27.6088 35.4985 27.4997 35.5525 27.2269 35.5525C24.2259 35.5525 21.2795 35.5525 18.2785 35.5525C18.0057 35.5525 17.8966 35.4445 17.7875 35.1747C15.0593 25.4061 12.4403 15.5835 9.82128 5.76097C9.76672 5.59906 9.65759 5.27524 9.60303 5.11333Z" fill="#01579F"/>
<path d="M44.3598 35.6065C42.9411 35.6065 41.577 35.6065 40.1584 35.6065C39.8856 35.6065 39.7765 35.5525 39.831 35.2287C41.0314 27.9427 42.2318 20.6028 43.4322 13.3168C44.0869 9.1611 44.7963 5.05937 45.451 0.90367C45.5056 0.633819 45.6147 0.525879 45.8875 0.525879C48.6702 0.525879 51.4529 0.525879 54.2902 0.525879C54.6176 0.525879 54.6722 0.633819 54.6176 0.90367C54.072 4.4657 53.4718 7.91979 52.9261 11.4278C52.2714 15.2597 51.6712 19.1456 51.0164 22.9775C50.3617 26.8633 49.7615 30.7492 49.1067 34.635C48.943 35.6065 48.943 35.6065 47.9064 35.6065C46.7605 35.6065 45.5601 35.6065 44.3598 35.6065Z" fill="#01579F"/>
</svg>
