<svg width="351" height="64" viewBox="0 0 351 64" fill="none" xmlns="http://www.w3.org/2000/svg">
<path d="M147.906 27.2444C148.014 27.0617 147.859 27.4411 147.906 27.2444C154.164 28.0813 158.267 29.4827 158.267 31.0703C158.267 33.6344 147.567 35.7121 134.368 35.7121C121.168 35.7121 110.469 33.6333 110.469 31.0703C110.469 28.5073 121.168 26.4285 134.368 26.4285C135.476 26.4285 138.312 26.2702 138.312 26.1911C138.312 26.0305 135.148 25.6987 133.848 25.6987C118.581 25.6987 106.205 28.7389 106.205 32.488C106.205 36.237 118.581 39.2772 133.848 39.2772C149.114 39.2772 161.491 36.237 161.491 32.488C161.491 30.0227 159.006 26.7707 147.905 27.2456L147.906 27.2444Z" fill="#F11FB8"/>
<path d="M47.1079 0.487641C51.7921 0.494625 56.496 0.473674 61.1837 0.496953C62.2538 0.522559 63.9053 0.486477 63.8775 1.95071C64.1119 5.83825 64.0307 9.72231 64.1467 13.6145C65.0056 33.6551 53.0978 37.573 35.582 37.1446C32.9114 37.2156 32.0015 37.4961 29.2404 39.1105C28.7507 39.3817 28.2771 39.7414 28.0206 40.2337C24.8359 46.2012 28.0636 52.9765 30.8757 58.4656C31.1334 58.8555 31.0011 59.2873 30.5902 59.4864C29.7128 60.0625 28.8215 60.6363 27.9556 61.2008C24.9984 63.3355 21.3808 63.4077 17.8735 63.3634C13.245 63.3553 8.60607 63.3774 3.97643 63.3541C2.90635 63.3285 1.25481 63.3634 1.28267 61.9004C1.06796 58.4121 1.1225 54.8935 1.04242 51.4098C0.782447 44.29 1.18634 37.758 6.31736 32.3399C12.5045 25.9278 22.1108 26.9218 30.3906 26.7332C31.7148 26.6413 32.489 26.4108 33.7598 25.7707C35.2442 25.0874 36.3932 24.3216 37.2103 22.8189C40.1768 17.0947 36.9898 10.6476 34.3076 5.42506C34.0639 5.05842 34.0964 4.62194 34.5142 4.40312C35.0667 4.03764 35.6272 3.67566 36.1843 3.31368C39.3667 0.811215 43.1201 0.338657 47.0859 0.487641H47.1091H47.1079Z" fill="#F11FB8"/>
<path d="M84.383 53.0346H77.749L108.54 12.0803H114.365H138.22V16.7826H119.635V48.4044H139.087V52.8495L113.913 52.7447L114.226 13.1034L84.383 53.0346Z" fill="#F11FB8"/>
<path d="M162.391 10.8794C150.309 10.8794 140.516 20.5855 140.516 32.56C140.516 44.5346 150.31 54.2407 162.391 54.2407C174.471 54.2407 184.266 44.5346 184.266 32.56C184.266 20.5855 174.471 10.8794 162.391 10.8794ZM162.665 49.2334C153.416 49.2334 145.917 41.7144 145.917 32.4378C145.917 23.1612 153.415 15.6422 162.665 15.6422C171.915 15.6422 179.412 23.1612 179.412 32.4378C179.412 41.7144 171.915 49.2334 162.665 49.2334Z" fill="#F11FB8"/>
<path d="M188.522 12.0803V53.5758H193.962L194.526 24.2958L215.681 53.5758H220.483V11.4692H214.709L214.369 41.5325L193.862 12.1699L188.522 12.0803Z" fill="#F11FB8"/>
<path d="M58.2772 33.3176C60.5241 34.2546 61.5443 35.0309 62.605 37.2354C64.3715 41.5653 64.1765 46.0464 64.0813 50.6393C64.05 52.1396 64.0384 53.6399 64.0303 55.1414C63.9831 60.0113 63.6859 62.7206 63.1389 63.2692C60.2583 63.4391 57.3742 63.4286 54.4889 63.4368C53.0463 63.4438 51.6048 63.4647 50.1634 63.4868C42.8864 63.5462 37.8563 62.785 32.4131 57.659C29.1843 54.0834 27.9158 50.1772 27.6001 45.3935C27.7835 42.834 28.7886 41.4372 30.4946 39.5866C32.6812 38.2097 34.3873 38.0199 36.9464 38.0025C37.6579 37.9885 38.3705 37.9734 39.1028 37.9594C40.5826 37.9419 42.0624 37.9291 43.541 37.921C48.8066 37.8023 54.374 37.2308 58.276 33.3176H58.2772Z" fill="#F11FB8"/>
<path d="M10.6657 0.288634C18.0065 0.0279127 25.2115 0.0523559 30.9275 4.63244C35.3552 7.85538 37.5243 13.3073 37.4605 18.7172C37.4628 19.2119 37.3595 19.6949 37.1808 20.1721C36.0852 23.664 33.2719 25.7532 29.7019 25.9348C25.7233 26.1618 21.5092 25.7718 17.5747 26.3561C13.5138 26.9556 10.0273 28.3535 6.09057 30.324C5.63677 30.5824 5.24101 30.3927 4.96479 30.0016C1.5352 25.9779 1.05588 21.6271 1.16381 16.742C1.18818 13.4365 1.17426 10.1879 1.21836 6.87418C1.18354 -0.296825 3.50707 0.361962 10.6448 0.288634H10.6657Z" fill="#F01FB8"/>
<path d="M232.116 11.8872H241.43C245.176 11.8872 249.449 12.3982 251.462 13.1862C253.475 13.9753 255.064 15.187 256.231 16.8211C257.398 18.4553 257.981 20.271 257.981 22.266C257.981 24.1283 257.47 25.8253 256.447 27.3547C255.425 28.8853 253.922 30.1249 251.94 31.0747C254.395 31.8161 254.892 32.5692 256.215 33.5667C257.538 34.5642 258.568 35.7712 259.304 37.1865C260.041 38.603 260.409 40.1371 260.409 41.7899C260.409 45.1537 259.022 47.9995 256.251 50.3273C253.478 52.6552 249.759 53.8192 245.091 53.8192H232.116V11.8872ZM237.435 16.6652V29.8526H239.978C243.066 29.8526 246.603 29.7024 248.057 29.1705C249.51 28.6386 250.661 27.7982 251.509 26.6506C252.356 25.5029 252.781 24.2284 252.781 22.8282C252.781 20.9426 252.068 19.4644 250.646 18.3901C249.223 17.317 245.692 16.664 242.583 16.664H237.435V16.6652ZM237.435 33.9962V48.607H243.083C246.413 48.607 248.853 48.3347 250.405 47.7911C251.957 47.2476 253.202 46.3967 254.143 45.2398C255.085 44.0828 255.555 42.8304 255.555 41.4838C255.555 39.7914 254.893 38.3144 253.57 37.0538C252.247 35.7933 250.428 34.9296 248.113 34.4629C246.561 34.1521 243.86 33.9962 240.011 33.9962H237.434H237.435Z" fill="#F11FB8"/>
<path d="M292.435 24.4275V52.9428H287.819V47.7004C286.301 49.4789 284.597 50.8162 282.709 51.7136C280.82 52.611 278.753 53.0591 276.511 53.0591C272.527 53.0591 269.124 51.6682 266.304 48.8841C263.483 46.1011 262.073 42.7152 262.073 38.7276C262.073 34.74 263.496 31.4833 266.343 28.7073C269.189 25.9325 272.614 24.545 276.616 24.545C278.927 24.545 281.019 25.0188 282.891 25.9662C284.763 26.9137 286.405 28.3337 287.82 30.2285V24.4287H292.436L292.435 24.4275ZM277.082 28.5257C275.248 28.5257 273.556 28.9762 272.006 29.8759C270.454 30.7768 269.22 32.0408 268.303 33.6691C267.386 35.2975 266.929 37.0201 266.929 38.8359C266.929 40.6516 267.391 42.3591 268.316 44.0026C269.24 45.646 270.483 46.9264 272.042 47.8424C273.6 48.7584 275.274 49.2158 277.06 49.2158C278.846 49.2158 280.57 48.7619 282.184 47.854C283.797 46.9462 285.039 45.717 285.91 44.1667C286.779 42.6163 287.214 40.8716 287.214 38.9301C287.214 35.9714 286.239 33.498 284.288 31.5089C282.337 29.5209 279.936 28.5257 277.084 28.5257H277.082Z" fill="#F11FB8"/>
<path d="M301.08 24.4275H295.982V53.058H301.08V24.4275Z" fill="#F11FB8"/>
<path d="M311.944 23.7091C311.944 23.7091 303.617 22.4893 299.696 30.2539L300.667 35.3578C303.129 28.16 309.786 28.5243 309.786 28.5243C313.237 28.5243 315.186 30.2761 316.274 32.0278C317.15 33.4396 317.588 35.0819 317.588 36.7452V53.0566H322.266V34.8352C322.266 34.8352 322.928 26.037 311.945 23.708L311.944 23.7091Z" fill="#F11FB8"/>
<path d="M326.276 12.0632H330.649V36.4663L344.267 24.1717H350.006L335.168 38.3542L350.984 53.1222H344.902L330.648 39.6392V53.1222H326.274V12.0632H326.276Z" fill="#F11FB8"/>
</svg>
