<svg width="368" height="67" viewBox="0 0 368 67" fill="none" xmlns="http://www.w3.org/2000/svg">
<path d="M17.9024 6.66259C18.2064 7.98171 18.4228 9.2493 18.7887 10.4654C19.7317 13.5983 21.6073 16.1386 24.0394 18.277C24.699 18.8593 25.4101 19.4673 26.2087 19.792C27.1259 20.1681 27.1878 20.8637 27.162 21.5697C27.1156 22.8836 26.9404 24.1925 26.8065 25.5064C26.7704 25.8414 26.5849 25.8826 26.2809 25.7486C24.0549 24.7644 22.0247 23.4968 20.1851 21.884C17.789 19.7765 15.9753 17.2619 14.6613 14.3712C13.8987 12.6862 13.3061 10.9343 13.0897 9.08956C12.9248 7.65708 12.7135 6.21429 12.7444 4.78181C12.7805 3.22051 13.0742 1.66951 13.27 0C14.6871 0.267946 15.9701 0.432836 17.2068 0.762616C19.608 1.40157 21.8495 2.41667 23.9209 3.80793C26.8477 5.7763 29.1407 8.32179 30.8617 11.3929C32.2427 13.8611 33.1187 16.4993 33.4691 19.287C33.9277 22.9609 33.5206 26.5679 32.1705 30.0409C31.9747 30.551 32.052 30.819 32.5055 31.1075C33.2887 31.597 34.0256 32.1535 34.7933 32.6894C37.1945 30.7211 39.8482 29.2525 42.8317 28.3971C44.7073 27.8561 46.6087 27.5727 48.572 27.5418C51.2978 27.5006 53.936 27.8716 56.497 28.7939C59.0012 29.6957 61.2736 30.9839 63.3142 32.7049C65.9524 34.9309 67.9001 37.6516 69.3429 40.7587C69.5027 41.104 69.4769 41.2689 69.1162 41.475C66.8284 42.7838 64.3859 43.7113 61.7941 44.0875C59.9236 44.3606 57.9913 44.4688 56.1054 44.34C52.8179 44.1184 49.7056 43.1136 46.8818 41.3977C45.5782 40.6042 44.3776 39.6303 43.1924 38.6719C42.4865 38.0999 41.8836 37.3991 41.2447 36.7447C41.1107 36.6107 41.0231 36.4304 40.9046 36.2603C42.4762 35.2968 44.1508 34.699 45.8925 34.2817C46.0265 34.2507 46.248 34.3487 46.3562 34.4569C48.7214 36.7911 51.5812 38.2081 54.7966 38.8883C56.4094 39.2284 58.0583 39.3572 59.7123 39.0789C60.3874 38.9656 61.0727 38.914 61.7992 38.7337C59.8051 36.1934 57.1978 34.4929 54.1679 33.5397C47.7887 31.5352 41.997 33.5139 38.3179 36.6468C41.4302 41.0473 42.775 45.9992 42.3422 51.3272C41.8578 57.325 39.2299 62.3387 34.5563 66.4198C33.9174 65.7808 33.1856 65.1625 32.5982 64.4308C31.6913 63.3023 30.8308 62.1275 30.0579 60.9062C28.7388 58.8194 27.8113 56.5521 27.4351 54.1045C27.1775 52.4247 26.9456 50.7191 26.9559 49.0239C26.9714 46.2671 27.533 43.5722 28.6718 41.0473C29.2901 39.6818 30.0682 38.3885 30.8205 37.0899C31.0678 36.6674 30.9854 36.4149 30.6402 36.1676C30.2125 35.8636 29.7796 35.5699 29.352 35.2659C27.4093 37.8268 25.0597 39.9085 22.2359 41.4801C20.216 42.6086 18.0776 43.4279 15.831 43.8247C14.0172 44.1441 12.1364 44.2987 10.2969 44.2111C7.00936 44.0565 3.8816 43.1548 0.96511 41.5987C-0.18912 40.9855 -0.214884 40.9803 0.398301 39.8158C1.4031 37.8989 2.5934 36.1161 4.06195 34.5032C5.94273 32.437 8.14298 30.8241 10.6215 29.6081C12.6105 28.6342 14.7077 27.9025 16.9285 27.6964C18.6547 27.5366 20.4015 27.3769 22.1277 27.4748C23.6169 27.5572 25.0906 27.9849 26.5643 28.3044C27.0023 28.4023 27.2187 28.4332 27.399 27.9128C28.1617 25.6816 28.5842 23.3938 28.4038 21.0492C28.1565 17.839 27.0796 14.8968 25.1936 12.2688C23.4056 9.78004 21.0868 7.95079 18.3146 6.67805C18.2631 6.65228 18.1961 6.66774 17.9024 6.65743V6.66259ZM7.58132 38.5173C13.4813 40.1816 20.5252 37.765 24.2816 33.148C19.2628 31.6846 11.9715 33.215 7.58132 38.5173ZM34.613 58.3608C36.2258 55.9492 36.9884 53.3625 37.1739 50.6367C37.4161 47.1173 36.5762 43.8195 34.68 40.7021C31.4182 46.5917 31.31 52.3938 34.6078 58.3608H34.613ZM34.8191 32.6688C34.8191 32.6688 34.7933 32.6534 34.783 32.6482C34.783 32.674 34.783 32.6997 34.783 32.7307C34.7985 32.7255 34.8139 32.7204 34.8191 32.7101C34.8242 32.6997 34.8191 32.6843 34.8191 32.6688Z" fill="#0867B2"/>
<path d="M210.035 40.1919C209.896 39.0067 209.747 37.8216 209.618 36.6313C209.551 36.0233 209.489 35.4152 209.479 34.8072C209.427 31.8289 209.376 28.8505 209.355 25.8671C209.335 22.9815 209.355 20.0959 209.355 17.2103V16.5817H216.482V49.7864C216.327 49.7967 216.152 49.8173 215.971 49.8173C212.962 49.8173 209.953 49.8173 206.944 49.8276C206.542 49.8276 206.382 49.7246 206.233 49.3072C204.568 44.7573 202.868 40.2228 201.178 35.678C199.982 32.4678 198.792 29.2628 197.591 26.0526C197.535 25.8928 197.416 25.7589 197.21 25.6506C197.256 26.1865 197.303 26.7173 197.354 27.2532C197.478 28.6702 197.602 30.0821 197.725 31.4991C198.246 37.5743 197.813 43.6597 198.009 49.7761H190.955V16.5611H192.181C194.84 16.5611 197.499 16.5714 200.158 16.5508C200.606 16.5508 200.791 16.7002 200.946 17.1073C202.311 20.7246 203.703 24.3264 205.078 27.9385C206.258 31.0456 207.428 34.1579 208.603 37.2651C208.943 38.1617 209.268 39.0686 209.613 39.9652C209.659 40.0837 209.788 40.1661 209.876 40.2692C209.927 40.2434 209.984 40.2228 210.035 40.197V40.1919Z" fill="#0867B2"/>
<path d="M306.079 16.5818H315.875C318.904 24.5223 321.929 32.4628 324.959 40.4032C325.026 40.3929 325.098 40.3878 325.165 40.3775C325.139 39.8931 325.134 39.4036 325.083 38.9192C324.98 38.0175 324.799 37.1209 324.732 36.214C324.269 29.7884 324.552 23.3474 324.48 16.9167C324.48 16.8188 324.49 16.7209 324.495 16.5869H331.622V49.7814C331.482 49.7968 331.323 49.8226 331.168 49.8226C328.118 49.8226 325.067 49.8329 322.017 49.8123C321.811 49.8123 321.476 49.6577 321.414 49.4928C320.09 45.9889 318.807 42.4747 317.503 38.9656C315.972 34.8588 314.422 30.752 312.886 26.6452C312.767 26.3309 312.67 26.0166 312.561 25.6971C312.5 25.7074 312.443 25.7126 312.381 25.7229C312.417 26.2794 312.433 26.841 312.489 27.3975C312.597 28.4023 312.773 29.402 312.845 30.4119C313.303 36.7551 313.025 43.1136 313.097 49.4619C313.097 49.5598 313.087 49.6577 313.082 49.7865H306.079V16.5818Z" fill="#0867B2"/>
<path d="M259.245 32.2359C261.156 32.5915 262.893 33.3232 264.305 34.6371C265.227 35.4977 265.846 36.621 266.088 37.868C266.464 39.7951 266.417 41.7119 265.753 43.5979C265.15 45.3138 264.078 46.6432 262.553 47.581C260.744 48.694 258.74 49.2505 256.632 49.4463C255.457 49.5545 254.277 49.6679 253.103 49.6885C249.176 49.7555 245.25 49.7761 241.318 49.8173C241.282 49.8173 241.241 49.8019 241.164 49.7812V16.5611H241.818C244.621 16.5611 247.424 16.5456 250.227 16.5611C252.948 16.5817 255.664 16.7157 258.317 17.4267C260.471 18.0039 262.434 18.9108 263.743 20.8224C264.485 21.9045 264.877 23.1309 264.872 24.4603C264.872 25.6146 264.897 26.7533 264.429 27.8715C263.764 29.4586 262.646 30.5767 261.187 31.3857C260.579 31.7258 259.909 31.9525 259.25 32.2411L259.245 32.2359ZM249.068 44.1183C250.99 43.9946 252.891 43.9689 254.762 43.7164C255.988 43.5515 257.075 42.9589 257.694 41.7274C258.101 40.9184 258.091 40.0785 258.065 39.2334C258.003 37.1672 256.802 36.0284 255.056 35.477C253.546 35.003 251.99 35.1267 250.444 35.1112C249.98 35.1112 249.516 35.1112 249.068 35.1112V44.1183ZM249.068 29.6698C250.552 29.6698 251.974 29.778 253.371 29.6441C255.473 29.4483 256.447 28.5465 256.782 26.6039C257.06 24.9911 256.674 23.2958 254.607 22.6878C253.994 22.5074 253.36 22.3425 252.726 22.3116C251.505 22.2549 250.284 22.2961 249.068 22.2961V29.6698Z" fill="#0867B2"/>
<path d="M356.504 31.5352C357.143 32.5967 357.767 33.6685 358.421 34.7248C360.25 37.6722 362.095 40.6093 363.94 43.5464C365.079 45.3654 366.228 47.1792 367.372 48.9981C367.521 49.23 367.645 49.4773 367.83 49.7968C367.598 49.8122 367.444 49.8277 367.294 49.8277C364.574 49.8277 361.853 49.8277 359.132 49.8329C358.802 49.8329 358.591 49.771 358.4 49.4412C357.324 47.5811 356.211 45.7467 355.103 43.902C353.541 41.305 351.97 38.7079 350.408 36.1109C349.677 34.8897 348.961 33.653 348.234 32.4267C348.188 32.3494 348.141 32.2669 347.997 32.0299V49.7968H339.995V16.6024H347.981V31.7362C348.033 31.7568 348.079 31.7774 348.131 31.798C348.311 31.5764 348.512 31.3703 348.672 31.1333C351.047 27.6191 353.413 24.0997 355.793 20.5906C356.628 19.3591 357.478 18.1328 358.339 16.9218C358.457 16.757 358.699 16.5766 358.885 16.5715C361.544 16.5508 364.203 16.556 367.031 16.556C363.481 21.5645 359.998 26.4752 356.515 31.3806C356.484 31.4012 356.458 31.4167 356.427 31.4373C356.458 31.4682 356.484 31.5043 356.515 31.5352H356.504Z" fill="#0867B2"/>
<path d="M280.372 16.561C283.489 16.561 286.576 16.561 289.667 16.5765C289.812 16.5765 290.043 16.7465 290.085 16.8857C290.806 19.2405 291.491 21.6056 292.208 23.9605C293.552 28.4074 294.918 32.8439 296.263 37.2908C297.031 39.8414 297.773 42.3972 298.535 44.9479C299.014 46.5556 299.514 48.1581 300.024 49.8327H298.061C296.062 49.8327 294.063 49.8327 292.063 49.8327C291.734 49.8327 291.533 49.8224 291.435 49.3793C290.935 47.1481 290.368 44.9324 289.812 42.6549H287.673C285.406 42.6549 283.139 42.6652 280.871 42.6497C280.464 42.6497 280.284 42.7476 280.186 43.1856C279.727 45.2571 279.222 47.3233 278.707 49.3845C278.666 49.5545 278.429 49.807 278.285 49.807C275.693 49.8328 273.096 49.8276 270.401 49.8276C270.55 49.2453 270.664 48.7094 270.818 48.189C271.905 44.6078 273.003 41.0266 274.09 37.4454C275.342 33.3283 276.605 29.2112 277.842 25.0941C278.697 22.26 279.521 19.4208 280.366 16.5662L280.372 16.561ZM288.451 36.8219C287.348 32.2101 286.251 27.6087 285.153 23.0072C285.097 23.0072 285.04 23.0072 284.988 23.0072C283.891 27.6035 282.793 32.1998 281.691 36.827H288.451V36.8219Z" fill="#0867B2"/>
<path d="M85.7239 49.8276C89.0784 38.7027 92.4071 27.655 95.7513 16.561H101.419C102.553 16.561 103.687 16.5765 104.82 16.5507C105.207 16.5456 105.372 16.6538 105.485 17.0505C106.531 20.5802 107.613 24.0996 108.68 27.6293C109.958 31.8649 111.235 36.1005 112.513 40.3361C113.461 43.4793 114.41 46.6174 115.378 49.8327H114.678C112.266 49.8327 109.855 49.8327 107.443 49.8327C107.067 49.8327 106.902 49.776 106.799 49.3278C106.299 47.1017 105.722 44.8963 105.171 42.6549C102.105 42.6549 99.0594 42.6497 96.0089 42.6703C95.8646 42.6703 95.6276 42.8816 95.5864 43.0362C95.1432 44.8654 94.7413 46.7101 94.293 48.5394C93.9787 49.8327 93.9581 49.8224 92.5668 49.8224H85.7188L85.7239 49.8276ZM100.528 23.0948C100.456 23.1051 100.389 23.1154 100.317 23.1257C99.2294 27.6808 98.1422 32.2359 97.0498 36.8219H103.81C102.713 32.241 101.62 27.6653 100.528 23.0948Z" fill="#0867B2"/>
<path d="M164.681 36.7241H155.679V49.7967H147.805V16.5972H167.602C167.334 18.4779 167.066 20.3381 166.793 22.2343H155.72V30.8808H165.536C165.247 32.8594 164.969 34.7763 164.681 36.7241Z" fill="#0867B2"/>
<path d="M121.454 16.5767H141.225C140.957 18.4574 140.694 20.3021 140.421 22.2087H129.373V30.8809H139.143C138.86 32.8595 138.587 34.7609 138.308 36.6984H129.363V49.7814H121.454V16.5767Z" fill="#0867B2"/>
<path d="M182.839 49.807H175.001V16.6023H182.839V49.807Z" fill="#0867B2"/>
<path d="M57.3833 5.39001C54.8842 5.59097 52.6324 5.95166 50.5816 6.98738C49.4428 7.5645 48.3813 8.31681 47.3559 9.08457C45.8822 10.1924 44.7177 11.6043 43.749 13.1708C42.4865 15.2061 41.6363 17.4064 41.2962 19.7767C41.1262 20.9824 41.0592 22.2088 41.054 23.4249C41.054 24.2235 41.2035 25.0325 41.3529 25.8261C41.4405 26.295 41.4147 26.4856 40.8685 26.6144C39.3691 26.9648 37.9005 27.4286 36.4371 27.8408C35.7621 25.486 35.7209 23.1157 35.8652 20.7608C36.0249 18.1226 36.6793 15.5823 37.782 13.1501C39.0857 10.2852 40.8995 7.80152 43.2028 5.69918C45.2484 3.82871 47.5827 2.355 50.2106 1.40173C52.1068 0.711254 54.034 0.159903 56.0745 0.108375C56.5434 0.0980694 56.698 0.257807 56.7495 0.716407C56.9299 2.2571 57.1617 3.79264 57.3833 5.39516V5.39001Z" fill="#0867B2"/>
<path d="M50.9939 19.4054C49.6747 19.4981 48.3453 18.3645 48.335 16.7207C48.3247 15.3243 49.6593 13.9949 51.0145 14.1031C52.5243 14.2216 53.5754 15.0873 53.6373 16.7774C53.6939 18.3387 52.2872 19.5084 50.9939 19.4054Z" fill="#ED2E30"/>
<path d="M45.5992 19.4056C47.1089 19.4056 48.3611 20.5032 48.3095 21.9717C48.2529 23.5176 47.3872 24.6512 45.6301 24.6976C44.2388 24.7336 43.0124 23.6 42.9918 22.0387C42.9764 20.6681 44.2852 19.3129 45.594 19.4056H45.5992Z" fill="#ED2E30"/>
<path d="M54.1164 7.53345C55.4612 7.29127 56.8422 8.75982 56.7804 10.182C56.7237 11.4599 55.5695 12.8202 54.0751 12.7584C52.7045 12.7017 51.473 11.5217 51.5142 10.048C51.5503 8.83712 52.653 7.35311 54.1215 7.53861L54.1164 7.53345Z" fill="#ED2E30"/>
<path d="M356.504 31.5352C356.473 31.5043 356.447 31.4682 356.417 31.4373C356.447 31.4167 356.473 31.4012 356.504 31.3806C356.504 31.4321 356.504 31.4837 356.504 31.53V31.5352Z" fill="#FEFEFE"/>
<path d="M34.8193 32.6688C34.8193 32.6688 34.8193 32.6997 34.8193 32.71C34.8141 32.7203 34.7935 32.7255 34.7832 32.7306C34.7832 32.7049 34.7832 32.6791 34.7832 32.6482C34.7935 32.6533 34.809 32.6637 34.8193 32.6688Z" fill="#FEFEFE"/>
</svg>
