<svg width="351" height="64" viewBox="0 0 351 64" fill="none" xmlns="http://www.w3.org/2000/svg">
<path d="M18.018 6.33963C18.3073 7.59481 18.5132 8.80096 18.8614 9.95808C19.7586 12.9391 21.5433 15.3563 23.8576 17.3911C24.4851 17.9451 25.1618 18.5237 25.9217 18.8326C26.7945 19.1905 26.8533 19.8524 26.8288 20.5241C26.7847 21.7744 26.618 23.0198 26.4905 24.2701C26.4562 24.5888 26.2797 24.628 25.9904 24.5005C23.8723 23.564 21.9405 22.3579 20.1901 20.8232C17.9102 18.8179 16.1843 16.4252 14.934 13.6746C14.2084 12.0713 13.6445 10.4043 13.4386 8.64897C13.2817 7.28592 13.0807 5.91307 13.1101 4.55002C13.1444 3.0644 13.4239 1.58859 13.6102 0C14.9585 0.254958 16.1794 0.411856 17.3561 0.72565C19.6409 1.33363 21.7738 2.29953 23.7448 3.62335C26.5297 5.49631 28.7116 7.91841 30.3492 10.8406C31.6632 13.1892 32.4967 15.6995 32.8301 18.3521C33.2665 21.848 32.8792 25.2801 31.5946 28.5847C31.4082 29.0701 31.4818 29.3251 31.9133 29.5997C32.6585 30.0655 33.3597 30.595 34.0902 31.1049C36.375 29.2319 38.9001 27.8346 41.739 27.0207C43.5237 26.5058 45.3329 26.2362 47.2009 26.2068C49.7947 26.1675 52.305 26.5206 54.7418 27.3982C57.1247 28.2562 59.2869 29.482 61.2286 31.1196C63.7389 33.2377 65.5923 35.8265 66.9651 38.7831C67.1171 39.1116 67.0926 39.2685 66.7494 39.4646C64.5724 40.71 62.2484 41.5925 59.7822 41.9504C58.0024 42.2103 56.1637 42.3133 54.3692 42.1907C51.2411 41.9799 48.2796 41.0238 45.5927 39.391C44.3523 38.636 43.2099 37.7093 42.0822 36.7973C41.4105 36.2531 40.8368 35.5863 40.2288 34.9636C40.1013 34.8361 40.018 34.6645 39.9052 34.5027C41.4006 33.5858 42.9941 33.0171 44.6514 32.6199C44.7788 32.5905 44.9897 32.6837 45.0926 32.7866C47.3431 35.0077 50.0643 36.3561 53.1238 37.0033C54.6585 37.3269 56.2275 37.4494 57.8013 37.1847C58.4436 37.0768 59.0957 37.0278 59.7871 36.8562C57.8896 34.439 55.4086 32.821 52.5257 31.9139C46.4557 30.0066 40.9447 31.8894 37.4439 34.8704C40.4053 39.0576 41.685 43.7695 41.2732 48.8392C40.8123 54.5463 38.3117 59.317 33.8647 63.2002C33.2567 62.5922 32.5605 62.0039 32.0015 61.3076C31.1386 60.2339 30.3198 59.116 29.5843 57.954C28.3291 55.9682 27.4466 53.8109 27.0887 51.4819C26.8435 49.8836 26.6229 48.2606 26.6327 46.6475C26.6474 44.0244 27.1818 41.4601 28.2654 39.0576C28.8538 37.7583 29.5941 36.5277 30.31 35.2921C30.5453 34.8901 30.4669 34.6498 30.1384 34.4145C29.7314 34.1252 29.3195 33.8457 28.9126 33.5564C27.0641 35.9932 24.8284 37.9741 22.1415 39.4695C20.2195 40.5433 18.1847 41.3228 16.047 41.7004C14.3211 42.0044 12.5315 42.1515 10.7811 42.0681C7.653 41.921 4.67685 41.063 1.90173 39.5823C0.803445 38.9988 0.77893 38.9939 1.36239 37.8858C2.31849 36.0619 3.45109 34.3654 4.84846 32.8308C6.63807 30.8647 8.73167 29.33 11.09 28.1729C12.9826 27.2462 14.9781 26.55 17.0914 26.3539C18.7339 26.2019 20.396 26.0499 22.0385 26.143C23.4555 26.2215 24.8578 26.6284 26.26 26.9324C26.6768 27.0256 26.8827 27.055 27.0543 26.5598C27.78 24.4368 28.182 22.2598 28.0104 20.0289C27.7751 16.9743 26.7504 14.1747 24.9558 11.6741C23.2545 9.30597 21.0481 7.56539 18.4103 6.35434C18.3612 6.32983 18.2975 6.34454 18.018 6.33473V6.33963ZM8.19723 36.6502C13.8112 38.2339 20.5137 35.9344 24.088 31.5413C19.3124 30.1488 12.3746 31.605 8.19723 36.6502ZM33.9186 55.5319C35.4533 53.2372 36.1789 50.7759 36.3554 48.1822C36.5859 44.8334 35.7867 41.6955 33.9823 38.7291C30.8787 44.3333 30.7758 49.8541 33.9137 55.5319H33.9186ZM34.1147 31.0853C34.1147 31.0853 34.0902 31.0706 34.0804 31.0657C34.0804 31.0902 34.0804 31.1147 34.0804 31.1441C34.0951 31.1392 34.1098 31.1343 34.1147 31.1245C34.1196 31.1147 34.1147 31.1 34.1147 31.0853Z" fill="#0867B2"/>
<path d="M200.838 38.2437C200.705 37.116 200.563 35.9883 200.44 34.8557C200.377 34.2771 200.318 33.6986 200.308 33.12C200.259 30.2861 200.21 27.4521 200.19 24.6132C200.171 21.8675 200.19 19.1218 200.19 16.3761V15.778H206.971V47.3732C206.824 47.383 206.658 47.4026 206.486 47.4026C203.623 47.4026 200.759 47.4026 197.896 47.4124C197.513 47.4124 197.361 47.3143 197.219 46.9172C195.635 42.5878 194.017 38.2731 192.409 33.9486C191.272 30.894 190.139 27.8443 188.997 24.7897C188.943 24.6378 188.83 24.5103 188.634 24.4073C188.678 24.9172 188.722 25.4222 188.771 25.9322C188.889 27.2805 189.007 28.6239 189.124 29.9723C189.619 35.7529 189.208 41.5434 189.394 47.3633H182.682V15.7583H183.849C186.379 15.7583 188.908 15.7681 191.438 15.7485C191.865 15.7485 192.042 15.8907 192.189 16.2781C193.488 19.72 194.812 23.1472 196.121 26.5843C197.244 29.5408 198.357 32.5022 199.475 35.4588C199.798 36.3119 200.107 37.1748 200.436 38.028C200.48 38.1407 200.602 38.2192 200.686 38.3172C200.735 38.2927 200.789 38.2731 200.838 38.2486V38.2437Z" fill="#0867B2"/>
<path d="M292.226 15.7781H301.547C304.43 23.3337 307.308 30.8893 310.191 38.4448C310.255 38.435 310.323 38.4301 310.387 38.4203C310.362 37.9594 310.358 37.4937 310.309 37.0328C310.21 36.1747 310.039 35.3216 309.975 34.4587C309.534 28.3446 309.803 22.2158 309.735 16.0968C309.735 16.0036 309.745 15.9105 309.75 15.783H316.53V47.3684C316.398 47.3831 316.246 47.4076 316.099 47.4076C313.196 47.4076 310.294 47.4174 307.391 47.3978C307.195 47.3978 306.876 47.2507 306.818 47.0938C305.557 43.7597 304.337 40.4159 303.096 37.0769C301.64 33.1692 300.164 29.2614 298.703 25.3537C298.59 25.0546 298.497 24.7556 298.394 24.4516C298.335 24.4614 298.281 24.4663 298.222 24.4761C298.257 25.0056 298.272 25.54 298.325 26.0696C298.428 27.0257 298.595 27.9768 298.664 28.9378C299.1 34.9735 298.835 41.0238 298.904 47.0644C298.904 47.1576 298.894 47.2507 298.889 47.3733H292.226V15.7781Z" fill="#0867B2"/>
<path d="M247.662 30.6733C249.481 31.0116 251.134 31.7078 252.477 32.9581C253.355 33.7769 253.943 34.8458 254.174 36.0323C254.531 37.8661 254.487 39.69 253.855 41.4845C253.281 43.1172 252.261 44.3822 250.81 45.2746C249.089 46.3336 247.182 46.8631 245.176 47.0495C244.059 47.1524 242.936 47.2603 241.818 47.2799C238.082 47.3436 234.346 47.3633 230.605 47.4025C230.57 47.4025 230.531 47.3878 230.458 47.3682V15.7582H231.08C233.747 15.7582 236.415 15.7435 239.082 15.7582C241.671 15.7779 244.255 15.9053 246.78 16.582C248.829 17.1311 250.697 17.994 251.943 19.8131C252.649 20.8427 253.021 22.0096 253.016 23.2746C253.016 24.3729 253.041 25.4565 252.595 26.5204C251.962 28.0306 250.898 29.0945 249.511 29.8643C248.932 30.1879 248.295 30.4036 247.667 30.6782L247.662 30.6733ZM237.979 41.9797C239.808 41.862 241.617 41.8375 243.397 41.5973C244.564 41.4404 245.598 40.8765 246.186 39.7047C246.574 38.9349 246.564 38.1357 246.539 37.3316C246.481 35.3655 245.338 34.2819 243.676 33.7573C242.24 33.3062 240.759 33.4239 239.288 33.4092C238.847 33.4092 238.405 33.4092 237.979 33.4092V41.9797ZM237.979 28.2316C239.391 28.2316 240.744 28.3346 242.073 28.2071C244.073 28.0208 245 27.1627 245.319 25.3143C245.583 23.7796 245.216 22.1665 243.25 21.588C242.666 21.4164 242.063 21.2595 241.46 21.23C240.298 21.1761 239.136 21.2153 237.979 21.2153V28.2316Z" fill="#0867B2"/>
<path d="M340.206 30.0066C340.814 31.0166 341.408 32.0365 342.03 33.0416C343.771 35.8461 345.526 38.6409 347.282 41.4356C348.365 43.1664 349.458 44.8923 350.547 46.623C350.689 46.8437 350.807 47.079 350.983 47.383C350.763 47.3977 350.616 47.4124 350.473 47.4124C347.885 47.4124 345.296 47.4124 342.707 47.4173C342.393 47.4173 342.192 47.3585 342.011 47.0447C340.986 45.2747 339.927 43.5292 338.873 41.7739C337.387 39.3028 335.892 36.8317 334.406 34.3605C333.71 33.1985 333.028 32.0218 332.337 30.8548C332.293 30.7813 332.249 30.7029 332.112 30.4773V47.383H324.497V15.7976H332.097V30.1978C332.146 30.2175 332.19 30.2371 332.239 30.2567C332.411 30.0458 332.602 29.8497 332.754 29.6242C335.014 26.2803 337.265 22.9315 339.53 19.5926C340.324 18.4207 341.133 17.2538 341.952 16.1016C342.065 15.9447 342.295 15.7731 342.472 15.7682C345.002 15.7486 347.532 15.7535 350.223 15.7535C346.845 20.5192 343.531 25.1918 340.216 29.8595C340.187 29.8791 340.162 29.8939 340.133 29.9135C340.162 29.9429 340.187 29.9772 340.216 30.0066H340.206Z" fill="#0867B2"/>
<path d="M267.765 15.7583C270.731 15.7583 273.668 15.7583 276.61 15.773C276.747 15.773 276.968 15.9348 277.007 16.0672C277.693 18.3079 278.346 20.5584 279.027 22.7991C280.307 27.0304 281.606 31.2519 282.886 35.4832C283.616 37.9102 284.322 40.3422 285.048 42.7692C285.504 44.2989 285.98 45.8238 286.465 47.4172H284.597C282.694 47.4172 280.792 47.4172 278.89 47.4172C278.576 47.4172 278.385 47.4074 278.292 46.9858C277.816 44.8628 277.277 42.7545 276.747 40.5873H274.712C272.555 40.5873 270.398 40.5971 268.24 40.5824C267.853 40.5824 267.681 40.6756 267.588 41.0923C267.152 43.0633 266.671 45.0295 266.181 46.9907C266.142 47.1525 265.916 47.3927 265.779 47.3927C263.313 47.4173 260.842 47.4123 258.277 47.4123C258.42 46.8583 258.527 46.3484 258.674 45.8532C259.709 42.4456 260.753 39.0379 261.788 35.6303C262.979 31.7128 264.181 27.7953 265.357 23.8777C266.171 21.1811 266.956 18.4795 267.76 15.7632L267.765 15.7583ZM275.453 35.0371C274.403 30.6488 273.359 26.2704 272.315 21.892C272.261 21.892 272.207 21.892 272.158 21.892C271.114 26.2655 270.069 30.639 269.02 35.042H275.453V35.0371Z" fill="#0867B2"/>
<path d="M82.5523 47.4123C85.7442 36.8266 88.9115 26.3145 92.0936 15.7583H97.4869C98.5656 15.7583 99.6443 15.773 100.723 15.7485C101.091 15.7436 101.248 15.8465 101.355 16.2241C102.351 19.5826 103.38 22.9314 104.395 26.29C105.611 30.3203 106.827 34.3506 108.043 38.3809C108.945 41.3718 109.848 44.3577 110.769 47.4172H110.102C107.808 47.4172 105.513 47.4172 103.219 47.4172C102.861 47.4172 102.704 47.3633 102.606 46.9367C102.13 44.8186 101.581 42.7201 101.056 40.5873C98.139 40.5873 95.2413 40.5824 92.3387 40.602C92.2015 40.602 91.9759 40.803 91.9367 40.9501C91.515 42.6907 91.1326 44.446 90.706 46.1865C90.4069 47.4172 90.3873 47.4074 89.0635 47.4074H82.5474L82.5523 47.4123ZM96.6387 21.9753C96.5701 21.9851 96.5063 21.9949 96.4377 22.0047C95.4031 26.339 94.3686 30.6733 93.3292 35.037H99.7619C98.7176 30.6782 97.6782 26.3243 96.6387 21.9753Z" fill="#0867B2"/>
<path d="M157.681 34.944H149.116V47.383H141.624V15.7927H160.462C160.207 17.5823 159.952 19.3523 159.692 21.1567H149.155V29.384H158.495C158.221 31.2667 157.956 33.0907 157.681 34.944Z" fill="#0867B2"/>
<path d="M116.55 15.7729H135.363C135.108 17.5626 134.858 19.3178 134.598 21.132H124.086V29.3838H133.382C133.112 31.2666 132.852 33.0758 132.588 34.9193H124.076V47.3682H116.55V15.7729Z" fill="#0867B2"/>
<path d="M174.959 47.3926H167.502V15.7974H174.959V47.3926Z" fill="#0867B2"/>
<path d="M55.5845 5.12884C53.2066 5.32006 51.0639 5.66328 49.1125 6.64879C48.0289 7.19793 47.0189 7.91377 46.0432 8.64433C44.6409 9.69848 43.5329 11.0419 42.6111 12.5324C41.4098 14.4691 40.6008 16.5627 40.2772 18.8181C40.1154 19.9655 40.0517 21.1324 40.0468 22.2895C40.0468 23.0495 40.189 23.8192 40.3312 24.5743C40.4145 25.0205 40.39 25.2019 39.8703 25.3245C38.4435 25.6579 37.0461 26.0992 35.6537 26.4914C35.0114 24.2507 34.9721 21.9953 35.1094 19.7546C35.2614 17.2443 35.8841 14.8271 36.9334 12.5128C38.1738 9.78673 39.8997 7.42347 42.0914 5.42303C44.0379 3.64322 46.2589 2.24095 48.7595 1.33389C50.5638 0.676882 52.3976 0.152256 54.3392 0.103226C54.7853 0.0934195 54.9324 0.245414 54.9815 0.681785C55.1531 2.14779 55.3737 3.6089 55.5845 5.13375V5.12884Z" fill="#0867B2"/>
<path d="M49.5056 18.4644C48.2504 18.5527 46.9854 17.474 46.9756 15.91C46.9658 14.5812 48.2357 13.3163 49.5252 13.4192C50.9618 13.532 51.962 14.3557 52.0209 15.9639C52.0748 17.4495 50.7363 18.5625 49.5056 18.4644Z" fill="#ED2E30"/>
<path d="M44.3722 18.465C45.8088 18.465 47.0002 19.5093 46.9512 20.9067C46.8972 22.3776 46.0735 23.4563 44.4016 23.5004C43.0778 23.5347 41.9109 22.4561 41.8912 20.9704C41.8765 19.6662 43.1219 18.3767 44.3673 18.465H44.3722Z" fill="#ED2E30"/>
<path d="M52.4765 7.16841C53.7562 6.93796 55.0702 8.33533 55.0114 9.68857C54.9574 10.9045 53.8592 12.1989 52.4373 12.1401C51.1331 12.0862 49.9612 10.9634 50.0005 9.56109C50.0348 8.40888 51.084 6.9968 52.4814 7.17331L52.4765 7.16841Z" fill="#ED2E30"/>
<path d="M340.206 30.0067C340.177 29.9773 340.152 29.943 340.123 29.9136C340.152 29.8939 340.177 29.8792 340.206 29.8596C340.206 29.9086 340.206 29.9577 340.206 30.0018V30.0067Z" fill="#FEFEFE"/>
<path d="M34.1146 31.0849C34.1146 31.0849 34.1146 31.114 34.1146 31.1238C34.1097 31.1335 34.0903 31.1383 34.0806 31.1432C34.0806 31.1189 34.0806 31.0946 34.0806 31.0654C34.0903 31.0703 34.1049 31.08 34.1146 31.0849Z" fill="#FEFEFE"/>
</svg>
