<svg width="351" height="114" viewBox="0 0 351 114" fill="none" xmlns="http://www.w3.org/2000/svg">
<path d="M193.364 74.7951C193.364 63.3869 183.354 61.4507 176.678 61.4507H158.217V113.491H176.678C183.204 113.491 194.924 111.551 194.924 98.4311C194.924 92.0191 190.099 87.2482 183.058 86.5758V86.4259C189.212 85.3099 193.364 80.9833 193.364 74.7951ZM168.6 90.2286H173.863C179.053 90.2286 184.543 91.2749 184.543 98.0573C184.543 104.094 178.68 105.29 173.863 105.29H168.6V90.2286ZM182.982 76.1378C182.982 81.5064 177.569 82.4753 173.196 82.4753H168.6V69.6525H172.97C177.719 69.6525 182.982 70.0996 182.982 76.1378Z" fill="#231F20"/>
<path d="M296.165 15.4799C296.165 1.01662 282.894 1.38908 271.768 1.38908H260.57V53.4298H270.953V31.8075H274.291C278.664 31.8075 280.003 33.2995 281.484 37.1761L287.714 53.4291H299.283L290.978 33.072C289.942 30.7627 288.308 27.9301 285.49 27.7069V27.557C292.091 26.6649 296.165 21.5948 296.165 15.4799ZM285.337 16.3762C285.337 22.8579 279.484 23.6078 274.364 23.6078H270.953V9.59092H274.364C279.554 9.59092 285.337 10.1112 285.337 16.3762Z" fill="#231F20"/>
<path d="M350.983 27.2622C350.983 11.5274 341.859 0.49585 325.62 0.49585C309.158 0.49585 300.256 11.3049 300.256 27.2622C300.256 43.216 309.008 54.3264 325.62 54.3264C342.011 54.3271 350.983 42.9928 350.983 27.2622ZM340.158 27.2622C340.158 36.6539 336.223 46.126 325.62 46.126C315.013 46.126 311.082 36.6539 311.082 27.2622C311.082 18.0908 315.312 8.69488 325.62 8.69488C335.926 8.69558 340.158 18.0908 340.158 27.2622Z" fill="#231F20"/>
<path d="M207.908 53.4307L187.589 1.38989H175.873L155.698 53.4307H166.456L170.977 41.5028H191.963L196.411 53.4307H207.908ZM189.071 33.301H173.943L181.433 11.8286H181.583L189.071 33.301Z" fill="#231F20"/>
<path d="M251.209 2.65551C246.758 1.31283 242.011 0.496094 236.001 0.496094C218.429 0.496094 207.6 10.4849 207.6 28.3059C207.6 45.8988 219.243 54.3273 236.001 54.3273C241.566 54.3273 247.277 53.1332 252.765 51.642V23.609H231.852V31.8087H242.825V45.3785C241.048 45.8249 238.821 46.122 236.002 46.122C224.956 46.122 218.43 38.1461 218.43 27.5582C218.43 16.8998 225.102 8.69442 237.19 8.69442C241.348 8.69442 246.538 9.59071 250.541 11.4537L251.209 2.65551Z" fill="#231F20"/>
<path d="M249.938 113.491L229.613 61.45H217.9L197.727 113.491H208.479L213.005 101.562H233.991L238.441 113.491H249.938ZM231.098 93.3624H215.968L223.462 71.8887H223.607L231.098 93.3624Z" fill="#231F20"/>
<path d="M255.361 113.491H265.299V74.5712H265.443L285.247 113.491H297.927V61.4507H287.993V100.367H287.841L268.115 61.4507H255.361V113.491Z" fill="#231F20"/>
<path d="M142.878 1.36987H140.552V113.491H142.878V1.36987Z" fill="#231F20"/>
<path d="M307.077 113.491H317.46V89.3369H317.61L336.224 113.491H349.793L327.619 85.977L348.904 61.4475H336.148L317.46 83.8169V61.4475H307.077V113.491Z" fill="#231F20"/>
<path d="M130.77 113.491H73.7238C78.7717 110.702 82.1921 105.304 82.1921 99.1092C82.1921 90.047 74.8849 82.6985 65.8724 82.6985C56.8613 82.6985 49.5575 90.047 49.5575 99.1092C49.5575 105.304 52.9779 110.702 58.0259 113.491H0.983398L65.8731 0.48999L130.77 113.491Z" fill="#E31B23"/>
</svg>
