<svg width="243" height="99" viewBox="0 0 243 99" fill="none" xmlns="http://www.w3.org/2000/svg">
<path d="M242.463 98.9395H0V54.843H242.463V98.9395Z" fill="#ED1C24"/>
<path d="M19.321 79.3991L21.8539 72.0268L24.3869 79.3991H19.321ZM25.0156 66.6565H18.8662L11.2148 87.3567H16.6032L18.0491 83.1623H25.6588L27.1065 87.3567H32.667L25.0156 66.6565Z" fill="#FFF200"/>
<path d="M49.004 76.2481V87.3564H44.0052V79.5275C44.0052 78.7647 43.9852 78.1161 43.949 77.5816C43.9128 77.0453 43.8113 76.6104 43.6446 76.2753C43.4779 75.9419 43.2261 75.6973 42.8891 75.5433C42.5503 75.3911 42.0774 75.3132 41.4668 75.3132C40.9776 75.3132 40.4993 75.4128 40.0372 75.6121C39.5752 75.8132 39.1585 76.0252 38.7907 76.2481V87.3564H33.79V71.7638H38.7907V73.4397C39.6477 72.7621 40.4685 72.2331 41.253 71.8526C42.0375 71.4721 42.9054 71.28 43.8548 71.28C44.8803 71.28 45.7844 71.5101 46.5689 71.9703C47.3534 72.4305 47.9677 73.1064 48.4097 73.9978C49.4062 73.1535 50.3756 72.4885 51.3159 72.0066C52.2581 71.5228 53.1803 71.28 54.0844 71.28C55.764 71.28 57.0395 71.7873 57.911 72.8002C58.7825 73.8112 59.2191 75.2697 59.2191 77.1721V87.3564H54.2203V79.5275C54.2203 78.7557 54.2022 78.1052 54.1696 77.5725C54.1388 77.0435 54.0391 76.6104 53.8724 76.2753C53.7148 75.9419 53.4666 75.6973 53.1241 75.5433C52.7817 75.3911 52.2997 75.3132 51.6819 75.3132C51.2652 75.3132 50.8575 75.3857 50.4607 75.5306C50.0639 75.6737 49.5766 75.9129 49.004 76.2481Z" fill="#FFF200"/>
<path d="M73.2496 73.6753C73.101 74.0177 72.7876 74.2931 72.3092 74.5087C71.9668 74.6664 71.4994 74.7606 70.9087 74.7859C70.318 74.8167 69.6042 74.8294 68.7653 74.8294H67.9337V70.4212H68.4319C69.4755 70.4212 70.2854 70.4285 70.8616 70.443C71.4378 70.4556 71.9197 70.539 72.3092 70.6876C72.7405 70.8561 73.043 71.1115 73.2134 71.4558C73.3855 71.8018 73.4706 72.1479 73.4706 72.4921C73.4706 72.9397 73.3982 73.3328 73.2496 73.6753ZM79.1091 77.6722C78.3137 76.8279 77.2411 76.2716 75.8858 76.0017V75.893C76.8443 75.4672 77.5871 74.8729 78.1126 74.1101C78.638 73.3437 78.9007 72.4632 78.9007 71.463C78.9007 70.6024 78.7087 69.836 78.3264 69.1638C77.9422 68.4934 77.357 67.9589 76.5707 67.5603C75.8133 67.1798 75.0487 66.9371 74.2769 66.8247C73.5051 66.7142 72.2875 66.658 70.6242 66.658H62.6123V87.3564H71.6352C73.1336 87.3564 74.3729 87.2278 75.3495 86.9669C76.3243 86.7078 77.2211 86.2712 78.0346 85.6569C78.7395 85.1388 79.2902 84.4865 79.6943 83.6965C80.0965 82.9102 80.2994 82.0133 80.2994 81.0096C80.2994 79.6308 79.9008 78.5165 79.1091 77.6722ZM74.4508 82.2779C74.2425 82.6674 73.862 82.9791 73.3094 83.2128C72.7658 83.4483 72.1715 83.5697 71.5265 83.5788C70.8815 83.5878 69.8125 83.5915 68.3214 83.5915H67.9337V78.3788H69.0951C69.8868 78.3788 70.646 78.3824 71.3762 78.3933C72.1027 78.4005 72.6734 78.4658 73.0883 78.589C73.6971 78.7665 74.1265 79.0365 74.3802 79.3971C74.6338 79.7576 74.7607 80.2704 74.7607 80.9353C74.7607 81.4426 74.6574 81.8901 74.4508 82.2779Z" fill="#FFF200"/>
<path d="M90.4952 84.1442C89.9951 84.3489 89.5023 84.4522 89.0149 84.4522C88.4043 84.4522 87.9532 84.4087 87.6651 84.3181C87.377 84.2293 87.1288 84.0916 86.9222 83.905C86.7066 83.7184 86.5707 83.5227 86.5164 83.3162C86.462 83.1096 86.4367 82.8415 86.4367 82.5153C86.4367 82.0189 86.5635 81.6185 86.8208 81.3159C87.0781 81.0097 87.4495 80.7778 87.9351 80.6202C88.33 80.4879 88.9116 80.3756 89.678 80.2759C90.4426 80.1781 91.1547 80.1002 91.8124 80.044V83.3289C91.4337 83.6659 90.9952 83.9395 90.4952 84.1442ZM91.8124 87.3566H96.813V76.7229C96.813 74.8477 96.1825 73.4725 94.9251 72.5974C93.6677 71.7186 91.624 71.2802 88.7957 71.2802C87.6053 71.2802 86.4204 71.3762 85.2372 71.5628C84.0523 71.753 83.1971 71.9161 82.6735 72.0538V75.7971H83.1264C83.5269 75.6376 84.1918 75.4075 85.1158 75.1122C86.0399 74.8169 86.9077 74.6683 87.7231 74.6683C89.0765 74.6683 90.102 74.8368 90.7978 75.1738C91.4935 75.5108 91.8396 76.1196 91.8396 77.0019V77.0871C90.3847 77.1704 88.9805 77.3027 87.627 77.4784C86.2736 77.6578 85.1376 77.955 84.2244 78.3753C83.3004 78.7938 82.5865 79.37 82.0828 80.0965C81.5791 80.8249 81.3291 81.7634 81.3291 82.9103C81.3291 84.3489 81.8219 85.5284 82.8112 86.4543C83.7986 87.3765 85.0234 87.8403 86.4874 87.8403C87.1107 87.8403 87.6832 87.7769 88.2032 87.6537C88.725 87.5287 89.2269 87.3529 89.7125 87.1192C90.0603 86.9543 90.4299 86.7261 90.8231 86.4398C91.2163 86.1517 91.546 85.9071 91.8124 85.7024V87.3566Z" fill="#FFF200"/>
<path d="M115.549 87.356H110.548V79.5832C110.548 78.9509 110.518 78.3221 110.451 77.6934C110.385 77.0647 110.275 76.6009 110.117 76.3038C109.932 75.9595 109.661 75.7095 109.304 75.5518C108.947 75.3924 108.448 75.3127 107.809 75.3127C107.354 75.3127 106.894 75.387 106.426 75.5374C105.959 75.6859 105.45 75.9233 104.904 76.2476V87.356H99.9038V71.7651H104.904V73.4411C105.79 72.7435 106.642 72.209 107.461 71.8376C108.28 71.4662 109.188 71.2814 110.186 71.2814C111.867 71.2814 113.181 71.7724 114.129 72.758C115.074 73.7418 115.549 75.213 115.549 77.1734V87.356Z" fill="#FFF200"/>
<path d="M135.176 87.356H129.394L124.989 80.5362L123.616 82.2158V87.356H118.617V65.7426H123.616V78.5812L128.974 71.7651H134.801L129.16 78.4852L135.176 87.356Z" fill="#FFF200"/>
<path d="M162.858 86.1738C161.934 86.5344 160.709 86.895 159.185 87.2519C157.658 87.607 156.139 87.7864 154.625 87.7864C151.112 87.7864 148.363 86.8297 146.375 84.9128C144.388 82.9977 143.395 80.3488 143.395 76.9733C143.395 73.7519 144.397 71.1574 146.401 69.1861C148.403 67.2148 151.195 66.2273 154.775 66.2273C156.132 66.2273 157.424 66.3506 158.652 66.5951C159.881 66.8416 161.245 67.3271 162.751 68.0573V72.8949H162.155C161.897 72.7047 161.519 72.4365 161.021 72.0904C160.522 71.7444 160.044 71.4509 159.584 71.2063C159.049 70.9182 158.422 70.67 157.709 70.4634C156.995 70.2569 156.235 70.1518 155.433 70.1518C154.493 70.1518 153.639 70.2913 152.876 70.5703C152.11 70.8493 151.421 71.2751 150.814 71.8495C150.233 72.4057 149.774 73.1123 149.439 73.9711C149.1 74.8299 148.934 75.8192 148.934 76.9425C148.934 79.2327 149.537 80.9866 150.742 82.2005C151.949 83.4144 153.73 84.0232 156.087 84.0232C156.29 84.0232 156.515 84.0196 156.757 84.0087C157 83.9996 157.225 83.987 157.428 83.967V79.8832H153.342V75.9587H162.858V86.1738Z" fill="#FFF200"/>
<path d="M177.12 76.604H176.676C176.464 76.5316 176.121 76.4772 175.652 76.4428C175.179 76.4065 174.788 76.3884 174.474 76.3884C173.762 76.3884 173.134 76.4337 172.588 76.5261C172.043 76.6203 171.458 76.7744 170.829 76.9954V87.3555H165.83V71.7646H170.829V74.0566C171.929 73.1126 172.884 72.4948 173.697 72.2031C174.511 71.9114 175.257 71.7646 175.942 71.7646C176.116 71.7646 176.315 71.7701 176.536 71.7791C176.759 71.79 176.953 71.8027 177.12 71.8208V76.604Z" fill="#FFF200"/>
<path d="M187.144 84.1168C186.733 84.2708 186.302 84.3451 185.847 84.3451C185.318 84.3451 184.847 84.2617 184.437 84.0968C184.024 83.9301 183.669 83.6674 183.374 83.3069C183.068 82.9282 182.837 82.4281 182.68 81.8049C182.522 81.1816 182.446 80.4442 182.446 79.5944C182.446 78.6432 182.535 77.8551 182.716 77.2282C182.895 76.5995 183.138 76.1048 183.444 75.7443C183.787 75.3584 184.146 75.0993 184.521 74.9688C184.896 74.842 185.323 74.7749 185.805 74.7749C186.285 74.7749 186.735 74.8547 187.151 75.0123C187.568 75.1681 187.923 75.4363 188.222 75.8149C188.518 76.1846 188.749 76.6792 188.914 77.297C189.081 77.9149 189.166 78.6813 189.166 79.5944C189.166 80.5819 189.083 81.3573 188.922 81.9154C188.76 82.4752 188.518 82.9518 188.193 83.3485C187.905 83.7091 187.557 83.9646 187.144 84.1168ZM192.101 73.5012C190.619 72.0228 188.521 71.2817 185.805 71.2817C183.126 71.2817 181.035 72.0173 179.536 73.4885C178.034 74.9597 177.284 76.9854 177.284 79.5672C177.284 82.131 178.031 84.1512 179.522 85.626C181.013 87.1027 183.107 87.8401 185.805 87.8401C188.503 87.8401 190.598 87.1027 192.089 85.626C193.582 84.1512 194.326 82.131 194.326 79.5672C194.326 77.0053 193.585 74.9815 192.101 73.5012Z" fill="#FFF200"/>
<path d="M211.925 87.3563H206.926V85.6804C206.002 86.387 205.156 86.9233 204.39 87.2893C203.623 87.6571 202.707 87.8401 201.645 87.8401C199.927 87.8401 198.603 87.3436 197.673 86.3508C196.746 85.3561 196.282 83.8885 196.282 81.948V71.7655H201.281V79.5383C201.281 80.33 201.306 80.9877 201.357 81.5132C201.407 82.0386 201.525 82.4734 201.712 82.8177C201.888 83.1619 202.156 83.4138 202.511 83.5714C202.868 83.729 203.366 83.8088 204.006 83.8088C204.433 83.8088 204.904 83.729 205.424 83.5714C205.942 83.4138 206.443 83.18 206.926 82.872V71.7655H211.925V87.3563Z" fill="#FFF200"/>
<path d="M225.255 82.9654C224.607 83.7427 223.619 84.1304 222.295 84.1304C221.923 84.1304 221.548 84.1123 221.17 84.0743C220.789 84.038 220.432 83.9529 220.099 83.8224V75.9355C220.554 75.6673 221.03 75.459 221.53 75.3158C222.03 75.1709 222.518 75.1002 222.991 75.1002C224.11 75.1002 224.931 75.4427 225.449 76.1312C225.969 76.8197 226.228 77.9285 226.228 79.4541C226.228 81.0177 225.904 82.1881 225.255 82.9654ZM229.769 73.4279C228.689 71.9966 227.176 71.2809 225.23 71.2809C224.181 71.2809 223.257 71.482 222.454 71.877C221.654 72.2756 220.867 72.7793 220.099 73.3899V71.7646H215.1V93.0537H220.099V86.5963C220.748 86.9388 221.384 87.2033 222.003 87.3935C222.625 87.5838 223.38 87.6798 224.272 87.6798C225.236 87.6798 226.14 87.4932 226.982 87.1218C227.825 86.7485 228.58 86.2014 229.247 85.4748C229.886 84.7881 230.405 83.9148 230.798 82.8531C231.191 81.795 231.388 80.6191 231.388 79.3272C231.388 76.8269 230.849 74.8611 229.769 73.4279Z" fill="#FFF200"/>
<path d="M112.367 27.5205C110.791 29.3468 108.468 30.501 105.864 30.501C101.132 30.501 97.2979 26.669 97.2979 21.9364C97.2979 17.2057 101.132 13.3719 105.864 13.3719C110.597 13.3719 114.434 17.2057 114.434 21.9364V43.7582H127.702L127.691 22.027C127.691 9.96926 117.92 0.199852 105.864 0.199852C93.8137 0.199852 84.0425 9.96926 84.0425 22.027C84.0425 34.0812 93.8137 43.8506 105.864 43.8506C108.124 43.8506 110.305 43.5082 112.356 42.8668L112.367 27.5205Z" fill="#ED1C24"/>
<path d="M127.502 43.5591H114.634V21.936C114.633 17.0953 110.705 13.1727 105.863 13.1727C101.021 13.1729 97.0987 17.0956 97.0984 21.936C97.0984 26.7785 101.021 30.7005 105.863 30.7007C108.34 30.7007 110.568 29.6777 112.165 28.0325L112.156 42.7183C110.165 43.326 108.051 43.6511 105.863 43.6511C93.9229 43.6509 84.2415 33.9705 84.2415 22.0266C84.2418 10.0793 93.9231 0.399464 105.863 0.399216C117.809 0.399216 127.492 10.0792 127.492 22.0266L127.502 43.5591ZM127.89 22.0266C127.889 9.859 118.029 4.57764e-05 105.863 4.57764e-05C93.7029 0.000293732 83.8426 9.85918 83.8423 22.0266C83.8423 34.1906 93.7028 44.05 105.863 44.0503C108.143 44.0503 110.345 43.704 112.415 43.0566L112.554 43.0127L112.566 26.9837L112.216 27.3899C110.676 29.1743 108.406 30.3016 105.863 30.3016C101.241 30.3013 97.4962 26.5582 97.4962 21.936C97.4965 17.3158 101.241 13.5721 105.863 13.5718C110.486 13.5718 114.234 17.3158 114.234 21.936V43.9583H127.901L127.89 22.0266Z" fill="#ED1C24"/>
<path d="M133.822 43.6669C134.768 43.792 135.737 43.8572 136.712 43.8572C148.766 43.8572 158.535 34.086 158.535 22.0354C158.535 9.97948 148.766 0.206444 136.712 0.206444C131.441 0.206444 126.596 2.08169 122.82 5.19986L122.846 5.24878C126.132 8.58981 128.437 12.8947 129.298 17.6979L129.33 17.6852C130.821 15.1559 133.57 13.4673 136.712 13.4673C141.448 13.4673 145.282 17.3011 145.282 22.0354C145.282 26.7607 141.448 30.6018 136.712 30.6018C135.695 30.6018 134.719 30.4224 133.805 30.0927L133.822 43.6669Z" fill="#ED1C24"/>
<path d="M158.337 22.0363C158.336 33.9764 148.656 43.6578 136.712 43.658C135.805 43.658 134.902 43.6005 134.02 43.4909L134.004 30.3721C134.861 30.6511 135.77 30.801 136.712 30.801C141.558 30.8008 145.481 26.8712 145.481 22.0363C145.481 17.1919 141.558 13.2689 136.712 13.2687C133.66 13.2687 130.971 14.8272 129.401 17.1995C128.482 12.5994 126.248 8.47433 123.102 5.23148C126.821 2.21661 131.56 0.406052 136.712 0.406052C148.656 0.406235 158.337 10.0904 158.337 22.0363ZM158.734 22.0363C158.734 9.8704 148.876 0.00706482 136.712 0.00688171C131.393 0.00688171 126.503 1.89952 122.693 5.04605L122.57 5.14938L122.643 5.29235L122.669 5.34047L122.683 5.36737L122.704 5.3886C125.963 8.70176 128.248 12.9709 129.101 17.7331L129.145 17.9724L129.37 17.8846L129.468 17.8464L129.502 17.7869C130.958 15.316 133.644 13.6664 136.712 13.6664C141.338 13.6666 145.082 17.4121 145.082 22.0363C145.082 26.6512 141.338 30.4031 136.712 30.4033C135.719 30.4033 134.765 30.2271 133.873 29.905L133.606 29.8087V30.0933L133.622 43.6679L133.623 43.842L133.796 43.8646C134.75 43.9907 135.729 44.0571 136.712 44.0571C148.876 44.0569 158.734 34.1965 158.734 22.0363Z" fill="#ED1C24"/>
</svg>
