<svg width="351" height="143" viewBox="0 0 351 143" fill="none" xmlns="http://www.w3.org/2000/svg">
<path d="M350.983 142.939H0.983398V79.2856H350.983V142.939Z" fill="#ED1C24"/>
<path d="M28.8737 114.733L32.5301 104.09L36.1864 114.733H28.8737ZM37.094 96.3384H28.2173L17.1724 126.219H24.9506L27.0377 120.165H38.0224L40.1122 126.219H48.1389L37.094 96.3384Z" fill="#FFF200"/>
<path d="M71.7214 110.184V126.219H64.5055V114.918C64.5055 113.817 64.4767 112.881 64.4244 112.109C64.3721 111.335 64.2256 110.707 63.985 110.223C63.7444 109.742 63.3808 109.389 62.8944 109.167C62.4053 108.947 61.7227 108.835 60.8413 108.835C60.1351 108.835 59.4446 108.978 58.7777 109.266C58.1108 109.556 57.5092 109.862 56.9783 110.184V126.219H49.7598V103.711H56.9783V106.13C58.2154 105.152 59.4002 104.388 60.5327 103.839C61.6651 103.29 62.9179 103.013 64.2884 103.013C65.7687 103.013 67.0738 103.345 68.2063 104.009C69.3388 104.673 70.2254 105.649 70.8635 106.936C72.302 105.717 73.7013 104.757 75.0587 104.061C76.4187 103.363 77.7499 103.013 79.055 103.013C81.4795 103.013 83.3208 103.745 84.5788 105.207C85.8368 106.666 86.4671 108.772 86.4671 111.518V126.219H79.2512V114.918C79.2512 113.804 79.225 112.865 79.1779 112.096C79.1335 111.332 78.9896 110.707 78.749 110.223C78.5215 109.742 78.1632 109.389 77.6689 109.167C77.1745 108.947 76.4788 108.835 75.587 108.835C74.9854 108.835 74.397 108.939 73.8242 109.148C73.2514 109.355 72.5479 109.7 71.7214 110.184Z" fill="#FFF200"/>
<path d="M106.72 106.47C106.506 106.965 106.053 107.362 105.363 107.673C104.869 107.901 104.194 108.037 103.341 108.074C102.489 108.118 101.458 108.136 100.247 108.136H99.0467V101.773H99.7659C101.272 101.773 102.442 101.783 103.273 101.804C104.105 101.823 104.801 101.943 105.363 102.157C105.985 102.401 106.422 102.769 106.668 103.266C106.916 103.766 107.039 104.265 107.039 104.762C107.039 105.408 106.935 105.976 106.72 106.47ZM115.179 112.24C114.03 111.021 112.482 110.218 110.526 109.828V109.672C111.909 109.057 112.982 108.199 113.74 107.098C114.499 105.992 114.878 104.721 114.878 103.277C114.878 102.035 114.601 100.928 114.049 99.9579C113.494 98.9902 112.649 98.2187 111.514 97.6433C110.421 97.094 109.317 96.7436 108.203 96.5814C107.089 96.4219 105.332 96.3408 102.931 96.3408H91.3652V126.219H104.39C106.553 126.219 108.342 126.034 109.752 125.657C111.159 125.283 112.453 124.653 113.628 123.766C114.645 123.018 115.44 122.076 116.023 120.936C116.604 119.801 116.897 118.506 116.897 117.057C116.897 115.067 116.322 113.459 115.179 112.24ZM108.454 118.888C108.154 119.451 107.604 119.9 106.807 120.238C106.022 120.578 105.164 120.753 104.233 120.766C103.302 120.779 101.759 120.784 99.6064 120.784H99.0467V113.26H100.723C101.866 113.26 102.962 113.265 104.016 113.281C105.065 113.291 105.889 113.385 106.488 113.563C107.366 113.82 107.986 114.209 108.352 114.73C108.719 115.25 108.902 115.99 108.902 116.95C108.902 117.683 108.753 118.329 108.454 118.888Z" fill="#FFF200"/>
<path d="M131.615 121.582C130.893 121.878 130.181 122.027 129.478 122.027C128.596 122.027 127.945 121.964 127.529 121.833C127.114 121.705 126.755 121.506 126.457 121.237C126.146 120.968 125.95 120.685 125.871 120.387C125.793 120.089 125.756 119.702 125.756 119.231C125.756 118.514 125.939 117.936 126.311 117.5C126.682 117.058 127.218 116.723 127.919 116.495C128.489 116.304 129.329 116.142 130.435 115.998C131.539 115.857 132.567 115.745 133.516 115.664V120.405C132.969 120.892 132.337 121.287 131.615 121.582ZM133.516 126.219H140.735V110.87C140.735 108.163 139.824 106.178 138.009 104.914C136.194 103.646 133.244 103.013 129.161 103.013C127.443 103.013 125.733 103.151 124.025 103.421C122.314 103.696 121.08 103.931 120.324 104.13V109.533H120.978C121.556 109.303 122.516 108.971 123.85 108.544C125.183 108.118 126.436 107.904 127.613 107.904C129.567 107.904 131.047 108.147 132.051 108.633C133.056 109.12 133.555 109.999 133.555 111.272V111.395C131.455 111.516 129.428 111.707 127.474 111.96C125.521 112.219 123.881 112.648 122.563 113.255C121.229 113.859 120.198 114.691 119.471 115.739C118.744 116.791 118.383 118.146 118.383 119.801C118.383 121.878 119.095 123.58 120.523 124.917C121.948 126.248 123.716 126.918 125.829 126.918C126.729 126.918 127.556 126.826 128.306 126.648C129.059 126.468 129.784 126.214 130.485 125.877C130.987 125.639 131.521 125.309 132.088 124.896C132.656 124.48 133.132 124.127 133.516 123.832V126.219Z" fill="#FFF200"/>
<path d="M167.78 126.219H160.562V114.998C160.562 114.086 160.517 113.178 160.421 112.271C160.326 111.363 160.167 110.693 159.939 110.265C159.673 109.768 159.28 109.407 158.765 109.179C158.25 108.949 157.531 108.834 156.607 108.834C155.951 108.834 155.287 108.941 154.612 109.158C153.937 109.373 153.202 109.715 152.415 110.183V126.219H145.196V103.713H152.415V106.132C153.694 105.125 154.923 104.354 156.105 103.818C157.287 103.281 158.598 103.015 160.039 103.015C162.466 103.015 164.362 103.723 165.73 105.146C167.095 106.566 167.78 108.69 167.78 111.52V126.219Z" fill="#FFF200"/>
<path d="M196.112 126.219H187.766L181.408 116.374L179.425 118.799V126.219H172.209V95.0193H179.425V113.552L187.159 103.713H195.57L187.429 113.413L196.112 126.219Z" fill="#FFF200"/>
<path d="M236.071 124.512C234.737 125.033 232.969 125.553 230.769 126.068C228.565 126.581 226.373 126.84 224.186 126.84C219.115 126.84 215.148 125.459 212.278 122.692C209.409 119.927 207.976 116.104 207.976 111.231C207.976 106.581 209.422 102.836 212.315 99.99C215.205 97.1445 219.235 95.7191 224.403 95.7191C226.362 95.7191 228.227 95.8969 230 96.25C231.774 96.6057 233.743 97.3066 235.917 98.3606V105.344H235.056C234.685 105.069 234.138 104.682 233.419 104.183C232.7 103.683 232.009 103.259 231.345 102.906C230.573 102.49 229.668 102.132 228.638 101.834C227.607 101.536 226.512 101.384 225.353 101.384C223.995 101.384 222.764 101.585 221.663 101.988C220.556 102.391 219.562 103.006 218.686 103.835C217.847 104.638 217.185 105.658 216.701 106.897C216.212 108.137 215.971 109.565 215.971 111.187C215.971 114.492 216.842 117.024 218.582 118.777C220.323 120.529 222.894 121.408 226.297 121.408C226.59 121.408 226.914 121.402 227.265 121.387C227.615 121.374 227.94 121.355 228.232 121.327V115.431H222.335V109.766H236.071V124.512Z" fill="#FFF200"/>
<path d="M256.658 110.698H256.017C255.711 110.593 255.217 110.515 254.539 110.465C253.857 110.413 253.292 110.387 252.839 110.387C251.812 110.387 250.904 110.452 250.117 110.585C249.33 110.721 248.485 110.944 247.577 111.263V126.218H240.361V103.712H247.577V107.021C249.165 105.658 250.543 104.766 251.717 104.345C252.892 103.924 253.969 103.712 254.958 103.712C255.209 103.712 255.497 103.72 255.816 103.733C256.138 103.749 256.417 103.767 256.658 103.793V110.698Z" fill="#FFF200"/>
<path d="M271.13 121.543C270.536 121.765 269.913 121.872 269.257 121.872C268.493 121.872 267.813 121.752 267.222 121.514C266.626 121.273 266.113 120.894 265.687 120.374C265.245 119.827 264.913 119.105 264.685 118.206C264.458 117.306 264.348 116.241 264.348 115.015C264.348 113.642 264.476 112.504 264.737 111.599C264.996 110.691 265.347 109.977 265.789 109.457C266.283 108.9 266.801 108.526 267.342 108.338C267.884 108.155 268.501 108.058 269.197 108.058C269.89 108.058 270.538 108.173 271.14 108.4C271.742 108.625 272.254 109.012 272.686 109.559C273.112 110.093 273.447 110.807 273.685 111.698C273.925 112.59 274.048 113.697 274.048 115.015C274.048 116.44 273.928 117.56 273.695 118.365C273.463 119.173 273.112 119.861 272.644 120.434C272.228 120.954 271.726 121.323 271.13 121.543ZM278.285 106.219C276.146 104.085 273.117 103.015 269.197 103.015C265.329 103.015 262.31 104.077 260.147 106.201C257.979 108.325 256.896 111.249 256.896 114.976C256.896 118.676 257.974 121.593 260.127 123.721C262.279 125.853 265.302 126.917 269.197 126.917C273.091 126.917 276.115 125.853 278.267 123.721C280.422 121.593 281.497 118.676 281.497 114.976C281.497 111.277 280.427 108.356 278.285 106.219Z" fill="#FFF200"/>
<path d="M306.901 126.219H299.685V123.8C298.351 124.82 297.13 125.594 296.023 126.122C294.917 126.653 293.594 126.917 292.061 126.917C289.582 126.917 287.67 126.201 286.328 124.768C284.989 123.332 284.319 121.213 284.319 118.412V103.714H291.535V114.934C291.535 116.077 291.572 117.026 291.645 117.784C291.718 118.543 291.888 119.171 292.158 119.668C292.411 120.164 292.799 120.528 293.311 120.756C293.826 120.983 294.546 121.098 295.469 121.098C296.086 121.098 296.766 120.983 297.517 120.756C298.265 120.528 298.987 120.191 299.685 119.746V103.714H306.901V126.219Z" fill="#FFF200"/>
<path d="M326.143 119.881C325.207 121.003 323.782 121.562 321.87 121.562C321.334 121.562 320.792 121.536 320.246 121.481C319.696 121.429 319.181 121.306 318.7 121.118V109.733C319.356 109.346 320.044 109.045 320.766 108.838C321.488 108.629 322.191 108.527 322.874 108.527C324.49 108.527 325.675 109.021 326.423 110.015C327.174 111.009 327.548 112.61 327.548 114.812C327.548 117.069 327.08 118.759 326.143 119.881ZM332.658 106.113C331.099 104.047 328.916 103.014 326.107 103.014C324.592 103.014 323.258 103.304 322.1 103.874C320.944 104.45 319.809 105.177 318.7 106.058V103.712H311.484V134.443H318.7V125.122C319.636 125.616 320.554 125.998 321.449 126.273C322.346 126.547 323.436 126.686 324.723 126.686C326.115 126.686 327.42 126.416 328.636 125.88C329.852 125.341 330.943 124.552 331.905 123.503C332.828 122.512 333.576 121.251 334.144 119.718C334.711 118.191 334.996 116.494 334.996 114.629C334.996 111.02 334.217 108.182 332.658 106.113Z" fill="#FFF200"/>
<path d="M163.187 39.8453C160.912 42.4816 157.559 44.1476 153.8 44.1476C146.969 44.1476 141.435 38.616 141.435 31.7846C141.435 24.9557 146.969 19.4215 153.8 19.4215C160.632 19.4215 166.171 24.9557 166.171 31.7846V63.2846H185.324L185.308 31.9154C185.308 14.5098 171.203 0.407513 153.8 0.407513C136.405 0.407513 122.3 14.5098 122.3 31.9154C122.3 49.3157 136.405 63.418 153.8 63.418C157.062 63.418 160.211 62.9237 163.171 61.9978L163.187 39.8453Z" fill="#ED1C24"/>
<path d="M185.034 62.997H166.458V31.7837C166.458 24.7962 160.788 19.1337 153.798 19.1337C146.808 19.1341 141.147 24.7966 141.146 31.7837C141.146 38.7739 146.808 44.4354 153.798 44.4358C157.374 44.4358 160.59 42.959 162.895 40.5842L162.883 61.7833C160.008 62.6605 156.957 63.1298 153.798 63.1298C136.562 63.1295 122.587 49.1557 122.587 31.9145C122.587 14.6684 136.563 0.695459 153.798 0.695104C171.042 0.695104 185.019 14.6682 185.02 31.9145L185.034 62.997ZM185.594 31.9145C185.593 14.3504 171.36 0.118897 153.798 0.118897C136.245 0.119251 122.011 14.3507 122.011 31.9145C122.011 49.4735 136.245 63.7057 153.798 63.7061C157.089 63.7061 160.268 63.2062 163.257 62.2717L163.457 62.2083L163.473 39.0701L162.969 39.6565C160.745 42.2324 157.469 43.8596 153.798 43.8596C147.126 43.8592 141.72 38.456 141.72 31.7837C141.721 25.1144 147.126 19.7103 153.798 19.71C160.471 19.71 165.882 25.1144 165.882 31.7837V63.5732H185.61L185.594 31.9145Z" fill="#ED1C24"/>
<path d="M194.158 63.1529C195.523 63.3333 196.922 63.4275 198.329 63.4275C215.73 63.4275 229.832 49.3226 229.832 31.9275C229.832 14.5246 215.73 0.417035 198.329 0.417035C190.721 0.417035 183.727 3.12398 178.277 7.6251L178.313 7.69572C183.058 12.5185 186.385 18.7327 187.627 25.6662L187.674 25.6479C189.827 21.9968 193.794 19.5592 198.329 19.5592C205.166 19.5592 210.7 25.0934 210.7 31.9275C210.7 38.7485 205.166 44.2931 198.329 44.2931C196.862 44.2931 195.452 44.0342 194.134 43.5582L194.158 63.1529Z" fill="#ED1C24"/>
<path d="M229.545 31.9284C229.545 49.1641 215.571 63.1393 198.33 63.1396C197.02 63.1396 195.717 63.0566 194.443 62.8985L194.421 43.9613C195.658 44.364 196.97 44.5804 198.33 44.5804C205.325 44.5802 210.987 38.9077 210.988 31.9284C210.988 24.9355 205.325 19.2725 198.33 19.2722C193.923 19.2722 190.042 21.5219 187.776 24.9465C186.45 18.3062 183.225 12.3515 178.683 7.67044C184.052 3.31843 190.893 0.70487 198.33 0.70487C215.571 0.705135 229.545 14.6844 229.545 31.9284ZM230.119 31.9284C230.119 14.3668 215.889 0.128928 198.33 0.128663C190.652 0.128663 183.593 2.86071 178.093 7.40277L177.915 7.55193L178.021 7.7583L178.058 7.82778L178.079 7.8666L178.109 7.89725C182.814 12.6798 186.111 18.8424 187.343 25.7168L187.406 26.0621L187.731 25.9354L187.872 25.8802L187.921 25.7944C190.024 22.2277 193.9 19.8464 198.33 19.8464C205.007 19.8467 210.412 25.2534 210.412 31.9284C210.411 38.5901 205.007 44.006 198.33 44.0063C196.897 44.0063 195.518 43.752 194.231 43.287L193.847 43.1481V43.5588L193.869 63.1539L193.871 63.4052L194.12 63.4379C195.498 63.62 196.91 63.7158 198.33 63.7158C215.888 63.7156 230.119 49.4819 230.119 31.9284Z" fill="#ED1C24"/>
</svg>
