<svg width="351" height="88" viewBox="0 0 351 88" fill="none" xmlns="http://www.w3.org/2000/svg">
<path d="M350.983 0.40332H0.983398V87.8143H350.983V0.40332Z" fill="#0071BB"/>
<path d="M87.7777 49.4127L77.0748 30.7065L81.7969 22.2258H70.0698L59.5405 41.1663H71.2503L81.9532 59.8811L87.7777 49.4127Z" fill="#F26F21"/>
<path d="M56.1983 22.2429L45.1482 41.1661L35.3481 41.2008L41.2074 51.3481L63.0211 51.3134L57.1011 41.0446L68.073 22.2256L56.1983 22.2429Z" fill="#F26F21"/>
<path d="M48.621 63.6918L70.1743 63.7178L75.1481 72.0336L81.0073 61.8863L69.8705 43.293L64.0199 53.4316L42.4927 53.4229L48.621 63.6918Z" fill="#F26F21"/>
<path d="M99.1411 44.5948L103.846 26.6699H111.667C113.264 26.6699 114.488 26.8522 115.356 27.2168C116.224 27.5814 116.832 28.1369 117.179 28.8921C117.526 29.6473 117.596 30.4372 117.379 31.2531C117.179 32.017 116.745 32.7375 116.085 33.4232C115.425 34.0916 114.557 34.6385 113.472 35.0551C114.653 35.3676 115.478 35.9145 115.946 36.6784C116.424 37.4509 116.528 38.3537 116.25 39.3953C116.033 40.2373 115.616 41.0098 115.009 41.7477C114.41 42.4595 113.75 43.015 113.038 43.4143C112.327 43.8049 111.493 44.1 110.53 44.3084C109.558 44.508 108.412 44.6035 107.092 44.6035H99.1411V44.5948ZM104.644 34.1958H109.15C110.373 34.1958 111.268 34.1263 111.84 33.9874C112.596 33.8052 113.195 33.5013 113.663 33.0934C114.132 32.668 114.445 32.1472 114.609 31.5222C114.757 30.932 114.731 30.4111 114.523 29.9511C114.314 29.491 113.915 29.1872 113.342 29.0223C112.769 28.8574 111.736 28.7706 110.235 28.7706H106.068L104.644 34.1958ZM102.466 42.4942H107.648C108.542 42.4942 109.176 42.4595 109.549 42.4074C110.209 42.3032 110.79 42.1383 111.276 41.9126C111.762 41.6869 112.205 41.3571 112.587 40.9144C112.978 40.4803 113.247 39.9682 113.394 39.404C113.568 38.7269 113.524 38.1453 113.255 37.6506C112.986 37.1645 112.526 36.7999 111.875 36.6089C111.215 36.4093 110.226 36.3051 108.906 36.3051H104.08L102.457 42.4855L102.466 42.4942Z" fill="white"/>
<path d="M116.406 44.5948L129.096 26.6699H132.108L135.928 44.5948H132.785L131.796 39.1696H123.011L119.331 44.5948H116.397H116.406ZM124.348 37.2426H131.449L130.581 32.2774C130.32 30.767 130.147 29.5084 130.06 28.5275C129.47 29.6907 128.801 30.8452 128.011 31.991L124.348 37.2513V37.2426Z" fill="white"/>
<path d="M138.115 44.5948L142.819 26.6699H145.649L152.906 40.7408L156.595 26.6699H159.243L154.538 44.5948H151.708L144.451 30.5153L140.754 44.5948H138.115Z" fill="white"/>
<path d="M159.07 44.5948L163.783 26.6699H166.544L164.217 35.5412L176.891 26.6699H180.623L169.972 33.944L176.309 44.5948H172.663L167.629 35.5412L163.471 38.3884L161.839 44.5948H159.07Z" fill="white"/>
<path d="M178.601 44.5948L183.314 26.6699H194.06C196.057 26.6699 197.541 26.8175 198.522 27.1126C199.485 27.3991 200.197 27.9459 200.64 28.7358C201.074 29.5344 201.143 30.498 200.84 31.6351C200.588 32.6333 200.11 33.484 199.425 34.2131C198.739 34.9249 197.906 35.5239 196.925 35.9666C196.3 36.253 195.484 36.4961 194.468 36.687C195.18 36.904 195.675 37.1297 195.97 37.3467C196.17 37.4943 196.43 37.7981 196.751 38.2842C197.072 38.7703 197.281 39.1436 197.367 39.404L199.13 44.5948H191.847L189.833 39.1175C189.581 38.3971 189.321 37.9457 189.034 37.7374C188.644 37.4509 188.149 37.312 187.567 37.312H187.003L185.093 44.5948H178.609H178.601ZM187.889 33.918H190.605C190.892 33.918 191.482 33.8312 192.368 33.675C192.81 33.5968 193.21 33.4059 193.557 33.1107C193.904 32.8156 194.13 32.4684 194.234 32.0778C194.381 31.5136 194.277 31.0622 193.939 30.7584C193.592 30.4459 192.836 30.2896 191.665 30.2896H188.835L187.889 33.918Z" fill="white"/>
<path d="M214.771 41.6522H207.444L205.656 44.5948H199.068L211.602 26.6699H218.668L221.776 44.5948H215.031L214.771 41.6522ZM214.449 37.7634L213.85 31.3226L209.866 37.7634H214.449Z" fill="white"/>
<path d="M228.582 26.6699H235.04L233.26 33.4406L241.802 26.6699H250.361L241.003 33.4232L245.986 44.5948H238.043L235.595 37.2426L231.49 40.2199L230.335 44.5948H223.877L228.582 26.6699Z" fill="white"/>
<path d="M250.717 26.6699H257.879L260.517 32.6941L266.298 26.6699H273.408L262.575 37.0863L260.604 44.5948H254.146L256.116 37.0863L250.717 26.6699Z" fill="white"/>
<path d="M281.635 41.6522H274.318L272.521 44.5948H265.941L278.467 26.6699H285.542L288.641 44.5948H281.905L281.635 41.6522ZM281.332 37.7634L280.715 31.3226L276.74 37.7634H281.332Z" fill="white"/>
<path d="M291.931 26.6699H311.548L310.394 31.0795H303.814L300.264 44.6035H293.797L297.347 31.0795H290.768L291.922 26.6699H291.931Z" fill="white"/>
<path fill-rule="evenodd" clip-rule="evenodd" d="M278.998 53.8482L277.461 52.3205L278.998 50.7927L280.517 52.3205L278.998 53.8482Z" fill="white"/>
<path fill-rule="evenodd" clip-rule="evenodd" d="M210.301 67.1987L211.838 68.7264L213.365 67.1987L211.838 65.6709L210.301 67.1987ZM283.129 55.133L281.602 53.6052L280.065 55.133L281.602 56.6607L283.129 55.133ZM232.766 62.4679H227.549C226.516 60.0981 229.311 59.7509 229.311 59.7509C230.874 59.7162 231.707 58.3881 231.707 58.3881C230.249 57.2336 230.414 54.8552 230.414 54.8552C229.962 57.4072 226.829 57.8326 226.829 57.8326C222.931 58.2232 224.494 62.4939 224.494 62.4939H220.127V57.7197C219.242 59.777 216.985 60.6363 216.985 60.6363L217.61 61.3828V62.4592H208.557V56.1573C207.767 57.5808 205.588 58.1277 205.588 58.1277L206.057 58.8829V59.2735C200.779 57.8065 200.562 62.4939 200.562 62.4939H198.357C198.418 63.3967 195.145 64.6987 195.145 64.6987H236.655C234.094 64.1519 232.775 62.4592 232.775 62.4592L232.766 62.4679ZM204.286 62.5981C204.286 62.5981 202.463 61.5304 204.676 60.6276C204.676 60.6276 206.013 60.1936 206.525 61.6172C206.525 61.6172 206.213 63.1102 204.286 62.5981ZM197.888 57.1902L196.361 55.6712L194.824 57.1902L196.361 58.718L197.888 57.1902ZM201.786 57.1902L200.258 55.6712L198.73 57.1902L200.258 58.718L201.786 57.1902ZM277.704 55.133L276.185 53.6052L274.657 55.133L276.185 56.6607L277.704 55.133ZM238.009 58.6832C238.009 58.6832 236.247 60.0808 236.446 61.6432C236.446 61.6432 239.215 61.5998 239.415 64.0564C239.415 64.0564 239.563 67.2247 234.936 67.624L234.988 67.7282C234.988 67.7282 241.976 68.4399 242.123 63.2057C242.123 63.2057 241.976 58.1364 238 58.6832H238.009ZM292.07 67.1987L293.598 68.7264L295.126 67.1987L293.598 65.6709L292.07 67.1987ZM296.228 60.6624L296.853 61.4176V62.5113L290.777 62.4939V57.7024C289.9 59.7596 287.634 60.619 287.634 60.619L288.268 61.3655V62.4679H281.584V61.0964C281.584 61.0964 282.886 59.9332 283.789 60.0808L283.841 59.5947C283.841 59.5947 282.331 58.8829 281.48 58.9871C281.48 58.9871 280.977 57.4246 279.162 57.4246C277.348 57.4246 276.845 58.9871 276.845 58.9871C275.994 58.8829 274.492 59.5947 274.492 59.5947L274.536 60.0808C275.439 59.9332 276.749 61.0964 276.749 61.0964V62.5026H269.71C269.71 62.5026 270.308 58.0756 264.788 58.0756H254.936C254.936 58.0756 255.239 57.0774 256.394 57.0774C256.394 57.0774 261.168 56.0705 259.606 52.5983C259.606 52.5983 257.896 49.0828 252.271 50.7407C252.271 50.7407 253.981 52.5983 253.981 52.9976C253.981 52.9976 256.646 52.5462 256.949 53.6052C256.949 53.6052 257.505 54.8118 254.536 55.4628C254.536 55.4628 249.866 56.6694 251.116 60.3412H264.449C264.449 60.3412 266.402 60.3412 266.402 61.3481C266.402 61.3481 266.446 62.5026 264.336 62.5026H246.698V64.6987H299.362V57.7458C298.485 59.803 296.228 60.6624 296.228 60.6624ZM279.258 61.5738C278.633 61.5738 278.129 61.0703 278.129 60.4454C278.129 59.8204 278.633 59.3256 279.258 59.3256C279.883 59.3256 280.378 59.829 280.378 60.4454C280.378 61.0617 279.874 61.5738 279.258 61.5738ZM214.199 67.1987L215.718 68.7264L217.246 67.1987L215.718 65.6709L214.199 67.1987ZM285.082 67.1987L286.61 68.7264L288.138 67.1987L286.61 65.6709L285.082 67.1987ZM281.194 67.1987L282.721 68.7264L284.249 67.1987L282.721 65.6709L281.194 67.1987Z" fill="white"/>
</svg>
