<svg width="351" height="70" viewBox="0 0 351 70" fill="none" xmlns="http://www.w3.org/2000/svg">
<path d="M350.837 69.9178C350.74 69.9665 350.642 69.9665 350.545 69.9665C234.024 69.9665 117.504 69.9665 0.983398 69.9665V0.814453H350.983V69.869L350.837 69.9178Z" fill="#26366F"/>
<path d="M4.00481 66.9937H348.059V3.78711C234.122 3.83584 120.184 3.83584 6.24653 3.78711C5.4668 3.78711 4.73581 3.78711 4.00481 3.78711C4.05354 24.3037 4.05354 44.869 4.00481 65.3856C3.95608 65.9216 3.95608 66.4577 4.00481 66.9937Z" fill="white"/>
<path d="M6.1001 65.1421C6.1001 64.8984 6.1001 64.6548 6.1001 64.4111C6.19756 44.8204 6.1001 25.2298 6.1001 5.63916H346.012C346.012 6.02902 346.061 6.46762 346.061 6.85748C346.061 26.2045 346.061 45.5027 346.061 64.8497C345.866 65.0446 345.574 65.1421 345.33 65.1908L6.1001 65.1421ZM7.41589 63.9725H344.989L344.94 6.66255C232.854 6.66255 120.769 6.90621 8.68294 6.66255C8.19562 6.66255 7.70829 6.66255 7.26969 6.71128C7.26969 25.5709 7.36716 44.4793 7.22096 63.339C7.17222 63.5826 7.22096 63.8263 7.41589 63.9725Z" fill="#26366F"/>
<path d="M308.342 55.5414C306.929 55.5901 305.467 55.5414 304.054 55.4926C304.005 48.1339 304.054 40.7265 304.005 33.3679C304.005 33.1242 304.005 32.8805 304.054 32.6369L309.122 32.5881C309.122 39.8493 309.171 47.0618 309.122 54.2743C309.122 54.6642 309.122 55.1028 309.073 55.4926C308.781 55.5414 308.537 55.5414 308.342 55.5414Z" fill="#E04918"/>
<path d="M329.59 17.0913C329.054 16.7501 328.615 16.2628 328.323 15.7268C327.835 16.2141 327.348 16.6527 326.812 17.0913C326.52 17.3349 326.568 16.8963 326.763 16.6039L328.518 13.8749C329.297 13.9236 329.054 13.5825 329.98 14.0211C331.052 14.5084 331.003 15.2882 330.759 16.2628C330.613 16.7014 330.223 17.0425 329.785 17.1887L329.59 17.0913Z" fill="#26366F"/>
<path d="M249.717 28.5437C248.596 28.4462 247.475 28.4949 246.549 27.764C245.916 27.2279 245.526 26.4482 245.428 25.6197C245.428 24.109 245.672 22.5983 246.159 21.185C246.208 20.9413 246.452 21.5749 246.5 21.7698C246.647 22.8907 246.988 23.9628 247.475 24.9374C248.401 25.3273 249.376 25.5222 250.399 25.571C253.323 25.6197 256.929 25.4735 259.171 23.3292L258.44 21.5749L259.756 18.4072C261.218 20.2591 261.413 22.8907 260.194 24.9374C258.148 28.495 253.372 28.8848 249.717 28.5437Z" fill="#26366F"/>
<path d="M264.824 23.2317C264.775 21.2824 264.775 19.3331 264.824 17.3351L266.87 15.3857L266.919 22.3058L264.872 23.9627C264.824 23.7191 264.824 23.4754 264.824 23.2317Z" fill="#26366F"/>
<path d="M254.248 15.7753C253.225 15.824 252.25 15.824 251.227 15.7753L252.445 13.9722L255.467 14.0209L254.59 15.7753H254.248Z" fill="#26366F"/>
<path d="M285.535 28.9334C285.535 24.5961 285.535 20.2589 285.535 15.9217C285.535 15.7267 285.583 15.5318 285.681 15.3856L287.143 14.3135L287.192 25.9606C288.897 26.3505 290.457 25.9119 291.967 25.0835C291.578 23.9626 291.236 23.3778 291.626 22.2082C291.821 21.6234 292.747 21.1361 293.332 21.0874C293.965 21.0386 294.989 20.9899 295.476 21.4285C296.353 22.2569 296.061 23.8651 295.574 24.7911C296.841 24.9373 298.059 24.7423 299.277 24.3525C299.472 24.255 299.667 24.1575 299.862 24.0601C299.667 23.4753 299.57 22.8417 299.667 22.2082C299.667 21.8184 299.96 21.4285 300.301 21.2823C301.129 20.9899 302.006 21.0386 302.786 21.4772C303.03 21.6722 303.176 21.9158 303.225 22.2082C303.371 22.7443 303.615 22.9879 303.468 23.6215C303.42 23.8651 303.273 24.1088 303.127 24.3037C301.665 26.3505 296.402 27.6176 294.014 27.91C293.771 27.9587 293.576 27.9587 293.332 27.91L292.747 27.179C291.48 27.8612 290.164 28.446 288.8 28.8846C287.728 29.1283 286.607 29.177 285.535 28.9334Z" fill="#26366F"/>
<path d="M257.757 29.2747C257.416 29.2747 257.124 29.0798 257.416 28.9336C262.533 26.9355 267.309 24.1577 270.769 19.723C271.549 18.6509 272.085 17.4813 272.475 16.2143C272.913 15.9219 273.352 15.6782 273.791 15.4833L274.57 15.2883V25.4735C275.301 25.7659 276.13 25.8634 276.909 25.7172C277.982 25.5222 278.956 25.1324 279.882 24.5476C279.833 23.6217 280.223 22.2571 281.101 21.8185C281.198 21.7698 281.344 21.7211 281.442 21.6723C282.026 21.6236 282.66 21.7211 283.196 22.0135C284.025 22.5008 283.927 23.4755 283.635 24.2552C282.952 26.107 279.054 27.7152 277.251 28.2513C275.74 28.6899 274.229 28.9336 272.67 28.9336C272.67 26.3507 272.67 23.7191 272.67 21.1363C272.67 20.649 272.67 20.1129 272.377 20.5515C270.136 23.7679 267.65 26.5944 263.995 28.1538C261.997 28.9823 259.902 29.3722 257.757 29.2747Z" fill="#26366F"/>
<path d="M108.488 55.103C108.829 52.6177 108.634 50.0348 107.903 47.6469C107.562 46.4286 107.074 45.259 106.441 44.1381C104.492 40.6781 101.714 37.7541 98.3513 35.6099C94.7938 33.2707 91.1875 32.1986 87.5326 30.298C85.4858 29.1771 83.5365 27.8613 81.7821 26.3019L79.4916 28.1537C81.8308 29.1284 84.17 30.103 86.4604 31.2239C91.2363 33.5144 95.5248 36.9257 98.3513 41.3604C100.447 44.6255 101.665 48.3292 101.909 52.1791C101.958 53.0075 101.909 53.836 101.714 54.6157L101.616 55.103C97.7178 54.8107 93.5267 55.103 89.6281 55.0543C90.4078 50.1323 88.7509 45.259 85.7782 41.3604C82.5131 37.0719 77.7373 34.0991 72.8152 32.1011C72.6203 32.0524 72.4741 32.0036 72.2792 31.9549L70.3298 32.8321C76.4702 36.5845 81.4897 42.4812 82.708 49.7424C83.0979 51.4968 83.0491 53.3487 82.6593 55.103C72.864 54.8594 62.9712 55.103 53.1271 55.103C52.9809 53.4461 52.6398 52.5202 52.8347 50.7658C53.7119 43.1635 58.5852 36.6333 65.1154 32.7834L63.2148 32.0036C57.8055 34.1479 53.4195 37.0719 49.9107 41.7015C48.4488 43.6995 47.4254 45.9413 46.8406 48.3292C46.3045 50.5222 46.3532 52.8613 46.5482 55.103C42.9907 54.9081 39.3844 54.9081 35.8269 55.103C35.5833 55.103 35.3396 55.103 35.0472 55.0543C34.2675 49.9374 35.6807 44.9179 38.556 40.6781C41.285 36.5358 45.4273 33.4656 49.8133 31.2726C51.9575 30.2005 54.1505 29.372 56.3435 28.3974L53.9068 26.4481C52.2012 27.9101 50.3981 29.1771 48.4 30.298C45.1349 32.0036 41.8698 33.027 38.6534 34.9276C33.9751 37.7054 30.0277 42.0914 28.4195 47.3058C27.5911 49.7424 27.4449 52.3253 27.9322 54.8594C27.5423 55.0056 27.1525 55.0543 26.7626 55.103C23.3026 54.9568 19.745 54.9568 16.2363 55.103C15.5053 52.6177 15.8951 49.7912 16.5287 47.3058C18.0881 41.3116 22.5716 36.1947 27.786 32.9783C30.8562 31.0777 34.3162 29.9081 37.5326 28.2999C40.9926 26.5943 44.4526 23.8165 46.3532 20.4539C47.1817 19.0894 47.7178 17.5299 47.864 15.9218C47.9127 15.7268 47.9614 15.4832 48.1076 15.2882H50.3493C50.6417 18.1635 51.8601 20.8438 53.8581 22.8906C55.8074 20.7951 57.0257 18.1635 57.3181 15.2882L59.6086 15.2395C59.9985 18.1635 61.2655 20.8925 63.2636 23.0855C64.2382 22.1108 65.018 20.9413 65.6515 19.7229C66.4312 17.9685 66.5287 17.0426 66.9673 15.2882H69.3065C69.5989 18.1147 70.8172 20.7951 72.7178 22.8906C74.5209 20.6976 75.8854 18.1635 76.1778 15.337H78.517C78.7606 18.066 79.9302 20.6489 81.7821 22.6956C83.5852 20.6001 84.7061 18.0173 84.9985 15.2882H87.2889C87.7762 19.1869 89.8718 22.5007 92.8932 24.9861C94.3552 26.2044 95.9146 27.3253 97.6203 28.2025C101.178 30.0543 104.638 31.0777 108.098 33.3194C113.41 36.682 117.747 41.8964 119.355 48.0368C119.745 49.645 119.989 51.2531 120.037 52.9101C120.037 53.6411 119.94 54.4208 119.745 55.1518C115.944 54.9081 112.191 55.0543 108.488 55.103ZM63.3123 29.4208L65.554 28.3487L63.4098 26.643L61.1193 28.4461C61.8503 28.7385 62.5813 29.0797 63.3123 29.4208ZM72.133 29.1771L72.3766 29.2746C73.2051 28.8847 73.9848 28.5436 74.7645 28.105L72.7178 26.3993L70.2811 28.3487C70.9146 28.5923 71.5482 28.8847 72.133 29.1771ZM67.6008 31.2726C68.2343 31.3214 68.8191 30.834 69.3552 30.4929L67.8932 29.9081L66.3825 30.6878C66.7723 30.9315 67.1622 31.1264 67.6008 31.2726ZM111.071 52.6177L117.455 52.5689C117.455 52.3253 117.455 52.0816 117.455 51.8379C117.357 49.9374 116.919 48.0368 116.188 46.2336C114.238 41.4091 110.437 37.5105 105.954 34.8301C102.737 32.9296 99.4234 31.9062 96.207 30.2005C91.9673 28.0075 88.3123 24.5962 86.168 20.3077C85.4371 21.7697 84.5111 23.183 83.4877 24.4988C84.9985 25.8633 86.7041 27.0329 88.5072 28.0075C91.9673 29.8106 95.671 31.029 98.9848 33.1245C101.178 34.5377 103.176 36.1947 104.93 38.0465C108.488 41.8964 111.168 47.3058 111.071 52.6177ZM77.055 26.5943L77.2499 26.7405L80.0764 24.4988C79.053 23.2317 78.1271 21.8184 77.3961 20.4052C76.6651 21.9159 75.6905 23.3779 74.5696 24.645C75.3006 25.3272 76.1778 25.9608 77.055 26.5943ZM65.1642 24.8399L67.9907 26.8867C69.0628 26.2044 70.0374 25.4734 70.9634 24.5962C69.8425 23.2804 68.9166 21.8185 68.1856 20.259C67.3571 21.9159 66.3337 23.4754 65.1642 24.8399ZM92.2597 52.6177L99.5696 52.5689C99.5209 51.4968 99.3747 50.4247 99.1798 49.4013C98.8874 47.9393 98.4488 46.526 97.7665 45.2103C95.3786 40.3857 91.4799 36.8282 86.8503 34.1966C83.7801 32.4422 80.2714 31.5163 77.2499 29.6644L75.6417 30.5904C78.0297 31.8087 80.3688 33.2219 82.5618 34.7327C87.7275 38.5826 92.5521 45.8438 92.2597 52.6177ZM58.5365 26.9354L58.6827 27.0329L61.5579 24.8886C60.3883 23.5241 59.3649 22.0621 58.5365 20.5027C57.708 22.0134 56.7821 23.4266 55.6612 24.7424C56.6359 25.5221 57.5618 26.2531 58.5365 26.9354ZM24.7158 52.5689H25.2031C25.2031 51.0095 25.3981 49.4988 25.7392 47.988C27.1037 41.9452 31.3922 36.6333 36.5579 33.3194C40.1642 31.029 43.7217 29.9081 47.3766 27.9588C49.0823 27.0329 50.6905 25.912 52.1525 24.645C50.9829 23.3292 50.0082 21.8672 49.2772 20.259C47.0842 24.7912 43.1369 28.2512 38.7022 30.4929C35.3396 32.1986 32.1719 33.1732 28.9068 35.22C27.3961 36.1947 25.9829 37.2668 24.6671 38.5338C21.0121 42.0914 18.3318 46.9646 18.3805 52.1791C18.3805 52.3253 18.4293 52.4715 18.478 52.6177C20.5735 52.5689 22.6203 52.5689 24.7158 52.5689ZM37.3376 52.5689L44.0141 52.5202C44.0141 50.1323 44.4039 47.7444 45.2324 45.5027C48.2051 38.3389 53.1758 33.6605 60.3396 30.6391C59.7548 30.4929 59.2187 30.2005 58.7801 29.8107C55.6612 31.6138 52.2499 32.5884 49.131 34.3915C47.7178 35.22 46.3532 36.1459 45.0862 37.1693C40.6515 40.6781 36.9478 46.7697 37.3376 52.5689ZM55.3688 52.5689H80.5638C80.515 51.1069 80.3201 49.6937 79.8815 48.3292C78.0784 42.1401 73.4 37.0231 67.6983 34.0991C65.5053 35.3175 63.4585 36.7795 61.6066 38.4851C57.9517 42.0426 54.979 47.3545 55.3688 52.5689Z" fill="#26366F"/>
<path d="M309.706 27.9588C308.732 27.1303 307.757 25.912 307.854 24.5962C307.952 23.0367 308.78 21.4286 309.706 20.2102C310.291 19.4305 311.022 18.7482 311.802 18.2122C312.582 17.6761 313.361 17.2375 314.238 16.8477C314.531 16.7989 314.872 16.7502 315.164 16.7015C316.236 18.066 316.578 19.8204 316.139 21.4773C315.749 22.7931 314.385 23.2317 313.215 23.4266C312.923 23.4753 312.582 23.4753 312.289 23.4753V21.3311C312.825 21.3311 313.361 21.3311 313.946 21.2824C314.969 20.8925 314.385 19.6254 313.946 18.9919C313.264 19.3818 309.121 22.2083 309.463 23.2317C309.414 24.3525 310.535 25.4247 311.509 25.8145C314.092 26.8866 319.209 24.7911 321.256 23.1829L321.305 16.3116C321.792 15.7755 322.377 15.2882 322.962 14.8496V25.717C324.375 26.3506 325.788 25.9607 326.958 25.0835C326.909 23.9139 326.714 23.0855 327.494 22.1596C328.079 21.4286 329.053 21.0874 329.979 21.2824L330.32 21.3311C331.782 21.9159 330.808 24.1089 330.32 24.9861C331.539 25.2785 331.977 25.3272 333.147 24.7911C333.975 24.4013 334.706 23.7677 335.194 22.988L334.219 21.6235L335.827 18.9919C336.509 19.8691 336.607 21.0874 336.656 22.1596C336.558 22.988 336.363 23.8165 335.973 24.5962C334.463 27.0328 331.344 27.6664 328.663 27.91L327.884 27.1303C326.032 28.1537 324.082 28.9334 321.938 28.7872C321.695 28.7385 321.402 28.641 321.207 28.5436V25.3759C318.771 27.179 315.944 28.7872 312.874 29.0309C311.704 28.9822 310.583 28.641 309.706 27.9588Z" fill="#26366F"/>
<path d="M176.325 55.5901C176.227 55.3951 176.179 55.1514 176.179 54.9565C176.179 51.8376 176.276 48.67 176.033 45.5511C175.984 45.015 175.789 44.5277 175.448 44.1378C174.717 43.4068 173.596 43.2119 172.621 43.6505C171.89 44.0403 171.354 44.7226 171.257 45.5511C170.964 48.6212 171.159 52.4224 171.208 55.5901H166.091C166.091 50.2782 166.237 44.9663 165.945 39.6544H170.282L170.526 41.1651C170.526 41.3113 170.769 41.3113 170.916 41.4088C172.426 39.5569 174.96 39.0208 177.202 39.5082C177.982 39.7031 178.713 40.093 179.298 40.629C180.029 41.36 181.052 43.0657 181.101 44.1378C181.296 47.939 181.198 51.7401 181.149 55.5901H176.325Z" fill="#26366F"/>
<path d="M333.099 31.4189L331.588 30.3467C332.026 29.5183 332.563 28.7386 333.099 27.9588C333.196 27.8614 333.342 28.105 333.44 28.1538C333.927 28.4462 334.414 28.7386 334.853 29.1284L333.342 31.5651L333.099 31.4189Z" fill="#26366F"/>
<path d="M227.397 55.5414C225.984 55.5902 224.522 55.5902 223.109 55.4927C222.865 50.2295 222.621 45.0151 222.621 39.752C222.621 39.6058 222.28 39.8494 222.134 39.8982C220.818 44.8202 219.21 49.7909 217.699 54.6155C217.65 54.8104 217.504 55.0054 217.407 55.1516C216.188 55.249 215.019 55.249 213.8 55.1516C213.654 55.0541 213.508 54.9566 213.459 54.8104C212.046 49.7909 210.73 44.674 209.317 39.6058C209.268 39.3621 209.073 40.0444 209.073 40.288C209.073 40.7266 209.171 41.1652 209.122 41.7013C208.976 45.9898 208.781 50.327 208.586 54.6155C208.537 54.9079 208.44 55.2003 208.342 55.4927L203.908 55.5902C204.346 48.329 204.736 41.1165 205.321 33.8553C207.416 33.7578 209.561 33.7578 211.656 33.8553C211.851 33.9527 211.997 34.1477 212.095 34.3426C213.362 39.021 214.873 43.6506 215.799 48.3777C217.261 43.5044 218.674 38.7286 220.136 33.8553C222.329 33.7091 224.57 33.6603 226.763 33.8065C226.958 40.9703 227.494 48.2315 227.836 55.444L227.397 55.5414Z" fill="#E04918"/>
<path d="M250.74 55.9316C249.132 55.8342 247.913 55.0545 246.841 53.9336C246.354 53.3975 246.061 52.228 246.061 51.497C245.964 50.4248 246.159 49.3527 246.549 48.378C247.085 47.1597 249.18 45.9414 250.399 45.5515C251.909 45.2104 253.42 45.0155 254.931 45.0155C255.223 44.6743 255.272 44.187 254.98 43.8459C254.59 43.4073 254.102 43.0662 253.518 42.92C252.689 42.8712 251.909 42.8712 251.081 42.9687C249.96 43.1149 248.937 43.5048 247.962 44.0895L247.085 40.8244C247.816 40.4346 248.547 40.1422 249.327 39.8985C249.668 39.801 251.812 39.4112 252.104 39.4112C254.297 39.3137 256.685 39.5574 258.391 41.0194C259.707 42.0915 260.194 43.9921 260.243 45.6003C260.34 48.9141 260.194 52.2279 260.389 55.5418C259.024 55.5905 257.66 55.5905 256.295 55.5418C255.759 55.3469 255.808 54.5184 255.759 54.1285C254.444 55.3469 252.64 56.0291 250.74 55.9316ZM252.153 52.2767C253.42 52.5691 254.687 51.9356 255.223 50.766C255.418 50.0837 255.467 49.3527 255.369 48.6704C255.321 48.5242 255.467 48.2318 255.272 48.1831C254.005 48.0369 251.617 48.2318 251.13 49.6938C250.837 50.5223 250.789 51.0584 251.422 51.7893C251.617 52.033 251.861 52.2279 252.153 52.2767Z" fill="#E04918"/>
<path d="M135.633 55.7854C134.658 55.7367 133.732 55.6392 132.757 55.4442V34.0018C136.753 33.3682 143.332 32.9296 146.695 35.5125C148.449 36.877 148.693 39.5086 147.767 41.4092C147.28 42.4326 146.013 43.3098 145.038 43.8458C147.377 44.4793 149.034 46.6236 148.985 49.109C149.083 53.5437 145.087 55.5905 141.139 55.7854C139.385 55.8341 137.484 55.8341 135.633 55.7854ZM137.874 42.2376C138.995 42.3838 140.116 42.3351 141.237 42.0914C142.065 41.9452 142.748 41.4092 143.137 40.6782C143.381 40.0446 143.381 38.7289 142.796 38.2415C141.383 37.0719 139.58 37.1694 137.874 37.4618C137.826 39.0213 137.826 40.6294 137.874 42.2376ZM137.874 51.9355C138.995 52.1792 140.165 52.1791 141.237 51.8868C142.163 51.7406 142.943 51.2045 143.479 50.4248C143.917 49.84 143.966 48.2318 143.527 47.647C142.212 45.8926 139.872 45.8926 137.874 46.0388C137.826 47.9881 137.826 49.9862 137.874 51.9355Z" fill="#26366F"/>
<path d="M193.332 55.5902C192.114 53.4947 190.847 51.3992 189.628 49.3036C189.044 49.6448 188.654 50.1808 188.459 50.8143C188.264 52.3738 188.459 54.0307 188.459 55.6389H183.391C183.439 48.2315 183.391 40.8241 183.391 33.4167C183.391 33.173 183.391 32.8806 183.391 32.637H188.361C188.361 32.9294 188.41 33.173 188.41 33.4654C188.361 37.4128 188.41 41.3602 188.361 45.3075C188.361 45.7949 188.361 46.3309 188.605 45.9411C189.823 43.943 191.09 41.9937 192.455 40.0931C192.552 39.9469 192.699 39.8494 192.845 39.8007L198.79 39.7032L193.088 46.1847L199.619 55.5902H193.332Z" fill="#26366F"/>
<path d="M153.079 55.7365C151.519 55.2492 150.35 54.0308 149.814 52.5201C149.619 51.4967 149.619 50.4246 149.814 49.3525C151.276 45.7462 155.077 44.8203 158.634 44.9665C158.732 44.8203 158.781 44.6254 158.878 44.4792C158.927 43.9918 158.391 43.4071 157.952 43.2121C156.003 42.3349 153.469 42.9685 151.666 44.0406C151.422 43.1146 151.129 42.2862 150.886 41.3603C150.837 41.1653 150.788 40.9217 150.837 40.7267C153.371 39.411 156.246 39.0211 159.024 39.5084C161.168 39.8983 163.069 41.3603 163.654 43.4558C164.531 46.8184 163.898 51.8866 164.19 55.5903H159.658L159.365 54.1283C158.634 54.908 157.66 55.4928 156.588 55.7852C155.418 56.0289 154.2 56.0289 153.079 55.7365ZM155.126 51.8866C155.564 52.2277 156.685 52.5688 157.27 52.179C157.806 51.9353 158.732 51.3505 158.878 50.7657C159.024 50.0835 159.122 49.3525 159.073 48.6702C159.024 48.4753 159.17 48.1829 159.024 48.1829C157.611 48.0854 155.515 48.2803 154.784 49.7423C154.395 50.4733 154.541 51.3505 155.126 51.8866Z" fill="#26366F"/>
<path d="M291.237 55.8338C290.018 55.5414 288.41 54.4206 288.02 53.2022C287.387 51.1067 287.192 49.9371 288.362 47.9878C288.946 47.2568 289.677 46.672 290.506 46.1847C292.406 45.3075 294.502 44.9176 296.597 45.0151C296.744 44.5765 296.695 44.0892 296.5 43.6506C294.599 42.0424 291.48 43.0171 289.531 43.9917L288.605 40.7753C291.042 39.6545 293.771 39.2159 296.451 39.4596C297.036 39.557 297.621 39.6545 298.206 39.8494C298.839 40.1418 299.424 40.4829 300.009 40.9215C300.594 41.5551 301.032 42.2861 301.373 43.0658C301.568 43.748 301.714 44.4303 301.812 45.1613C301.812 47.9391 301.422 52.9586 302.104 55.444C300.691 55.4927 299.278 55.5414 297.864 55.4927C297.475 55.0541 297.231 54.518 297.133 53.9332C296.305 55.0541 295.915 55.0541 294.746 55.6389C294.112 55.98 291.87 55.98 291.237 55.8338ZM293.673 52.2763C294.161 52.325 294.599 52.325 295.087 52.325C295.866 52.0814 296.451 51.5453 296.792 50.8143C296.987 49.9859 296.987 49.1087 296.89 48.2802C296.159 48.134 295.428 48.1827 294.746 48.3777C293.82 48.6213 292.455 49.3523 292.504 50.4732C292.455 51.1555 292.894 52.0814 293.673 52.2763Z" fill="#E04918"/>
<path d="M330.271 55.7362C329.443 55.3951 328.712 54.9078 328.127 54.2742C327.445 53.2508 327.055 52.0325 327.055 50.7655C326.909 48.3776 327.055 45.9409 327.055 43.5043L324.959 43.2606V39.7031H327.006C327.055 38.8746 327.055 37.9974 327.055 37.169C327.055 36.974 327.347 36.7304 327.494 36.6329C328.517 36.2431 329.589 35.9994 330.612 35.707C331.002 35.6095 331.441 35.5608 331.831 35.5608L331.928 39.7031L335.534 39.7518V43.2606C334.755 43.5043 333.926 43.5043 333.098 43.3581C332.659 43.3093 332.269 43.4068 331.88 43.6505C331.831 46.0384 331.928 48.3776 332.074 50.7167C333.098 51.9351 333.878 51.8863 335.34 51.4965C335.242 52.7635 335.242 53.9818 335.242 55.2002C335.096 55.3951 335.096 55.4926 334.755 55.59C333.342 55.9312 331.782 55.9799 330.271 55.7362Z" fill="#E04918"/>
<path d="M233.488 55.6879C232.075 55.2493 231.587 54.7619 230.759 53.5923C230.369 52.6664 230.077 51.7405 229.833 50.8146C229.735 47.1596 229.784 43.4559 229.784 39.8009L234.755 39.7522C234.755 43.066 234.657 46.4286 234.901 49.7424C234.95 50.4247 235.291 51.107 235.876 51.4968C237.094 52.0816 238.507 51.7892 239.385 50.8146C239.385 50.7658 239.628 50.181 239.628 50.1323C239.921 46.7697 239.774 43.3097 239.774 39.8984C241.48 39.7522 243.186 39.7522 244.891 39.8497L244.94 55.6391H240.652L240.554 53.3974C238.8 55.6391 236.266 56.4189 233.488 55.6879Z" fill="#E04918"/>
<path d="M313.557 55.7365C313.069 55.5903 312.582 55.3466 312.143 55.0055C310.438 53.7872 309.95 51.6917 310.292 49.7424C310.584 48.4266 311.364 47.3057 312.485 46.5747C313.362 46.0874 314.288 45.6975 315.262 45.4051C316.578 45.1615 317.894 45.064 319.21 45.064C319.453 44.4305 319.258 43.6995 318.722 43.2609C318.284 43.0659 317.797 42.9197 317.309 42.871C315.506 42.7248 313.703 43.1147 312.143 43.9431L311.266 40.7755C313.557 39.5084 316.14 39.2648 318.722 39.411C318.771 39.411 320.72 39.8008 320.818 39.8496C322.28 40.4344 323.45 41.604 324.034 43.0659C324.278 43.9919 324.424 44.9178 324.473 45.8437C324.473 49.0601 324.327 52.3252 324.619 55.4928C323.255 55.5903 321.841 55.5903 320.477 55.3954C319.989 55.2979 319.892 54.1771 319.892 53.8359C318.479 56.0289 315.847 56.0776 313.557 55.7365ZM316.335 52.2765C316.773 52.3739 317.26 52.3739 317.748 52.2277C319.795 51.6917 319.697 49.8886 319.6 48.1829C318.284 47.9392 315.993 48.2804 315.409 49.6936C315.214 50.1322 315.165 50.6195 315.311 51.1069C315.409 51.6917 315.798 52.0815 316.335 52.2765Z" fill="#E04918"/>
<path d="M285.632 55.5902C284.268 55.5902 282.903 55.5902 281.587 55.5415C281.539 52.2277 281.685 48.8651 281.392 45.5513C281.295 44.4304 280.467 43.5532 279.346 43.3583C278.225 43.2121 276.909 44.5279 276.86 45.5513C276.617 48.8651 276.763 52.2277 276.763 55.5415H271.89C271.89 52.2277 271.987 48.9138 271.89 45.5513C271.646 44.9177 271.353 44.3329 271.012 43.7969C270.671 43.6507 270.281 43.5045 269.94 43.407C269.355 43.5045 268.576 43.6507 268.137 44.138C267.845 44.6253 267.552 45.1127 267.309 45.6C267.26 48.9626 267.357 52.3251 267.26 55.639L262.533 55.6877C262.484 55.3466 262.484 55.0054 262.484 54.6643C262.533 49.7423 262.63 44.7715 262.338 39.8495H266.48C266.578 40.483 266.626 41.0678 266.626 41.7014C266.626 41.8963 267.016 41.5552 267.114 41.409C268.527 39.8495 269.94 39.4109 271.987 39.4596C273.839 39.5084 274.96 40.5318 275.983 41.945C276.617 41.1653 277.396 40.483 278.274 39.9957C278.858 39.8008 279.443 39.6058 280.028 39.5084C281.344 39.3622 282.66 39.6058 283.878 40.1906C285.096 40.8242 286.022 42.9197 286.168 44.2355C286.509 47.4031 286.412 51.4479 286.363 54.713C286.314 55.0542 286.217 55.3466 286.071 55.6877L285.632 55.5902Z" fill="#E04918"/>
</svg>
