<svg width="234" height="59" viewBox="0 0 234 59" fill="none" xmlns="http://www.w3.org/2000/svg">
<path d="M233.923 0H0V58.4212H233.923V0Z" fill="#0071BB"/>
<path d="M58.009 32.7553L50.8558 20.253L54.0118 14.585H46.1739L39.1367 27.2439H46.963L54.1162 39.7519L58.009 32.7553Z" fill="#F26F21"/>
<path d="M36.903 14.5966L29.5177 27.2439L22.9678 27.2671L26.8838 34.049L41.463 34.0258L37.5064 27.1626L44.8395 14.585L36.903 14.5966Z" fill="#F26F21"/>
<path d="M31.8385 42.2986L46.2437 42.316L49.568 47.8738L53.484 41.0919L46.0406 28.665L42.1304 35.4412L27.7427 35.4354L31.8385 42.2986Z" fill="#F26F21"/>
<path d="M65.6035 29.5355L68.7479 17.5554H73.9751C75.0426 17.5554 75.8606 17.6773 76.4407 17.9209C77.0209 18.1646 77.427 18.5359 77.6591 19.0406C77.8911 19.5453 77.9375 20.0733 77.7925 20.6186C77.659 21.1291 77.369 21.6107 76.9281 22.069C76.4872 22.5157 75.907 22.8812 75.1818 23.1597C75.9708 23.3685 76.522 23.734 76.8352 24.2446C77.1543 24.7609 77.2239 25.3642 77.0383 26.0604C76.8932 26.6232 76.6148 27.1395 76.2087 27.6326C75.8084 28.1084 75.3675 28.4797 74.8917 28.7465C74.416 29.0076 73.8591 29.2049 73.2151 29.3441C72.5653 29.4775 71.7995 29.5413 70.9177 29.5413H65.6035V29.5355ZM69.2817 22.5853H72.2927C73.1107 22.5853 73.7082 22.5389 74.0911 22.4461C74.5959 22.3243 74.9962 22.1212 75.3094 21.8485C75.6227 21.5643 75.8316 21.2162 75.9418 20.7985C76.0404 20.404 76.023 20.0559 75.8838 19.7484C75.7446 19.4409 75.4777 19.2379 75.0948 19.1276C74.7119 19.0174 74.0215 18.9594 73.0178 18.9594H70.2331L69.2817 22.5853ZM67.8255 28.1316H71.289C71.8865 28.1316 72.3101 28.1084 72.5595 28.0736C73.0004 28.0039 73.3891 27.8937 73.714 27.7429C74.0389 27.592 74.3348 27.3716 74.5901 27.0757C74.8511 26.7856 75.031 26.4433 75.1296 26.0662C75.2456 25.6137 75.2166 25.225 75.0368 24.8943C74.8569 24.5694 74.5494 24.3258 74.1143 24.1981C73.6734 24.0647 73.012 23.9951 72.1302 23.9951H68.9046L67.8197 28.1258L67.8255 28.1316Z" fill="white"/>
<path d="M77.1425 29.5355L85.6243 17.5554H87.6374L90.1901 29.5355H88.09L87.4286 25.9096H81.5575L79.0976 29.5355H77.1367H77.1425ZM82.4509 24.6217H87.1965L86.6164 21.3032C86.4423 20.2937 86.3263 19.4525 86.2683 18.7969C85.8738 19.5743 85.4271 20.3459 84.8991 21.1117L82.4509 24.6275V24.6217Z" fill="white"/>
<path d="M91.6519 29.5355L94.7963 17.5554H96.6876L101.538 26.9597L104.003 17.5554H105.773L102.628 29.5355H100.737L95.887 20.1255L93.4155 29.5355H91.6519Z" fill="white"/>
<path d="M105.657 29.5355L108.807 17.5554H110.652L109.098 23.4846L117.568 17.5554H120.062L112.944 22.4171L117.179 29.5355H114.742L111.378 23.4846L108.599 25.3875L107.508 29.5355H105.657Z" fill="white"/>
<path d="M118.71 29.5355L121.861 17.5554H129.043C130.377 17.5554 131.369 17.654 132.025 17.8513C132.669 18.0427 133.145 18.4082 133.44 18.9362C133.731 19.4699 133.777 20.1139 133.574 20.8739C133.406 21.5411 133.087 22.1096 132.628 22.5969C132.17 23.0727 131.613 23.473 130.957 23.7688C130.54 23.9603 129.994 24.1227 129.316 24.2504C129.791 24.3954 130.122 24.5462 130.319 24.6913C130.453 24.7899 130.627 24.993 130.841 25.3178C131.056 25.6427 131.195 25.8922 131.253 26.0662L132.431 29.5355H127.564L126.218 25.8748C126.049 25.3933 125.875 25.0916 125.684 24.9523C125.423 24.7609 125.092 24.6681 124.703 24.6681H124.326L123.05 29.5355H118.716H118.71ZM124.918 22.3997H126.734C126.925 22.3997 127.32 22.3417 127.912 22.2372C128.208 22.185 128.474 22.0574 128.706 21.8601C128.939 21.6629 129.089 21.4308 129.159 21.1698C129.258 20.7927 129.188 20.491 128.962 20.2879C128.73 20.0791 128.225 19.9746 127.442 19.9746H125.55L124.918 22.3997Z" fill="white"/>
<path d="M142.885 27.5688H137.989L136.793 29.5355H132.39L140.768 17.5554H145.49L147.567 29.5355H143.059L142.885 27.5688ZM142.67 24.9697L142.27 20.665L139.607 24.9697H142.67Z" fill="white"/>
<path d="M152.116 17.5554H156.432L155.243 22.0806L160.951 17.5554H166.672L160.418 22.069L163.748 29.5355H158.439L156.803 24.6217L154.059 26.6116L153.288 29.5355H148.971L152.116 17.5554Z" fill="white"/>
<path d="M166.91 17.5554H171.696L173.46 21.5817L177.323 17.5554H182.075L174.835 24.5172L173.518 29.5355H169.201L170.518 24.5172L166.91 17.5554Z" fill="white"/>
<path d="M187.574 27.5688H182.683L181.483 29.5355H177.085L185.457 17.5554H190.185L192.256 29.5355H187.754L187.574 27.5688ZM187.371 24.9697L186.959 20.665L184.302 24.9697H187.371Z" fill="white"/>
<path d="M194.455 17.5554H207.566L206.794 20.5026H202.397L200.024 29.5413H195.702L198.075 20.5026H193.677L194.449 17.5554H194.455Z" fill="white"/>
<path fill-rule="evenodd" clip-rule="evenodd" d="M185.811 35.7199L184.784 34.6988L185.811 33.6777L186.826 34.6988L185.811 35.7199Z" fill="white"/>
<path fill-rule="evenodd" clip-rule="evenodd" d="M139.898 44.6426L140.925 45.6637L141.946 44.6426L140.925 43.6215L139.898 44.6426ZM188.572 36.5785L187.551 35.5574L186.525 36.5785L187.551 37.5996L188.572 36.5785ZM154.912 41.4808H151.425C150.735 39.897 152.603 39.6649 152.603 39.6649C153.647 39.6417 154.204 38.7541 154.204 38.7541C153.23 37.9825 153.34 36.3928 153.34 36.3928C153.038 38.0985 150.944 38.3828 150.944 38.3828C148.339 38.6438 149.383 41.4982 149.383 41.4982H146.465V38.3073C145.873 39.6823 144.365 40.2566 144.365 40.2566L144.783 40.7556V41.475H138.732V37.2631C138.204 38.2145 136.748 38.58 136.748 38.58L137.061 39.0847V39.3458C133.534 38.3654 133.389 41.4982 133.389 41.4982H131.915C131.956 42.1015 129.768 42.9718 129.768 42.9718H157.511C155.8 42.6063 154.918 41.475 154.918 41.475L154.912 41.4808ZM135.877 41.5678C135.877 41.5678 134.659 40.8542 136.138 40.2508C136.138 40.2508 137.032 39.9608 137.374 40.9122C137.374 40.9122 137.165 41.9101 135.877 41.5678ZM131.602 37.9534L130.581 36.9382L129.554 37.9534L130.581 38.9745L131.602 37.9534ZM134.207 37.9534L133.185 36.9382L132.164 37.9534L133.185 38.9745L134.207 37.9534ZM184.947 36.5785L183.931 35.5574L182.91 36.5785L183.931 37.5996L184.947 36.5785ZM158.416 38.9513C158.416 38.9513 157.239 39.8854 157.372 40.9296C157.372 40.9296 159.223 40.9006 159.356 42.5424C159.356 42.5424 159.455 44.66 156.362 44.9269L156.397 44.9965C156.397 44.9965 161.068 45.4722 161.166 41.9739C161.166 41.9739 161.068 38.5858 158.41 38.9513H158.416ZM194.548 44.6426L195.569 45.6637L196.59 44.6426L195.569 43.6215L194.548 44.6426ZM197.327 40.274L197.745 40.7788V41.5098L193.684 41.4982V38.2957C193.098 39.6707 191.583 40.245 191.583 40.245L192.007 40.744V41.4808H187.54V40.5641C187.54 40.5641 188.41 39.7867 189.013 39.8853L189.048 39.5605C189.048 39.5605 188.039 39.0847 187.47 39.1544C187.47 39.1544 187.134 38.1101 185.921 38.1101C184.709 38.1101 184.372 39.1544 184.372 39.1544C183.804 39.0847 182.8 39.5605 182.8 39.5605L182.829 39.8853C183.432 39.7867 184.308 40.5641 184.308 40.5641V41.504H179.603C179.603 41.504 180.004 38.5452 176.314 38.5452H169.729C169.729 38.5452 169.932 37.878 170.704 37.878C170.704 37.878 173.895 37.2051 172.85 34.8844C172.85 34.8844 171.707 32.5348 167.948 33.6429C167.948 33.6429 169.091 34.8844 169.091 35.1513C169.091 35.1513 170.872 34.8496 171.075 35.5574C171.075 35.5574 171.446 36.3638 169.462 36.7989C169.462 36.7989 166.341 37.6054 167.177 40.0594H176.088C176.088 40.0594 177.393 40.0594 177.393 40.7324C177.393 40.7324 177.422 41.504 176.012 41.504H164.224V42.9718H199.421V38.3247C198.835 39.6997 197.327 40.274 197.327 40.274ZM185.985 40.8832C185.567 40.8832 185.231 40.5467 185.231 40.129C185.231 39.7113 185.567 39.3806 185.985 39.3806C186.403 39.3806 186.733 39.7171 186.733 40.129C186.733 40.5409 186.397 40.8832 185.985 40.8832ZM142.503 44.6426L143.518 45.6637L144.539 44.6426L143.518 43.6215L142.503 44.6426ZM189.878 44.6426L190.899 45.6637L191.92 44.6426L190.899 43.6215L189.878 44.6426ZM187.279 44.6426L188.3 45.6637L189.321 44.6426L188.3 43.6215L187.279 44.6426Z" fill="white"/>
</svg>
