<svg width="331" height="77" viewBox="0 0 331 77" fill="none" xmlns="http://www.w3.org/2000/svg">
<path d="M213.947 73.872C182.306 73.4452 156.52 56.0113 156.41 35.4636C156.3 15.5165 180.59 0.153141 210.609 0.611513C214.309 0.65893 217.929 0.959243 221.44 1.46503C216.654 0.595707 211.664 0.0899174 206.532 0.0108878C174.639 -0.479096 148.76 15.6271 148.76 36.57C148.76 58.1451 176.103 76.4957 209.806 76.9383C237.197 77.3018 259.409 65.6687 265.658 49.6415C258.952 63.9933 238.708 74.2197 213.962 73.872H213.947Z" fill="#C91C48"/>
<path d="M5.17905 32.9032C5.17905 25.0793 5.17905 23.6409 5.06886 21.9971C4.97441 20.2427 4.54938 19.4208 2.86501 19.0572C2.45572 18.9624 1.58992 18.8992 0.865799 18.8992C0.299094 18.8992 0 18.7885 0 18.4408C0 18.0773 0.362061 17.9824 1.13341 17.9824C3.85674 17.9824 7.08381 18.1405 8.10702 18.1405C10.6257 18.1405 12.6092 17.9824 14.3565 17.9824C23.6284 17.9824 25.2656 22.9771 25.2656 25.6957C25.2656 29.9159 22.8571 32.429 20.0393 34.7051C24.2424 36.1434 29.3584 39.7946 29.3584 45.8166C29.3584 51.3171 25.1082 57.0388 15.6788 57.0388C15.0649 57.0388 13.5852 56.9282 12.0897 56.8808C10.547 56.7701 9.02005 56.7227 8.2487 56.7227C7.68199 56.7227 6.56433 56.7227 5.32073 56.7701C4.14009 56.7701 2.80204 56.8808 1.77882 56.8808C1.11767 56.8808 0.755606 56.7227 0.755606 56.3592C0.755606 56.1063 0.960249 55.9482 1.57418 55.9482C2.34553 55.9482 2.95946 55.8534 3.41597 55.7428C4.43919 55.5373 4.69105 54.3993 4.8957 52.9135C5.14757 50.7481 5.14757 46.686 5.14757 41.96V32.9032H5.17905ZM11.3341 33.7725C11.3341 34.1835 11.4915 34.2941 11.6962 34.3415C12.1527 34.4522 12.924 34.4996 14.1046 34.4996C15.789 34.4996 16.9224 34.2941 17.7882 33.5196C19.1263 32.4448 19.8819 30.5797 19.8819 28.0666C19.8819 24.6209 17.8827 20.0846 13.475 20.0846C12.7509 20.0846 12.2943 20.0846 11.7906 20.1953C11.4285 20.2901 11.3341 20.5114 11.3341 21.0646V33.7725ZM18.1031 37.8821C17.0326 37.1076 15.852 36.744 13.8528 36.6492C12.924 36.6018 12.4203 36.6018 11.6489 36.6018C11.4443 36.6018 11.3341 36.7124 11.3341 36.9653V49.1675C11.3341 52.5658 11.4915 53.4351 13.1287 54.0989C14.5139 54.668 15.6946 54.7154 16.8752 54.7154C19.1735 54.7154 23.0775 53.4825 23.0775 48.1243C23.0775 44.9315 22.007 40.6165 18.1031 37.8821Z" fill="#666565"/>
<path d="M39.6062 43.4457C39.3544 43.4457 39.2442 43.5564 39.1497 43.8567L36.3792 51.2222C35.8597 52.5025 35.6078 53.7512 35.6078 54.3676C35.6078 55.3002 36.0643 55.964 37.6543 55.964H38.4256C39.0395 55.964 39.1969 56.0747 39.1969 56.375C39.1969 56.7859 38.8821 56.8966 38.3312 56.8966C36.694 56.8966 34.4902 56.7385 32.9002 56.7385C32.3335 56.7385 29.5157 56.8966 26.8554 56.8966C26.1942 56.8966 25.8794 56.7859 25.8794 56.375C25.8794 56.0588 26.084 55.964 26.4933 55.964C26.9498 55.964 27.674 55.9166 28.0832 55.8692C30.4445 55.5531 31.4205 53.8144 32.4437 51.238L45.3048 18.9307C45.9187 17.445 46.2335 16.876 46.7373 16.876C47.1938 16.876 47.5086 17.3343 48.0124 18.5198C49.2402 21.3491 57.4417 42.3393 60.716 50.1632C62.668 54.7944 64.1477 55.5214 65.2181 55.7743C65.9895 55.9324 66.7608 55.9798 67.3748 55.9798C67.784 55.9798 68.0359 56.0272 68.0359 56.3908C68.0359 56.8017 67.5794 56.9124 65.6746 56.9124C63.8329 56.9124 60.0863 56.9124 55.9934 56.8017C55.0647 56.7543 54.4507 56.7543 54.4507 56.3908C54.4507 56.0747 54.6554 55.9798 55.1749 55.9324C55.5369 55.8376 55.899 55.3634 55.6314 54.747L51.5385 43.8409C51.4283 43.588 51.2866 43.4773 51.019 43.4773H39.5905L39.6062 43.4457ZM50.0588 40.8694C50.3107 40.8694 50.3736 40.7113 50.3107 40.5532L45.6983 27.8453C45.6511 27.6398 45.5881 27.3869 45.4464 27.3869C45.289 27.3869 45.1946 27.6398 45.1316 27.8453L40.4248 40.5058C40.3776 40.7113 40.4248 40.8694 40.6295 40.8694H50.0588Z" fill="#666565"/>
<path d="M73.2305 49.8789C73.3407 53.8936 74.0019 55.2371 75.0251 55.5848C75.8909 55.9009 76.8669 55.9484 77.6855 55.9484C78.2522 55.9484 78.5513 56.059 78.5513 56.3593C78.5513 56.7703 78.0948 56.8809 77.3706 56.8809C74.0334 56.8809 71.9869 56.7229 71.0109 56.7229C70.5544 56.7229 68.1459 56.8809 65.4698 56.8809C64.8087 56.8809 64.3364 56.8335 64.3364 56.3593C64.3364 56.0432 64.6513 55.9484 65.155 55.9484C65.8162 55.9484 66.7449 55.9009 67.469 55.6955C68.8071 55.2845 69.0117 53.7988 69.059 49.3099L69.5155 18.8519C69.5155 17.8245 69.6729 17.0974 70.1766 17.0974C70.7433 17.0974 71.1998 17.7613 72.0656 18.6938C72.6796 19.3577 80.4718 27.7506 87.9491 35.211C91.428 38.7041 98.3544 46.1171 99.2202 46.939H99.4721L98.9526 23.8307C98.9054 20.6854 98.4331 19.7212 97.2053 19.1996C96.4339 18.8835 95.2061 18.8835 94.482 18.8835C93.868 18.8835 93.6634 18.7254 93.6634 18.4251C93.6634 18.0142 94.2301 17.9667 95.0014 17.9667C97.6618 17.9667 100.133 18.1248 101.204 18.1248C101.77 18.1248 103.722 17.9667 106.225 17.9667C106.886 17.9667 107.406 18.0142 107.406 18.4251C107.406 18.7412 107.091 18.8835 106.477 18.8835C105.958 18.8835 105.548 18.8835 104.935 19.0415C103.502 19.4525 103.093 20.5273 103.045 23.4198L102.479 55.8851C102.479 57.0232 102.274 57.4815 101.818 57.4815C101.251 57.4815 100.637 56.9125 100.07 56.3435C96.8432 53.2614 90.2789 46.5122 84.9582 41.2172C79.3698 35.6536 73.687 29.2364 72.7583 28.2564H72.6009L73.1676 49.8631L73.2305 49.8789Z" fill="#666565"/>
<path d="M120.016 35.1635H120.267C122.015 33.2667 129.492 25.6009 130.972 23.8464C132.404 22.1552 133.538 20.8591 133.538 19.9898C133.538 19.4208 133.333 19.0572 132.814 18.9624C132.357 18.8517 132.152 18.7569 132.152 18.4408C132.152 18.0773 132.404 17.9824 132.971 17.9824C134.041 17.9824 136.859 18.1405 138.245 18.1405C139.834 18.1405 142.652 17.9824 144.242 17.9824C144.762 17.9824 145.108 18.0931 145.108 18.4408C145.108 18.8043 144.856 18.8992 144.337 18.8992C143.612 18.8992 142.337 19.1046 141.361 19.4682C139.772 20.0846 138.024 21.1594 135.82 23.3248C134.23 24.8738 126.501 32.5871 124.754 34.4364C126.596 36.8547 136.639 47.7134 138.638 49.6101C140.889 51.7755 143.203 54.0831 145.958 55.1738C147.501 55.7902 148.524 55.9482 149.138 55.9482C149.5 55.9482 149.799 56.0589 149.799 56.3592C149.799 56.7227 149.547 56.8808 148.571 56.8808H144.116C142.574 56.8808 141.661 56.8808 140.574 56.7701C137.804 56.5173 136.419 55.3792 134.215 53.4193C131.964 51.4119 121.857 39.5259 120.787 38.0401L120.22 37.2656H119.968V41.9442C119.968 46.6702 119.968 50.7481 120.126 52.9609C120.236 54.3993 120.692 55.5373 121.968 55.7428C122.692 55.8534 123.809 55.9482 124.47 55.9482C124.88 55.9482 125.132 56.1063 125.132 56.3592C125.132 56.7227 124.722 56.8808 124.156 56.8808C121.291 56.8808 118.064 56.7227 116.773 56.7227C115.592 56.7227 112.365 56.8808 110.319 56.8808C109.657 56.8808 109.295 56.7227 109.295 56.3592C109.295 56.1063 109.5 55.9482 110.114 55.9482C110.885 55.9482 111.499 55.8534 111.956 55.7428C112.979 55.5373 113.231 54.3993 113.435 52.9135C113.687 50.7481 113.687 46.686 113.687 41.96V32.9032C113.687 25.0793 113.687 23.6409 113.577 21.9971C113.467 20.2427 113.058 19.4208 111.373 19.0572C110.964 18.9624 110.098 18.8992 109.374 18.8992C108.807 18.8992 108.508 18.7885 108.508 18.4408C108.508 18.0773 108.87 17.9824 109.642 17.9824C112.365 17.9824 115.592 18.1405 116.82 18.1405C118.048 18.1405 121.275 17.9824 123.022 17.9824C123.746 17.9824 124.093 18.0931 124.093 18.4408C124.093 18.8043 123.778 18.8992 123.369 18.8992C122.849 18.8992 122.55 18.9466 121.936 19.0572C120.551 19.3101 120.141 20.1953 120.047 21.9971C119.937 23.6409 119.937 25.0793 119.937 32.9032V35.1635H120.016Z" fill="#666565"/>
<path d="M180.794 32.9032C180.794 25.0793 180.794 23.6409 180.7 21.9971C180.59 20.2427 180.086 19.3733 178.952 19.1204C178.386 18.9624 177.724 18.915 177.111 18.915C176.591 18.915 176.292 18.8043 176.292 18.3934C176.292 18.0773 176.701 17.9824 177.52 17.9824C179.472 17.9824 182.699 18.1405 184.179 18.1405C185.454 18.1405 188.476 17.9824 190.428 17.9824C191.089 17.9824 191.499 18.0773 191.499 18.3934C191.499 18.8043 191.184 18.915 190.68 18.915C190.161 18.915 189.751 18.9624 189.137 19.073C187.752 19.3259 187.343 20.2111 187.248 22.0129C187.138 23.6567 187.138 25.0951 187.138 32.919V41.9758C187.138 46.9705 187.138 51.0326 187.343 53.2454C187.5 54.6363 187.862 55.5689 189.389 55.7744C190.113 55.885 191.231 55.9798 192.002 55.9798C192.569 55.9798 192.821 56.1379 192.821 56.3908C192.821 56.7543 192.412 56.9124 191.845 56.9124C188.46 56.9124 185.233 56.7543 183.848 56.7543C182.667 56.7543 179.44 56.9124 177.394 56.9124C176.733 56.9124 176.371 56.7543 176.371 56.3908C176.371 56.1379 176.575 55.9798 177.189 55.9798C177.961 55.9798 178.575 55.885 179.031 55.7744C180.054 55.5689 180.369 54.6996 180.511 53.198C180.763 51.0326 180.763 46.9705 180.763 41.9758V32.919L180.794 32.9032Z" fill="#666565"/>
<path d="M193.954 56.2642C193.135 55.9007 192.978 55.6478 192.978 54.5097C192.978 51.6805 193.183 48.5983 193.23 47.7764C193.277 47.0019 193.435 46.4329 193.844 46.4329C194.3 46.4329 194.363 46.8913 194.363 47.3022C194.363 47.9661 194.568 49.0567 194.82 49.926C195.953 53.7353 198.976 55.1262 202.155 55.1262C206.768 55.1262 209.019 51.9808 209.019 49.2622C209.019 46.749 208.248 44.3781 203.997 41.0273L201.636 39.178C196 34.7523 194.048 31.1486 194.048 26.9916C194.048 21.3331 198.755 17.271 205.886 17.271C209.224 17.271 211.364 17.7926 212.702 18.1403C213.159 18.251 213.427 18.3932 213.427 18.7568C213.427 19.4206 213.222 20.9222 213.222 24.9369C213.222 26.0749 213.065 26.4858 212.655 26.4858C212.293 26.4858 212.136 26.1697 212.136 25.5533C212.136 25.0949 211.884 23.4985 210.798 22.155C210.026 21.1751 208.547 19.6419 205.209 19.6419C201.416 19.6419 199.117 21.8547 199.117 24.9369C199.117 27.3078 200.298 29.1096 204.548 32.3498L205.981 33.4246C212.183 38.1032 214.387 41.6595 214.387 46.5436C214.387 49.5309 213.253 53.0714 209.57 55.4897C207.004 57.1335 204.139 57.6077 201.416 57.6077C198.44 57.6077 196.142 57.2442 193.938 56.2642H193.954Z" fill="#666565"/>
<path d="M225.832 41.96C225.832 48.5511 225.832 52.0916 226.902 53.0241C227.768 53.7986 229.106 54.1622 233.104 54.1622C235.828 54.1622 237.811 54.1148 239.102 52.7238C239.716 52.06 240.33 50.6058 240.44 49.6417C240.487 49.1833 240.598 48.8672 241.007 48.8672C241.369 48.8672 241.416 49.1201 241.416 49.7365C241.416 50.3055 241.054 54.1622 240.645 55.6479C240.33 56.786 240.078 57.0388 237.418 57.0388C233.734 57.0388 231.058 56.9282 228.76 56.8808C226.446 56.7701 224.604 56.7227 222.51 56.7227C221.944 56.7227 220.826 56.7227 219.582 56.7701C218.402 56.7701 217.064 56.8808 216.04 56.8808C215.379 56.8808 215.017 56.7227 215.017 56.3592C215.017 56.1063 215.222 55.9482 215.836 55.9482C216.607 55.9482 217.221 55.8534 217.678 55.7428C218.701 55.5373 218.953 54.3993 219.157 52.9135C219.409 50.7481 219.409 46.686 219.409 41.96V32.9032C219.409 25.0793 219.409 23.6409 219.299 21.9971C219.204 20.2427 218.779 19.4208 217.095 19.0572C216.686 18.9466 216.072 18.8992 215.411 18.8992C214.844 18.8992 214.545 18.7885 214.545 18.4408C214.545 18.0773 214.907 17.9824 215.678 17.9824C218.087 17.9824 221.314 18.1405 222.699 18.1405C223.927 18.1405 227.674 17.9824 229.673 17.9824C230.397 17.9824 230.743 18.0931 230.743 18.4408C230.743 18.8043 230.428 18.8992 229.814 18.8992C229.248 18.8992 228.429 18.9466 227.815 19.0572C226.43 19.3101 226.021 20.1953 225.926 21.9971C225.816 23.6409 225.816 25.0793 225.816 32.9032V41.96H225.832Z" fill="#666565"/>
<path d="M253.506 43.4457C253.254 43.4457 253.144 43.5564 253.049 43.8567L250.279 51.2222C249.759 52.5025 249.507 53.7512 249.507 54.3676C249.507 55.3002 249.964 55.964 251.554 55.964H252.325C252.939 55.964 253.096 56.0747 253.096 56.375C253.096 56.7859 252.782 56.8966 252.231 56.8966C250.593 56.8966 248.39 56.7385 246.8 56.7385C246.233 56.7385 243.415 56.8966 240.755 56.8966C240.094 56.8966 239.779 56.7859 239.779 56.375C239.779 56.0588 239.983 55.964 240.393 55.964C240.849 55.964 241.573 55.9166 241.983 55.8692C244.344 55.5531 245.32 53.8144 246.343 51.238L259.204 18.9307C259.818 17.445 260.133 16.876 260.637 16.876C261.093 16.876 261.408 17.3343 261.912 18.5198C263.14 21.3491 271.341 42.3393 274.615 50.1632C276.567 54.7944 278.047 55.5214 279.118 55.7743C279.889 55.9324 280.66 55.9798 281.274 55.9798C281.683 55.9798 281.935 56.0272 281.935 56.3908C281.935 56.8017 281.479 56.9124 279.574 56.9124C277.732 56.9124 273.986 56.9124 269.893 56.8017C268.964 56.7543 268.35 56.7543 268.35 56.3908C268.35 56.0747 268.555 55.9798 269.074 55.9324C269.436 55.8376 269.798 55.3634 269.531 54.747L265.438 43.8409C265.328 43.588 265.186 43.4773 264.918 43.4773H253.49L253.506 43.4457ZM263.958 40.8694C264.21 40.8694 264.273 40.7113 264.21 40.5532L259.598 27.8453C259.55 27.6398 259.488 27.3869 259.346 27.3869C259.188 27.3869 259.094 27.6398 259.031 27.8453L254.324 40.5058C254.277 40.7113 254.324 40.8694 254.529 40.8694H263.958Z" fill="#666565"/>
<path d="M287.177 18.1877C287.334 17.3184 287.633 16.8442 288.043 16.8442C288.452 16.8442 288.767 17.0971 289.428 18.4406L303.423 47.4603L317.354 18.0771C317.763 17.2552 318.015 16.8442 318.487 16.8442C318.944 16.8442 319.259 17.3658 319.416 18.4406L324.076 50.2421C324.532 53.4824 325.052 54.9681 326.594 55.4423C328.074 55.9007 329.113 55.9639 329.774 55.9639C330.231 55.9639 330.593 56.0113 330.593 56.3274C330.593 56.7384 329.979 56.8964 329.255 56.8964C327.98 56.8964 320.896 56.7384 318.849 56.5803C317.669 56.4697 317.37 56.3274 317.37 56.0113C317.37 55.7584 317.574 55.6003 317.936 55.4423C318.251 55.3316 318.393 54.6678 318.188 53.2295L315.119 30.5954H314.914L303.737 53.9565C302.557 56.3748 302.305 56.8332 301.848 56.8332C301.392 56.8332 300.872 55.8058 300.054 54.2568C298.826 51.886 294.78 44.0146 294.166 42.5763C293.71 41.5015 290.624 35.0052 288.83 31.1486H288.625L285.965 51.6331C285.855 52.5656 285.807 53.2295 285.807 54.0514C285.807 55.0313 286.469 55.4897 287.35 55.6952C288.279 55.9007 288.987 55.9481 289.507 55.9481C289.916 55.9481 290.278 56.0587 290.278 56.3116C290.278 56.77 289.822 56.8806 289.05 56.8806C286.894 56.8806 284.595 56.7226 283.667 56.7226C282.691 56.7226 280.235 56.8806 278.598 56.8806C278.078 56.8806 277.669 56.77 277.669 56.3116C277.669 56.0587 277.984 55.9481 278.488 55.9481C278.897 55.9481 279.259 55.9481 280.03 55.79C281.463 55.4739 281.872 53.4824 282.124 51.7279L287.193 18.1877H287.177Z" fill="#666565"/>
</svg>
