<svg width="351" height="100" viewBox="0 0 351 100" fill="none" xmlns="http://www.w3.org/2000/svg">
<path d="M50.4974 0.446289C23.1496 0.446289 0.983398 22.6703 0.983398 50.0937C0.983398 77.5157 23.1496 99.7427 50.4974 99.7427C77.8418 99.7427 100.009 77.5157 100.009 50.0937C100.009 22.6703 77.8418 0.446289 50.4974 0.446289ZM11.6297 50.0937C11.6297 30.5578 25.9627 14.3983 44.6569 11.5749V29.8101L36.5598 29.8377C30.4724 29.8377 26.7802 34.3197 26.7802 40.4184V59.5296C26.7802 65.6318 31.7681 70.3382 37.8515 70.3382L44.6253 70.3402L44.6564 88.6453C25.9627 85.8174 11.6297 69.6257 11.6297 50.0937ZM38.5435 59.6494C38.5435 59.6494 38.0025 59.5935 37.7325 59.1225C37.4686 58.6606 37.5404 58.415 37.5404 58.415V41.8354C37.5404 41.8354 37.5138 41.2486 37.8344 40.8924C38.1355 40.5537 38.694 40.5396 38.694 40.5396H62.0676C62.0676 40.5396 62.4404 40.4873 62.8714 40.7243C63.2408 40.9226 63.449 41.704 63.449 41.704V58.7185C63.449 58.7185 63.2408 59.1905 63.0426 59.356C62.8534 59.5175 62.47 59.6438 62.47 59.6438L56.2848 59.6559L38.5435 59.6494ZM56.1839 88.677L56.1488 70.2124H63.4425C69.5299 70.2124 73.999 65.6318 73.999 59.5301V40.4189C73.999 34.3202 69.1495 29.8664 63.0661 29.8664L56.1488 29.8735L56.1453 11.5296C74.9358 14.2735 89.3617 30.4934 89.3617 50.0942C89.3617 69.6875 74.9654 85.9316 56.1839 88.677Z" fill="#B30738"/>
<path d="M331.794 95.4663L332.013 94.9646C332.159 94.8132 333.032 94.5872 333.387 94.1414C333.725 93.6971 340.978 77.2392 340.978 77.2392L341.423 77.1265L348.083 92.4633C348.527 93.4737 348.828 94.1555 349.084 94.4031C349.351 94.6381 350.018 94.9249 350.467 94.9651C350.733 94.9858 350.578 95.3742 350.578 95.3742L343.26 95.3642C343.26 95.3642 342.775 94.9923 343.26 94.8036C343.557 94.6879 344.734 94.3291 344.924 93.5804C345.004 93.2488 344.849 92.4638 344.512 91.5686C344.279 90.9386 343.616 89.5533 343.245 89.2896C342.912 89.0557 341.534 89.1809 340.269 89.1437C339.116 89.1105 337.589 89.0667 337.107 89.3284C336.501 89.6544 335.838 92.1825 335.694 92.5765C335.561 92.9569 335.694 93.845 336.028 94.1072C336.587 94.5445 337.703 94.8902 338.108 95.0044L338.221 95.4502L331.794 95.4663ZM342.872 87.9471C343.06 87.7036 342.37 86.3334 341.719 84.8867C341.237 83.8074 340.419 81.7116 340.157 81.7921C339.971 81.8464 339.303 83.5069 338.783 84.7005C338.221 85.9887 337.541 87.6029 337.812 87.8696C337.972 88.0327 339.228 88.1343 340.27 88.0961C341.463 88.0543 342.704 88.1751 342.872 87.9471ZM139.197 91.5565C139.586 89.6444 139.158 88.3839 138.045 87.4505C137.514 87.0062 136.101 86.3324 134.953 86.3324C133.371 86.3324 132.33 86.1824 132.33 87.9506L132.348 92.2655C132.348 94.6864 135.363 94.4287 135.363 94.4287C137.82 94.4287 138.9 93.0082 139.197 91.5565ZM186.787 94.7639C186.814 94.7971 187.719 94.5379 188.131 93.9039C188.347 93.5688 188.613 93.1104 188.613 91.9666V80.5482C188.613 79.8387 188.394 79.1553 188.093 78.868C187.802 78.5802 187.339 78.2783 186.309 78.1993C186.309 78.1993 185.523 77.7112 186.309 77.4918L193.189 77.4762C193.189 77.4762 193.824 77.675 193.268 77.9744C192.771 78.238 192.333 78.0498 191.935 78.4987C191.658 78.8107 191.49 79.4195 191.48 80.3897V86.0305C191.48 86.2549 191.698 86.585 191.777 86.592C192.146 86.6293 192.372 86.1709 192.559 86.0707C193.305 85.4352 194.454 84.1918 195.497 83.197C197.367 81.4132 198.311 80.4848 198.623 80.0611C199.032 79.5051 199.111 78.7196 198.887 78.4569C198.623 78.16 198.066 78.16 197.582 78.0091C197.582 78.0091 197.136 77.7102 197.654 77.5265H203.795C203.795 77.5265 204.018 78.0846 203.683 78.2335C202.834 78.3125 202.521 78.4931 202.011 78.7568C201.521 79.0069 200.505 79.7189 199.63 80.5839C199.63 80.5839 195.142 84.4565 195.311 84.9144C195.572 85.6204 198.164 88.6647 199.925 91.1036C200.681 92.1553 201.43 93.4646 201.861 93.7942C202.277 94.0961 202.937 94.7266 203.498 94.7266C204.148 94.7266 203.834 95.3229 203.834 95.3229C203.834 95.3229 200.34 95.1921 199.741 95.2474C199.329 95.2847 198.837 94.5369 198.837 94.5369C197.474 92.7476 193.561 87.2633 193.268 86.9246C193.118 86.8139 191.517 88.008 191.48 89.0179V92.3365C191.48 93.3338 191.712 93.84 191.999 94.1303C192.484 94.6119 193.708 94.7629 193.708 94.7261C194.274 94.8751 193.897 95.251 193.897 95.251H186.493C186.493 95.252 186.234 94.8766 186.787 94.7639ZM163.848 94.7714C164.349 94.5782 165.265 94.002 165.619 93.607C165.953 93.212 166.209 92.8663 166.209 91.4408C166.209 91.4408 166.133 82.7859 166.133 81.5168C166.133 80.4722 165.767 79.0899 165.283 78.7186C164.794 78.3422 164.216 78.1097 163.607 78.0851C163.607 78.0851 163.126 77.5617 163.646 77.449H168.296L179.313 89.6519C179.313 89.6519 179.74 90.1853 179.98 90.063L180.082 89.4698C180.13 88.5343 180.092 81.3568 180.092 81.3568C180.092 80.5854 180.239 79.7285 179.719 79.1297C179.052 78.3663 177.727 78.231 177.336 78.0856C177.039 77.9744 177.039 77.6377 177.373 77.5275H183.252C183.662 77.5627 183.368 77.9754 183.368 77.9754C182.697 78.1615 182.044 78.3085 181.731 78.7201C181.359 79.2042 181.166 79.9313 181.166 81.3583V95.5755H180.674C180.674 95.5755 168.576 82.3959 167.848 81.6688C167.517 81.3332 167.404 81.7795 167.404 82.2288C167.404 82.6747 167.371 91.2949 167.371 91.2949C167.371 92.7742 167.667 93.682 168.608 94.1781C168.974 94.3719 169.921 94.6094 170.345 94.6884C170.529 94.7276 170.622 95.2625 170.622 95.2625H163.849C163.848 95.261 163.669 94.8398 163.848 94.7714ZM143.779 95.3063L143.997 94.8021C144.148 94.6532 145.023 94.4282 145.375 93.9809C145.709 93.531 152.963 77.0767 152.963 77.0767L153.414 76.9639L160.075 92.3012C160.518 93.3086 160.812 93.9935 161.077 94.2405C161.34 94.4775 162.007 94.7634 162.452 94.8021C162.721 94.8237 162.567 95.2117 162.567 95.2117L155.157 95.3974C155.157 95.3974 154.9 94.9883 155.383 94.8021C155.684 94.6864 156.726 94.1671 156.908 93.4193C156.994 93.0857 156.833 92.3007 156.499 91.4076C156.265 90.7756 155.609 89.3903 155.237 89.1286C154.904 88.8941 153.522 89.0189 152.259 88.9817C151.103 88.945 149.576 88.9042 149.098 89.1679C148.489 89.4949 147.823 92.019 147.682 92.4119C147.549 92.7954 147.682 93.6815 148.015 93.9416C148.578 94.3804 149.691 94.7281 150.1 94.8383L150.21 95.2867L143.779 95.3063ZM154.864 87.7861C155.045 87.54 154.359 86.1744 153.712 84.7277C153.222 83.6448 152.41 81.548 152.146 81.6285C151.958 81.6889 151.291 83.3444 150.767 84.538C150.204 85.8317 149.53 87.4414 149.803 87.7121C149.964 87.8701 151.22 87.9698 152.259 87.936C153.451 87.8928 154.696 88.0166 154.864 87.7861ZM138.307 82.0859C138.321 80.8833 137.62 79.7733 136.851 79.1292C136.405 78.7573 135.552 78.309 134.583 78.309C133.243 78.309 132.36 78.4936 132.36 79.7642L132.348 84.5008C132.238 85.6204 134.911 85.3366 134.911 85.3366C137.152 85.3366 138.267 85.0266 138.307 82.0859ZM127.028 94.7518C127.922 94.5042 128.579 94.2838 128.854 93.9406C129.15 93.5688 129.253 93.3328 129.267 92.3234V80.369C129.261 79.6525 129.077 79.2419 128.665 78.793C127.865 77.9175 126.915 78.4931 126.771 78.16C126.659 77.9109 126.692 77.4611 126.692 77.4611H134.197C136.345 77.4611 137.767 77.5542 139.047 78.1988C140.015 78.6849 141.17 79.8382 141.17 81.5782C141.17 83.9835 139.234 84.8364 138.455 85.3964C139.943 85.807 142.397 86.6675 142.397 89.4658C142.397 92.3732 140.797 94.2048 139.272 94.6874C138.226 95.0245 136.919 95.2233 135.428 95.2348H127.028V94.7518H127.028ZM234.906 94.9113C234.906 94.9641 235.835 94.6129 236.244 94.2788C236.539 94.0347 236.765 93.5416 236.765 92.3727L236.804 81.069C236.804 80.124 236.686 79.6872 236.355 79.1639C236.019 78.6496 235.2 78.5314 234.235 78.3804C234.235 78.3804 233.531 77.8591 234.027 77.6448C233.972 77.6357 239.247 77.6729 241.788 77.7097C244.395 77.7514 246.993 77.4973 247.259 77.6729C247.595 77.8989 247.417 80.4108 247.481 80.8823C247.517 81.1419 247.315 81.6738 247.072 81.7035C246.774 81.7407 246.703 81.2069 246.703 80.8823C246.703 80.2095 246.135 79.4321 245.996 79.2409C245.637 78.7639 244.952 78.6688 244.622 78.6688H240.616C240.261 78.6688 240.159 78.6617 240.038 78.793C239.947 78.9138 239.793 79.2107 239.779 79.578V84.537C239.779 84.8359 239.794 85.2586 239.963 85.322C240.378 85.4694 243.051 85.4347 243.051 85.4347C243.503 85.4347 244.022 84.9848 244.173 84.7272C244.403 84.3231 244.788 83.837 244.989 83.2312C245.103 82.8981 245.695 82.6349 245.695 83.3832C245.695 83.8536 245.774 89.2041 245.774 89.2041C245.473 89.6152 245.215 89.0924 245.215 89.0924C245.014 88.0543 244.834 87.6789 244.504 87.3398C244.193 86.9996 243.721 86.592 243.051 86.592L240.747 86.5588C239.891 86.4813 239.854 87.4137 239.816 87.7489L239.779 92.5277C239.816 93.0092 239.929 93.6548 240.227 93.9416C240.528 94.2048 241.29 94.7452 242.309 94.8383C242.799 94.8771 242.459 95.4251 242.459 95.4251H234.717C234.717 95.4246 234.344 95.1745 234.906 94.9113ZM216.373 79.6525C218.02 78.0745 220.404 77.3891 222.811 77.3776C225.219 77.3776 227.215 77.755 228.873 79.3526C230.654 81.071 231.58 83.197 231.595 86.0707C231.595 88.9812 230.658 91.3547 228.8 93.0847C227.153 94.6184 224.828 95.5292 222.471 95.5418C219.959 95.5418 217.552 94.8625 215.888 93.1582C214.213 91.4282 213.595 89.1095 213.582 86.3656C213.582 83.5075 214.568 81.3971 216.373 79.6525ZM218.68 92.6359C220.157 94.32 221.176 94.6864 223.217 94.6864C224.634 94.6864 226.059 93.8511 227.164 92.5277C228.094 91.4076 228.541 89.429 228.541 86.516C228.541 83.59 227.735 81.6411 226.644 80.286C225.378 78.7176 224.007 78.3598 222.438 78.3472C220.844 78.3472 219.24 78.7568 218.194 79.9499C217.055 81.2526 216.538 83.3333 216.522 86.1824C216.522 89.0043 217.858 91.7045 218.68 92.6359ZM312.042 94.7644C312.042 94.8031 313.233 94.3905 313.68 93.7212C313.957 93.2986 314.137 92.8995 314.137 91.481L313.979 80.3253C313.903 79.4648 313.257 78.8645 312.975 78.7186C312.604 78.5324 311.995 78.5762 311.67 78.309C311.67 78.309 310.925 77.7529 311.557 77.6367C311.51 77.6558 316.06 77.4893 316.122 77.6558C316.619 77.9738 323.727 85.883 326.668 89.2796C327.637 90.4334 328.007 90.2472 327.967 89.1286L328.007 80.7731C328.007 79.578 327.41 79.1639 327.153 78.9792C326.609 78.5918 326.106 78.3085 325.214 78.1515C325.214 78.1515 324.472 77.8989 325.214 77.6553H331.058C331.468 77.6357 331.468 77.9728 331.058 78.0835C330.538 78.0835 329.911 78.5052 329.574 78.9012C329.232 79.2988 329.064 80.1869 329.064 81.6034L329.047 95.2469C329.013 95.883 328.414 95.5478 328.414 95.5478C328.414 95.5478 317.33 83.4184 316.009 81.9365C315.991 81.9219 315.804 81.5531 315.482 81.787C315.281 81.9304 315.256 82.0019 315.277 82.3345L315.31 91.4795C315.31 92.9504 315.815 93.7565 316.245 94.2023C316.522 94.4916 316.977 94.7327 317.957 94.8358C318.552 94.8011 318.445 95.4276 318.445 95.4276L311.636 95.4331C311.637 95.4346 311.519 94.9118 312.042 94.7644ZM301.699 94.9465C301.96 94.8761 302.523 94.5656 302.854 94.316C303.166 94.0644 303.341 93.5683 303.353 92.5176L303.409 80.9945C303.37 80.2468 303.37 79.3511 303.001 78.9792C302.459 78.4373 301.852 78.2068 300.748 78.1515C300.748 78.1515 300.282 77.8989 300.748 77.6553H308.138C308.729 77.7514 308.059 78.1515 308.059 78.1515C307.467 78.159 306.989 78.472 306.759 78.7563C306.42 79.1629 306.434 80.0002 306.383 80.6221V92.5176C306.383 93.5552 306.728 94.1666 307.058 94.4282C307.367 94.6652 307.744 94.8585 308.842 94.9516C309.548 95.0623 308.842 95.4336 308.842 95.4336L301.699 95.4286C301.139 95.2484 301.699 94.9465 301.699 94.9465ZM278.481 94.8766C278.434 94.8821 279.592 94.1218 279.853 93.8304C280.116 93.5562 280.338 93.0948 280.338 91.9289L280.413 80.8073C280.413 79.8492 280.219 79.3113 280.002 78.943C279.743 78.4936 279.137 78.4252 278.143 78.3477C278.143 78.3477 276.726 78.0096 278.031 77.6744H284.988C285.737 77.7107 285.105 78.153 285.105 78.153C284.543 78.1605 284.096 78.3477 283.816 78.6909C283.566 79.0104 283.32 79.5795 283.374 80.5678V84.5018C283.374 84.5018 283.32 85.4362 284.134 85.3974C285.33 85.3441 290.674 85.4991 291.499 85.4362C292.471 85.3622 292.654 84.7654 292.654 84.3156C292.692 83.1985 292.654 80.6825 292.654 80.6825C292.654 79.7234 292.398 78.9933 292.114 78.6914C291.823 78.4071 291.184 78.2345 290.186 78.1535C289.491 78.0503 289.974 77.6573 289.974 77.6573L297.379 77.6644C297.379 77.6644 297.752 78.0856 297.157 78.161C296.56 78.1223 296.317 78.3945 296.019 78.6914C295.728 78.9812 295.585 79.5992 295.585 80.5683L295.595 92.413C295.595 93.3851 295.786 93.6946 296.081 93.9819C296.367 94.2421 296.686 94.6954 297.676 94.8036C298.197 94.8771 298.423 95.3984 297.827 95.4356L291.054 95.5866C291.054 95.5866 290.161 95.176 291.166 94.8388C291.166 94.8776 291.947 94.5797 292.248 94.0946C292.443 93.7675 292.582 92.901 292.582 92.3022C292.582 92.3022 292.621 88.1625 292.621 87.5234C292.621 87.0796 292.47 86.4828 291.875 86.5925C291.875 86.5925 284.614 86.5739 284.023 86.517C283.613 86.4828 283.35 86.7032 283.35 87.4882V92.19C283.35 93.1592 283.869 93.9542 284.169 94.2426C284.46 94.5178 284.997 94.7845 285.996 94.8776C286.851 94.9903 286.214 95.4361 286.214 95.4361L278.299 95.4301C278.3 95.4296 277.846 95.0275 278.481 94.8766ZM271.072 78.16C272.016 78.6516 272.784 79.0517 273.196 79.0185C273.451 78.9918 273.66 78.4725 273.749 78.16C274.163 77.598 274.311 78.6059 274.311 78.5716L274.642 83.6051C274.642 83.6051 274.311 84.0952 273.975 83.6051C273.623 82.411 272.69 81.0967 272.041 80.3977C271.072 79.3516 269.322 78.3034 267.461 78.2697C265.344 78.233 263.875 79.105 262.774 80.4712C261.843 81.6285 261.286 83.5709 261.286 85.5851C261.286 87.9688 262.294 90.7358 263.707 92.0768C265.077 93.3796 266.544 94.0383 268.47 94.0539C269.855 94.0539 270.638 93.6765 271.817 93.0077C272.485 92.6429 273.39 91.6562 274.197 90.8838C274.679 90.4731 274.943 91.0332 274.943 91.0332C275.018 91.4408 273.479 93.052 272.227 94.0544C271.294 94.8021 268.876 95.6611 267.649 95.6611C264.773 95.6611 263.111 95.5101 260.578 93.2331C259.148 91.945 258.348 89.2781 258.332 86.7218C258.332 84.1093 259.162 81.9169 260.804 80.1351C262.534 78.2707 264.784 77.3413 267.584 77.3413C268.551 77.3413 270.146 77.6744 271.072 78.16ZM197.981 26.7484C198.097 26.5285 198.127 26.9356 198.678 27.5399C199.23 28.1407 198.89 28.3264 199.219 28.811C199.547 29.3031 199.55 29.0414 199.467 29.601C199.39 30.156 199.281 30.0438 198.788 30.4473C198.302 30.8454 198.713 30.6667 198.233 30.1786C197.759 29.6875 198.175 28.9846 197.701 28.5689C197.221 28.1543 197.185 28.1543 197.3 27.4861C197.421 26.8168 197.863 26.9718 197.981 26.7484ZM196.1 28.588C196.326 28.4421 196.726 29.1179 197.016 29.8289C197.299 30.5394 197.303 30.3885 197.554 31.1755C197.806 31.9635 197.735 31.5881 197.095 32.3232C196.453 33.0644 195.602 32.9764 194.739 33.7488C193.874 34.5212 193.501 34.2927 192.718 34.8427C191.932 35.3917 192.045 35.208 191.381 34.9393C190.714 34.6706 190.755 34.4809 191.207 33.9284C191.656 33.3769 191.583 33.6738 191.919 33.381C192.256 33.0846 191.516 33.0403 191.886 32.7454C192.263 32.4541 192.22 32.8612 192.822 32.2015C193.426 31.5357 193.246 31.42 193.471 31.0144C193.697 30.6089 193.962 30.1283 194.602 29.835C195.236 29.5466 195.878 28.734 196.1 28.588ZM200.99 12.7073C201.213 12.6001 201.698 12.6072 202.215 12.6857C202.519 12.735 201.989 12.6072 203.295 12.5503C203.961 12.5221 204.331 12.8613 204.923 13.2035C206.308 14.007 207.28 14.2883 207.577 14.7276C207.832 15.098 208.027 15.8246 207.929 16.3705C207.849 16.8144 207.804 17.6713 207.237 18.1483C206.752 18.563 206.468 18.9403 206.226 19.1809C205.997 19.4023 206.082 20.0705 205.688 20.2149C205.206 20.3971 204.838 20.0589 204.245 20.0514C203.61 20.0403 203.123 20.4077 202.939 20.218C202.806 20.0806 202.663 19.8526 202.43 19.6926C202.208 19.5396 201.878 19.6504 201.838 19.3857C201.77 18.9731 201.254 17.8791 200.856 17.4756C200.709 17.3246 201.082 16.5401 200.873 16.2815C200.651 16.0163 200.693 15.6072 200.658 15.3476C200.625 15.0758 200.627 14.8489 200.631 14.5646C200.635 14.3049 200.289 13.8883 200.457 13.5567C200.572 13.3373 200.744 12.8271 200.99 12.7073ZM194.971 17.3981C194.835 16.6886 195.65 16.8873 196.395 16.4848C197.146 16.0827 196.77 16.1899 196.988 16.7867C197.206 17.3875 196.764 16.8249 196.568 17.6416C196.378 18.4578 196.378 18.3103 195.851 18.6777C195.327 19.039 195.402 18.6354 195.151 18.2208C194.896 17.8056 195.115 18.1076 194.971 17.3981ZM186.053 12.899C185.902 12.5498 186.816 11.3416 189.227 8.31846C191.37 5.63393 195.821 3.85213 197.648 3.20804C198.039 3.06765 199.331 2.69026 199.776 2.59566C200.112 2.52672 201.465 2.46885 201.783 2.36016C202.419 2.14631 203.485 2.22329 203.681 2.12316C204.145 1.90025 204.635 1.77394 205.174 1.65771C205.794 1.52637 206.584 1.8615 207.144 1.75583C208.231 1.55405 209.087 2.17549 209.695 2.49653C211.798 3.60355 214.092 7.5053 214.957 9.71381C215.823 11.9223 217.601 18.1282 217.913 23.1999C218.114 26.457 217.991 34.971 217.867 36.2753C217.641 38.5981 217.547 44.0527 217.385 45.0958C217.193 46.3543 217.047 48.5225 216.592 49.2984C215.75 50.7325 212.331 53.2908 211.592 53.965C210.992 54.5191 208.406 56.7759 208.105 56.7567C207.732 56.7301 207.298 55.9627 206.487 55.1717C205.045 53.7552 201.285 52.4243 199.697 51.5497C198.139 50.6862 193.03 50.2102 189.909 50.013C187.682 49.8746 184.27 49.5742 184.159 49.311C184.037 49.0161 183.79 49.1183 183.452 49.1133C183.148 49.1112 183.117 49.4856 183.043 49.6295C182.925 49.8519 183.19 49.7433 183.072 50.3773C182.95 51.0093 183.251 50.6017 183.319 51.125C183.391 51.6504 183.614 51.4269 183.421 51.9085C183.233 52.3916 184.195 52.7388 184.372 53.2621C184.586 53.8835 184.575 54.6801 183.911 54.7088C183.19 54.7415 182.56 55.0263 181.791 54.7576C181.233 54.5628 179.323 52.8278 179.227 51.7429C179.141 50.8201 179.015 48.683 178.939 48.0163C178.803 46.8263 178.357 43.6888 178.232 42.1224C178.097 40.5545 177.949 40.8886 178.252 40.2581C178.557 39.6296 177.778 39.535 178.046 38.6937C178.241 38.0949 177.993 36.9491 178.337 36.2029C178.491 35.8672 178.091 35.8672 178.121 35.5271C178.168 35.0772 178.208 34.7823 178.323 34.338C178.416 33.9959 178.369 33.5923 178.341 32.9583C178.311 32.3248 178.315 32.0641 178.584 31.6183C178.745 31.343 178.438 31.2057 178.481 30.6516C178.505 30.3281 178.892 27.4111 179.051 26.2975C179.217 25.188 179.459 22.2252 179.665 21.8352C180.235 20.7624 180.561 18.3456 180.795 17.4881C181.042 16.5854 181.831 15.7768 182.014 15.0809C182.093 14.786 182.574 14.5319 182.764 14.6476C183.02 14.8021 183.125 15.5856 183.122 15.8799C183.115 16.3152 182.828 18.1986 182.643 18.5936C182.41 19.0752 182.165 20.8178 182.13 21.0855C182.058 21.5499 182.041 22.0893 182 22.4229C181.956 22.7586 181.73 23.2044 181.614 23.5727C181.523 23.8787 181.688 24.4961 181.598 24.802C181.484 25.2106 181.519 25.4743 181.327 25.8044C181.146 26.1239 181.43 26.4384 181.316 26.7001C181.172 27.0211 181.456 27.3351 181.232 27.7024C180.996 28.0864 181.388 28.1729 181.258 28.6716C181.1 29.2704 181.128 29.7529 180.978 30.0458C180.827 30.3427 181.258 30.7342 181.111 31.2801C180.917 32.0228 181.05 36.2396 180.935 37.0895C180.81 37.9424 180.852 40.6249 180.953 41.113C181.025 41.4481 181.054 42.1189 181.351 42.0822C181.72 42.0419 181.785 40.8357 182.144 40.9042C182.37 40.9444 182.223 41.6323 182.28 42.0947C182.384 42.9552 182.316 42.223 182.52 43.7382C182.657 44.7481 182.486 46.4202 182.629 46.9455C182.769 47.4688 182.691 47.9494 183.248 47.9564C183.73 47.9635 183.55 47.5876 183.929 47.1106C184.304 46.6275 184.329 46.5575 184.636 46.782C184.895 46.9722 186.714 46.9556 187.31 46.8539C188.08 46.7155 188.616 46.0775 189.147 45.6825C189.782 45.207 192.261 42.8525 193.502 41.7873C194.064 41.3062 195.612 39.4661 196.214 38.8763C197.212 37.9021 198.754 36.2924 198.994 36.0061C199.185 35.7847 199.264 35.4868 199.044 35.0742C198.915 34.8251 198.714 34.7723 198.452 34.9192C197.81 35.279 196.989 36.3523 196.35 36.7574C195.233 37.4618 193.827 38.4159 193.053 38.8763C192.195 39.384 190.958 39.9667 190.175 40.404C189.163 40.9726 188.027 41.3394 187.857 41.4205C187.484 41.6046 187.351 41.7138 187.004 41.4451C186.71 41.2207 186.8 41.354 187.09 40.404C187.286 39.772 186.786 39.0836 187.492 38.1744C187.943 37.5841 188.371 36.063 189.088 35.1779C189.343 34.8583 190.728 33.1273 191.012 32.6654C191.242 32.2991 191.696 32.0953 191.765 31.971C191.994 31.5191 192.278 30.9681 192.411 30.8942C192.88 30.6486 193.351 29.9497 193.423 29.8636C193.58 29.686 193.638 29.5703 193.543 29.2714C193.505 29.1577 193.267 28.7415 192.985 29.0787C192.687 29.446 192.13 29.5507 191.905 29.6986C191.485 29.9693 191.596 30.478 191.186 30.5082C190.584 30.5555 190.641 29.5703 190.717 29.2387C190.813 28.8472 190.502 28.7491 190.691 28.34C191.132 27.4045 191.003 27.3024 191.118 27.1197C191.23 26.9325 191.333 27.076 191.566 26.7896C191.717 26.602 191.426 26.3418 191.61 26.1174C191.993 25.671 192.102 25.1372 192.482 24.8971C192.893 24.644 193.611 23.6834 193.686 23.4258C193.781 23.1063 193.812 22.7817 193.922 22.4567C193.962 22.3439 193.538 22.2861 193.37 22.0793C193.187 21.8528 193.339 21.7049 193.414 21.2958C193.457 21.0744 193.016 20.8042 193.019 20.5098C193.023 20.1727 192.984 20.0252 192.577 20.0569C192.168 20.0881 191.275 21.0155 190.561 21.1509C189.812 21.2892 189.223 20.7589 189.607 20.0217C190.078 19.1014 191.193 17.7694 191.418 17.5057C191.754 17.1284 191.689 16.7706 191.655 16.3962C191.62 16.0133 191.275 15.1639 191.161 14.2632C191.096 13.7419 190.529 11.8091 190.413 11.5756C190.341 11.4267 190.173 10.9627 190.608 10.7942C190.796 10.7207 191.165 11.1353 191.418 11.5107C191.806 12.0783 192.403 13.126 192.581 13.5013C192.807 13.9668 193.023 14.4423 193.124 14.8096C193.194 15.0748 193.374 15.5594 193.748 15.6032C194.113 15.6414 194.343 15.6082 194.569 15.3873C194.951 15.0134 196.931 14.2335 197.78 13.9356C198.189 13.7932 198.415 13.7197 198.853 13.9884C199.102 14.1374 199.402 15.0009 199.549 15.0748C199.85 15.2343 199.994 15.1941 199.915 15.417C199.864 15.5629 199.915 15.4884 199.54 15.9343C199.16 16.3746 199.491 16.5296 199.119 17.1243C198.736 17.7131 198.428 18.5252 198.274 18.8941C198.127 19.2553 197.786 19.4103 197.525 19.672C197.22 19.9669 197.327 20.376 197.18 20.4494C196.713 20.6759 196.724 20.6039 196.578 20.9269C196.427 21.257 196.345 21.7763 196.711 22.4556C196.889 22.7913 197.224 22.8683 197.292 23.1319C197.429 23.6321 197.772 23.622 197.956 23.8837C198.267 24.3386 198.21 24.3099 198.39 24.6003C198.722 25.1236 198.68 24.9037 199.092 25.2021C199.348 25.3893 199.563 25.9921 199.853 26.294C200.336 26.7841 200.958 27.163 201.399 27.6914C201.754 28.115 201.766 28.3289 201.721 28.7013C201.654 29.3293 201.793 28.9629 201.564 29.4047C201.396 29.7368 201.554 30.1882 201.55 30.4111C201.547 30.8237 201.543 31.1181 201.28 31.4905C201.012 31.8578 200.261 32.8179 200.107 33.1882C199.979 33.4957 199.875 33.8167 200.025 33.9677C200.226 34.1785 200.391 34.2716 200.654 34.0905C201.13 33.7548 202.541 31.4321 203.749 29.8787C204.394 29.0535 205.721 26.848 206.026 26.2568C206.336 25.6494 207.273 24.5062 207.461 24.2621C207.573 24.1152 207.906 24.1182 207.978 24.3799C208.039 24.6113 207.936 24.8644 208.004 25.0169C208.107 25.2172 208.373 25.0944 208.411 25.428C208.442 25.7651 208.477 25.9141 208.364 26.0962C208.279 26.2407 208.573 26.3176 208.398 26.6196C208.243 26.8812 208.425 27.403 208.01 27.8826C207.419 28.5654 205.966 30.4992 205.366 31.2791C204.538 32.3499 202.123 35.2241 201.75 35.5573C201.546 35.7314 201.299 36.1244 201.406 36.3714C201.586 36.784 202.277 37.9449 202.683 38.2851C203.207 38.7223 204.301 39.3825 204.788 39.3926C205.358 39.3996 205.735 39.2311 205.943 39.07C206.841 38.3711 207.563 36.854 207.871 36.1118C208.298 35.0817 208.99 32.9588 209.03 32.6287C209.093 32.1054 208.857 31.5418 208.897 31.3561C208.95 31.1277 209.269 31.1755 209.342 31.4019C209.435 31.7003 209.517 32.2603 209.585 32.6322C209.704 33.2526 208.764 36.4228 208.6 37.5006C208.398 38.8034 206.83 41.0254 206.695 41.3545C206.615 41.5367 206.651 41.8351 206.278 41.8653C205.844 41.9075 205.686 41.7843 205.427 41.7103C204.462 41.4361 203.652 40.7557 203.034 40.1881C202.406 39.6231 200.94 37.8166 200.755 37.5147C200.623 37.2898 200.136 36.9511 199.91 37.1373C199.501 37.4684 198.892 38.3852 198.59 38.6081C198.359 38.7792 197.908 38.9573 197.653 39.2285C197.277 39.6341 196.827 40.1519 196.379 40.554C196.042 40.8539 194.611 41.9131 194.348 42.1707C193.937 42.5768 193.445 43.2385 193.144 43.4589C192.843 43.6803 191.835 44.2982 191.533 44.6338C191.196 45.0027 190.719 45.756 190.327 45.921C190.066 46.0277 189.728 46.47 189.983 46.6969C190.241 46.9234 191.102 46.5309 191.658 46.4237C192.1 46.3392 192.775 46.3236 193.261 46.2934C193.555 46.2687 193.831 45.9562 194.525 45.7474C195.128 45.5698 195.53 45.8334 195.791 45.763C196.115 45.6754 196.314 45.5471 196.838 45.4032C197.42 45.2452 198.213 45.3474 198.546 45.2035C198.786 45.0963 198.776 45.0208 199.224 44.7259C199.515 44.5347 199.904 44.7118 200.226 44.6278C200.882 44.4555 201.53 44.2517 202.167 44.0169C202.784 43.7905 204.778 43.3044 205.075 43.2712C205.358 43.2395 205.786 42.6105 206.271 42.4299C206.887 42.1999 208.06 42.4112 208.541 42.1214C208.828 41.9488 209.485 42.3282 209.793 42.8827C210.195 43.5958 209.742 43.9611 209.631 44.3697C209.334 45.3952 209.054 45.8551 208.717 46.2224C208.373 46.5887 208.254 47.258 207.698 47.4054C207.057 47.5634 206.722 47.658 206.025 47.3435C204.77 46.7674 204.093 47.3194 203.354 47.1634C202.25 46.9244 201.825 47.4789 201.305 47.4316C201.046 47.414 200.211 47.2741 199.969 47.419C199.246 47.8387 198.665 47.737 198.18 47.8809C197.774 48.0002 197.62 48.3952 197.839 48.5849C198.222 48.911 199.5 49.2375 200.544 49.1746C202.212 49.078 203.436 49.4343 204.106 49.4816C205.105 49.5485 205.807 50.096 206.292 50.103C206.839 50.1081 207.068 50.3717 207.623 50.5277C207.992 50.6334 208.436 50.7647 208.846 50.7285C209.295 50.6968 209.632 51.0355 209.808 50.963C210.481 50.7124 210.483 50.7718 210.853 50.6787C211.15 50.6103 211.756 49.8288 212.165 49.5425C212.693 49.1741 213.783 48.1436 214.009 47.5136C214.245 46.8715 214.321 46.5882 214.55 45.768C214.751 45.0802 214.454 45.0258 214.724 43.9108C214.963 42.9471 214.72 41.3792 214.913 40.7839C215.032 40.4065 214.995 40.2254 215.108 39.8902C215.265 39.4394 215.111 39.1038 215.083 38.9246C215.05 38.6982 215.391 38.2171 215.391 37.9208C215.395 37.6621 215.103 37.4327 215.296 36.9144C215.535 36.2597 215.347 35.5713 215.535 35.352C215.724 35.1295 215.323 34.7552 215.437 34.418C215.61 33.9143 215.624 31.8442 215.515 30.7699C215.388 29.4269 215.589 27.6008 215.637 26.9305C215.66 26.5904 215.2 26.3317 215.351 26.0354C215.559 25.6318 215.329 24.9927 215.261 24.4709C215.169 23.774 214.949 22.4934 214.92 21.7109C214.871 20.3699 213.622 12.575 212.826 10.5823C211.712 7.772 208.733 4.83134 207.516 4.29544C206.354 3.78118 204.846 3.85163 203.885 3.83905C203.139 3.82898 200.495 4.24764 198.148 4.99739C196.061 5.66664 193.832 6.70221 193.104 7.13445C192.245 7.64519 191.268 8.82669 190.621 9.48687C189.933 10.2079 189.753 11.0634 189.561 11.4498C189.032 12.5262 189.568 13.8727 189.678 14.2446C189.855 14.8796 189.697 15.3274 189.438 15.4361C188.857 15.6766 189.104 15.6912 188.022 15.8261C187.669 15.8704 187.02 15.5559 186.987 15.2942C186.906 14.6471 186.34 13.5693 186.053 12.899ZM350.603 26.4616C349.981 26.8022 348.083 28.9252 347.597 29.1426C347.128 29.3534 346.453 28.8351 346.042 28.9025C344.958 29.0726 342.379 29.6926 340.564 30.0257C339.042 30.3049 336.505 31.253 335.828 31.6077C335.343 31.8603 335.325 32.2065 335.595 32.4606C336.516 33.3281 337.288 33.7458 337.729 34.3129C338.026 34.6973 337.571 34.8679 337.452 35.5019C337.305 36.2723 336.806 39.924 337.039 41.904C337.248 43.6315 338.15 48.833 338.389 50.2661C338.594 51.5351 338.777 53.2701 338.938 53.9228C339.166 54.8376 338.834 56.4558 338.496 56.8262C337.252 58.1783 335.296 60.1744 334.773 60.3551C333.985 60.6288 332.95 60.5921 332.215 59.9877C331.257 59.2008 330.902 57.7737 330.615 57.0285C330.121 55.7428 328.713 54.7651 327.713 54.0455C325.962 52.773 322.109 50.812 321.532 49.4267C321.45 49.2305 321.316 48.8249 321.728 48.682C322.5 48.4103 322.869 49.3684 323.386 49.7458C324.36 50.4643 325.194 50.6621 325.898 50.8925C327.003 51.2594 328.983 51.749 329.452 51.905C330.576 52.2793 331.154 52.4509 332.013 52.1631C332.595 51.9669 333.561 50.1322 333.611 49.3472C333.719 47.4512 333.288 45.209 333.335 44.2786C333.474 41.6016 333.414 41.1009 333.694 39.068C333.901 37.5791 333.504 36.458 333.551 35.7887C333.607 34.9564 333.614 33.7382 333.841 33.148C334.031 32.6493 333.421 32.6755 332.991 32.8023C330.938 33.4096 329.981 34.3647 328.207 35.2005C326.973 35.7817 324.767 37.1363 323.867 37.4558C323.242 37.6863 322.74 38.5603 322.374 38.2197C321.959 37.8352 321.371 37.9479 321.011 37.2716C320.482 36.2869 321.33 35.3771 322.007 34.9751C322.898 34.4452 323.713 34.7738 326.445 33.4288C329.173 32.0837 332.128 30.2949 334.331 29.4294C336.484 28.578 342.353 26.8133 343.211 26.6311C344.061 26.445 345.925 26.2764 346.223 26.1451C347.379 25.6373 348.422 25.6519 348.793 25.583C349.306 25.4834 350.052 25.6695 350.5 25.7113C351.041 25.7667 351.199 26.135 350.603 26.4616ZM327.422 20.0318C328.21 19.6297 328.422 20.5636 328.684 20.5677C329.46 20.5762 330.162 20.6658 331.137 20.3412C331.881 20.0851 336.591 17.7221 338.191 17.3301C340.932 16.6649 344.756 15.5871 346.089 15.6746C346.54 15.7048 346.571 16.0168 346.12 16.2734C345.618 16.5618 345.477 17.2723 345.064 17.6743C344.796 17.938 344.907 18.7542 344.673 19.0475C344.403 19.4088 343.999 19.6 343.518 19.5935C342.769 19.5864 342.697 19.5864 342.22 19.5794C341.668 19.5724 340.567 20.2763 340.164 20.3724C340.017 20.4077 339.637 20.0866 339.279 19.99C338.427 19.7585 335.195 21.0467 333.943 21.5987C332.638 22.1814 330.316 23.3277 329.153 24.5605C328.701 25.038 328.239 25.9297 327.507 25.5085C326.837 25.1276 326.564 23.5949 326.386 22.9236C326.231 22.3399 326.309 20.6004 327.422 20.0318ZM323.227 1.64865C323.931 1.76841 325.23 4.9511 325.959 6.37614C326.191 6.84008 326.345 7.58078 326.485 8.76781C326.554 9.32736 327.06 10.3775 326.93 11.6436C326.869 12.2736 327.053 13.4118 326.832 13.9482C326.675 14.3205 326.08 14.6833 326.077 15.2087C326.069 15.5176 325.581 16.2075 325.279 16.5004C324.803 16.9593 324.512 18.176 324.208 18.5755C323.644 19.3107 322.212 19.2865 321.189 19.5784C320.44 19.7958 319.539 20.2713 318.754 20.8173C317.971 21.3688 316.558 21.8584 315.579 22.5286C314.829 23.0419 313.291 24.5882 312.838 24.955C312.525 25.2056 311.99 25.6308 312.49 26.0681C313.007 26.5229 314.456 26.2769 316.415 27.159C317.708 27.7417 318.847 28.5352 319.503 29.6181C320.049 30.5168 319.779 31.3033 319.181 31.6651C318.699 31.9559 318.372 32.8234 317.34 33.6889C316.816 34.1312 316.435 35.2564 315.601 35.9749C314.962 36.5259 312.65 38.9941 311.769 39.6542C311.284 40.0246 311.29 40.6335 312.087 40.9253C312.826 41.196 315.12 42.8183 315.876 43.9168C316.68 45.0792 317.035 47.5876 317.182 49.6315C317.278 50.9761 316.357 53.014 315.971 54.4255C315.78 55.1274 315.639 55.4283 314.733 55.2648C314.502 55.2235 314.091 54.6745 313.707 54.2815C313.158 53.72 312.391 53.4915 312.013 53.0719C311.571 52.5808 310.962 52.3015 310.654 51.826C310.288 51.2629 310.33 48.6815 310.521 47.5388C310.679 46.5711 310.829 45.8903 311.07 45.1597C311.264 44.5679 311.64 42.6196 310.919 42.4751C310.508 42.3997 308.972 43.237 308.153 43.636C307.242 44.0798 306.206 44.6907 305.754 45.209C305.249 45.7831 304.958 46.5762 304.878 47.1735C304.8 47.7561 304.388 48.1597 304.125 48.0193C303.574 47.7154 303.027 47.975 302.637 48.0752C302.083 48.2176 301.713 47.7068 301.085 47.4588C300.01 47.0356 300.502 47.3621 299.57 46.5827C298.985 46.0906 297.675 44.1654 298.171 42.8067C298.438 42.062 298.181 41.7219 298.937 41.0249C300.767 39.3221 301.481 38.3741 303.338 36.3478C304.316 35.2805 305.974 33.5475 306.99 32.7052C307.397 32.363 307.776 31.7556 308.084 31.0411C308.276 30.5983 309.349 29.7942 308.662 29.3343C307.923 28.8427 306.973 28.7883 306.435 29.0097C305.915 29.2261 305.574 28.6238 304.958 28.2836C304.405 27.9777 303.788 28.3923 303.365 28.0798C302.848 27.6984 302.593 27.4337 302.116 27.0966C301.669 26.7791 300.835 26.3222 301.241 25.4813C301.546 24.8529 301.293 23.9542 301.969 23.4414C302.836 22.7827 303.433 22.1195 304.038 21.6053C305.201 20.614 308.405 16.8903 310.553 14.4197C312.813 11.8182 316.974 5.63393 318.592 3.9744C318.933 3.6262 318.786 2.81354 320.513 1.91283C321.56 1.36837 322.386 1.50524 323.227 1.64865ZM273.134 9.86528C273.27 10.4973 272.719 12.8432 272.062 14.8459C271.406 16.8451 271.255 17.5138 270.67 19.3359C270.411 20.146 269.887 19.7711 269.587 20.1067C269.249 20.4731 269.998 19.8114 268.568 21.2092C267.704 22.0551 265.878 23.1863 265.378 23.7408C265.119 24.0357 264.564 23.8812 264.455 23.3211C264.391 22.9528 264.393 22.6106 264.363 21.8659C264.342 21.2339 264.897 20.4524 265.019 20.1244C265.21 19.6025 265.522 18.5635 265.529 17.8932C265.542 16.6257 266.9 14.9314 267.958 13.6775C269.009 12.4245 273.134 9.86528 273.134 9.86528ZM266.534 29.7172C267.094 29.3096 267.047 30.3935 267.571 30.2878C267.898 30.2229 268.173 29.8173 268.395 29.5577C268.583 29.3313 268.867 29.1712 269.059 30.1213C269.164 30.6446 269.26 31.1377 268.966 31.4995C268.515 32.0485 265.935 32.9865 265.491 33.1686C265.174 33.2964 265.074 33.4333 264.937 32.7892C264.762 31.97 265.73 31.5327 265.776 31.1624C265.851 30.4811 266.075 30.0458 266.534 29.7172ZM272.114 41.185C272.636 41.2655 273.981 40.5016 274.545 40.0628C274.95 39.7398 275.323 40.2178 275.097 40.6249C274.85 41.0617 273.96 42.1008 273.773 42.5838C273.66 42.8646 273.357 43.0619 273.134 42.9839C272.637 42.8053 272.154 42.5883 271.689 42.3348C271.172 42.0379 271.636 41.109 272.115 41.1845L272.114 41.185ZM260.144 41.9699C260.321 41.5588 261.361 42.7685 262.024 42.926C262.739 43.0931 263.546 43.4302 264.432 43.6632C265.651 43.9812 266.946 44.6998 267.868 45.3438C268.5 45.7841 269.346 45.9562 270.081 46.711C270.354 46.9918 270.258 47.3813 270.032 47.6399C269.773 47.9398 269.615 48.3051 269.127 48.6347C267.858 49.4952 263.631 51.7344 263.068 52.2109C262.35 52.8223 260.984 52.4831 260.539 52.0675C260.151 51.7017 259.74 51.1421 259.631 50.3818C259.46 49.1857 259.382 46.951 259.467 45.8732C259.548 44.8557 259.57 43.3039 260.144 41.9699ZM246.579 42.5858C246.583 42.3242 247.922 41.7083 248.668 41.345C249.393 40.9937 250.053 40.6903 250.685 40.6234C251.004 40.5882 251.362 40.8654 251.237 41.2655C251.044 41.8945 248.149 44.6922 247.133 45.7967C246.917 46.0322 246.505 45.1929 246.48 44.6716C246.448 44.0728 246.572 43.1524 246.579 42.5858ZM244.273 36.3729C244.688 36.3256 244.858 36.9219 244.521 37.4186C244.295 37.7522 243.666 37.9293 243.515 37.7406C243.268 37.4296 243.488 37.1468 243.86 36.8852C244.192 36.6623 243.976 36.4082 244.273 36.3729ZM247.602 25.3862C248.345 25.3233 248.367 25.6741 248.416 25.7304C248.6 25.9604 249.003 26.9029 249.291 27.2309C249.547 27.5329 249.748 27.8791 250.172 28.026C250.395 28.0994 250.419 29.1094 250.375 29.5572C250.329 30.0362 249.157 30.2345 248.579 30.6854C248.203 30.9822 247.984 31.2157 247.752 31.5352C247.448 31.9388 247.373 32.1617 246.958 32.5291C246.616 32.8345 247.033 34.4392 246.777 35.1728C246.661 35.5059 247.108 35.4747 247.481 35.4803C247.663 35.4833 247.728 35.1326 247.968 34.9273C248.271 34.6711 249.096 34.0794 249.507 33.8318C249.81 33.6456 249.418 32.6327 249.855 32.5291C250.157 32.4586 250.176 33.5591 250.362 33.9878C250.505 34.3249 250.987 35.5764 250.854 36.0801C250.734 36.5264 250.652 37.021 250.505 37.3089C250.351 37.5997 248.556 38.3741 248.736 39.1455C248.843 39.5944 250.172 38.9644 250.854 39.0227C251.373 39.068 252.364 38.9649 252.826 38.9734C253.267 38.9785 254.129 39.6412 254.624 40.5223C254.881 40.9731 253.052 42.5798 252.093 43.8106C251.15 45.0268 247.474 48.1451 246.723 48.8808C246.336 49.2602 246.59 50.6334 246.289 50.8151C245.926 51.0344 245.612 50.8186 245.214 50.9117C244.915 50.9841 244.398 51.1874 244.237 51.5356C244.087 51.8687 244.055 52.1319 244.342 52.2803C244.707 52.4701 248.596 50.5066 250.473 48.8199C252.439 47.0487 255.129 44.3289 256.118 43.0719C256.871 42.1159 256.586 38.0526 257.456 34.0764C257.852 32.2483 258.734 26.3448 259.363 23.5571C260.085 20.3724 262.57 15.4276 263.039 14.6964C263.226 14.4051 263.025 14.1152 263.2 13.8435C263.391 13.5486 263.466 13.3242 264.13 13.6312C264.4 13.7575 264.829 14.2732 265.088 14.1681C265.673 13.919 264.787 14.4212 266.893 12.3596C268.999 10.3005 271.021 9.28208 272.145 8.43822C273.267 7.59336 274.022 6.63528 274.584 6.38268C275.044 6.17537 275.482 6.37362 275.654 6.84612C275.836 7.33019 275.88 8.04171 275.63 8.92984C275.473 9.48838 275.062 10.2698 274.559 11.4488C274.361 11.9158 273.752 14.2808 273.322 15.571C272.884 16.8556 272.371 19.9316 272.067 20.4726C271.615 21.2832 272.149 21.482 271.828 22.3681C271.722 22.6549 271.13 24.011 270.757 24.7754C270.374 25.5548 269.267 28.0003 269.041 28.2197C268.758 28.501 268.956 29.0978 269.106 29.3383C269.283 29.6367 270.305 30.2732 271.004 31.9715C271.219 32.4933 271.151 33.0353 270.723 33.6029C270.422 34.0115 269.203 34.3979 268.518 34.735C267.621 35.1683 264.03 36.9873 262.832 37.9811C262.569 38.1985 262.132 38.1427 262.24 37.7497C262.434 37.0437 262.2 34.8825 262.47 34.1367C262.865 33.0408 262.699 33.471 263.607 32.2146C264.091 31.5438 265.095 29.1033 266.186 27.8891C266.291 27.7714 266.513 27.1459 266.162 26.9185C265.865 26.7283 265.495 27.1202 265.116 27.24C264.894 27.3115 264.848 27.87 264.589 27.9807C264.188 28.1462 263.803 27.7316 263.437 28.0406C263.173 28.262 262.691 29.3257 262.595 30.0433C262.555 30.3402 262.048 30.7311 261.914 30.9284C261.761 31.1513 261.859 32.1189 261.777 32.7907C261.679 33.6014 260.916 35.672 260.729 36.539C260.611 37.0975 260.382 38.3404 260.441 39.0665C260.471 39.4812 260.657 39.7685 260.95 39.7076C261.289 39.6371 261.521 39.0635 261.853 39.0147C262.264 38.9427 263.596 38.9231 264.187 39.0776C264.464 39.149 264.969 39.4968 265.86 39.3196C266.369 39.2215 267.157 39.0036 267.757 39.0107C268.352 39.0157 271.249 39.0137 272.477 39.0283C272.922 39.0353 275.428 37.7975 276.211 37.4377C276.858 37.1388 278.416 35.6715 279.477 34.569C280.081 33.9475 281.497 33.5173 282.236 33.861C282.613 34.0371 282.379 35.1426 281.805 35.5693C281.357 35.8999 280.274 36.4801 279.747 36.8474C278.905 37.4362 277.558 39.1088 276.919 40.2007C276.618 40.722 275.632 42.1229 275.14 43.011C275.043 43.1836 275.038 43.6239 275.427 44.0204C275.789 44.3978 278.864 45.218 280.306 45.7182C280.437 45.764 280.639 46.0221 280.937 45.9135C281.138 45.8395 281.421 45.7358 281.453 46.2561C281.466 46.5052 283.484 46.5631 283.713 46.7337C284.489 47.2987 287.449 47.9645 288.41 48.5789C288.776 48.8053 288.89 48.9004 289.217 49.2934C289.436 49.5591 289.994 49.5445 289.919 49.9345C289.837 50.3471 284.133 51.7616 282.095 51.6634C280.341 51.5829 278.533 51.3635 276.864 50.7823C275.387 50.2696 272.552 48.119 272.144 48.1154C271.473 48.1084 271.545 48.2593 271.095 48.6986C270.971 48.8209 270.738 49.2355 270.414 49.548C270.041 49.9153 268.725 51.2085 268.459 51.5724C268.079 52.0901 267.186 52.2924 266.625 52.7418C266.212 53.0749 265.421 53.958 264.933 54.2846C264.036 54.8904 262.912 55.6402 262.242 55.93C261.557 56.2229 260.355 55.7811 259.347 55.6331C258.231 55.4731 256.871 54.3022 256.365 53.2842C256.06 52.6874 256.074 51.1899 255.917 50.3003C255.813 49.703 256.286 47.8668 255.91 47.6233C255.397 47.2801 255.123 47.6701 254.87 47.9423C254.457 48.3826 253.96 49.236 252.65 50.1508C252.068 50.5529 252.065 50.8352 251.408 51.4762C250.917 51.9558 249.775 52.6366 248.972 53.3069C248.182 53.9676 246.759 54.3696 245.836 54.5362C245.499 54.596 244.571 55.1732 244.04 55.4067C243.555 55.6281 242.009 56.167 241.055 56.4513C240.458 56.6299 240.176 55.3262 240.04 54.4285C239.903 53.5298 240.248 52.6044 240.775 52.3151C241.647 51.825 243.028 50.2168 243.781 49.4061C243.972 49.1993 243.583 48.7127 243.232 48.7318C242.006 48.7897 241.23 48.2593 241.23 48.2593C242.127 48.1189 243.645 48.0722 244.179 47.4009C244.263 47.2957 244.516 47.0693 244.516 46.7689C244.524 46.3316 244.383 46.2264 244.345 45.9492C244.308 45.7363 244.596 45.37 244.499 45.1662C244.394 44.9433 244.183 44.4144 243.803 44.6414C243.021 45.1013 241.679 46.4428 241.32 47.1417C241.094 47.5856 241.047 48.0681 241.047 48.0681C240.821 48.2915 240.416 48.0983 240.416 48.0983C239.703 48.8355 238.569 50.0874 238.009 50.5655C237.589 50.9237 237.018 51.1819 236.553 50.9564C236.003 50.6918 235.633 49.5314 235.386 49.1555C235.168 48.8184 235.473 48.3378 235.81 48.1164C236.316 47.7904 237.64 47.0985 238.016 46.7649C238.429 46.4031 240.198 44.6333 240.611 44.3068C241.271 43.7734 242.188 43.1766 242.712 42.616C243.088 42.2105 242.622 41.7153 242.35 41.9423C242.124 42.1234 241.791 42.0444 241.644 41.7108C241.285 40.8654 240.531 38.7893 240.54 38.0073C240.542 37.5227 240.55 37.254 240.739 36.8188C241.313 35.4848 243.214 32.9895 243.803 32.5336C244.363 32.0923 244.029 31.6746 243.858 31.3425C243.635 30.9284 242.537 29.5733 242.581 29.0882C242.648 28.3722 243.711 27.7296 244.764 26.9939C245.809 26.2573 246.863 25.4496 247.602 25.3862ZM251.157 14.2159C251.423 13.6614 253.246 13.5346 254.064 13.6946C254.799 13.8405 255.684 15.2957 255.965 15.9891C256.147 16.44 256.457 17.3885 256.317 17.7448C256.126 18.2278 255.355 18.2258 254.601 18.4326C254.333 18.5031 253.633 18.7562 253.144 19.0103C252.507 19.3364 251.732 20.0217 251.454 20.2914C251.153 20.5843 250.651 20.7196 250.407 20.6532C250.261 20.613 250.267 20.1878 250.532 19.9085C251.02 19.3907 251.631 17.947 251.491 17.3875C251.416 17.0992 251.125 16.9729 251.099 16.0777C251.085 15.6293 250.936 14.6828 251.157 14.2159ZM250.907 4.19178C251.205 4.11832 251.41 4.62906 251.868 4.83587C252.201 4.99035 252.345 5.29226 252.679 5.29428C253.137 5.30132 253.151 6.01183 253.411 6.23726C253.63 6.42445 253.924 7.13244 254.178 7.3624C254.469 7.62607 254.58 7.96623 254.871 8.19065C255.19 8.43722 255.284 9.27604 254.893 9.75558C254.591 10.1219 254.108 10.6246 253.465 10.8173C252.866 10.9944 251.557 11.0438 250.823 11.4951C250.221 11.8604 249.109 12.743 248.49 13.4032C247.323 14.6552 245.999 16.837 244.938 18.6872C244.213 19.9412 241.518 24.5665 240.718 26.3821C240.384 27.1404 238.667 30.8217 238.048 32.1597C237.246 33.9013 235.286 37.6968 234.885 38.7153C234.344 40.088 234.659 41.2428 234.289 41.7646C233.952 42.2437 233.278 42.1999 232.879 41.896C232.471 41.592 231.828 40.9812 231.668 40.3547C231.531 39.7931 231.821 38.4868 232 37.8251C232.112 37.3793 232.356 37.0774 232.714 36.9018C232.937 36.7931 233.318 36.8968 233.644 36.7644C233.895 36.6628 234.967 34.8825 235.502 33.8801C236.206 32.5577 238.072 28.5961 238.513 27.6602C238.778 27.0875 239.854 24.6616 240.644 23.1797C241.139 22.2544 243.56 15.5775 244.734 13.9487C245.003 13.5768 246.25 10.9275 247.015 9.73394C247.697 8.66114 250.454 4.29695 250.907 4.19178ZM145.851 47.5463C146.07 47.5463 146.217 47.7325 146.288 48.1069C146.385 48.6262 146.321 48.6242 146.385 49.0685C146.457 49.5123 146.288 49.625 146.375 49.9918C146.482 50.4377 146.437 50.6847 146.471 51.1401C146.539 51.9201 146.564 52.6195 146.413 53.1011C146.256 53.5781 146.44 53.729 146.437 54.2106C146.428 54.6524 146.171 55.3493 146.119 56.0171C146.074 56.5716 146.618 57.1392 146.611 57.8009C146.608 58.2075 146.428 58.2044 146.055 58.1657C145.65 58.1214 145.172 57.8567 145.028 57.5226C144.885 57.1875 144.454 56.0729 144.461 55.6673C144.466 55.223 144.594 54.4119 144.666 53.8936C144.748 53.3391 144.611 52.6769 144.614 52.1515C144.624 51.524 145.367 50.8654 145.377 50.2369C145.384 49.6099 145.237 49.5364 145.247 48.7575C145.258 47.9816 145.556 47.5413 145.851 47.5463ZM151.921 18.8025C151.891 18.3899 153.362 17.4841 154.084 17.0136C154.75 16.5784 155.265 15.971 155.834 15.6651C156.65 15.2338 157.389 15.3692 157.865 15.3949C158.604 15.4406 159.5 15.0456 159.896 15.5302C160.255 15.9811 160.15 16.3484 160.025 16.8662C159.928 17.2718 157.804 20.6125 156.789 21.8166C155.735 23.0846 153.122 26.0887 152.865 26.2462C152.565 26.4283 152.326 25.9865 152.251 25.3525C152.179 24.7955 152.104 24.327 152.226 24.0568C152.376 23.7252 152.193 23.5124 152.127 23.2089C152.058 22.8718 151.724 21.6465 151.788 20.7247C151.83 20.0564 151.97 19.3912 151.921 18.8025ZM134.343 29.4611C134.439 29.2347 135.421 28.734 135.864 28.3727C136.176 28.1166 136.946 27.6073 137.244 27.3527C138.102 26.617 137.991 26.7574 138.772 26.2236C139.142 25.9689 139.66 25.7883 139.727 26.5662C139.803 27.4926 139.695 29.1557 139.724 29.7489C139.752 30.3407 139.601 30.4861 139.561 30.9671C139.527 31.3783 139.701 31.5997 139.735 31.8578C139.773 32.1169 139.68 32.1909 139.616 32.6679C139.576 32.9648 139.791 33.4127 139.527 33.9249C139.264 34.4427 137.844 35.5698 137.399 35.7138C136.955 35.8557 137.263 35.0465 136.531 34.5197C135.795 33.9913 135.623 33.2486 135.297 32.7273C134.898 32.0792 135.013 31.7637 134.543 31.1981C134.066 30.6441 134.076 30.0855 134.342 29.4611H134.343ZM125.049 20.5138C125.503 20.3714 126.392 22.1074 127.26 23.0474C128.132 23.9843 129.434 25.1684 129.703 25.4064C129.993 25.67 130.683 26.7147 130.944 26.7197C131.081 26.7197 131.921 25.9951 132.616 25.5171C133.362 25.0099 135.048 23.8565 135.561 23.5159C135.975 23.2416 137.26 22.3042 138.049 21.6968C138.844 21.091 140.564 19.9694 140.622 19.8078C140.656 19.7112 140.588 19.3268 140.858 18.5896C141.022 18.1388 140.663 17.938 140.646 17.8434C140.611 17.6607 140.836 17.1097 140.879 16.8144C140.961 16.2634 140.826 15.1256 140.901 14.8907C141.091 14.3004 141.159 13.0681 141.185 12.7103C141.27 11.6989 141.152 11.2657 141.281 10.8616C141.715 9.51505 141.757 8.42715 141.657 7.4263C141.576 6.58144 141.377 6.50093 141.61 5.20722C141.825 4.04083 142.885 2.79492 143.365 2.23537C143.681 1.86452 144.642 1.80313 145.367 2.51565C145.64 2.78435 146.285 3.08124 146.903 3.72029C147.505 4.33268 148.625 5.723 149.016 6.07473C149.636 6.63981 150.832 8.17103 151.599 9.13967C152.18 9.88037 152.493 11.2214 152.563 11.706C152.665 12.4341 152.507 13.4052 153.003 13.4998C153.712 13.6387 155.1 12.4391 157.318 12.0199C158.789 11.7442 161.193 11.8111 162.779 11.8287C163.482 11.8393 164.849 11.7724 164.962 12.104C165.17 12.7058 164.809 14.5369 163.901 16.5774C163.105 18.3803 162.667 18.726 161.761 19.8798C161.013 20.8364 160.903 21.4352 159.542 23.22C158.229 24.9444 155.617 27.4634 156.126 27.9515C156.564 28.3677 157.86 27.7477 158.075 28.7149C158.251 29.4948 157.394 30 157.089 30.7729C156.666 31.8487 156.92 32.6247 155.955 33.0896C155.069 33.5198 154.549 33.3704 153.992 33.7357C153.321 34.169 153.576 35.284 153.15 36.0916C152.395 37.5242 152.784 38.8954 152.324 40.0538C151.629 41.7953 151.797 41.1145 151.226 42.9275C151.104 43.3175 150.826 45.3096 150.668 46.0106C150.535 46.6053 150.081 47.0829 150.067 47.2972C150.011 47.9081 149.712 49.4861 149.738 49.6622C149.773 49.8867 149.359 50.18 149.396 50.5826C149.429 50.9524 149.034 51.8864 148.965 52.538C148.696 55.1048 148.924 55.4459 149.023 56.8695C149.123 58.2945 148.855 58.606 148.701 58.9844C148.568 59.3276 148.032 59.4096 147.662 59.5168C147.258 59.6305 147.286 60.0657 147.032 60.1488C146.731 60.2509 146.307 59.9314 146.163 60.1785C145.876 60.6771 145.572 61.3036 145.202 61.3358C144.821 61.3705 144.689 61.1426 144.581 60.5543C144.556 60.3983 144.183 60.3596 144.114 60.031C144.006 59.5067 143.889 59.8282 143.422 58.9627C143.028 58.2392 143.364 57.9845 143.318 57.3364C143.288 56.8347 142.621 56.3819 142.791 55.5954C142.88 55.1727 142.768 54.3158 142.679 53.6098C142.579 52.7936 142.549 52.225 142.549 52.0177C142.557 51.6403 142.432 52.0076 142.529 50.8327C142.614 49.7986 142.292 48.9457 142.295 48.6488C142.299 48.2764 142.155 48.0168 141.861 48.0118C141.624 48.0098 141.502 48.1431 141.379 48.7354C141.25 49.3271 141.236 50.5101 141.308 51.2226C141.377 51.8919 141.79 53.7487 141.821 54.3409C141.861 55.1289 141.779 54.7485 141.8 55.8188C141.811 56.3421 142.058 57.6409 142.241 58.3544C142.432 59.0674 142.844 59.0372 142.977 59.5344C143.117 60.0522 143.26 60.5015 143.443 60.7979C143.674 61.1808 144.577 61.4007 144.465 61.6231C144.323 61.8953 143.939 62.4307 143.641 62.464C143.046 62.5294 141.958 61.2986 141.743 60.7581C141.356 59.792 141.093 56.33 140.892 55.0711C140.542 52.9471 140.179 52.0147 139.924 49.6572C139.659 47.2087 139.071 40.8252 139.089 39.4716C139.099 38.5835 138.515 38.2795 138.192 38.2639C137.803 38.2423 137.309 38.6569 137.277 39.0801C137.244 39.5964 137.362 40.8151 136.818 41.0345C136.374 41.2136 133.216 40.3235 130.759 38.7027C126.745 36.0484 125.32 29.4581 124.656 28.1956C123.752 26.4857 123.729 22.9221 123.913 22.2322C124.106 21.5232 124.376 20.7191 125.049 20.5138Z" fill="#231F20"/>
</svg>
