<svg width="351" height="46" viewBox="0 0 351 46" fill="none" xmlns="http://www.w3.org/2000/svg">
<path d="M95.9705 24.266C89.9041 24.266 86.8873 28.7365 86.8873 34.7707C86.8873 41.0512 89.7855 45.4408 95.9705 45.4408C102.161 45.4408 105.05 41.0512 105.05 34.7707C105.05 28.7365 102.037 24.266 95.9705 24.266ZM95.9705 41.3336C94.3581 41.3336 93.6413 39.8836 93.6413 34.769C93.6413 30.0987 94.1191 28.3697 95.9705 28.3697C97.8185 28.3697 98.2981 30.0987 98.2981 34.769C98.2981 39.8888 97.5761 41.3336 95.9705 41.3336ZM109.245 22.5422V24.7998H106.591V29.3926H109.245V45.0034H115.755V29.3926H119.297V24.7998H115.755V22.7506C115.755 21.5227 116.373 20.8511 118.087 20.8511C118.448 20.8511 118.93 20.9303 119.296 21.0147V16.0241C118.245 15.9035 117.279 15.7795 115.999 15.7795C111.699 15.7813 109.245 17.5912 109.245 22.5422ZM39.8433 30.4758C39.8433 26.0087 35.7881 24.3228 31.8843 24.3228C28.1918 24.3228 24.5716 25.9278 23.8513 29.9127L29.5137 31.082C29.5842 29.9007 30.0845 28.4283 31.647 28.4283C32.7713 28.4283 33.3317 29.229 33.3317 30.4345V32.1721C29.0307 32.6715 23.1036 34.2248 22.9609 39.4841C22.8612 43.1986 25.3348 45.396 28.5803 45.396C30.5005 45.396 32.4223 44.3335 33.5328 43.1607C33.5723 43.4965 33.6153 44.4506 33.7373 45.0085H40.4483C40.2025 44.733 39.8415 44.0424 39.8415 41.7486L39.8433 30.4758ZM33.3334 39.8578C32.7799 40.5879 31.9857 41.1132 31.2448 41.1132C30.0776 41.1132 29.3556 40.3796 29.3556 38.9709C29.3556 36.3929 31.0574 35.5267 33.3317 35.308L33.3334 39.8578ZM55.8077 24.3194C53.2687 24.3194 51.4758 25.4973 50.1349 26.8663H50.0507L50.018 24.7998H43.6474V45.0051H50.1573V30.5551C50.7521 29.7922 51.5428 29.2996 52.2751 29.2996C53.3632 29.2996 53.7758 29.9385 53.7758 31.0906V45.0016H60.2857V29.0207C60.2874 26.2498 58.6578 24.3194 55.8077 24.3194ZM82.1841 24.7981H75.7103L70.9212 30.9046H70.8421V16.3461H64.3288V45.0034H70.8421V37.7672L72.2104 36.1897H72.2895L75.4628 45.0034H82.215L76.7383 31.0183L82.1841 24.7981ZM16.023 30.0987V29.8748C18.0961 29.0637 20.6918 27.0919 20.6918 23.3464C20.6918 19.389 17.3604 16.3444 12.2927 16.3444H0.983398V45.0051H12.0039C17.436 45.0051 21.3708 42.2429 21.3708 37.3384C21.3708 33.6651 19.1224 31.1216 16.023 30.0987ZM8.0107 21.4177H10.5428C12.1862 21.4177 14.0272 21.8602 14.0272 24.5949C14.0272 26.2894 12.9941 27.6964 10.3795 27.6964H8.0107V21.4177ZM10.6631 39.6942H8.0107V32.5268H10.6631C12.9941 32.5268 14.3109 33.9372 14.3109 36.0709C14.3109 39.0071 12.2274 39.6942 10.6631 39.6942ZM257.743 41.7486V30.4758C257.743 26.0087 253.691 24.3228 249.789 24.3228C246.093 24.3228 242.473 25.9278 241.751 29.9127L247.418 31.082C247.485 29.9007 247.982 28.4283 249.55 28.4283C250.667 28.4283 251.236 29.229 251.236 30.4345V32.1721C246.93 32.6715 240.998 34.2248 240.859 39.4841C240.759 43.1986 243.231 45.396 246.482 45.396C248.402 45.396 250.318 44.3335 251.437 43.1607C251.472 43.4965 251.517 44.4506 251.635 45.0085H258.343C258.107 44.7296 257.743 44.0424 257.743 41.7486ZM251.24 39.8578C250.678 40.5879 249.887 41.1132 249.148 41.1132C247.979 41.1132 247.257 40.3796 247.257 38.9709C247.257 36.3929 248.959 35.5267 251.236 35.308L251.24 39.8578ZM186.77 24.266C180.781 24.266 177.804 29.0964 177.804 34.8138C177.804 40.4088 180.618 45.4425 186.846 45.4425C188.602 45.4959 190.33 44.9908 191.782 43.9996C193.234 43.0083 194.336 41.582 194.929 39.9249L190.54 38.3131C190.217 39.9404 188.891 41.0873 187.32 41.0873C184.7 41.0873 184.224 38.1012 184.312 36.3017H195.207V34.9326C195.207 29.6613 193.039 24.266 186.77 24.266ZM189.178 32.4339H184.314C184.214 30.5327 184.878 28.3714 186.727 28.3714C188.976 28.3714 189.242 30.5619 189.178 32.4339ZM212.763 24.7998H219.27V45.0051H212.763V24.7998ZM212.763 16.3444H219.27V22.1409H212.763V16.3444ZM231.506 28.3714C232.554 28.3714 233.073 28.9363 233.393 29.7371C233.678 30.5034 233.716 31.4695 233.716 32.2771H239.267C239.267 30.264 238.22 24.2694 231.313 24.2694C225.164 24.2694 222.113 29.7853 222.113 35.2977C222.113 40.2866 225.161 45.4442 231.031 45.4442C235.774 45.4442 238.586 42.8697 239.071 37.9583L234.007 37.2316C234.007 38.7625 233.806 41.0891 231.512 41.0891C229.83 41.0891 229.106 39.6063 229.106 35.0531C229.094 31.0286 229.34 28.3714 231.506 28.3714ZM130.612 16.3461L123.903 45.0051H130.17L131.418 39.212H138.048L139.174 45.0051H146.207L140.094 16.3461H130.612ZM132.424 34.1387L134.841 22.463H134.985L137.043 34.1387H132.424ZM204.361 27.5345H204.252L204.187 24.7981H197.887V45.0034H204.404V31.9189C205.167 31.008 206.312 30.3553 207.974 30.3553C209.095 30.3553 209.887 30.6274 210.628 30.9132V24.3177C208.117 24.3194 205.688 25.4008 204.361 27.5345ZM170.434 24.3194C167.708 24.3194 165.764 25.79 164.626 27.0213H164.542C163.926 25.4628 162.606 24.3194 160.628 24.3194C158.202 24.3194 156.162 25.5748 154.8 26.8595H154.718L154.683 24.8016H148.33V45.0068H154.718V30.5964C155.266 29.8524 156.244 29.3513 156.926 29.3513C158.135 29.3513 158.455 30.0746 158.455 31.163V45.0068H164.846V30.5964C165.269 30.0384 166.199 29.3513 167.072 29.3513C168.256 29.3513 168.586 30.0746 168.586 31.163V45.0068H174.973V28.8984C174.973 26.1086 173.14 24.3194 170.434 24.3194Z" fill="#0067B1"/>
<path d="M315.159 11.4814C308.599 8.30156 301.802 5.63526 294.83 3.50639C292.372 4.21589 289.935 4.9891 287.521 5.83121C294.699 7.96103 301.697 10.6588 308.448 13.8992C310.667 13.0445 312.905 12.2384 315.159 11.4814ZM325.839 8.29207C319.122 5.35869 312.204 2.91052 305.137 0.966309C302.885 1.43324 300.644 1.95346 298.416 2.52652C305.425 4.57891 312.265 7.17387 318.872 10.288C321.18 9.57226 323.503 8.9068 325.839 8.29207ZM342.987 14.0628C326.313 19.6957 310.551 27.7383 296.199 37.9361C299.756 40.1279 303.232 42.4509 306.618 44.9002C320.141 34.1498 335.068 25.3008 350.983 18.5988C348.362 17.0093 345.696 15.4967 342.987 14.0628ZM331.431 8.56244C314.11 13.1592 297.658 20.5689 282.729 30.4967C286.062 32.1386 289.337 33.8956 292.549 35.7645C307.176 25.6146 323.304 17.8305 340.343 12.6972C337.416 11.2255 334.444 9.84654 331.431 8.56244ZM312.099 43.0972C312.099 42.0898 312.945 41.27 313.985 41.27C315.025 41.27 315.871 42.0898 315.871 43.0972C315.871 44.1235 315.025 44.9433 313.985 44.9433C312.945 44.9433 312.099 44.1235 312.099 43.0972ZM312.455 43.0972C312.455 43.9358 313.136 44.5816 313.985 44.5816C314.826 44.5816 315.508 43.9358 315.508 43.0972C315.508 42.2861 314.828 41.6334 313.985 41.6334C313.138 41.6334 312.455 42.2861 312.455 43.0972Z" fill="#E31836"/>
<path d="M314.924 44.129H314.571L313.966 43.1835H313.593V44.129H313.284V42.078H314.202C314.381 42.066 314.559 42.1011 314.721 42.1796C314.794 42.2278 314.854 42.2939 314.894 42.3716C314.935 42.4493 314.955 42.5362 314.953 42.6239C314.953 43.0234 314.661 43.1749 314.288 43.1853L314.924 44.129ZM313.944 42.9321C314.236 42.9321 314.64 42.9821 314.64 42.6153C314.64 42.3483 314.406 42.3122 314.141 42.3122H313.598V42.9287L313.944 42.9321Z" fill="#E31836"/>
<path d="M297.763 11.8067C300.345 12.829 302.898 13.9247 305.418 15.0925C297.412 18.3474 289.666 22.2104 282.247 26.6477C279.745 25.3334 277.204 24.0924 274.629 22.9262C282.031 18.6066 289.768 14.8882 297.763 11.8067ZM288.211 8.42627C279.908 11.0616 271.884 14.5104 264.256 18.7226C266.68 19.6009 269.083 20.536 271.45 21.5365C278.84 17.1815 286.623 13.5329 294.695 10.6392C292.551 9.85085 290.389 9.11302 288.211 8.42627Z" fill="#0067B1"/>
<path d="M315.159 11.4814C308.599 8.30156 301.802 5.63526 294.83 3.50639C292.372 4.21589 289.935 4.9891 287.521 5.83121C294.699 7.96103 301.697 10.6588 308.448 13.8992C310.667 13.0445 312.905 12.2384 315.159 11.4814ZM325.839 8.29207C319.122 5.35869 312.204 2.91052 305.137 0.966309C302.885 1.43324 300.644 1.95346 298.416 2.52652C305.425 4.57891 312.265 7.17387 318.872 10.288C321.18 9.57226 323.503 8.9068 325.839 8.29207ZM342.987 14.0628C326.313 19.6957 310.551 27.7383 296.199 37.9361C299.756 40.1279 303.232 42.4509 306.618 44.9002C320.141 34.1498 335.068 25.3008 350.983 18.5988C348.362 17.0093 345.696 15.4967 342.987 14.0628ZM331.431 8.56244C314.11 13.1592 297.658 20.5689 282.729 30.4967C286.062 32.1386 289.337 33.8956 292.549 35.7645C307.176 25.6146 323.304 17.8305 340.343 12.6972C337.416 11.2255 334.444 9.84654 331.431 8.56244ZM312.099 43.0972C312.099 42.0898 312.945 41.27 313.985 41.27C315.025 41.27 315.871 42.0898 315.871 43.0972C315.871 44.1235 315.025 44.9433 313.985 44.9433C312.945 44.9433 312.099 44.1235 312.099 43.0972ZM312.455 43.0972C312.455 43.9358 313.136 44.5816 313.985 44.5816C314.826 44.5816 315.508 43.9358 315.508 43.0972C315.508 42.2861 314.828 41.6334 313.985 41.6334C313.138 41.6334 312.455 42.2861 312.455 43.0972Z" fill="#E31836"/>
</svg>
