<svg width="351" height="83" viewBox="0 0 351 83" fill="none" xmlns="http://www.w3.org/2000/svg">
<path d="M227.49 79.148C193.991 78.6962 166.692 60.2388 166.576 38.4849C166.459 17.3668 192.175 1.10158 223.956 1.58686C227.873 1.63707 231.706 1.95501 235.423 2.49049C230.356 1.57013 225.073 1.03465 219.64 0.95098C185.875 0.432232 158.476 17.484 158.476 39.6562C158.476 62.4979 187.425 81.9258 223.106 82.3944C252.105 82.7792 275.621 70.4632 282.237 53.4951C275.137 68.6894 253.705 79.5161 227.506 79.148H227.49Z" fill="#C91C48"/>
<path d="M6.46648 35.7742C6.46648 27.491 6.46648 25.9682 6.34982 24.2279C6.24982 22.3705 5.79984 21.5003 4.01659 21.1154C3.58328 21.015 2.66665 20.9481 1.90002 20.9481C1.30005 20.9481 0.983398 20.831 0.983398 20.4628C0.983398 20.0779 1.36671 19.9775 2.18334 19.9775C5.06654 19.9775 8.48305 20.1449 9.56634 20.1449C12.2329 20.1449 14.3328 19.9775 16.1827 19.9775C25.9989 19.9775 27.7322 25.2654 27.7322 28.1436C27.7322 32.6116 25.1823 35.2722 22.1991 37.6819C26.6489 39.2047 32.0653 43.0702 32.0653 49.4457C32.0653 55.2691 27.5655 61.3267 17.5826 61.3267C16.9327 61.3267 15.3661 61.2096 13.7828 61.1594C12.1496 61.0423 10.533 60.9921 9.71633 60.9921C9.11636 60.9921 7.93308 60.9921 6.61647 61.0423C5.36653 61.0423 3.94993 61.1594 2.86665 61.1594C2.16668 61.1594 1.78336 60.9921 1.78336 60.6072C1.78336 60.3394 2.00002 60.1721 2.64999 60.1721C3.46662 60.1721 4.11659 60.0717 4.5999 59.9546C5.68318 59.737 5.94984 58.5322 6.16649 56.9592C6.43315 54.6667 6.43315 50.3661 6.43315 45.3627V35.7742H6.46648ZM12.9828 36.6946C12.9828 37.1297 13.1495 37.2468 13.3662 37.297C13.8495 37.4141 14.6661 37.4644 15.916 37.4644C17.6993 37.4644 18.8992 37.2468 19.8159 36.4269C21.2325 35.289 22.0324 33.3144 22.0324 30.6537C22.0324 27.0057 19.9159 22.2031 15.2494 22.2031C14.4828 22.2031 13.9995 22.2031 13.4662 22.3203C13.0828 22.4207 12.9828 22.6549 12.9828 23.2406V36.6946ZM20.1492 41.0454C19.0159 40.2254 17.766 39.8405 15.6494 39.7401C14.6661 39.6899 14.1328 39.6899 13.3162 39.6899C13.0995 39.6899 12.9828 39.8071 12.9828 40.0748V52.9933C12.9828 56.5911 13.1495 57.5114 14.8828 58.2143C16.3494 58.8167 17.5993 58.8669 18.8492 58.8669C21.2825 58.8669 25.4156 57.5616 25.4156 51.8889C25.4156 48.5087 24.2823 43.9403 20.1492 41.0454Z" fill="#666565"/>
<path d="M42.9145 46.9357C42.6478 46.9357 42.5312 47.0528 42.4312 47.3707L39.498 55.1687C38.948 56.5241 38.6814 57.8461 38.6814 58.4987C38.6814 59.486 39.1647 60.1888 40.8479 60.1888H41.6646C42.3145 60.1888 42.4812 60.306 42.4812 60.6239C42.4812 61.059 42.1479 61.1761 41.5646 61.1761C39.8313 61.1761 37.4981 61.0088 35.8148 61.0088C35.2149 61.0088 32.2317 61.1761 29.4151 61.1761C28.7152 61.1761 28.3818 61.059 28.3818 60.6239C28.3818 60.2892 28.5985 60.1888 29.0318 60.1888C29.5151 60.1888 30.2817 60.1386 30.7151 60.0884C33.2149 59.7537 34.2482 57.913 35.3315 55.1854L48.9476 20.9815C49.5975 19.4086 49.9308 18.8062 50.4642 18.8062C50.9475 18.8062 51.2808 19.2914 51.8141 20.5465C53.114 23.5418 61.797 45.7643 65.2635 54.0475C67.33 58.9505 68.8966 59.7203 70.0299 59.988C70.8465 60.1554 71.6632 60.2056 72.3131 60.2056C72.7465 60.2056 73.0131 60.2558 73.0131 60.6406C73.0131 61.0757 72.5298 61.1928 70.5132 61.1928C68.5633 61.1928 64.5968 61.1928 60.2637 61.0757C59.2804 61.0255 58.6304 61.0255 58.6304 60.6406C58.6304 60.306 58.8471 60.2056 59.3971 60.1554C59.7804 60.0549 60.1637 59.5529 59.8804 58.9003L55.5473 47.354C55.4306 47.0863 55.2806 46.9691 54.9973 46.9691H42.8978L42.9145 46.9357ZM53.9807 44.208C54.2473 44.208 54.314 44.0407 54.2473 43.8734L49.3642 30.4194C49.3142 30.2019 49.2475 29.9341 49.0975 29.9341C48.9309 29.9341 48.8309 30.2019 48.7642 30.4194L43.7811 43.8232C43.7311 44.0407 43.7811 44.208 43.9978 44.208H53.9807Z" fill="#666565"/>
<path d="M78.5129 53.7464C78.6296 57.9968 79.3295 59.4192 80.4128 59.7873C81.3295 60.122 82.3627 60.1722 83.2294 60.1722C83.8293 60.1722 84.146 60.2893 84.146 60.6073C84.146 61.0423 83.6627 61.1595 82.896 61.1595C79.3629 61.1595 77.1963 60.9921 76.163 60.9921C75.6797 60.9921 73.1298 61.1595 70.2966 61.1595C69.5967 61.1595 69.0967 61.1093 69.0967 60.6073C69.0967 60.2726 69.43 60.1722 69.9633 60.1722C70.6633 60.1722 71.6466 60.122 72.4132 59.9044C73.8298 59.4694 74.0465 57.8964 74.0964 53.144L74.5798 20.898C74.5798 19.8103 74.7464 19.0405 75.2797 19.0405C75.8797 19.0405 76.363 19.7433 77.2796 20.7306C77.9296 21.4335 86.1792 30.3191 94.0955 38.2175C97.7787 41.9156 105.112 49.7638 106.028 50.6339H106.295L105.745 26.1691C105.695 22.8391 105.195 21.8183 103.895 21.2661C103.078 20.9314 101.779 20.9314 101.012 20.9314C100.362 20.9314 100.145 20.7641 100.145 20.4462C100.145 20.0111 100.745 19.9609 101.562 19.9609C104.378 19.9609 106.995 20.1282 108.128 20.1282C108.728 20.1282 110.795 19.9609 113.445 19.9609C114.145 19.9609 114.695 20.0111 114.695 20.4462C114.695 20.7808 114.361 20.9314 113.711 20.9314C113.161 20.9314 112.728 20.9314 112.078 21.0988C110.561 21.5339 110.128 22.6718 110.078 25.734L109.478 60.1052C109.478 61.3101 109.261 61.7954 108.778 61.7954C108.178 61.7954 107.528 61.1929 106.928 60.5905C103.512 57.3274 96.5621 50.1821 90.929 44.5763C85.0126 38.686 78.9962 31.8921 78.0129 30.8546H77.8463L78.4462 53.7297L78.5129 53.7464Z" fill="#666565"/>
<path d="M128.045 38.1672H128.311C130.161 36.1591 138.077 28.0432 139.644 26.1858C141.161 24.3953 142.361 23.0231 142.361 22.1027C142.361 21.5003 142.144 21.1154 141.594 21.015C141.111 20.8979 140.894 20.7975 140.894 20.4628C140.894 20.0779 141.161 19.9775 141.761 19.9775C142.894 19.9775 145.877 20.1449 147.344 20.1449C149.027 20.1449 152.01 19.9775 153.693 19.9775C154.243 19.9775 154.61 20.0947 154.61 20.4628C154.61 20.8477 154.343 20.9481 153.793 20.9481C153.027 20.9481 151.677 21.1656 150.644 21.5505C148.96 22.2031 147.11 23.341 144.777 25.6336C143.094 27.2735 134.911 35.4396 133.061 37.3974C135.011 39.9577 145.644 51.4538 147.76 53.4619C150.144 55.7544 152.593 58.1975 155.51 59.3522C157.143 60.0048 158.227 60.1721 158.877 60.1721C159.26 60.1721 159.576 60.2892 159.576 60.6072C159.576 60.9921 159.31 61.1594 158.277 61.1594H153.56C151.927 61.1594 150.96 61.1594 149.81 61.0423C146.877 60.7745 145.41 59.5697 143.077 57.4947C140.694 55.3695 129.995 42.7857 128.861 41.2127L128.261 40.3928H127.995V45.346C127.995 50.3494 127.995 54.6667 128.161 57.0094C128.278 58.5322 128.761 59.737 130.111 59.9546C130.878 60.0717 132.061 60.1721 132.761 60.1721C133.194 60.1721 133.461 60.3394 133.461 60.6072C133.461 60.9921 133.028 61.1594 132.428 61.1594C129.395 61.1594 125.978 60.9921 124.611 60.9921C123.361 60.9921 119.945 61.1594 117.778 61.1594C117.078 61.1594 116.695 60.9921 116.695 60.6072C116.695 60.3394 116.912 60.1721 117.562 60.1721C118.378 60.1721 119.028 60.0717 119.512 59.9546C120.595 59.737 120.862 58.5322 121.078 56.9592C121.345 54.6667 121.345 50.3661 121.345 45.3627V35.7742C121.345 27.491 121.345 25.9682 121.228 24.2279C121.112 22.3705 120.678 21.5003 118.895 21.1154C118.462 21.015 117.545 20.9481 116.778 20.9481C116.178 20.9481 115.862 20.831 115.862 20.4628C115.862 20.0779 116.245 19.9775 117.062 19.9775C119.945 19.9775 123.361 20.1449 124.661 20.1449C125.961 20.1449 129.378 19.9775 131.228 19.9775C131.994 19.9775 132.361 20.0947 132.361 20.4628C132.361 20.8477 132.028 20.9481 131.594 20.9481C131.044 20.9481 130.728 20.9983 130.078 21.1154C128.611 21.3832 128.178 22.3203 128.078 24.2279C127.961 25.9682 127.961 27.491 127.961 35.7742V38.1672H128.045Z" fill="#666565"/>
<path d="M192.391 35.7742C192.391 27.491 192.391 25.9682 192.291 24.2279C192.174 22.3705 191.641 21.4501 190.441 21.1824C189.841 21.015 189.141 20.9648 188.491 20.9648C187.941 20.9648 187.625 20.8477 187.625 20.4126C187.625 20.0779 188.058 19.9775 188.924 19.9775C190.991 19.9775 194.408 20.1449 195.974 20.1449C197.324 20.1449 200.524 19.9775 202.59 19.9775C203.29 19.9775 203.724 20.0779 203.724 20.4126C203.724 20.8477 203.39 20.9648 202.857 20.9648C202.307 20.9648 201.874 21.015 201.224 21.1322C199.757 21.3999 199.324 22.337 199.224 24.2447C199.107 25.985 199.107 27.5077 199.107 35.791V45.3794C199.107 50.6673 199.107 54.9679 199.324 57.3106C199.491 58.7832 199.874 59.7705 201.491 59.988C202.257 60.1052 203.44 60.2056 204.257 60.2056C204.857 60.2056 205.124 60.3729 205.124 60.6406C205.124 61.0255 204.69 61.1929 204.09 61.1929C200.507 61.1929 197.091 61.0255 195.624 61.0255C194.374 61.0255 190.958 61.1929 188.791 61.1929C188.091 61.1929 187.708 61.0255 187.708 60.6406C187.708 60.3729 187.924 60.2056 188.574 60.2056C189.391 60.2056 190.041 60.1052 190.524 59.988C191.608 59.7705 191.941 58.8501 192.091 57.2604C192.358 54.9679 192.358 50.6673 192.358 45.3794V35.791L192.391 35.7742Z" fill="#666565"/>
<path d="M206.323 60.5066C205.457 60.1218 205.29 59.854 205.29 58.6492C205.29 55.6538 205.507 52.3907 205.557 51.5206C205.607 50.7006 205.773 50.0982 206.207 50.0982C206.69 50.0982 206.757 50.5835 206.757 51.0186C206.757 51.7214 206.973 52.876 207.24 53.7964C208.44 57.8292 211.64 59.3018 215.006 59.3018C219.889 59.3018 222.273 55.9718 222.273 53.0936C222.273 50.4329 221.456 47.9228 216.956 44.3753L214.456 42.4174C208.49 37.7319 206.423 33.9166 206.423 29.5156C206.423 23.5249 211.406 19.2244 218.956 19.2244C222.489 19.2244 224.756 19.7766 226.172 20.1447C226.656 20.2619 226.939 20.4125 226.939 20.7973C226.939 21.5002 226.722 23.0899 226.722 27.3403C226.722 28.5451 226.556 28.9802 226.122 28.9802C225.739 28.9802 225.572 28.6455 225.572 27.9929C225.572 27.5076 225.306 25.8175 224.156 24.3951C223.339 23.3576 221.773 21.7344 218.239 21.7344C214.223 21.7344 211.79 24.0772 211.79 27.3403C211.79 29.8503 213.04 31.758 217.539 35.1884L219.056 36.3263C225.622 41.2795 227.956 45.0446 227.956 50.2153C227.956 53.378 226.756 57.1264 222.856 59.6867C220.139 61.427 217.106 61.929 214.223 61.929C211.073 61.929 208.64 61.5441 206.307 60.5066H206.323Z" fill="#666565"/>
<path d="M240.072 45.3627C240.072 52.3407 240.072 56.0891 241.205 57.0764C242.122 57.8963 243.539 58.2812 247.772 58.2812C250.655 58.2812 252.755 58.231 254.121 56.7584C254.771 56.0556 255.421 54.5161 255.538 53.4953C255.588 53.01 255.705 52.6754 256.138 52.6754C256.521 52.6754 256.571 52.9431 256.571 53.5957C256.571 54.1981 256.188 58.2812 255.755 59.8542C255.421 61.059 255.155 61.3267 252.338 61.3267C248.438 61.3267 245.605 61.2096 243.172 61.1594C240.722 61.0423 238.772 60.9921 236.556 60.9921C235.956 60.9921 234.772 60.9921 233.456 61.0423C232.206 61.0423 230.789 61.1594 229.706 61.1594C229.006 61.1594 228.623 60.9921 228.623 60.6072C228.623 60.3394 228.839 60.1721 229.489 60.1721C230.306 60.1721 230.956 60.0717 231.439 59.9546C232.522 59.737 232.789 58.5322 233.006 56.9592C233.272 54.6667 233.272 50.3661 233.272 45.3627V35.7742C233.272 27.491 233.272 25.9682 233.156 24.2279C233.056 22.3705 232.606 21.5003 230.822 21.1154C230.389 20.9983 229.739 20.9481 229.039 20.9481C228.439 20.9481 228.123 20.831 228.123 20.4628C228.123 20.0779 228.506 19.9775 229.323 19.9775C231.872 19.9775 235.289 20.1449 236.755 20.1449C238.055 20.1449 242.022 19.9775 244.138 19.9775C244.905 19.9775 245.272 20.0947 245.272 20.4628C245.272 20.8477 244.938 20.9481 244.288 20.9481C243.689 20.9481 242.822 20.9983 242.172 21.1154C240.705 21.3832 240.272 22.3203 240.172 24.2279C240.055 25.9682 240.055 27.491 240.055 35.7742V45.3627H240.072Z" fill="#666565"/>
<path d="M269.371 46.9357C269.104 46.9357 268.988 47.0528 268.888 47.3707L265.955 55.1687C265.405 56.5241 265.138 57.8461 265.138 58.4987C265.138 59.486 265.621 60.1888 267.304 60.1888H268.121C268.771 60.1888 268.938 60.306 268.938 60.6239C268.938 61.059 268.604 61.1761 268.021 61.1761C266.288 61.1761 263.955 61.0088 262.271 61.0088C261.671 61.0088 258.688 61.1761 255.872 61.1761C255.172 61.1761 254.838 61.059 254.838 60.6239C254.838 60.2892 255.055 60.1888 255.488 60.1888C255.972 60.1888 256.738 60.1386 257.172 60.0884C259.671 59.7537 260.705 57.913 261.788 55.1854L275.404 20.9815C276.054 19.4086 276.387 18.8062 276.921 18.8062C277.404 18.8062 277.737 19.2914 278.271 20.5465C279.571 23.5418 288.254 45.7643 291.72 54.0475C293.787 58.9505 295.353 59.7203 296.486 59.988C297.303 60.1554 298.12 60.2056 298.77 60.2056C299.203 60.2056 299.47 60.2558 299.47 60.6406C299.47 61.0757 298.986 61.1928 296.97 61.1928C295.02 61.1928 291.053 61.1928 286.72 61.0757C285.737 61.0255 285.087 61.0255 285.087 60.6406C285.087 60.306 285.304 60.2056 285.854 60.1554C286.237 60.0549 286.62 59.5529 286.337 58.9003L282.004 47.354C281.887 47.0863 281.737 46.9691 281.454 46.9691H269.354L269.371 46.9357ZM280.437 44.208C280.704 44.208 280.771 44.0407 280.704 43.8734L275.821 30.4194C275.771 30.2019 275.704 29.9341 275.554 29.9341C275.387 29.9341 275.287 30.2019 275.221 30.4194L270.238 43.8232C270.188 44.0407 270.238 44.208 270.454 44.208H280.437Z" fill="#666565"/>
<path d="M305.019 20.1948C305.185 19.2745 305.502 18.7725 305.935 18.7725C306.369 18.7725 306.702 19.0402 307.402 20.4626L322.218 51.1858L336.967 20.0777C337.401 19.2075 337.667 18.7725 338.167 18.7725C338.651 18.7725 338.984 19.3247 339.151 20.4626L344.084 54.131C344.567 57.5614 345.117 59.1344 346.75 59.6364C348.317 60.1217 349.417 60.1886 350.117 60.1886C350.6 60.1886 350.983 60.2388 350.983 60.5735C350.983 61.0086 350.333 61.1759 349.567 61.1759C348.217 61.1759 340.717 61.0086 338.551 60.8412C337.301 60.7241 336.984 60.5735 336.984 60.2388C336.984 59.9711 337.201 59.8037 337.584 59.6364C337.917 59.5192 338.067 58.8164 337.851 57.2937L334.601 33.3309H334.384L322.551 58.0634C321.301 60.6237 321.035 61.109 320.551 61.109C320.068 61.109 319.518 60.0213 318.652 58.3814C317.352 55.8713 313.068 47.5379 312.419 46.0151C311.935 44.8772 308.669 37.9996 306.769 33.9165H306.552L303.736 55.6035C303.619 56.5908 303.569 57.2937 303.569 58.1638C303.569 59.2013 304.269 59.6866 305.202 59.9041C306.185 60.1217 306.935 60.1719 307.485 60.1719C307.919 60.1719 308.302 60.289 308.302 60.5567C308.302 61.042 307.819 61.1592 307.002 61.1592C304.719 61.1592 302.286 60.9918 301.302 60.9918C300.269 60.9918 297.669 61.1592 295.936 61.1592C295.386 61.1592 294.953 61.042 294.953 60.5567C294.953 60.289 295.286 60.1719 295.819 60.1719C296.253 60.1719 296.636 60.1719 297.453 60.0045C298.969 59.6699 299.402 57.5614 299.669 55.7039L305.036 20.1948H305.019Z" fill="#666565"/>
</svg>
