<svg width="351" height="104" viewBox="0 0 351 104" fill="none" xmlns="http://www.w3.org/2000/svg">
<path d="M326.816 57.2521L350.983 23.012H329.4L306.344 57.2521H326.816Z" fill="#7FCEDF"/>
<path d="M127.835 104.004H112.094C98.6221 100.754 90.3165 91.4645 89.8721 77.6124H104.687C106.928 100.69 139.668 94.4387 136.159 72.1597C133.789 72.2423 132.881 74.4087 130.622 75.3542C113.863 82.395 91.8165 73.298 89.8813 54.3971C85.835 14.998 146.937 10.1878 150.872 47.2369C151.854 56.5359 151.983 78.4019 148.659 86.7003C144.909 96.0635 137.029 100.699 127.835 104.004ZM135.455 49.7797C135.455 41.4354 128.576 34.67 120.085 34.67C111.594 34.67 104.715 41.4354 104.715 49.7797C104.715 58.124 111.594 64.8894 120.085 64.8894C128.576 64.8894 135.455 58.124 135.455 49.7797Z" fill="#00465A"/>
<path d="M0.983398 0.264648H15.7982V27.5649C19.6778 25.9126 21.5667 23.5993 26.1223 22.6906C64.2334 15.1173 75.8537 63.0902 43.5667 75.3267C25.4464 82.1931 5.56673 73.7937 0.983398 54.8652V0.264648ZM47.1871 49.7614C47.1871 41.417 40.3075 34.6516 31.8167 34.6516C23.326 34.6516 16.4464 41.417 16.4464 49.7614C16.4464 58.1057 23.326 64.8711 31.8167 64.8711C40.3075 64.8711 47.1871 58.1057 47.1871 49.7614Z" fill="#00465A"/>
<path d="M172.28 103.095H157.465V46.2182C157.465 35.423 172.696 23.5261 183.011 22.1767C235.428 15.347 226.187 92.1257 176.9 75.3453C175.993 75.0332 172.28 71.6918 172.28 74.4273V103.095ZM185.956 35.0741C170.057 36.9927 167.706 58.7117 183.141 63.7514C207.493 71.6918 212.076 31.9163 185.956 35.0741Z" fill="#00465A"/>
<path d="M284.317 76.7036H269.502L269.048 72.1597C245.344 89.1512 212.196 65.0087 225.817 37.8645C238.65 12.2991 284.317 20.2854 284.317 46.2179V76.7036ZM269.02 49.7613C269.02 41.3894 262.122 34.6057 253.604 34.6057C245.085 34.6057 238.187 41.3894 238.187 49.7613C238.187 58.1331 245.085 64.9169 253.604 64.9169C262.122 64.9169 269.02 58.1331 269.02 49.7613Z" fill="#00465A"/>
<path d="M285.243 103.095L305.345 74.4456L282.465 23.012H300.521L323.215 73.6011L303.299 103.095H285.243Z" fill="#00465A"/>
<path d="M82.4652 23.012H67.6504V77.6126H82.4652V23.012Z" fill="#00465A"/>
</svg>
