<svg width="351" height="73" viewBox="0 0 351 73" fill="none" xmlns="http://www.w3.org/2000/svg">
<path d="M73.5075 0.00390625H0.983398V72.528H73.5075V0.00390625Z" fill="url(#paint0_linear_2001_786)"/>
<path d="M71.2709 36.5851C71.2709 51.7608 71.9099 67.256 71.9099 67.256C71.9099 69.0132 70.7917 70.1314 69.354 70.1314H6.57434C5.13663 70.1314 4.17817 68.8535 4.01842 67.256C4.01842 67.256 2.26123 53.9972 2.26123 33.8694C2.26123 13.5818 4.17817 4.1569 4.17817 4.1569C4.33791 2.55945 5.29638 1.28149 6.73408 1.28149H69.5137C70.9514 1.28149 72.0696 2.55945 72.0696 4.1569C71.9099 4.1569 71.2709 21.5691 71.2709 36.5851Z" fill="url(#paint1_linear_2001_786)"/>
<path d="M57.2137 19.4928C52.7408 22.0487 51.3031 22.3682 46.5108 25.2436L46.6705 24.7644C49.2264 22.0487 50.3446 20.7708 51.9421 18.3746C47.4692 18.6941 40.9197 19.1733 36.2871 20.1318L36.6066 19.6526C40.9197 17.5759 48.7472 15.4992 52.7408 15.02C51.7823 13.5823 43.7951 9.26917 41.8782 8.47045L42.0379 7.99121C48.1082 8.63019 56.0954 11.5056 59.4501 13.5823C60.8878 13.103 62.4852 13.103 65.2009 12.7835C65.2009 12.7835 64.7217 14.381 61.8462 16.4577C62.645 18.3746 60.8878 29.397 59.2903 32.2724C59.2903 27.7995 58.9708 22.0487 57.2137 19.4928Z" fill="url(#paint2_linear_2001_786)"/>
<path d="M24.4654 58.7897L24.6252 58.3105C22.229 57.352 19.8328 56.713 17.9159 54.7961C18.5549 53.0389 19.1938 51.7609 20.3121 50.1635L20.4718 49.6843C18.3951 50.0038 16.6379 50.8025 14.8807 51.122C13.443 48.7258 12.9638 45.3712 12.1651 42.1763V42.4958C11.8456 46.1699 11.6858 48.7258 12.1651 51.6012C10.7274 52.0804 9.44942 52.0804 8.17146 52.5597L8.01172 53.0389C9.92865 54.1571 11.3664 55.1156 13.6028 56.0741C14.721 58.4702 15.999 60.2274 17.9159 62.1444L18.0756 61.6651C17.7561 60.2274 17.2769 59.1092 17.4367 57.5118C19.8328 58.3105 21.7498 58.63 24.4654 58.7897Z" fill="url(#paint3_linear_2001_786)"/>
<path d="M31.1752 22.3682C31.1752 22.3682 30.2167 24.1254 29.418 26.3618H29.2582C34.8493 27.1605 40.1209 29.3969 41.3988 30.1957L41.2391 30.6749C35.4883 29.7164 32.4531 29.7164 30.2167 30.0359C28.14 30.1956 27.6608 30.5151 27.6608 30.5151C26.3828 33.2308 25.7438 37.7036 25.4244 39.3011L25.2646 39.7803C24.1464 37.2244 22.7087 32.1126 22.7087 32.1126C19.8333 33.71 13.124 39.9401 13.124 39.9401C16.7981 32.5918 20.632 29.2372 20.632 29.2372C19.3541 27.9592 15.9994 27.3202 13.4435 27.1605L13.6033 26.6813C15.2007 26.202 18.3956 26.0423 20.4723 25.8825C23.0282 25.8825 24.4659 25.8825 24.4659 25.8825C26.5426 24.1254 29.8972 22.5279 31.1752 22.3682Z" fill="url(#paint4_linear_2001_786)"/>
<path d="M38.2038 54.1571C37.0856 55.7546 35.9674 57.0325 34.6894 58.4702C32.7725 58.9495 30.5361 58.7897 28.7789 58.7897L28.6191 59.2689C29.8971 59.9079 31.1751 60.3872 32.6128 60.7066C31.4945 61.6651 30.0568 62.4638 28.9386 63.2626L28.7789 63.7418C31.0153 63.2626 34.0505 62.3041 36.2869 60.8664C37.4051 60.8664 38.5233 60.8664 39.322 60.7066L39.4818 60.2274C39.322 59.7482 38.8428 59.4287 38.6831 58.63C40.7597 57.0325 42.1974 55.5948 43.9546 53.8376L44.2741 53.3584C42.5169 54.4766 40.4402 56.2338 38.5233 57.1923C38.3636 56.0741 38.2038 55.2753 38.2038 54.1571Z" fill="url(#paint5_linear_2001_786)"/>
<path d="M57.5329 19.0136C53.0601 21.5695 51.6224 21.889 46.83 24.7644C49.7054 21.7292 50.6639 20.4513 52.4211 17.7356C47.9482 17.8954 41.3987 18.5344 36.7661 19.4928C40.7597 17.2564 48.9067 14.8602 53.0601 14.381C52.1016 13.103 44.1144 8.94968 42.0377 7.99121C48.2677 8.47044 56.0952 10.8666 59.7693 13.103C61.207 12.6238 62.8045 12.6238 65.5202 12.3043C64.8812 13.5823 64.8812 14.381 62.1655 16.1382C62.9642 18.0551 61.207 29.0775 59.6096 31.9529C59.6096 27.3203 59.1304 21.5695 57.5329 19.0136Z" fill="white"/>
<path d="M24.7852 58.3106C22.2293 57.3521 20.3124 56.2339 18.3955 54.3169C19.0344 52.5597 19.6734 51.2818 20.7916 49.6843C18.7149 50.0038 17.1175 50.1636 15.3603 50.6428C13.7629 47.9272 13.1239 45.3712 12.4849 42.0166C12.0057 45.6907 12.0057 48.2466 12.4849 51.122C10.8875 51.6013 9.6095 51.9208 8.33154 52.5598C10.2485 53.678 11.8459 54.6364 13.9226 55.5949C15.0408 57.9911 16.3188 59.7483 18.2357 61.6652C17.7565 60.0677 17.5967 58.7898 17.9162 57.0326C19.9929 57.8313 22.0696 58.1508 24.7852 58.3106Z" fill="white"/>
<path d="M31.4946 21.8892C30.6959 23.0074 29.7374 24.9243 29.5776 25.723C36.1272 26.6815 41.5585 30.0361 41.5585 30.0361C35.8077 29.0777 32.7725 29.0777 30.5361 29.3972C28.4594 29.5569 27.9802 29.8764 27.9802 29.8764C26.3827 33.231 25.4243 39.1416 25.4243 39.1416C24.3061 36.5857 22.8684 31.4738 22.8684 31.4738C19.993 33.0713 13.2837 39.3013 13.2837 39.3013C16.9578 31.9531 20.7917 28.5984 20.7917 28.5984C19.5137 27.3205 16.1591 26.6815 13.6032 26.5218C14.8811 26.0425 18.2358 25.4035 20.7917 25.2438C23.3476 25.2438 24.7853 25.2438 24.7853 25.2438C26.862 23.6464 30.2166 22.0489 31.4946 21.8892Z" fill="white"/>
<path d="M38.5227 53.6779C37.4045 55.2753 36.2863 56.5533 35.0084 57.991C32.7719 58.63 31.0147 58.7897 28.7783 58.7897C30.0563 59.4287 31.3342 59.9079 32.7719 60.2274C31.3342 61.5054 30.216 62.3041 28.7783 63.2626C31.0147 62.7833 34.0499 61.8249 36.2863 60.3872C37.4045 60.3872 38.5227 60.3872 39.3215 60.2274C39.1617 59.5884 39.002 59.1092 38.8422 58.1507C40.9189 56.5533 42.5164 55.1156 44.1138 53.3584C42.1969 54.6364 40.5994 55.5948 38.5227 56.5533C38.5227 55.5948 38.5227 54.7961 38.5227 53.6779Z" fill="white"/>
<path d="M100.664 26.5209C105.616 26.5209 107.373 27.4794 107.373 30.195C107.373 30.9938 107.214 31.6327 106.734 32.112C105.776 33.2302 104.019 33.8692 101.623 33.7094H101.463L100.025 37.2238H101.463C104.178 37.2238 106.575 38.0225 107.693 39.4602C108.172 40.0992 108.492 40.8979 108.492 41.6967C108.492 44.4123 106.095 45.85 101.303 45.85C100.504 45.85 99.2263 45.85 98.4276 45.85C98.2679 42.1759 98.2679 37.0641 98.2679 35.6264C98.2679 33.8692 98.4276 30.0353 98.4276 26.6807C98.9068 26.5209 99.8653 26.5209 100.664 26.5209ZM91.7183 23.965C91.8781 26.5209 92.0378 33.2302 92.0378 35.6264C92.0378 37.8628 92.0378 45.3708 91.7183 48.5657V48.8852H103.22C108.971 48.8852 115.041 47.128 115.041 42.0161C115.041 38.8212 112.645 36.4251 108.332 35.1471C111.527 34.3484 113.763 32.112 113.763 29.5561C113.763 25.4027 108.971 23.8053 104.498 23.6455H91.5586L91.7183 23.965Z" fill="black"/>
<path d="M142.038 23.6455H136.287L136.447 30.0353C136.607 33.2302 136.607 36.4251 136.926 39.4602C136.607 38.5018 136.287 38.0225 134.53 35.4666C134.53 35.3069 128.619 26.2014 126.543 23.6455H119.993V23.965C120.153 26.5209 120.313 33.2302 120.313 35.6264C120.313 37.8628 120.313 45.3708 119.993 48.5657V48.8852H125.904V48.5657C125.584 42.4954 125.584 36.2653 125.584 30.195C125.744 30.9938 126.063 31.473 127.022 32.9107C127.022 33.0704 137.246 47.7669 137.725 48.7254V48.8852H142.517V48.5657C142.198 45.3708 142.198 37.8628 142.198 35.6264C142.198 33.2302 142.357 26.5209 142.517 23.965V23.8053H142.038V23.6455Z" fill="black"/>
<path d="M157.533 26.6807C160.888 26.6807 163.124 27.3196 164.243 28.5976C164.722 29.2366 165.041 30.0353 165.041 30.834C165.041 34.5081 160.888 35.3069 157.533 35.3069H156.096C156.096 35.3069 155.776 35.3069 155.457 35.3069C155.457 34.5081 155.457 33.3899 155.457 32.112C155.457 30.5145 155.457 28.5976 155.457 26.8404C155.936 26.8404 156.735 26.6807 157.533 26.6807ZM148.907 23.965C149.067 26.5209 149.227 33.2302 149.227 35.6264C149.227 37.8628 149.227 45.3708 148.907 48.5657V48.8852H155.936V48.5657C155.776 46.1695 155.617 41.8564 155.617 38.5018C155.936 38.5018 156.894 38.5018 156.894 38.5018H157.853C167.118 38.5018 171.591 36.1056 171.591 30.9938C171.591 25.0832 165.361 23.8053 160.089 23.6455H149.067V23.965" fill="black"/>
<path d="M193.476 26.6807C196.83 26.6807 199.067 27.3196 200.185 28.5976C200.664 29.2366 200.984 30.0353 200.984 30.834C200.984 34.5081 196.83 35.3069 193.476 35.3069H192.038C192.038 35.3069 191.719 35.3069 191.399 35.3069C191.399 34.5081 191.399 33.3899 191.399 32.112C191.399 30.5145 191.399 28.5976 191.399 26.8404C191.878 26.8404 192.677 26.6807 193.476 26.6807ZM184.85 23.965C185.009 26.5209 185.169 33.2302 185.169 35.6264C185.169 37.8628 185.169 45.3708 184.85 48.5657V48.8852H191.878V48.5657C191.719 46.1695 191.559 41.8564 191.559 38.5018C191.878 38.5018 192.837 38.5018 192.837 38.5018H193.795C203.06 38.5018 207.533 36.1056 207.533 30.9938C207.533 25.0832 201.144 23.8053 195.872 23.6455H184.85V23.965Z" fill="black"/>
<path d="M218.556 31.1535C219.035 32.4315 220.632 35.6264 222.23 39.62C221.91 39.62 221.591 39.62 221.591 39.62H218.556C218.556 39.62 215.361 39.62 214.881 39.62C216.159 36.4251 217.437 33.5497 218.556 31.1535ZM216.798 23.6455C215.361 27.3196 206.894 45.6903 205.616 48.5657L205.457 48.8852H211.367V48.7254C211.846 46.9682 212.645 45.0513 213.444 42.9746C213.763 42.9746 218.396 42.9746 218.396 42.9746H222.549C222.549 42.9746 223.188 42.9746 223.348 42.9746C224.466 45.6903 225.265 47.7669 225.584 48.7254V48.8852H232.453L221.271 23.6455H221.431H216.798Z" fill="black"/>
<path d="M235.488 23.965C235.648 26.5209 235.808 33.2302 235.808 35.6264C235.808 37.8628 235.808 45.3708 235.488 48.5657V48.8852H242.517V48.5657C242.198 45.3708 242.038 37.8628 242.038 35.6264C242.038 33.8692 242.038 30.0353 242.198 26.8404C242.677 26.8404 243.476 26.6807 244.114 26.6807C247.309 26.6807 249.706 27.3196 250.824 28.5976C251.303 29.2366 251.622 30.0353 251.622 30.834C251.622 33.7094 248.907 35.1471 246.351 35.3069C245.552 35.3069 244.913 35.3069 244.913 35.3069L244.434 35.1471L244.753 35.6264C247.309 39.3005 250.984 45.5305 252.581 48.5657V48.7254H260.089L259.929 48.4059C259.61 47.9267 254.658 40.7382 252.581 37.703L252.421 37.5433C256.255 36.4251 258.172 34.1887 258.172 30.9938C258.172 25.243 251.942 23.8053 246.511 23.6455H235.488V23.965Z" fill="black"/>
<path d="M269.994 23.6455H263.285V23.8053C263.444 26.3612 263.604 33.0704 263.604 35.4666C263.604 37.703 263.604 45.211 263.285 48.4059V48.7254H270.313V48.4059C269.994 45.211 269.994 37.703 269.994 35.4666C269.994 33.0704 270.154 26.3612 270.313 23.8053V23.6455H269.994Z" fill="black"/>
<path d="M285.488 26.5209C290.44 26.5209 292.197 27.4794 292.197 30.195C292.197 30.9938 292.038 31.6327 291.558 32.112C290.6 33.2302 288.843 33.8692 286.447 33.7094H286.287L285.009 37.2238H286.287C289.003 37.2238 291.239 38.0225 292.517 39.4602C293.156 40.0992 293.316 40.8979 293.316 41.6967C293.316 44.4123 290.919 45.85 285.967 45.85C285.169 45.85 283.891 45.85 283.092 45.85C282.932 42.1759 282.932 37.0641 282.932 35.6264C282.932 33.8692 282.932 30.0353 283.092 26.6807C283.731 26.5209 284.689 26.5209 285.488 26.5209ZM276.542 23.965C276.702 26.5209 276.862 33.2302 276.862 35.6264C276.862 37.8628 276.862 45.3708 276.542 48.5657V48.8852H288.204C293.955 48.8852 300.025 47.128 300.025 42.0161C300.025 38.8212 297.629 36.4251 293.316 35.1471C296.511 34.3484 298.747 32.112 298.747 29.5561C298.747 25.4027 293.955 23.8053 289.482 23.6455H276.542V23.965Z" fill="black"/>
<path d="M314.243 30.9938C314.882 32.112 316.319 35.4666 317.917 39.4602C317.597 39.4602 317.437 39.4602 317.437 39.4602H314.402C314.402 39.4602 311.207 39.4602 310.728 39.4602C311.846 36.4251 313.124 33.5497 314.243 30.9938ZM317.118 23.6455H312.485V23.8053C311.048 27.6391 302.262 46.9682 301.463 48.5657L301.303 48.8852H307.374V48.7254C307.853 46.9682 308.492 45.0513 309.29 42.9746C309.45 42.9746 314.243 42.9746 314.243 42.9746H318.396H319.195C320.313 45.6903 321.112 47.7669 321.431 48.7254V48.8852H328.3L317.118 23.6455Z" fill="black"/>
<path d="M330.536 30.1957C330.536 34.6685 335.009 36.4257 338.843 38.0231C341.878 39.3011 345.073 40.5791 345.073 42.6557C345.073 43.2947 344.913 43.7739 344.594 44.2532C343.795 45.0519 342.357 45.5311 339.961 45.3714C337.565 45.2116 335.009 44.5727 331.974 43.135L330.856 42.496V43.4545V47.9273L331.654 48.0871H332.134C333.571 48.4065 336.447 49.0455 339.162 49.0455C346.511 49.0455 350.983 46.1701 350.983 41.218C350.983 36.5854 346.511 34.8282 342.357 33.2308C339.322 31.9528 336.287 30.8346 336.287 28.9177C336.287 28.2787 336.287 26.6813 340.121 26.6813C342.996 26.6813 345.712 27.7995 347.309 28.4385L348.747 29.0774V28.119V23.4864L347.309 23.1669C345.872 22.8474 343.475 22.3682 341.079 22.3682C334.689 22.6877 330.536 25.7228 330.536 30.1957Z" fill="black"/>
<defs>
<linearGradient id="paint0_linear_2001_786" x1="37.209" y1="-1.77836" x2="37.209" y2="74.7029" gradientUnits="userSpaceOnUse">
<stop stop-color="#008053"/>
<stop offset="0.6" stop-color="#7FCBAE"/>
<stop offset="1" stop-color="#00A76D"/>
</linearGradient>
<linearGradient id="paint1_linear_2001_786" x1="37.0947" y1="-17.9943" x2="37.0947" y2="67.9496" gradientUnits="userSpaceOnUse">
<stop stop-color="#00A76D"/>
<stop offset="0.3" stop-color="#7FCBAE"/>
<stop offset="0.55" stop-color="#00A76D"/>
<stop offset="0.8352" stop-color="#008053"/>
<stop offset="0.8691" stop-color="#008558"/>
<stop offset="0.9244" stop-color="#009264"/>
<stop offset="0.9939" stop-color="#00A97A"/>
<stop offset="1" stop-color="#00AD7D"/>
</linearGradient>
<linearGradient id="paint2_linear_2001_786" x1="50.8616" y1="63.2038" x2="50.8616" y2="7.58786" gradientUnits="userSpaceOnUse">
<stop stop-color="#00B387"/>
<stop offset="1" stop-color="#00A76D"/>
</linearGradient>
<linearGradient id="paint3_linear_2001_786" x1="16.3545" y1="63.2065" x2="16.3545" y2="7.57382" gradientUnits="userSpaceOnUse">
<stop stop-color="#00B387"/>
<stop offset="1" stop-color="#00A76D"/>
</linearGradient>
<linearGradient id="paint4_linear_2001_786" x1="27.1042" y1="63.1943" x2="27.1042" y2="7.59817" gradientUnits="userSpaceOnUse">
<stop stop-color="#00B387"/>
<stop offset="1" stop-color="#00A76D"/>
</linearGradient>
<linearGradient id="paint5_linear_2001_786" x1="36.3977" y1="63.2019" x2="36.3977" y2="7.58661" gradientUnits="userSpaceOnUse">
<stop stop-color="#00B387"/>
<stop offset="1" stop-color="#00A76D"/>
</linearGradient>
</defs>
</svg>
