<svg width="351" height="143" viewBox="0 0 351 143" fill="none" xmlns="http://www.w3.org/2000/svg">
<path d="M350.983 0.742676H0.983398V142.264H350.983V0.742676Z" fill="#009BBB"/>
<path d="M172.996 69.4082C182.218 67.225 186.848 62.2307 186.848 54.4397C186.848 43.458 179.195 37.9817 163.876 37.9817H135.838V105.026H167.199C182.196 105.026 189.673 99.0897 189.673 87.2025C189.673 77.5861 184.124 71.6572 172.989 69.4155M152.165 44.524H162.927C168.769 44.524 173.135 48.0726 173.135 55.1626C173.135 62.8294 168.929 66.6774 163.409 66.6774H152.172V44.524H152.165ZM162.986 98.4471H152.165V73.1832H164.066C171.521 73.1832 175.267 77.6811 175.267 86.6695C175.267 94.5334 170.236 98.4471 162.986 98.4471Z" fill="white"/>
<path d="M223.589 62.4351C215.543 59.6385 211.951 54.8048 211.951 50.9203C211.951 49.3066 212.301 47.9558 212.995 46.8606L213.615 46.0355C214.535 45.0132 215.828 44.2685 217.493 43.7865C232.271 40.0773 242.698 57.2436 242.698 57.2436V43.1367C236.543 38.9747 228.752 38.1131 224.488 37.9817H222.166C215.777 38.1569 210.563 39.9166 206.547 43.29C202.298 46.846 200.18 51.5263 200.18 57.3458C200.18 67.6412 207.277 73.6286 219.982 78.3017C228.781 81.5656 232.439 86.8447 232.439 91.16C232.439 92.6788 232.425 93.7156 231.534 95.322C231.534 95.322 230.11 97.3884 227.153 98.25C212.651 102.47 202.363 85.6472 202.363 85.6472V100.214C208.409 104.033 215.835 104.873 219.96 104.997H222.538C222.881 104.982 223.078 104.968 223.078 104.968L223.035 104.997H223.363V105.011H223.4C230.643 105.011 236.419 103.149 240.77 99.4401C245.129 95.7163 247.305 90.7803 247.305 84.6469C247.305 74.1762 239.127 67.7799 223.604 62.4278" fill="white"/>
<path d="M305.223 37.9817H304.062V85.5158L272.526 37.9817H260.245V105.019H266.758H267.919V60.8944L296.907 105.019H311.736V37.9817H305.223Z" fill="white"/>
<path d="M104.272 79.8937C104.725 82.6391 107.054 84.7566 109.924 84.815C113.159 84.8953 115.846 82.3178 115.919 79.0832C115.999 75.8266 113.436 73.1323 110.201 73.0593C107.266 72.9863 104.798 75.0892 104.302 77.893C101.264 77.8127 87.8144 78.0171 78.9356 88.371C78.9137 88.0862 78.8991 87.7941 78.8772 87.5094C79.9432 81.5439 84.3169 68.6198 102.243 66.422C103.082 68.4154 104.981 69.883 107.295 70.0291C110.53 70.2189 113.297 67.7363 113.495 64.4871C113.684 61.2451 111.216 58.4559 107.989 58.266C104.762 58.0762 101.98 60.5515 101.79 63.8007V63.8737C98.9495 64.1074 85.6896 65.7357 78.2857 75.2206C78.2565 74.505 78.2273 73.7968 78.2054 73.1031C81.7175 59.0181 92.8015 53.9069 96.0727 52.6948C96.9124 54.513 98.6721 55.8638 100.819 56.0755C104.046 56.3895 106.916 54.0164 107.222 50.7745C107.536 47.5544 105.178 44.6776 101.943 44.3563C98.7159 44.0423 95.8609 46.4081 95.5396 49.6427C95.5177 49.891 95.5104 50.1319 95.5177 50.3875C88.457 52.2567 82.769 56.6743 79.2568 60.0403C79.4102 58.2149 80.6369 47.036 87.5297 41.1946C88.4497 42.5382 89.9246 43.4801 91.6551 43.6699C94.8679 44.0496 97.7886 41.7277 98.1537 38.5003C98.526 35.2657 96.2114 32.3523 92.9914 31.9872C89.7859 31.6075 86.8725 33.9221 86.5001 37.1568C86.4271 37.7774 86.4563 38.3835 86.5732 38.9676C84.076 40.647 80.0965 43.9693 77.4898 49.2849C76.3289 40.3623 78.5048 34.3091 79.8921 31.5053C80.5711 31.885 81.3524 32.1478 82.1775 32.2282C85.3903 32.5859 88.2891 30.2348 88.6249 27.0001C88.9754 23.7655 86.6316 20.874 83.4115 20.5381C80.1842 20.1876 77.3 22.5315 76.9641 25.7588C76.8035 27.3141 77.2489 28.7744 78.1178 29.9208C76.9276 31.6294 76.0514 33.579 75.4015 35.6088C74.7517 33.5863 73.8755 31.6294 72.6853 29.9208C73.5542 28.7744 74.0069 27.3141 73.8536 25.7588C73.5104 22.5315 70.6116 20.1876 67.3989 20.5381C64.1788 20.8813 61.8423 23.7655 62.1854 27.0001C62.5213 30.2348 65.4201 32.5859 68.6402 32.2282C69.4726 32.1551 70.2319 31.8923 70.9183 31.5053C72.2837 34.2507 74.3866 40.0994 73.3936 48.73H73.3132C73.3132 48.73 73.3133 48.9637 73.2986 49.4091C73.2767 49.6208 73.2475 49.8472 73.211 50.0662C70.6189 44.2833 66.3693 40.72 63.7699 38.9676C63.8794 38.3835 63.9087 37.7774 63.8356 37.1568C63.4705 33.9221 60.5572 31.6075 57.3371 31.9872C54.1171 32.3523 51.8097 35.2657 52.1748 38.5003C52.5472 41.7277 55.4533 44.0496 58.6733 43.6699C60.4184 43.4801 61.8934 42.5382 62.8134 41.1946C69.6843 47.036 70.9256 58.2149 71.0789 60.0403C67.5668 56.6743 61.8861 52.2567 54.818 50.3875C54.8253 50.1319 54.818 49.891 54.8034 49.6427C54.4821 46.4081 51.6126 44.0423 48.3925 44.3563C45.1652 44.6776 42.8067 47.5471 43.1207 50.7745C43.4274 54.0164 46.3042 56.3895 49.5243 56.0755C51.671 55.8638 53.4234 54.513 54.2777 52.6948C57.6365 53.9361 69.2243 59.2956 72.4224 74.2349C72.3932 74.6949 72.3786 75.1549 72.3567 75.6149C65.0258 65.7941 51.4446 64.1074 48.5678 63.8737V63.8007C48.3706 60.5442 45.596 58.0689 42.3613 58.266C39.1267 58.4559 36.6587 61.2451 36.8485 64.4871C37.0311 67.7436 39.8203 70.2189 43.055 70.0291C45.3477 69.883 47.2608 68.4154 48.1005 66.422C67.2528 68.7805 70.9402 83.3766 71.6339 88.6411C62.7404 78.0171 49.0862 77.8127 46.0487 77.893C45.5449 75.0892 43.0769 72.979 40.1416 73.0593C36.8996 73.1396 34.344 75.8266 34.4171 79.0832C34.4901 82.3251 37.1844 84.9026 40.4191 84.815C43.2813 84.7566 45.6179 82.6391 46.0706 79.8937C51.1599 80.3391 55.2415 81.5512 58.4762 83.1721C53.5767 83.7636 50.0865 86.5163 48.3487 88.2249C47.3776 87.6189 46.2093 87.2684 44.9753 87.3268C41.7334 87.4728 39.2216 90.2183 39.3676 93.4675C39.5136 96.7095 42.2518 99.2359 45.4864 99.0972C48.7284 98.9438 51.2329 96.2057 51.0942 92.9491C51.0357 91.7589 50.6268 90.6637 49.977 89.7583C56.7019 84.3988 62.7331 86.6332 64.8068 87.6846C67.3186 90.1818 68.8446 92.8396 69.7719 95.0082C66.1649 92.8761 62.5286 95.0082 60.674 96.4905C59.8708 96.0743 58.9727 95.8406 58.0016 95.8406C54.7596 95.8406 52.1383 98.4692 52.1383 101.726C52.1383 104.982 54.7596 107.618 58.0016 107.618C61.2435 107.618 63.8648 104.975 63.8648 101.726C63.8648 100.463 63.4632 99.287 62.7842 98.3232C68.297 95.125 70.3561 100.346 70.8453 101.989C70.1516 110.97 69.3265 118.162 68.3408 120.52C68.3408 120.52 71.1373 122.689 75.3431 122.514C79.5562 122.689 82.3528 120.52 82.3528 120.52C81.3451 118.089 80.4908 110.561 79.7826 101.229C80.5784 99.1775 82.769 95.5266 87.5808 98.3232C86.909 99.287 86.5001 100.463 86.5001 101.726C86.5001 104.982 89.1288 107.618 92.3707 107.618C95.6127 107.618 98.234 104.975 98.234 101.726C98.234 98.4765 95.6127 95.8406 92.3707 95.8406C91.3996 95.8406 90.4942 96.0816 89.691 96.4905C87.8436 95.0082 84.2074 92.8761 80.6004 95.0082C81.5204 92.8469 83.0464 90.1818 85.5582 87.6919C87.6246 86.6405 93.6704 84.3915 100.388 89.7656C99.7381 90.671 99.3292 91.7662 99.2708 92.9564C99.1321 96.2203 101.644 98.9511 104.879 99.1045C108.113 99.2359 110.859 96.7168 111.005 93.4748C111.136 90.2256 108.624 87.4801 105.39 87.3341C104.148 87.2757 102.987 87.6262 102.009 88.2322C100.271 86.5236 96.7663 83.7709 91.8742 83.1794C95.1162 81.5585 99.1905 80.3464 104.28 79.901M110.121 76.5422C111.435 76.5787 112.472 77.6667 112.45 78.9883C112.421 80.3099 111.326 81.3467 110.004 81.3175C108.705 81.2883 107.66 80.193 107.69 78.8787C107.719 77.5571 108.807 76.5203 110.121 76.5422ZM107.785 61.7489C109.099 61.8293 110.099 62.9537 110.019 64.2753C109.939 65.5969 108.814 66.59 107.5 66.517C106.193 66.4439 105.193 65.3049 105.266 63.9979C105.353 62.6763 106.463 61.6759 107.785 61.7489ZM101.622 47.8246C102.922 47.9633 103.886 49.1243 103.754 50.4313C103.623 51.7456 102.469 52.7167 101.162 52.578C99.8477 52.4466 98.8984 51.2783 99.0153 49.964C99.1467 48.6497 100.308 47.7005 101.622 47.8173M89.9684 37.5584C90.1218 36.2368 91.2974 35.3095 92.5971 35.4482C93.9114 35.6015 94.846 36.7771 94.6926 38.0914C94.5466 39.3984 93.3637 40.3476 92.0567 40.187C90.7497 40.0337 89.8151 38.8581 89.9611 37.5511M80.4251 26.1312C80.5565 24.8169 81.7394 23.8677 83.0318 23.9991C84.3461 24.1452 85.2954 25.3207 85.1566 26.635C85.0179 27.9421 83.8496 28.8913 82.5426 28.7598C81.2283 28.6211 80.2864 27.4309 80.4251 26.1312ZM68.2605 28.7598C66.9535 28.8913 65.7852 27.9421 65.6392 26.635C65.5077 25.328 66.4496 24.1452 67.7566 23.9991C69.0637 23.8604 70.2319 24.8169 70.378 26.1312C70.5167 27.4309 69.5675 28.6211 68.2605 28.7598ZM58.2644 40.187C56.9574 40.3476 55.7818 39.3984 55.6358 38.0914C55.4825 36.7771 56.4098 35.6015 57.7314 35.4482C59.0238 35.3095 60.214 36.2368 60.36 37.5584C60.4988 38.8581 59.5641 40.041 58.2644 40.1943M49.1738 52.5853C47.8668 52.7167 46.7131 51.7529 46.5744 50.4386C46.4576 49.1316 47.4068 47.9706 48.7211 47.8319C50.0354 47.7078 51.1891 48.6643 51.3205 49.9786C51.4446 51.2929 50.4881 52.4612 49.1738 52.5926M42.8359 66.517C41.5143 66.59 40.3825 65.5969 40.3095 64.2753C40.2365 62.9537 41.2442 61.8293 42.5512 61.7489C43.8655 61.6759 44.9826 62.6763 45.0702 63.9979C45.1433 65.3049 44.1429 66.4439 42.8432 66.517M40.3168 81.3248C39.0025 81.354 37.9 80.3172 37.8781 78.9956C37.8489 77.674 38.893 76.586 40.2 76.5495C41.507 76.5276 42.6096 77.5644 42.6315 78.886C42.6607 80.2003 41.6238 81.2956 40.3095 81.3248M57.9797 104.106C56.6654 104.106 55.6066 103.033 55.6066 101.711C55.6066 100.39 56.6654 99.3308 57.9797 99.3308C59.294 99.3308 60.3673 100.39 60.3673 101.711C60.3673 103.033 59.294 104.106 57.9797 104.106ZM94.7292 101.711C94.7292 103.04 93.6558 104.106 92.3488 104.106C91.0418 104.106 89.9684 103.033 89.9684 101.711C89.9684 100.39 91.0345 99.3308 92.3488 99.3308C93.6631 99.3308 94.7292 100.39 94.7292 101.711ZM77.7381 61.5299L77.8549 61.435L77.7381 61.5591V61.5299ZM72.4663 61.435L72.8898 61.7708V61.8439L72.4663 61.435ZM45.3112 95.5923C43.9896 95.6508 42.8724 94.6285 42.8359 93.3142C42.7775 91.9853 43.7924 90.8827 45.1068 90.817C46.4138 90.7659 47.5236 91.7955 47.5893 93.1025C47.6404 94.4241 46.6182 95.5412 45.3185 95.5923M105.214 90.8097C106.536 90.8754 107.551 91.978 107.493 93.3069C107.441 94.6212 106.324 95.6435 105.01 95.585C103.71 95.5339 102.688 94.4168 102.732 93.0952C102.798 91.7809 103.915 90.7586 105.214 90.8097Z" fill="white"/>
</svg>
