<svg width="198" height="80" viewBox="0 0 198 80" fill="none" xmlns="http://www.w3.org/2000/svg">
<path d="M197.831 0H0V79.9927H197.831V0Z" fill="#009BBB"/>
<path d="M97.2273 38.8121C102.44 37.5781 105.056 34.7551 105.056 30.3515C105.056 24.1442 100.731 21.0488 92.0724 21.0488H76.2241V58.9445H93.9503C102.427 58.9445 106.654 55.5891 106.654 48.87C106.654 43.4346 103.517 40.0833 97.2231 38.8163M85.4525 24.7468H91.5359C94.8376 24.7468 97.3057 26.7526 97.3057 30.76C97.3057 35.0936 94.9284 37.2686 91.8083 37.2686H85.4566V24.7468H85.4525ZM91.5689 55.2259H85.4525V40.9459H92.1797C96.3936 40.9459 98.5108 43.4882 98.5108 48.5688C98.5108 53.0137 95.6672 55.2259 91.5689 55.2259Z" fill="white"/>
<path d="M125.824 34.8707C121.276 33.29 119.246 30.5578 119.246 28.3622C119.246 27.4501 119.444 26.6865 119.836 26.0675L120.187 25.6011C120.707 25.0233 121.437 24.6023 122.378 24.3299C130.732 22.2333 136.625 31.9363 136.625 31.9363V23.9626C133.146 21.6101 128.742 21.1231 126.332 21.0488H125.02C121.408 21.1479 118.462 22.1425 116.192 24.0493C113.79 26.0592 112.593 28.7047 112.593 31.9941C112.593 37.8134 116.604 41.1976 123.786 43.839C128.759 45.6839 130.827 48.6678 130.827 51.107C130.827 51.9654 130.818 52.5515 130.315 53.4594C130.315 53.4594 129.51 54.6274 127.839 55.1144C119.642 57.4999 113.827 47.991 113.827 47.991V56.2246C117.244 58.3831 121.441 58.8578 123.773 58.9279H125.23C125.424 58.9197 125.536 58.9114 125.536 58.9114L125.511 58.9279H125.697V58.9362H125.717C129.811 58.9362 133.076 57.8838 135.536 55.7872C138 53.6823 139.229 50.8923 139.229 47.4255C139.229 41.5072 134.607 37.8918 125.833 34.8666" fill="white"/>
<path d="M171.966 21.0488H171.31V47.9167L153.485 21.0488H146.543V58.9403H150.224H150.881V33.9999L167.265 58.9403H175.648V21.0488H171.966Z" fill="white"/>
<path d="M58.3824 44.7388C58.6383 46.2906 59.9549 47.4875 61.5768 47.5205C63.4052 47.5659 64.924 46.109 64.9652 44.2807C65.0106 42.4399 63.562 40.917 61.7337 40.8757C60.0746 40.8345 58.6796 42.0231 58.3989 43.6079C56.682 43.5625 49.0798 43.6781 44.0612 49.5304C44.0488 49.3694 44.0405 49.2044 44.0281 49.0434C44.6307 45.6715 47.1029 38.3664 57.2351 37.1241C57.7097 38.2509 58.7827 39.0804 60.0911 39.163C61.9194 39.2703 63.4836 37.867 63.595 36.0305C63.7023 34.198 62.3073 32.6214 60.4831 32.5141C58.6589 32.4068 57.0865 33.8059 56.9792 35.6425V35.6838C55.3737 35.8158 47.8788 36.7362 43.6938 42.0974C43.6773 41.6929 43.6608 41.2926 43.6484 40.9005C45.6336 32.9392 51.8986 30.0502 53.7476 29.3651C54.2222 30.3927 55.2169 31.1563 56.4303 31.276C58.2545 31.4534 59.8764 30.1121 60.0498 28.2796C60.2273 26.4596 58.8942 24.8335 57.0658 24.6519C55.2416 24.4744 53.6279 25.8116 53.4463 27.6399C53.4339 27.7803 53.4298 27.9164 53.4339 28.0609C49.443 29.1174 46.2279 31.6144 44.2427 33.517C44.3294 32.4852 45.0228 26.1665 48.9188 22.8648C49.4388 23.6242 50.2725 24.1566 51.2507 24.2639C53.0666 24.4785 54.7175 23.1661 54.9239 21.3419C55.1343 19.5135 53.826 17.8668 52.0059 17.6604C50.1941 17.4458 48.5474 18.7541 48.3369 20.5825C48.2956 20.9333 48.3121 21.2758 48.3782 21.606C46.9667 22.5553 44.7174 24.4331 43.244 27.4377C42.5878 22.3943 43.8176 18.9729 44.6018 17.3881C44.9856 17.6027 45.4272 17.7512 45.8936 17.7966C47.7096 17.9989 49.348 16.6699 49.5379 14.8416C49.736 13.0133 48.4112 11.3789 46.5911 11.1891C44.7669 10.9909 43.1367 12.3158 42.9468 14.14C42.856 15.0191 43.1078 15.8445 43.5989 16.4925C42.9262 17.4582 42.4309 18.5602 42.0636 19.7075C41.6963 18.5643 41.201 17.4582 40.5283 16.4925C41.0194 15.8445 41.2753 15.0191 41.1886 14.14C40.9947 12.3158 39.3562 10.9909 37.5402 11.1891C35.7202 11.383 34.3995 13.0133 34.5934 14.8416C34.7833 16.6699 36.4218 17.9989 38.2419 17.7966C38.7124 17.7554 39.1416 17.6068 39.5295 17.3881C40.3013 18.9399 41.4899 22.2457 40.9286 27.124H40.8832C40.8832 27.124 40.8832 27.2561 40.875 27.5079C40.8626 27.6275 40.8461 27.7555 40.8255 27.8793C39.3603 24.6106 36.9583 22.5965 35.489 21.606C35.5509 21.2758 35.5675 20.9333 35.5262 20.5825C35.3198 18.7541 33.6731 17.4458 31.853 17.6604C30.0329 17.8668 28.7287 19.5135 28.9351 21.3419C29.1456 23.1661 30.7882 24.4785 32.6083 24.2639C33.5947 24.1566 34.4284 23.6242 34.9484 22.8648C38.832 26.1665 39.5337 32.4852 39.6203 33.517C37.6352 31.6144 34.4242 29.1174 30.4291 28.0609C30.4333 27.9164 30.4291 27.7803 30.4209 27.6399C30.2393 25.8116 28.6173 24.4744 26.7972 24.6519C24.973 24.8335 23.6399 26.4554 23.8174 28.2796C23.9908 30.1121 25.6169 31.4534 27.4369 31.276C28.6503 31.1563 29.6408 30.3927 30.1237 29.3651C32.0222 30.0667 38.572 33.096 40.3797 41.5402C40.3632 41.8002 40.355 42.0602 40.3426 42.3202C36.1989 36.7692 28.5224 35.8158 26.8963 35.6838V35.6425C26.7848 33.8018 25.2165 32.4027 23.3882 32.5141C21.5599 32.6214 20.1649 34.198 20.2722 36.0305C20.3754 37.8712 21.9519 39.2703 23.7803 39.163C25.0762 39.0804 26.1575 38.2509 26.6321 37.1241C37.4577 38.4572 39.5419 46.7074 39.934 49.6831C34.9071 43.6781 27.1893 43.5625 25.4724 43.6079C25.1876 42.0231 23.7927 40.8303 22.1335 40.8757C20.3011 40.9211 18.8566 42.4399 18.8978 44.2807C18.9391 46.1131 20.462 47.57 22.2904 47.5205C23.9082 47.4875 25.2289 46.2906 25.4848 44.7388C28.3614 44.9905 30.6685 45.6756 32.4968 46.5919C29.7275 46.9262 27.7547 48.4821 26.7725 49.4479C26.2236 49.1053 25.5632 48.9072 24.8657 48.9402C23.0333 49.0228 21.6135 50.5746 21.6961 52.4112C21.7786 54.2436 23.3263 55.6716 25.1546 55.5932C26.9871 55.5065 28.4027 53.9589 28.3243 52.1181C28.2913 51.4454 28.0601 50.8263 27.6928 50.3146C31.4939 47.2852 34.903 48.5481 36.0751 49.1424C37.4948 50.5539 38.3574 52.0562 38.8816 53.282C36.8427 52.0769 34.7874 53.282 33.7391 54.1198C33.2851 53.8846 32.7775 53.7525 32.2286 53.7525C30.3961 53.7525 28.9145 55.2383 28.9145 57.079C28.9145 58.9197 30.3961 60.4096 32.2286 60.4096C34.061 60.4096 35.5427 58.9156 35.5427 57.079C35.5427 56.365 35.3157 55.7005 34.9319 55.1557C38.0479 53.348 39.2117 56.299 39.4883 57.2276C39.0962 62.304 38.6298 66.3692 38.0726 67.7023C38.0726 67.7023 39.6533 68.9281 42.0306 68.829C44.412 68.9281 45.9927 67.7023 45.9927 67.7023C45.4231 66.328 44.9402 62.0728 44.5399 56.7983C44.9898 55.6386 46.2279 53.575 48.9477 55.1557C48.568 55.7005 48.3369 56.365 48.3369 57.079C48.3369 58.9197 49.8227 60.4096 51.6551 60.4096C53.4876 60.4096 54.9692 58.9156 54.9692 57.079C54.9692 55.2424 53.4876 53.7525 51.6551 53.7525C51.1062 53.7525 50.5945 53.8887 50.1405 54.1198C49.0963 53.282 47.041 52.0769 45.0021 53.282C45.5222 52.0604 46.3847 50.5539 47.8045 49.1466C48.9725 48.5523 52.3898 47.2811 56.1868 50.3187C55.8194 50.8305 55.5883 51.4495 55.5553 52.1223C55.4769 53.9671 56.8966 55.5107 58.725 55.5973C60.5533 55.6716 62.1051 54.2477 62.1877 52.4153C62.2619 50.5787 60.8422 49.0269 59.0139 48.9443C58.3123 48.9113 57.656 49.1094 57.103 49.452C56.1207 48.4862 54.1397 46.9303 51.3745 46.596C53.207 45.6798 55.5099 44.9947 58.3865 44.7429M61.6883 42.8444C62.4312 42.865 63.0172 43.48 63.0048 44.227C62.9883 44.974 62.3693 45.5601 61.6222 45.5436C60.8876 45.5271 60.2974 44.908 60.3139 44.1651C60.3304 43.4181 60.9454 42.832 61.6883 42.8444ZM60.3676 34.4828C61.1105 34.5282 61.6759 35.1637 61.6305 35.9108C61.5851 36.6578 60.9495 37.2191 60.2066 37.1778C59.4679 37.1365 58.9024 36.4927 58.9437 35.7539C58.9932 35.0069 59.6206 34.4415 60.3676 34.4828ZM56.8843 26.6123C57.6189 26.6907 58.1637 27.3469 58.0894 28.0857C58.0151 28.8286 57.363 29.3775 56.6242 29.299C55.8813 29.2248 55.3448 28.5644 55.4109 27.8215C55.4851 27.0786 56.1414 26.5421 56.8843 26.6081M50.2973 20.8095C50.384 20.0625 51.0484 19.5383 51.7831 19.6167C52.526 19.7034 53.0542 20.3679 52.9676 21.1108C52.885 21.8495 52.2164 22.386 51.4777 22.2952C50.7389 22.2086 50.2106 21.5441 50.2932 20.8053M44.9031 14.3505C44.9774 13.6076 45.646 13.071 46.3765 13.1453C47.1194 13.2279 47.6559 13.8923 47.5775 14.6352C47.4991 15.374 46.8387 15.9105 46.1 15.8362C45.3571 15.7578 44.8247 15.0851 44.9031 14.3505ZM38.0272 15.8362C37.2885 15.9105 36.6281 15.374 36.5456 14.6352C36.4713 13.8965 37.0037 13.2279 37.7425 13.1453C38.4812 13.0669 39.1416 13.6076 39.2241 14.3505C39.3025 15.0851 38.766 15.7578 38.0272 15.8362ZM32.3772 22.2952C31.6384 22.386 30.9739 21.8495 30.8914 21.1108C30.8047 20.3679 31.3289 19.7034 32.0759 19.6167C32.8064 19.5383 33.4791 20.0625 33.5616 20.8095C33.6401 21.5441 33.1118 22.2127 32.3772 22.2994M27.2388 29.3032C26.5001 29.3775 25.848 28.8327 25.7696 28.0898C25.7035 27.351 26.2401 26.6948 26.9829 26.6164C27.7258 26.5462 28.3779 27.0869 28.4522 27.8298C28.5224 28.5727 27.9817 29.233 27.2388 29.3073M23.6565 37.1778C22.9094 37.2191 22.2697 36.6578 22.2285 35.9108C22.1872 35.1637 22.7567 34.5282 23.4955 34.4828C24.2384 34.4415 24.8698 35.0069 24.9194 35.7539C24.9606 36.4927 24.3952 37.1365 23.6606 37.1778M22.2326 45.5477C21.4897 45.5642 20.8665 44.9781 20.8541 44.2311C20.8376 43.4841 21.4278 42.8692 22.1665 42.8485C22.9053 42.8361 23.5285 43.4222 23.5409 44.1692C23.5574 44.9121 22.9713 45.5312 22.2285 45.5477M32.2162 58.4244C31.4733 58.4244 30.8749 57.8177 30.8749 57.0707C30.8749 56.3237 31.4733 55.7253 32.2162 55.7253C32.9591 55.7253 33.5658 56.3237 33.5658 57.0707C33.5658 57.8177 32.9591 58.4244 32.2162 58.4244ZM52.9882 57.0707C52.9882 57.8219 52.3815 58.4244 51.6428 58.4244C50.904 58.4244 50.2973 57.8177 50.2973 57.0707C50.2973 56.3237 50.8999 55.7253 51.6428 55.7253C52.3856 55.7253 52.9882 56.3237 52.9882 57.0707ZM43.3843 34.3589L43.4503 34.3053L43.3843 34.3755V34.3589ZM40.4045 34.3053L40.6439 34.4951V34.5364L40.4045 34.3053ZM25.0556 53.6122C24.3085 53.6452 23.6771 53.0674 23.6565 52.3245C23.6234 51.5733 24.1971 50.9501 24.94 50.913C25.6788 50.8841 26.3061 51.466 26.3432 52.2048C26.3721 52.9518 25.7943 53.5833 25.0597 53.6122M58.9148 50.9089C59.6618 50.946 60.2355 51.5692 60.2025 52.3204C60.1736 53.0633 59.5421 53.6411 58.7993 53.608C58.0646 53.5792 57.4868 52.9477 57.5116 52.2007C57.5487 51.4578 58.1802 50.88 58.9148 50.9089Z" fill="white"/>
</svg>
