<svg width="441" height="70" viewBox="0 0 441 70" fill="none" xmlns="http://www.w3.org/2000/svg">
<path d="M74.3442 1H1V68.71H74.3442V1Z" fill="#76111C" stroke="#482B2B" stroke-width="1.94"/>
<path fill-rule="evenodd" clip-rule="evenodd" d="M10.2412 12.8003H49.5309L69.1924 34.7387L49.5309 58.7214H10.2412L27.8418 34.7387L10.2412 12.8003Z" fill="#EB2428" stroke="#482B2B" stroke-width="0.97"/>
<path fill-rule="evenodd" clip-rule="evenodd" d="M69.1924 34.7387L49.5309 12.8003H10.2412L27.8418 34.7387" fill="white"/>
<path d="M69.1924 34.7387L49.5309 12.8003H10.2412L27.8418 34.7387" stroke="#482B2B" stroke-width="0.97"/>
<path d="M124.022 25.3484C121.994 22.9718 119.069 21.6089 115.296 21.6089C107.601 21.6089 101.934 27.7916 101.934 36.301C101.934 44.8105 107.601 50.9931 114.964 50.9931C119.069 50.9931 122.393 49.1816 124.47 46.0902L132.947 52.3394C129.107 57.7575 122.592 60.2671 116.26 60.2671C101.867 60.2671 91.3633 50.9267 91.3633 36.301C91.3633 21.6754 101.851 12.335 116.26 12.335C121.412 12.335 127.927 14.0801 131.833 19.0328L124.022 25.3484Z" fill="#76111C"/>
<path d="M138.348 13.498H148.52V59.12H138.348V13.498Z" fill="#76111C"/>
<path d="M157.76 13.498H173.134L183.754 43.2645H183.887L194.574 13.498H209.881V59.12H199.709V24.1349H199.576L187.46 59.1366H179.715L168.048 24.1349H167.915V59.1366H157.744V13.498H157.76Z" fill="#76111C"/>
<path d="M219.271 13.498H236.473C244.55 13.498 253.342 15.1767 253.342 25.0988C253.342 30.1846 250.151 33.6748 245.398 35.1539V35.2869C251.464 36.068 255.503 40.5056 255.503 46.4389C255.503 55.9788 246.378 59.1366 238.168 59.1366H219.271V13.498ZM229.442 31.7302H236.805C239.93 31.7302 243.187 30.4338 243.187 26.7608C243.187 23.0878 239.531 21.9909 236.34 21.9909H229.426V31.7302H229.442ZM229.442 50.6106H238.567C241.758 50.6106 245.348 49.2643 245.348 45.2589C245.348 40.9377 240.462 40.2397 237.138 40.2397H229.442V50.6106Z" fill="#76111C"/>
<path d="M269.58 13.4985H282.876C289.906 13.4985 297.734 15.2436 297.734 25.5481C297.734 30.185 294.926 33.9245 289.458 35.0215V35.1544C295.524 35.6032 299.745 39.9909 299.745 46.3729C299.745 56.8768 290.555 59.1371 284.305 59.1371H269.58V13.4985ZM273.868 33.2099H282.793C291.718 33.2099 293.413 28.3735 293.413 25.5481C293.413 19.166 288.859 17.371 283.375 17.371H273.868V33.2265V33.2099ZM273.868 55.2647H283.707C293.812 55.2647 295.441 49.7302 295.441 46.5059C295.441 39.7416 289.84 37.099 284.372 37.099H273.885V55.2647H273.868Z" fill="#76111C"/>
<path d="M324.758 13.4985H329.196L348.608 59.1205H343.788L338.769 47.0045H314.337L309.119 59.1205H304.631L324.758 13.4985ZM326.769 18.1355L316.016 43.132H337.19L326.769 18.1355Z" fill="#76111C"/>
<path d="M355.256 13.4985H360.79L388.878 53.4531H389.011V13.4985H393.316V59.1205H387.781L359.693 19.166H359.56V59.1205H355.256V13.4985Z" fill="#76111C"/>
<path d="M405.931 13.4985H410.235V33.6088H410.634L432.988 13.4985H438.921L415.604 34.3733L440.234 59.1205H434.052L410.667 35.5367H410.268V59.1205H405.964V13.4985H405.931Z" fill="#76111C"/>
</svg>
