<svg width="351" height="57" viewBox="0 0 351 57" fill="none" xmlns="http://www.w3.org/2000/svg">
<path d="M59.4271 1.52783H0.983398V55.4819H59.4271V1.52783Z" fill="#76111C" stroke="#482B2B" stroke-width="1.94"/>
<path fill-rule="evenodd" clip-rule="evenodd" d="M8.34717 10.9307H39.6548L55.3219 28.4121L39.6548 47.5225H8.34717L22.3721 28.4121L8.34717 10.9307Z" fill="#EB2428" stroke="#482B2B" stroke-width="0.97"/>
<path fill-rule="evenodd" clip-rule="evenodd" d="M55.3219 28.4121L39.6548 10.9307H8.34717L22.3721 28.4121" fill="white"/>
<path d="M55.3219 28.4121L39.6548 10.9307H8.34717L22.3721 28.4121" stroke="#482B2B" stroke-width="0.97"/>
<path d="M99.0118 20.9297C97.3961 19.0359 95.0652 17.9499 92.0589 17.9499C85.9272 17.9499 81.4112 22.8765 81.4112 29.6572C81.4112 36.4379 85.9272 41.3645 91.7941 41.3645C95.0652 41.3645 97.7139 39.9209 99.3694 37.4576L106.124 42.4372C103.064 46.7546 97.8729 48.7544 92.8271 48.7544C81.3582 48.7544 72.9883 41.3115 72.9883 29.6572C72.9883 18.0029 81.3449 10.5601 92.8271 10.5601C96.9326 10.5601 102.124 11.9506 105.236 15.8972L99.0118 20.9297Z" fill="#76111C"/>
<path d="M110.428 11.4868H118.533V47.8403H110.428V11.4868Z" fill="#76111C"/>
<path d="M125.897 11.4868H138.147L146.609 35.206H146.715L155.231 11.4868H167.428V47.8403H159.323V19.9627H159.217L149.563 47.8535H143.391L134.094 19.9627H133.988V47.8535H125.883V11.4868H125.897Z" fill="#76111C"/>
<path d="M174.911 11.4868H188.618C195.054 11.4868 202.06 12.8244 202.06 20.7308C202.06 24.7833 199.517 27.5644 195.729 28.7431V28.8491C200.563 29.4715 203.782 33.0075 203.782 37.7355C203.782 45.3372 196.511 47.8535 189.969 47.8535H174.911V11.4868ZM183.016 26.015H188.883C191.372 26.015 193.968 24.982 193.968 22.0551C193.968 19.1283 191.054 18.2543 188.512 18.2543H183.002V26.015H183.016ZM183.016 41.0596H190.286C192.829 41.0596 195.69 39.9869 195.69 36.7952C195.69 33.3519 191.796 32.7956 189.147 32.7956H183.016V41.0596Z" fill="#76111C"/>
<path d="M214.999 11.4873H225.594C231.196 11.4873 237.434 12.8779 237.434 21.0889C237.434 24.7838 235.195 27.7636 230.838 28.6377V28.7436C235.672 29.1012 239.036 32.5975 239.036 37.683C239.036 46.0529 231.712 47.854 226.733 47.854H214.999V11.4873ZM218.416 27.1941H225.528C232.639 27.1941 233.99 23.3403 233.99 21.0889C233.99 16.0033 230.361 14.573 225.991 14.573H218.416V27.2074V27.1941ZM218.416 44.7683H226.256C234.308 44.7683 235.606 40.3582 235.606 37.7889C235.606 32.3988 231.143 30.2931 226.786 30.2931H218.429V44.7683H218.416Z" fill="#76111C"/>
<path d="M258.967 11.4873H262.503L277.972 47.8408H274.131L270.131 38.1862H250.663L246.505 47.8408H242.929L258.967 11.4873ZM260.57 15.1822L252.001 35.1005H268.873L260.57 15.1822Z" fill="#76111C"/>
<path d="M283.269 11.4873H287.679L310.061 43.3247H310.167V11.4873H313.597V47.8408H309.187L286.805 16.0033H286.699V47.8408H283.269V11.4873Z" fill="#76111C"/>
<path d="M323.649 11.4873H327.079V27.512H327.397L345.209 11.4873H349.937L331.357 28.1212L350.984 47.8408H346.057L327.423 29.0482H327.105V47.8408H323.675V11.4873H323.649Z" fill="#76111C"/>
</svg>
