<svg width="351" height="74" viewBox="0 0 351 74" fill="none" xmlns="http://www.w3.org/2000/svg">
<path d="M138.863 6.64935C144.149 6.62315 149.434 6.59696 154.879 6.56996C157.367 6.55262 157.367 6.55262 159.905 6.53492C161.957 6.52919 161.957 6.52919 162.922 6.52812C163.585 6.52619 164.249 6.52177 164.912 6.51525C171.912 6.44997 178.633 7.12968 183.917 12.2672C187.633 16.3186 188.345 21.2441 188.138 26.5431C187.884 29.9582 186.293 33.3288 183.785 35.6589C183.011 36.2846 182.225 36.8752 181.414 37.4513C180.99 37.768 180.567 38.0853 180.144 38.4039C180.359 38.5083 180.575 38.6127 180.797 38.7202C184.848 40.7907 187.762 43.5051 189.293 47.8509C190.705 52.3335 190.301 57.4237 188.321 61.6641C185.814 66.2472 181.998 69.023 177.023 70.5257C165.051 73.7812 149.478 71.7462 138.863 71.7462C138.863 50.2643 138.863 28.7823 138.863 6.64935ZM152.835 18.7161C152.835 23.5364 152.835 28.3568 152.835 33.3232C156.431 33.3625 156.431 33.3625 160.099 33.4026C160.849 33.4141 161.6 33.4257 162.373 33.4376C162.977 33.4413 163.581 33.4446 164.185 33.4472C164.491 33.4537 164.797 33.4602 165.112 33.4669C167.446 33.4681 169.707 33.0887 171.543 31.5402C172.984 30.0522 173.746 28.2392 173.823 26.1734C173.693 24.0574 173.178 22.2077 171.635 20.6983C169.251 18.7853 166.991 18.6224 164.03 18.6541C163.745 18.6547 163.46 18.6553 163.167 18.656C162.111 18.6593 161.055 18.6682 160 18.6764C157.636 18.6895 155.271 18.7026 152.835 18.7161ZM152.835 45.3899C152.835 50.0007 152.835 54.6115 152.835 59.3619C155.135 59.3912 157.434 59.4164 159.733 59.4317C160.514 59.4381 161.296 59.4467 162.077 59.4578C163.204 59.4733 164.33 59.4804 165.456 59.486C165.976 59.4958 165.976 59.4958 166.506 59.5058C169.114 59.5066 170.902 58.9029 173.099 57.5361C174.674 55.9159 175.146 54.436 175.202 52.1775C175.131 50.1081 174.734 48.953 173.357 47.3944C171.626 45.8702 170.253 45.3485 167.976 45.3539C167.471 45.3539 167.471 45.3539 166.955 45.354C166.594 45.3556 166.232 45.3572 165.86 45.3589C165.488 45.3594 165.116 45.3598 164.733 45.3603C163.546 45.3621 162.358 45.366 161.171 45.3701C160.366 45.3717 159.561 45.3731 158.756 45.3744C156.782 45.3777 154.809 45.3839 152.835 45.3899Z" fill="#9122E1"/>
<path d="M34.3345 3.40909C34.5671 3.40686 34.7997 3.40463 35.0393 3.40234C35.7893 3.3968 36.5392 3.39476 37.2892 3.3942C37.6739 3.39388 37.6739 3.39388 38.0664 3.39355C45.8117 3.40383 52.7612 4.83364 60.1127 7.28414C60.1127 12.1045 60.1127 16.9248 60.1127 21.8912C58.8385 22.316 58.4751 21.9646 57.2746 21.3951C54.3956 20.0954 51.4153 19.1983 48.3635 18.3982C48.1432 18.3404 47.9228 18.2825 47.6957 18.2229C40.4351 16.4154 32.2551 16.7191 25.6033 20.2688C20.647 23.4138 17.6308 28.0376 16.3511 33.7397C15.1605 40.4203 16.3731 46.8993 20.1678 52.5468C22.5535 55.8213 26.3216 58.0958 30.2635 59.0441C30.5957 59.1307 30.5957 59.1307 30.9346 59.219C34.4894 59.7722 38.6605 59.776 42.0126 58.409C42.2304 58.3279 42.4482 58.2469 42.6725 58.1634C46.1817 56.6575 48.2419 53.9167 49.6337 50.4704C50.0529 48.6889 50.472 46.9075 50.9039 45.0721C45.1405 45.0721 39.377 45.0721 33.4389 45.0721C33.4389 41.0901 33.4389 37.108 33.4389 33.0053C43.9179 33.0053 54.3969 33.0053 65.1934 33.0053C65.1934 45.2094 65.1858 56.1259 56.7164 65.3144C51.0289 70.8766 43.4571 73.2364 35.6221 73.4329C26.8401 73.2859 18.0527 70.8703 11.5284 64.7599C11.2864 64.5466 11.0445 64.3334 10.7953 64.1137C4.06458 57.8729 1.42145 48.6384 0.9911 39.7383C0.814335 29.881 3.67159 20.7133 10.4624 13.4178C13.5475 10.2353 17.0386 8.14789 21.0547 6.3315C21.3314 6.20133 21.6081 6.07116 21.8932 5.93705C25.7042 4.26489 30.1977 3.43565 34.3345 3.40909Z" fill="#771FFF"/>
<path d="M303.034 0.933594C307.54 0.933594 312.046 0.933594 316.689 0.933594C316.689 13.194 316.689 25.4545 316.689 38.0864C321.473 37.864 321.473 37.864 325.262 35.5461C326.697 33.764 327.782 31.8372 328.724 29.764C331.819 23.0384 331.819 23.0384 334.789 21.2565C339.498 19.6928 345.208 20.6169 350.031 21.2565C349.647 22.5252 349.206 23.565 348.47 24.6664C348.284 24.9491 348.097 25.2319 347.904 25.5232C347.702 25.8246 347.5 26.126 347.292 26.4365C346.86 27.0887 346.428 27.7411 345.997 28.3939C345.773 28.7325 345.549 29.0711 345.318 29.42C344.406 30.8113 343.516 32.2162 342.626 33.622C337.443 41.8023 337.443 41.8023 334.154 44.4374C333.944 44.6469 333.734 44.8565 333.518 45.0725C333.911 45.3082 333.911 45.3082 334.312 45.5488C337.192 47.504 338.85 50.1731 340.524 53.15C340.758 53.5584 340.992 53.9666 341.227 54.3745C341.586 54.9992 341.946 55.6241 342.303 56.2499C343.475 58.297 344.685 60.3194 345.903 62.339C346.098 62.6642 346.293 62.9895 346.495 63.3246C347.343 64.7364 348.194 66.1457 349.057 67.5487C349.262 67.8838 349.262 67.8838 349.471 68.2255C349.715 68.6251 349.962 69.0237 350.21 69.421C350.734 70.2787 350.983 70.7186 350.983 71.7463C348.899 71.827 346.815 71.8825 344.729 71.9207C344.02 71.9367 343.311 71.9583 342.603 71.9858C336.746 72.2077 336.746 72.2077 335.156 71.1404C334.562 70.3066 334.204 69.5242 333.836 68.5708C333.52 68.0311 333.194 67.4964 332.861 66.967C332.537 66.4107 332.213 65.8537 331.891 65.2961C330.45 62.8311 328.987 60.3819 327.485 57.9529C327.318 57.6808 327.15 57.4086 326.978 57.1283C324.883 53.5328 324.883 53.5328 321.452 51.4234C319.88 51.3186 318.308 51.2138 316.689 51.1058C316.689 57.9172 316.689 64.7285 316.689 71.7463C312.183 71.7463 307.677 71.7463 303.034 71.7463C303.034 48.3781 303.034 25.0099 303.034 0.933594Z" fill="#E52E82"/>
<path d="M235.398 23.4785C235.797 23.7622 235.797 23.7622 236.204 24.0516C241.272 27.8645 243.833 33.4561 245.094 39.5425C245.283 40.9347 245.283 42.2957 245.277 43.6989C245.278 44.0028 245.278 44.3066 245.278 44.6196C245.277 45.6195 245.275 46.6195 245.272 47.6194C245.272 48.3144 245.271 49.0094 245.271 49.7044C245.27 51.5305 245.267 53.3565 245.263 55.1826C245.26 57.0472 245.259 58.9119 245.257 60.7765C245.254 64.4328 245.248 68.0891 245.241 71.7455C240.84 71.7455 236.439 71.7455 231.905 71.7455C231.747 68.4446 231.747 68.4446 231.587 65.077C231.24 65.5486 230.893 66.0201 230.535 66.506C227.795 69.9043 224.141 71.9513 219.838 72.6981C213.41 73.1502 207.394 72.6179 202.136 68.5266C201.335 67.8278 200.58 67.1027 199.833 66.3472C199.611 66.1364 199.39 65.9256 199.162 65.7084C194.073 60.5209 192.764 52.6684 192.768 45.6911C192.823 41.3529 193.553 37.2766 195.387 33.3224C195.616 32.8146 195.616 32.8146 195.85 32.2966C198.741 26.4089 203.845 22.4445 209.994 20.3031C218.163 17.9492 228.303 18.3253 235.398 23.4785ZM210.55 35.0888C207.716 38.1232 206.693 41.9183 206.719 45.9647C206.721 46.2449 206.722 46.525 206.724 46.8136C206.761 48.8951 206.98 50.7502 207.771 52.6927C207.933 53.101 207.933 53.101 208.099 53.5176C209.393 56.4161 211.368 58.3849 214.262 59.6886C217.355 60.8597 220.801 61.0578 223.906 59.778C227.841 57.7672 229.838 54.9232 231.269 50.7874C232.409 46.6616 231.877 41.6798 229.909 37.9467C228.165 35.0714 225.672 32.8758 222.378 32.0522C217.986 31.3221 213.912 32.0142 210.55 35.0888Z" fill="#AC26C2"/>
<path d="M290.912 24.3866C295.38 28.394 297.639 33.9366 298.005 39.8759C298.085 42.1466 298.063 44.4176 298.047 46.6893C298.045 47.4154 298.043 48.1414 298.042 48.8675C298.039 50.7614 298.03 52.6553 298.019 54.5492C298.007 56.8306 298.003 59.1121 297.998 61.3936C297.988 64.8444 297.97 68.2949 297.954 71.7457C293.343 71.7457 288.732 71.7457 283.982 71.7457C283.973 69.5205 283.965 67.2954 283.957 65.0028C283.949 63.5875 283.94 62.1722 283.931 60.7569C283.915 58.5137 283.901 56.2706 283.896 54.0275C283.891 52.2176 283.88 50.4079 283.865 48.598C283.86 47.9099 283.857 47.2217 283.857 46.5336C283.991 40.1834 283.991 40.1834 281.074 34.7404C278.488 32.6855 275.77 32.1391 272.55 32.37C269.858 32.8365 267.897 34.0219 266.1 36.0615C264.215 39.8304 264.461 43.9491 264.449 48.0538C264.444 48.7389 264.438 49.4241 264.432 50.1092C264.417 51.9008 264.407 53.6924 264.399 55.484C264.388 57.6399 264.369 59.7958 264.353 61.9517C264.328 65.2163 264.312 68.4809 264.294 71.7457C259.683 71.7457 255.072 71.7457 250.322 71.7457C250.3 67.5635 250.283 63.3813 250.272 59.199C250.268 57.2566 250.261 55.3142 250.25 53.3718C250.24 51.4941 250.234 49.6164 250.231 47.7386C250.23 47.0255 250.226 46.3124 250.221 45.5993C250.166 37.6409 251.304 30.9628 257.013 25.0169C257.617 24.4592 258.232 23.9632 258.896 23.4787C259.114 23.3175 259.333 23.1562 259.558 22.99C268.483 17.0499 282.71 17.4175 290.912 24.3866Z" fill="#C92AA1"/>
<path d="M65.1938 7.28418C77.0558 7.28418 86.1765 9.46208 95.043 17.4456C95.2506 17.6303 95.4581 17.8149 95.6719 18.0051C101.123 23.1452 104.768 30.2023 108.406 36.6435C110.975 41.1838 113.702 45.4329 116.954 49.5178C117.085 49.6828 117.216 49.8479 117.351 50.018C120.697 54.1426 125.108 56.1233 130.29 56.8213C131.548 56.9261 132.805 57.0309 134.101 57.1389C134.101 61.9592 134.101 66.7795 134.101 71.746C128.951 71.746 124.057 71.5911 119.176 69.8407C118.812 69.7105 118.448 69.5804 118.072 69.4462C107.221 65.1876 100.754 54.3431 95.3804 44.6157C88.2006 31.4942 88.2006 31.4942 76.1888 23.3599C72.5881 22.3751 68.9036 22.1767 65.1938 21.8913C65.1938 17.0709 65.1938 12.2506 65.1938 7.28418Z" fill="#7C1FF8"/>
<path d="M89.3274 43.4849C89.893 43.5171 89.893 43.5171 90.5976 43.8024C91.0248 44.4762 91.3681 45.1107 91.709 45.8268C92.7506 47.8998 93.914 49.8652 95.1623 51.8204C95.3287 52.0813 95.4951 52.3422 95.6665 52.611C96.2979 53.5966 96.9343 54.5777 97.5836 55.5516C97.2965 58.7562 93.245 62.0916 90.9151 64.1253C83.7847 69.8261 75.7728 71.7464 66.7817 71.7464C66.7817 66.8213 66.7817 61.8962 66.7817 56.8218C68.2488 56.717 69.7158 56.6122 71.2274 56.5042C75.9264 55.7159 80.0063 53.5517 83.6116 50.4709C83.7983 50.3296 83.9849 50.1884 84.1772 50.0429C86.3006 48.3877 88.2185 45.9373 89.3274 43.4849Z" fill="#781FFD"/>
<path d="M134.101 6.64937C134.101 11.4697 134.101 16.2901 134.101 21.2565C131.9 21.4661 129.7 21.6756 127.433 21.8916C120.273 23.7519 115.938 27.9558 111.873 33.9583C110.776 33.5928 110.732 33.4667 110.222 32.4934C110.031 32.1371 110.031 32.1371 109.836 31.7737C109.636 31.3913 109.636 31.3913 109.432 31.0012C108.141 28.6063 106.771 26.3412 105.204 24.1144C105.036 23.8749 104.868 23.6355 104.695 23.3887C104.339 22.8873 103.978 22.3889 103.617 21.8916C106.39 15.8177 113.397 10.915 119.492 8.63528C120.958 8.11994 122.439 7.688 123.94 7.28447C124.367 7.16658 124.367 7.16658 124.803 7.04631C127.889 6.34314 130.892 6.64937 134.101 6.64937Z" fill="#8120F3"/>
</svg>
