<svg width="351" height="56" viewBox="0 0 351 56" fill="none" xmlns="http://www.w3.org/2000/svg">
<path d="M334.914 41.5933V14.3843H338.364V31.4993L338.399 31.4643V31.3943L342.1 26.9633L345.968 22.2593H349.418L349.384 22.3013H350.177L342.51 31.4643L350.984 41.5933H346.796L338.399 31.5413L338.364 31.4993V41.5933H334.914Z" fill="#BF0D38"/>
<path fill-rule="evenodd" clip-rule="evenodd" d="M35.287 33.3401C38.6749 32.1361 42.2855 31.3031 46.0769 30.8061C41.3602 30.4561 36.8453 29.5041 32.5739 27.8941C30.7304 28.5871 28.9355 29.3991 27.1894 30.3371C29.7842 31.5691 32.4835 32.5631 35.287 33.3331M14.6186 49.9371C17.9996 44.4071 22.3475 40.1581 27.4468 37.0431C25.3459 36.1821 23.3006 35.2091 21.3249 34.1031C16.9908 37.3791 13.0324 41.5581 9.5193 46.6961L14.6116 49.9371H14.6186ZM45.9586 41.5581L45.9934 35.2511H45.9586V41.5581ZM23.1127 55.4531C29.4503 46.7661 37.2627 43.0911 45.9586 41.5651C41.4229 41.0751 37.0749 40.2351 32.9426 38.9891C27.1963 41.7331 22.1597 45.9751 18.0761 52.2541L23.1127 55.4601V55.4531ZM45.9656 20.5091L45.9378 14.3281L45.9726 20.5091H45.9656ZM35.3288 22.4761C38.7306 21.5451 42.2855 20.9361 45.9586 20.6281C41.3115 20.0051 36.9288 18.8221 32.8939 16.8901C31.0504 17.4431 29.2555 18.0731 27.4955 18.7801C29.9373 20.2641 32.56 21.4891 35.3218 22.4691L35.3288 22.4761ZM22.7232 27.9151C24.1841 27.0121 25.6867 26.2001 27.2242 25.4721C25.1998 24.3871 23.2449 23.1341 21.3597 21.7131C20.017 22.4551 18.7022 23.2601 17.4221 24.1211C19.1265 25.5281 20.8936 26.7951 22.7232 27.9221V27.9151ZM6.17312 44.5261L6.18703 44.4981L6.22877 44.5261C9.568 39.3461 13.3107 35.1041 17.4291 31.7091C15.7108 30.5471 14.0481 29.2801 12.4411 27.9011C8.19057 31.5411 4.35741 35.9581 0.983398 41.2501L6.16616 44.5261H6.17312Z" fill="#C70038"/>
<path fill-rule="evenodd" clip-rule="evenodd" d="M6.22866 11.3041C16.1907 26.7741 29.8189 33.8581 45.9585 35.2021V41.5581C27.2867 39.5491 11.8219 31.4921 1.0459 14.5801L6.22866 11.3041ZM14.6324 5.8721C21.6169 17.3031 32.7407 23.2601 46.0907 24.9961V30.8061C31.579 29.7701 18.9664 22.8961 9.54006 9.1131L14.6324 5.8721ZM23.0779 0.433105C29.4154 9.1201 37.2278 12.7951 45.9237 14.3211L45.9585 20.6281C34.7025 19.1161 24.991 14.3141 18.0342 3.6321L23.0779 0.433105Z" fill="#17388C"/>
<path fill-rule="evenodd" clip-rule="evenodd" d="M65.0343 25.3318H74.1337V14.3208H81.5148V41.5368H74.1337V30.7148H65.0343V41.5368H57.6602V14.3208H65.0343V25.3318Z" fill="#17388C"/>
<path fill-rule="evenodd" clip-rule="evenodd" d="M157.377 14.3208H165.385V36.2658H177.302V41.7048L165.385 41.6978V41.7048H157.377V14.3208Z" fill="#17388C"/>
<path d="M105.668 22.2238H112.403V25.3808C113.411 24.0928 114.288 23.4488 115.359 22.9798C116.187 22.6158 117.516 22.1958 118.998 22.1958C120.994 22.1958 122.789 22.9938 123.596 23.9178C124.695 25.1638 125.273 26.7388 125.273 29.2938V41.6208H118.351V30.9528C118.351 29.7348 118.038 27.8728 117.599 27.3688C117.154 26.8578 116.542 26.6058 115.749 26.6058C114.879 26.6058 114.163 26.9488 113.62 27.6278C113.077 28.3068 112.896 29.4828 112.896 31.2468V41.6138H105.668V22.2238Z" fill="#17388C"/>
<path d="M222.861 22.2245H229.394V25.3605C230.368 24.0795 231.223 23.4425 232.26 22.9665C233.06 22.6025 234.354 22.1895 235.787 22.1895C237.728 22.1895 239.467 22.9875 240.253 23.9045C241.318 25.1505 241.874 26.6485 241.874 29.1895V41.5094L235.161 41.5234V30.9115C235.161 29.7005 234.855 27.8455 234.43 27.3415C233.999 26.8305 233.408 26.5855 232.636 26.5855C231.787 26.5855 231.098 26.9285 230.569 27.6005C230.041 28.2795 229.338 29.4484 229.338 31.2054V41.5234H222.854V22.2245H222.861Z" fill="#17388C"/>
<path d="M190.853 30.2814C190.721 28.8954 190.373 27.9085 189.81 27.3205C189.246 26.7255 188.502 26.4245 187.583 26.4245C186.519 26.4245 185.677 26.8795 185.037 27.7755C184.634 28.3355 184.376 29.1684 184.272 30.2814H190.846H190.853ZM197.643 33.7044H184.265C184.383 34.8524 184.676 35.7064 185.135 36.2664C185.775 37.0714 186.623 37.4774 187.66 37.4774C188.314 37.4774 188.94 37.3024 189.531 36.9524C189.893 36.7284 190.283 36.3434 190.693 35.7764L190.888 35.1534L197.629 35.1674C197.594 35.5104 197.469 36.1264 197.253 36.4624C196.245 38.3384 195.062 39.6334 193.636 40.4454C192.217 41.2574 190.178 41.6634 187.521 41.6634C185.211 41.6634 183.402 41.3134 182.074 40.6204C180.752 39.9274 179.653 38.8214 178.79 37.3024C177.921 35.7904 177.489 34.0054 177.489 31.9614C177.489 29.0495 178.366 26.6905 180.105 24.8985C181.851 23.0995 184.258 22.1895 187.333 22.1895C189.824 22.1895 191.792 22.5955 193.232 23.4075C194.679 24.2125 195.778 25.3815 196.53 26.9075C197.288 28.4405 197.657 30.4354 197.657 32.8854V33.6904L197.643 33.7044Z" fill="#17388C"/>
<path d="M283.858 38.135C285.674 38.135 287.016 37.75 287.9 36.987C288.783 36.224 289.228 35.055 289.228 33.501C289.228 31.947 288.769 30.911 287.83 30.204C286.898 29.497 285.458 29.133 283.503 29.133H277.597V38.135H283.851H283.858ZM283.322 25.479C285.166 25.479 286.55 25.122 287.468 24.408C288.394 23.694 288.86 22.63 288.86 21.216C288.86 19.802 288.442 18.731 287.615 18.066C286.787 17.401 285.472 17.072 283.67 17.072H277.597V25.479H283.315H283.322ZM288.484 26.69C290.975 27.292 293.138 30.855 293.138 33.235C293.138 35.811 292.345 37.813 290.759 39.248C289.173 40.676 287.441 41.39 284.567 41.39H273.792V14.188H283.983C286.738 14.188 288.825 14.762 290.244 15.91C291.663 17.051 292.366 18.752 292.366 20.999C292.366 22.322 292.06 23.442 291.441 24.345C290.822 25.255 289.841 26.032 288.484 26.683V26.69Z" fill="#BF0D38"/>
<path d="M318.301 25.0308C320.026 23.1478 321.974 22.1958 324.13 22.1958C328.527 22.1958 330.725 24.5198 330.725 29.1678V41.5368H327.254V29.3078C327.254 27.7608 326.962 26.6898 326.391 26.0108C325.828 25.3388 324.798 24.6388 323.497 24.6388C321.73 24.6388 319.963 25.6468 318.203 27.6698L318.301 41.5438H314.822V22.6368H318.301V25.0378V25.0308Z" fill="#BF0D38"/>
<path d="M307.65 31.9964C301.994 31.9964 299.17 33.4384 299.17 36.3224C299.17 37.1834 299.455 37.9184 300.026 38.5274C300.596 39.1364 301.452 39.4444 302.607 39.4444C304.269 39.4444 305.528 38.8774 306.377 37.7504C307.219 36.6234 307.65 35.3424 307.65 33.9074V31.9964ZM308.019 41.4044C308.054 40.8864 308.005 38.1774 308.005 38.1774C306.92 41.0334 304.255 42.1884 301.243 42.1884C299.427 42.1884 297.98 41.6214 296.881 40.5014C295.782 39.3814 295.232 37.9744 295.232 36.2734C295.232 31.8704 298.899 29.6654 306.231 29.6654C306.516 29.6654 306.906 29.6655 307.4 29.6865V28.2375C307.4 26.2495 306.349 24.4365 303.782 24.4365C301.215 24.4365 300.213 25.7315 299.88 27.7265L295.984 27.6845C296.172 26.0885 297.166 24.5065 298.537 23.4775C299.907 22.4485 301.507 22.1895 304.095 22.1895C305.501 22.1895 306.648 22.3155 307.539 22.5675C308.422 22.8125 309.174 23.2255 309.786 23.8205C310.398 24.4085 310.822 25.0455 311.059 25.7385C311.289 26.4245 311.407 27.5935 311.407 29.2385V41.3974H308.026L308.019 41.4044Z" fill="#BF0D38"/>
<path fill-rule="evenodd" clip-rule="evenodd" d="M93.5005 26.1718C95.5944 26.1718 97.438 28.3138 97.438 31.9048C97.438 35.4958 95.7405 37.5678 93.6465 37.5678C91.5526 37.5678 89.8551 35.4958 89.8551 31.9048C89.8551 28.3138 91.4065 26.1718 93.5005 26.1718ZM93.5909 22.1958C99.5667 22.1958 102.795 26.5918 102.795 31.9538C102.795 37.3158 99.5667 41.6208 93.5909 41.6208C87.6151 41.6208 84.0532 37.2738 84.0532 31.9118C84.0532 26.5498 87.6151 22.2028 93.5909 22.2028V22.1958Z" fill="#17388C"/>
<path d="M93.5005 26.1718C95.5944 26.1718 97.438 28.3138 97.438 31.9048C97.438 35.4958 95.7405 37.5678 93.6465 37.5678C91.5526 37.5678 89.8551 35.4958 89.8551 31.9048C89.8551 28.3138 91.4065 26.1718 93.5005 26.1718ZM93.5909 22.1958C99.5667 22.1958 102.795 26.5918 102.795 31.9538C102.795 37.3158 99.5667 41.6208 93.5909 41.6208C87.6151 41.6208 84.0532 37.2738 84.0532 31.9118C84.0532 26.5498 87.6151 22.2028 93.5909 22.2028V22.1958Z" stroke="#1F1A17" stroke-width="0.22" stroke-miterlimit="10"/>
<path fill-rule="evenodd" clip-rule="evenodd" d="M210.2 26.1718C212.294 26.1718 214.137 28.3138 214.137 31.9048C214.137 35.4958 212.44 37.5678 210.346 37.5678C208.252 37.5678 206.554 35.4958 206.554 31.9048C206.554 28.3138 208.106 26.1718 210.2 26.1718ZM210.283 22.1958C216.259 22.1958 219.487 26.5918 219.487 31.9538C219.487 37.3158 216.259 41.6208 210.283 41.6208C204.307 41.6208 200.746 37.2738 200.746 31.9118C200.746 26.5498 204.307 22.2028 210.283 22.2028V22.1958Z" fill="#17388C"/>
<path d="M210.2 26.1718C212.294 26.1718 214.137 28.3138 214.137 31.9048C214.137 35.4958 212.44 37.5678 210.346 37.5678C208.252 37.5678 206.554 35.4958 206.554 31.9048C206.554 28.3138 208.106 26.1718 210.2 26.1718ZM210.283 22.1958C216.259 22.1958 219.487 26.5918 219.487 31.9538C219.487 37.3158 216.259 41.6208 210.283 41.6208C204.307 41.6208 200.746 37.2738 200.746 31.9118C200.746 26.5498 204.307 22.2028 210.283 22.2028V22.1958Z" stroke="#1F1A17" stroke-width="0.22" stroke-miterlimit="10"/>
<path d="M257.109 34.131C257.283 33.564 257.373 32.899 257.373 32.129V32.017C257.373 28.937 255.794 26.438 253.853 26.438C251.912 26.438 250.333 28.937 250.333 32.017C250.333 35.097 251.912 37.596 253.853 37.596C255.321 37.596 256.587 36.161 257.109 34.131ZM257.832 22.623H264.587V41.306L264.608 42.181C264.608 43.42 264.358 44.603 263.85 45.73C263.349 46.857 262.681 47.767 261.846 48.46C261.012 49.16 259.954 49.664 258.681 49.965C257.401 50.28 255.933 50.434 254.278 50.434C250.5 50.434 247.898 49.839 246.493 48.642C245.081 47.452 244.378 45.856 244.378 43.861C244.378 43.609 244.364 43.959 244.385 43.553H251.349C251.53 44.225 251.864 44.848 252.218 45.107C252.754 45.485 253.415 45.688 254.222 45.688C255.258 45.688 256.038 45.394 256.552 44.813C257.067 44.225 257.318 43.21 257.318 41.754V38.758C256.608 39.633 255.905 40.277 255.196 40.676C254.083 41.292 252.886 41.607 251.599 41.607C249.088 41.607 247.056 40.452 245.505 38.142C244.413 36.504 243.863 34.334 243.863 31.639C243.863 28.552 244.573 26.207 245.985 24.59C247.404 22.973 249.255 22.168 251.55 22.168C253.018 22.168 254.222 22.427 255.175 22.952C256.128 23.477 257.018 24.338 257.839 25.549V22.623H257.832Z" fill="#17388C"/>
<path d="M140.64 34.124C140.814 33.557 140.904 32.892 140.904 32.122C140.904 32.094 140.904 32.073 140.904 32.045C140.904 32.031 140.904 32.024 140.904 32.01C140.904 28.93 139.325 26.431 137.384 26.431C135.443 26.431 133.864 28.93 133.864 32.01C133.864 35.09 135.443 37.589 137.384 37.589C138.852 37.589 140.118 36.154 140.64 34.124ZM141.364 22.623H148.118V41.306L148.139 42.181C148.139 43.42 147.889 44.603 147.381 45.73C146.88 46.857 146.212 47.767 145.378 48.46C144.543 49.16 143.485 49.664 142.212 49.965C140.932 50.273 139.464 50.434 137.809 50.434C134.031 50.434 131.429 49.839 130.024 48.642C128.619 47.452 127.909 45.856 127.909 43.861C127.909 43.609 127.895 43.959 127.916 43.553H134.88C135.061 44.225 135.395 44.848 135.756 45.107C136.292 45.485 136.953 45.688 137.76 45.688C138.796 45.688 139.576 45.394 140.09 44.813C140.605 44.225 140.856 43.21 140.856 41.754V38.758C140.146 39.633 139.443 40.277 138.734 40.676C137.621 41.292 136.424 41.607 135.137 41.607C132.619 41.607 130.588 40.452 129.043 38.142C127.951 36.504 127.401 34.334 127.401 31.639C127.401 28.552 128.111 26.207 129.523 24.59C130.942 22.973 132.793 22.168 135.089 22.168C136.556 22.168 137.76 22.427 138.713 22.952C139.666 23.477 140.557 24.338 141.377 25.549V22.623H141.364Z" fill="#17388C"/>
</svg>
