<svg width="504" height="79" viewBox="0 0 504 79" fill="none" xmlns="http://www.w3.org/2000/svg">
<path d="M480.01 58.8002V19.9302H484.97V44.3802L485.02 44.3302V44.2302L490.34 37.9002L495.9 31.1802H500.86L500.81 31.2402H501.95L490.93 44.3302L503.11 58.8002H497.09L485.02 44.4402L484.97 44.3802V58.8002H480.01Z" fill="#BF0D38"/>
<path fill-rule="evenodd" clip-rule="evenodd" d="M49.31 47.0101C54.18 45.2901 59.37 44.1001 64.82 43.3901C58.04 42.8901 51.55 41.5301 45.41 39.2301C42.76 40.2201 40.18 41.3801 37.67 42.7201C41.4 44.4801 45.28 45.9001 49.31 47.0001M19.6 70.7201C24.46 62.8201 30.71 56.7501 38.04 52.3001C35.02 51.0701 32.08 49.6801 29.24 48.1001C23.01 52.7801 17.32 58.7501 12.27 66.0901L19.59 70.7201H19.6ZM64.65 58.7501L64.7 49.7401H64.65V58.7501ZM31.81 78.6001C40.92 66.1901 52.15 60.9401 64.65 58.7601C58.13 58.0601 51.88 56.8601 45.94 55.0801C37.68 59.0001 30.44 65.0601 24.57 74.0301L31.81 78.6101V78.6001ZM64.66 28.6801L64.62 19.8501L64.67 28.6801H64.66ZM49.37 31.4901C54.26 30.1601 59.37 29.2901 64.65 28.8501C57.97 27.9601 51.67 26.2701 45.87 23.5101C43.22 24.3001 40.64 25.2001 38.11 26.2101C41.62 28.3301 45.39 30.0801 49.36 31.4801L49.37 31.4901ZM31.25 39.2601C33.35 37.9701 35.51 36.8101 37.72 35.7701C34.81 34.2201 32 32.4301 29.29 30.4001C27.36 31.4601 25.47 32.6101 23.63 33.8401C26.08 35.8501 28.62 37.6601 31.25 39.2701V39.2601ZM7.46 62.9901L7.48 62.9501L7.54 62.9901C12.34 55.5901 17.72 49.5301 23.64 44.6801C21.17 43.0201 18.78 41.2101 16.47 39.2401C10.36 44.4401 4.85 50.7501 0 58.3101L7.45 62.9901H7.46Z" fill="#C70038"/>
<path fill-rule="evenodd" clip-rule="evenodd" d="M7.53984 15.53C21.8598 37.63 41.4498 47.75 64.6498 49.67V58.75C37.8098 55.88 15.5798 44.37 0.0898438 20.21L7.53984 15.53ZM19.6198 7.77C29.6598 24.1 45.6498 32.61 64.8398 35.09V43.39C43.9798 41.91 25.8498 32.09 12.2998 12.4L19.6198 7.77ZM31.7598 0C40.8698 12.41 52.0998 17.66 64.5998 19.84L64.6498 28.85C48.4698 26.69 34.5098 19.83 24.5098 4.57L31.7598 0Z" fill="#17388C"/>
<path fill-rule="evenodd" clip-rule="evenodd" d="M92.0702 35.5698H105.15V19.8398H115.76V58.7198H105.15V43.2598H92.0702V58.7198H81.4702V19.8398H92.0702V35.5698Z" fill="#17388C"/>
<path fill-rule="evenodd" clip-rule="evenodd" d="M224.81 19.8398H236.32V51.1898H253.45V58.9598L236.32 58.9498V58.9598H224.81V19.8398Z" fill="#17388C"/>
<path d="M150.48 31.1298H160.16V35.6398C161.61 33.7998 162.87 32.8798 164.41 32.2098C165.6 31.6898 167.51 31.0898 169.64 31.0898C172.51 31.0898 175.09 32.2298 176.25 33.5498C177.83 35.3298 178.66 37.5798 178.66 41.2298V58.8398H168.71V43.5998C168.71 41.8598 168.26 39.1998 167.63 38.4798C166.99 37.7498 166.11 37.3898 164.97 37.3898C163.72 37.3898 162.69 37.8798 161.91 38.8498C161.13 39.8198 160.87 41.4998 160.87 44.0198V58.8298H150.48V31.1298Z" fill="#17388C"/>
<path d="M318.94 31.1301H328.33V35.6101C329.73 33.7801 330.96 32.8701 332.45 32.1901C333.6 31.6701 335.46 31.0801 337.52 31.0801C340.31 31.0801 342.81 32.2201 343.94 33.5301C345.47 35.3101 346.27 37.4501 346.27 41.0801V58.6801L336.62 58.7001V43.5401C336.62 41.8101 336.18 39.1601 335.57 38.4401C334.95 37.7101 334.1 37.3601 332.99 37.3601C331.77 37.3601 330.78 37.8501 330.02 38.8101C329.26 39.7801 328.25 41.4501 328.25 43.9601V58.7001H318.93V31.1301H318.94Z" fill="#17388C"/>
<path d="M272.93 42.6401C272.74 40.6601 272.24 39.2501 271.43 38.4101C270.62 37.5601 269.55 37.1301 268.23 37.1301C266.7 37.1301 265.49 37.7801 264.57 39.0601C263.99 39.8601 263.62 41.0501 263.47 42.6401H272.92H272.93ZM282.69 47.5301H263.46C263.63 49.1701 264.05 50.3901 264.71 51.1901C265.63 52.3401 266.85 52.9201 268.34 52.9201C269.28 52.9201 270.18 52.6701 271.03 52.1701C271.55 51.8501 272.11 51.3001 272.7 50.4901L272.98 49.6001L282.67 49.6201C282.62 50.1101 282.44 50.9901 282.13 51.4701C280.68 54.1501 278.98 56.0001 276.93 57.1601C274.89 58.3201 271.96 58.9001 268.14 58.9001C264.82 58.9001 262.22 58.4001 260.31 57.4101C258.41 56.4201 256.83 54.8401 255.59 52.6701C254.34 50.5101 253.72 47.9601 253.72 45.0401C253.72 40.8801 254.98 37.5101 257.48 34.9501C259.99 32.3801 263.45 31.0801 267.87 31.0801C271.45 31.0801 274.28 31.6601 276.35 32.8201C278.43 33.9701 280.01 35.6401 281.09 37.8201C282.18 40.0101 282.71 42.8601 282.71 46.3601V47.5101L282.69 47.5301Z" fill="#17388C"/>
<path d="M406.62 53.8599C409.23 53.8599 411.16 53.3099 412.43 52.2199C413.7 51.1299 414.34 49.4599 414.34 47.2399C414.34 45.0199 413.68 43.5399 412.33 42.5299C410.99 41.5199 408.92 40.9999 406.11 40.9999H397.62V53.8599H406.61H406.62ZM405.85 35.7799C408.5 35.7799 410.49 35.2699 411.81 34.2499C413.14 33.2299 413.81 31.7099 413.81 29.6899C413.81 27.6699 413.21 26.1399 412.02 25.1899C410.83 24.2399 408.94 23.7699 406.35 23.7699H397.62V35.7799H405.84H405.85ZM413.27 37.5099C416.85 38.3699 419.96 43.4599 419.96 46.8599C419.96 50.5399 418.82 53.3999 416.54 55.4499C414.26 57.4899 411.77 58.5099 407.64 58.5099H392.15V19.6499H406.8C410.76 19.6499 413.76 20.4699 415.8 22.1099C417.84 23.7399 418.85 26.1699 418.85 29.3799C418.85 31.2699 418.41 32.8699 417.52 34.1599C416.63 35.4599 415.22 36.5699 413.27 37.4999V37.5099Z" fill="#BF0D38"/>
<path d="M456.13 35.1398C458.61 32.4498 461.41 31.0898 464.51 31.0898C470.83 31.0898 473.99 34.4098 473.99 41.0498V58.7198H469V41.2498C469 39.0398 468.58 37.5098 467.76 36.5398C466.95 35.5798 465.47 34.5798 463.6 34.5798C461.06 34.5798 458.52 36.0198 455.99 38.9098L456.13 58.7298H451.13V31.7198H456.13V35.1498V35.1398Z" fill="#BF0D38"/>
<path d="M440.82 45.0901C432.69 45.0901 428.63 47.1501 428.63 51.2701C428.63 52.5001 429.04 53.5501 429.86 54.4201C430.68 55.2901 431.91 55.7301 433.57 55.7301C435.96 55.7301 437.77 54.9201 438.99 53.3101C440.2 51.7001 440.82 49.8701 440.82 47.8201V45.0901ZM441.35 58.5301C441.4 57.7901 441.33 53.9201 441.33 53.9201C439.77 58.0001 435.94 59.6501 431.61 59.6501C429 59.6501 426.92 58.8401 425.34 57.2401C423.76 55.6401 422.97 53.6301 422.97 51.2001C422.97 44.9101 428.24 41.7601 438.78 41.7601C439.19 41.7601 439.75 41.7601 440.46 41.7901V39.7201C440.46 36.8801 438.95 34.2901 435.26 34.2901C431.57 34.2901 430.13 36.1401 429.65 38.9901L424.05 38.9301C424.32 36.6501 425.75 34.3901 427.72 32.9201C429.69 31.4501 431.99 31.0801 435.71 31.0801C437.73 31.0801 439.38 31.2601 440.66 31.6201C441.93 31.9701 443.01 32.5601 443.89 33.4101C444.77 34.2501 445.38 35.1601 445.72 36.1501C446.05 37.1301 446.22 38.8001 446.22 41.1501V58.5201H441.36L441.35 58.5301Z" fill="#BF0D38"/>
<path fill-rule="evenodd" clip-rule="evenodd" d="M132.99 36.7698C136 36.7698 138.65 39.8298 138.65 44.9598C138.65 50.0898 136.21 53.0498 133.2 53.0498C130.19 53.0498 127.75 50.0898 127.75 44.9598C127.75 39.8298 129.98 36.7698 132.99 36.7698ZM133.12 31.0898C141.71 31.0898 146.35 37.3698 146.35 45.0298C146.35 52.6898 141.71 58.8398 133.12 58.8398C124.53 58.8398 119.41 52.6298 119.41 44.9698C119.41 37.3098 124.53 31.0998 133.12 31.0998V31.0898Z" fill="#17388C"/>
<path d="M132.99 36.7698C136 36.7698 138.65 39.8298 138.65 44.9598C138.65 50.0898 136.21 53.0498 133.2 53.0498C130.19 53.0498 127.75 50.0898 127.75 44.9598C127.75 39.8298 129.98 36.7698 132.99 36.7698ZM133.12 31.0898C141.71 31.0898 146.35 37.3698 146.35 45.0298C146.35 52.6898 141.71 58.8398 133.12 58.8398C124.53 58.8398 119.41 52.6298 119.41 44.9698C119.41 37.3098 124.53 31.0998 133.12 31.0998V31.0898Z" stroke="#1F1A17" stroke-width="0.22" stroke-miterlimit="10"/>
<path fill-rule="evenodd" clip-rule="evenodd" d="M300.74 36.7698C303.75 36.7698 306.4 39.8298 306.4 44.9598C306.4 50.0898 303.96 53.0498 300.95 53.0498C297.94 53.0498 295.5 50.0898 295.5 44.9598C295.5 39.8298 297.73 36.7698 300.74 36.7698ZM300.86 31.0898C309.45 31.0898 314.09 37.3698 314.09 45.0298C314.09 52.6898 309.45 58.8398 300.86 58.8398C292.27 58.8398 287.15 52.6298 287.15 44.9698C287.15 37.3098 292.27 31.0998 300.86 31.0998V31.0898Z" fill="#17388C"/>
<path d="M300.74 36.7698C303.75 36.7698 306.4 39.8298 306.4 44.9598C306.4 50.0898 303.96 53.0498 300.95 53.0498C297.94 53.0498 295.5 50.0898 295.5 44.9598C295.5 39.8298 297.73 36.7698 300.74 36.7698ZM300.86 31.0898C309.45 31.0898 314.09 37.3698 314.09 45.0298C314.09 52.6898 309.45 58.8398 300.86 58.8398C292.27 58.8398 287.15 52.6298 287.15 44.9698C287.15 37.3098 292.27 31.0998 300.86 31.0998V31.0898Z" stroke="#1F1A17" stroke-width="0.22" stroke-miterlimit="10"/>
<path d="M368.17 48.14C368.42 47.33 368.55 46.38 368.55 45.28V45.12C368.55 40.72 366.28 37.1501 363.49 37.1501C360.7 37.1501 358.43 40.72 358.43 45.12C358.43 49.52 360.7 53.09 363.49 53.09C365.6 53.09 367.42 51.04 368.17 48.14ZM369.21 31.7001H378.92V58.39L378.95 59.64C378.95 61.41 378.59 63.1 377.86 64.71C377.14 66.32 376.18 67.62 374.98 68.6101C373.78 69.6101 372.26 70.3301 370.43 70.7601C368.59 71.2101 366.48 71.43 364.1 71.43C358.67 71.43 354.93 70.5801 352.91 68.8701C350.88 67.1701 349.87 64.89 349.87 62.0401C349.87 61.68 349.85 62.18 349.88 61.6H359.89C360.15 62.56 360.63 63.4501 361.14 63.82C361.91 64.3601 362.86 64.6501 364.02 64.6501C365.51 64.6501 366.63 64.2301 367.37 63.4001C368.11 62.5601 368.47 61.11 368.47 59.03V54.75C367.45 56 366.44 56.9201 365.42 57.4901C363.82 58.3701 362.1 58.82 360.25 58.82C356.64 58.82 353.72 57.17 351.49 53.87C349.92 51.53 349.13 48.4301 349.13 44.5801C349.13 40.1701 350.15 36.82 352.18 34.51C354.22 32.2 356.88 31.05 360.18 31.05C362.29 31.05 364.02 31.42 365.39 32.17C366.76 32.92 368.04 34.1501 369.22 35.8801V31.7001H369.21Z" fill="#17388C"/>
<path d="M200.75 48.1301C201 47.3201 201.13 46.3701 201.13 45.2701C201.13 45.2301 201.13 45.2 201.13 45.16C201.13 45.14 201.13 45.1301 201.13 45.1101C201.13 40.7101 198.86 37.14 196.07 37.14C193.28 37.14 191.01 40.7101 191.01 45.1101C191.01 49.51 193.28 53.0801 196.07 53.0801C198.18 53.0801 200 51.0301 200.75 48.1301ZM201.79 31.7001H211.5V58.39L211.53 59.64C211.53 61.41 211.17 63.1 210.44 64.71C209.72 66.32 208.76 67.62 207.56 68.6101C206.36 69.6101 204.84 70.3301 203.01 70.7601C201.17 71.2001 199.06 71.43 196.68 71.43C191.25 71.43 187.51 70.5801 185.49 68.8701C183.47 67.1701 182.45 64.89 182.45 62.0401C182.45 61.68 182.43 62.18 182.46 61.6H192.47C192.73 62.56 193.21 63.4501 193.73 63.82C194.5 64.3601 195.45 64.6501 196.61 64.6501C198.1 64.6501 199.22 64.2301 199.96 63.4001C200.7 62.5601 201.06 61.11 201.06 59.03V54.75C200.04 56 199.03 56.9201 198.01 57.4901C196.41 58.3701 194.69 58.82 192.84 58.82C189.22 58.82 186.3 57.17 184.08 53.87C182.51 51.53 181.72 48.4301 181.72 44.5801C181.72 40.1701 182.74 36.82 184.77 34.51C186.81 32.2 189.47 31.05 192.77 31.05C194.88 31.05 196.61 31.42 197.98 32.17C199.35 32.92 200.63 34.1501 201.81 35.8801V31.7001H201.79Z" fill="#17388C"/>
</svg>
