<svg width="313" height="84" viewBox="0 0 313 84" fill="none" xmlns="http://www.w3.org/2000/svg">
<path d="M205.005 44.4974H189.794V59.4812H182.075V24.292H189.794V38.5947H205.005V24.292H212.724V59.4812H205.005V44.4974Z" fill="black"/>
<path d="M231.113 60.1625C223.621 60.1625 217.265 57.2111 217.038 48.8111H224.757C224.757 52.6706 227.027 54.7138 231.34 54.7138C234.519 54.7138 237.924 53.1246 237.924 49.7192C237.924 46.9949 235.427 46.0868 231.567 44.9516L229.07 44.2706C223.621 42.6814 217.946 40.4111 217.946 34.2814C217.946 26.3354 225.211 23.8381 232.021 23.8381C238.832 23.8381 244.735 26.3354 244.735 34.0544H237.016C236.789 30.876 234.973 29.0598 231.34 29.0598C228.616 29.0598 225.665 30.6489 225.665 33.6003C225.665 36.0976 227.935 37.0057 232.929 38.5949L235.881 39.503C242.011 41.3192 245.643 43.5895 245.643 49.2652C245.643 57.2111 237.924 60.1625 231.113 60.1625Z" fill="black"/>
<path d="M249.957 24.292H262.216C266.076 24.292 267.665 24.292 269.027 24.746C273.341 25.6542 276.519 28.6055 276.519 33.146C276.519 37.6866 273.568 39.9569 269.481 41.092C274.249 42.0001 277.654 44.4974 277.654 49.719C277.654 57.665 269.708 59.4812 263.579 59.4812H249.73L249.957 24.292ZM262.216 39.0487C265.622 39.0487 269.027 38.3677 269.027 34.2812C269.027 30.6487 265.849 29.7406 262.671 29.7406H257.222V39.0487H262.216ZM263.125 54.2596C266.757 54.2596 270.162 53.3514 270.162 49.0379C270.162 44.9515 267.211 43.8163 263.579 43.8163H257.449V54.0325L263.125 54.2596Z" fill="black"/>
<path d="M297.86 60.1622C286.509 60.1622 281.287 52.8973 281.287 42.2271C281.287 31.5568 286.963 23.6108 298.087 23.6108C305.125 23.6108 311.936 26.7892 312.163 34.7352H304.217C303.763 31.3298 301.493 29.2865 298.087 29.2865C291.276 29.2865 289.233 36.7784 289.233 42.2271C289.233 47.9027 291.276 54.2595 297.86 54.2595C301.265 54.2595 303.763 52.4433 304.444 48.8108H312.39C311.482 57.2108 305.125 60.1622 297.86 60.1622Z" fill="black"/>
<path d="M126 0H42V84H126V0Z" fill="white"/>
<path d="M126.227 84L168.227 42L126.227 0V84Z" fill="#DB0011"/>
<path d="M42 84L0 42L42 0V84Z" fill="#DB0011"/>
<path d="M126.227 0L84 42L42 0H126.227Z" fill="#DB0011"/>
<path d="M42 84L84 42L126.227 84H42Z" fill="#DB0011"/>
</svg>
