<svg width="351" height="95" viewBox="0 0 351 95" fill="none" xmlns="http://www.w3.org/2000/svg">
<path d="M230.67 50.3148H213.628V67.1026H204.979V27.6768H213.628V43.7014H230.67V27.6768H239.318V67.1026H230.67V50.3148Z" fill="black"/>
<path d="M259.922 67.8656C251.528 67.8656 244.406 64.5589 244.151 55.1476H252.8C252.8 59.4717 255.343 61.7609 260.176 61.7609C263.737 61.7609 267.552 59.9804 267.552 56.165C267.552 53.1127 264.755 52.0952 260.43 50.8234L257.632 50.0604C251.528 48.2798 245.169 45.7362 245.169 38.8685C245.169 29.9659 253.308 27.168 260.939 27.168C268.57 27.168 275.183 29.9659 275.183 38.6142H266.535C266.281 35.0531 264.246 33.0182 260.176 33.0182C257.124 33.0182 253.817 34.7988 253.817 38.1054C253.817 40.9034 256.361 41.9208 261.957 43.7014L265.263 44.7188C272.131 46.7537 276.201 49.2973 276.201 55.6563C276.201 64.5589 267.552 67.8656 259.922 67.8656Z" fill="black"/>
<path d="M281.034 27.6768H294.77C299.094 27.6768 300.874 27.6768 302.4 28.1855C307.233 29.2029 310.794 32.5096 310.794 37.5968C310.794 42.684 307.488 45.2276 302.909 46.4994C308.251 47.5168 312.066 50.3148 312.066 56.1651C312.066 65.0677 303.163 67.1026 296.296 67.1026H280.78L281.034 27.6768ZM294.77 44.2102C298.585 44.2102 302.4 43.4471 302.4 38.8686C302.4 34.7988 298.839 33.7814 295.278 33.7814H289.174V44.2102H294.77ZM295.787 61.2523C299.857 61.2523 303.672 60.2348 303.672 55.402C303.672 50.8235 300.365 49.5517 296.296 49.5517H289.428V60.9979L295.787 61.2523Z" fill="black"/>
<path d="M334.704 67.8655C321.986 67.8655 316.136 59.726 316.136 47.7711C316.136 35.8162 322.495 26.9136 334.959 26.9136C342.844 26.9136 350.475 30.4746 350.729 39.3772H341.827C341.318 35.5618 338.774 33.2726 334.959 33.2726C327.328 33.2726 325.039 41.6665 325.039 47.7711C325.039 54.1301 327.328 61.2522 334.704 61.2522C338.52 61.2522 341.318 59.2173 342.081 55.1475H350.984C349.966 64.5588 342.844 67.8655 334.704 67.8655Z" fill="black"/>
<path d="M142.153 0.459961H48.04V94.5731H142.153V0.459961Z" fill="white"/>
<path d="M142.408 94.5731L189.464 47.5166L142.408 0.459961V94.5731Z" fill="#DB0011"/>
<path d="M48.04 94.5731L0.983398 47.5166L48.04 0.459961V94.5731Z" fill="#DB0011"/>
<path d="M142.408 0.459961L95.0966 47.5166L48.04 0.459961H142.408Z" fill="#DB0011"/>
<path d="M48.04 94.5732L95.0966 47.5166L142.408 94.5732H48.04Z" fill="#DB0011"/>
</svg>
