<svg width="351" height="66" viewBox="0 0 351 66" fill="none" xmlns="http://www.w3.org/2000/svg">
<path d="M32.1872 20.4004V15.4492H16.0138V30.3138H25.9279V35.2716H16.0138V50.1393H32.1872V45.1834H20.9914V40.2256H30.9312V25.3563H20.9914V20.3988H32.1872V20.4004ZM0.983398 32.8166C0.983398 15.0105 15.4808 0.573242 33.3627 0.573242C51.2477 0.573242 65.7459 15.0101 65.7459 32.8166C65.7459 50.623 51.2477 65.0599 33.3627 65.0599C15.4808 65.0599 0.983398 50.623 0.983398 32.8166ZM33.3643 60.0614C48.4772 60.0614 60.7284 47.864 60.7284 32.815C60.7284 17.7659 48.4772 5.56856 33.3643 5.56856C18.2533 5.56856 6.00209 17.7659 6.00209 32.815C6.00209 47.864 18.2533 60.0614 33.3643 60.0614ZM34.6891 45.1968V50.1496H50.8265V35.2835H40.914V30.3276H50.8265V15.4583H34.6891V20.4142H45.8485V25.3701H35.9088V40.2409H45.8485V45.1968H34.6891Z" fill="#AB1416"/>
<path d="M201.271 10.5302H213.123V4.88363H182.459V10.4892H194.554V31.4973H181.597V37.2535H214.214V31.4973H201.271V10.5298M138.633 38.6978H143.668V37.1833H165.386V38.7116H170.466V3.73808H138.633V38.6978ZM143.76 8.60686H165.24V32.3606H143.76V8.60686ZM162.124 26.5178L164.227 24.7652C162.74 22.832 161.027 21.2658 161.027 21.2658L162.473 21.2761V17.2178H156.863V14.5356H163.304V10.5952H145.655V14.4414H152.096V17.1441H146.498V21.2745H152.096V26.5978H145.138V30.4941H163.633V26.4937C162.622 26.504 163.313 26.4736 162.124 26.5178ZM159.694 26.5947L156.954 26.586V21.2761L159.73 21.2745L157.56 23.4694C157.56 23.4694 159.025 25.0439 160.168 26.5994L159.694 26.5947ZM108.564 22.7086H101.16L101.158 14.1868H108.562L108.564 22.7086ZM114.491 14.1868H122.083L122.087 22.7086H114.494L114.49 14.1868H114.491ZM114.448 3.50392C114.448 3.09395 114.875 3.14677 114.875 2.73286C114.875 2.49201 114.598 2.2543 114.448 2.24918L108.557 2.10569V8.72945H95.4629V30.0833H101.112V28.1395H108.557V39.5063H114.448V28.1821H121.891V30.0624H127.688V8.73024H114.45V3.50392M244.457 3.82559C244.457 3.44243 244.887 3.40813 244.887 3.08173C244.887 2.85783 244.603 2.55863 244.457 2.55705C244.457 2.55705 241.46 2.42539 238.549 2.42539V5.72643H224.923V10.4974H231.952C231.952 10.4974 232.07 10.7525 232.642 11.5594C232.711 11.6548 233.604 13.4752 233.806 13.9629H226.37V38.7715H231.536L231.52 24.5586C231.52 24.5586 232.639 25.4495 233.285 27.1296C233.285 27.1296 234.101 27.0082 234.572 26.2509V35.4654H238.669V34.6297H244.715V35.4654H248.511C249.422 37.3221 249.29 39.0636 249.29 39.0636C249.592 39.0467 250.104 39.0707 250.406 39.0636C254.304 39.0041 256.756 37.4687 256.756 34.7302V13.9881H249.76L251.355 10.4545H258.348V5.72643H244.457V3.82519V3.82559ZM236.618 18.8092C235.446 20.3497 231.485 22.8576 231.485 22.8576L231.491 22.9515L231.48 18.8281C236.251 18.8005 236.658 18.7599 236.618 18.8092ZM244.531 30.6238L238.705 30.6258L238.714 27.5656L244.526 27.5672L244.529 30.6053L244.531 30.6238ZM251.678 18.7938C251.678 20.2299 251.676 21.7377 251.676 22.7532C251.676 22.7532 248.919 20.4435 246.241 18.782L251.678 18.7938ZM245.244 23.5636L238.496 23.5755C238.496 23.5755 238.95 23.3173 240.24 21.9001C240.921 21.8402 241.183 21.4712 240.833 20.9513C240.833 20.9513 240.403 20.6008 238.693 18.7922L245.274 18.7804C245.274 18.7804 244.336 20.1924 242.86 21.4866C244.159 22.3156 244.834 23.1123 245.244 23.5636ZM245.607 10.585L243.969 13.9885H239.435L237.927 10.585H245.607ZM251.678 32.3658C251.678 32.5538 251.203 33.2034 250.806 33.2157C250.08 33.2339 249.353 33.2281 248.628 33.1983V26.1638L249.824 27.2084C250.879 25.7775 251.68 24.6335 251.68 24.6335V32.3658M289.237 8.27336H296.406V10.9918H289.237V8.27336ZM289.211 30.9332V21.8832L290.354 21.8761C290.387 22.3531 291.26 26.1587 292.727 29.3742C292.727 29.3758 290.767 30.3005 289.211 30.9332ZM289.237 14.8518H296.406V17.4862H289.237V14.8518ZM296.298 25.2832C295.738 24.0166 295.335 21.8745 295.335 21.8745L300.966 21.8063L301.06 3.98603H284.415V33.1695C283.634 33.5354 281.989 34.3372 281.989 34.3372C283.567 37.1951 283.838 38.7404 283.838 38.7404C284.024 38.9391 284.034 38.958 284.151 38.958C284.258 38.958 284.151 39.1697 284.925 38.498C286.821 37.5645 291.742 34.7302 292.825 34.0892C294.38 33.1676 293.018 33.9761 293.438 33.6036C292.974 31.8068 293.121 29.8681 293.121 29.8681C295.65 34.4704 298.688 37.4979 300.302 38.7818C301.914 36.3626 304.027 34.3711 304.027 34.3711C299.26 32.1864 298.297 29.0651 298.297 29.0651C299.488 28.2562 301.282 26.9057 301.877 26.487C302.071 26.3518 302.535 25.8938 302.675 25.8508C302.77 25.8232 302.895 25.6458 302.794 25.5177C302.187 24.7431 300.289 22.29 300.289 22.1891L296.298 25.2835L296.298 25.2832ZM282.071 28.0477C280.406 29.2102 279.208 29.6462 279.208 29.6462L279.206 25.7314H283.668V21.2028H279.206V18.3819H282.864V13.7634H273.785L275.571 11.2208H283.536L283.629 6.50616L278.195 6.49946C278.63 5.57979 279.071 5.1371 279.238 5.03934C279.545 4.86865 279.863 4.41728 279.432 3.9813C277.203 3.28041 275.911 2.63234 274.448 2.09229C273.005 5.95428 270.62 10.4604 267.421 13.953C269.171 15.9445 269.637 18.3018 269.637 18.3018C271.002 16.9482 271.539 16.3446 271.539 16.3446V18.3771L274.321 18.3842V21.1602H270.013V25.7333H274.413V32.076C272.626 33.0245 270.085 34.1081 270.085 34.1081V34.1101C271.413 36.8675 271.889 38.1597 272.109 38.6489C272.667 39.1752 273.2 38.4006 273.652 38.1258C277.804 35.5974 281.853 33.4262 283.13 32.5849L283.262 32.6535C283.26 32.65 282.506 30.5288 282.071 28.0481M329.568 9.68224H347.198V4.3554H329.568V9.68224ZM315.791 15.8042C318.361 14.0023 321.234 11.0363 321.611 10.7166C322.087 10.3094 324.25 7.93159 324.25 7.93159C325.311 7.1897 325.228 7.38799 325.782 7.22045C326.332 7.05095 326.311 6.67172 326.349 6.59131C326.527 6.23928 326.153 5.92274 324.616 4.33805C324.029 3.7365 322.288 2.15851 322.288 2.15851C319.788 5.92984 315.628 9.42759 313.386 11.0978C314.764 12.4736 315.791 15.8042 315.791 15.8042ZM328.727 15.4175C328.922 15.1443 329.411 14.8944 329.411 14.8944C329.815 14.7643 330.028 14.3456 330.06 14.0997C330.082 13.9199 329.796 13.6191 327.987 12.1318C327.987 12.1318 327.752 11.9729 326.255 10.2515C322.95 14.9527 318.229 19.4982 313.962 22.2695C315.386 23.5089 316.353 27.1982 316.353 27.1982H316.399L319.125 25.0766L319.23 25.1105V38.8382H324.514V20.6726C325.955 19.1632 328.251 16.2366 328.251 16.2366V20.6915L338.033 20.7084V32.9606C338.002 33.8448 337.017 33.9335 337.017 33.9335L333.837 33.9438C335.889 36.4532 335.548 38.6281 335.603 39.5032H336.171C339.496 39.3475 343.391 39.2363 343.617 34.6908V20.6982H348.28V15.4159L328.727 15.4175ZM95.4902 55.0189H97.0682V63.3405H95.4902V55.0189ZM98.523 63.3405V55.0189H100.19L103.219 60.8279V55.0189H104.702V63.3405H103.113L100.005 57.4291V63.3409L98.523 63.3405ZM110.634 57.1437C110.875 57.5986 110.997 58.2482 110.997 59.0942C110.997 59.708 110.914 60.2382 110.754 60.6828C110.459 61.4909 109.935 61.8962 109.186 61.8962H107.721V56.4653H109.186C109.907 56.4633 110.39 56.6908 110.634 57.1437ZM106.179 55.0189V63.3405H109.453C110.603 63.3405 111.451 62.8229 112.003 61.787C112.409 61.0191 112.613 60.084 112.613 58.9763C112.613 58.5388 112.563 58.0807 112.467 57.5986C112.373 57.1207 112.189 56.6648 111.926 56.2548C111.595 55.7435 111.163 55.3915 110.632 55.1999C110.317 55.0871 109.924 55.0272 109.453 55.0205H106.179V55.0189ZM114.182 62.1989C114.653 63.1032 115.548 63.5526 116.866 63.5526C118.183 63.5526 119.074 63.1017 119.544 62.1989C119.794 61.7062 119.921 61.0175 119.921 60.1321V55.0189H118.305V60.1317C118.305 60.7049 118.243 61.122 118.118 61.3869C117.926 61.852 117.508 62.0862 116.866 62.0862C116.218 62.0862 115.8 61.8536 115.606 61.3869C115.481 61.122 115.42 60.7049 115.42 60.1321V55.0189H113.805V60.1317C113.805 61.0175 113.932 61.7085 114.182 62.1989ZM121.069 60.7715H122.585C122.631 61.1508 122.729 61.4365 122.868 61.6246C123.127 61.9664 123.569 62.137 124.196 62.137C124.571 62.137 124.874 62.0929 125.109 62.0022C125.553 61.8296 125.775 61.5063 125.775 61.0364C125.775 60.7613 125.664 60.5492 125.443 60.397C125.222 60.2516 124.878 60.1219 124.406 60.0088L123.601 59.8124C122.811 59.6157 122.265 59.4036 121.963 59.173C121.449 58.7899 121.194 58.1899 121.194 57.3711C121.194 56.6277 121.441 56.0088 121.936 55.5145C122.433 55.0241 123.159 54.7761 124.119 54.7761C124.921 54.7761 125.604 55.0087 126.171 55.4719C126.737 55.9386 127.031 56.6139 127.061 57.4961H125.534C125.506 56.9951 125.306 56.6411 124.936 56.429C124.687 56.291 124.381 56.2224 124.012 56.2224C123.603 56.2224 123.275 56.3111 123.032 56.4905C122.788 56.6718 122.665 56.9249 122.665 57.2462C122.665 57.5438 122.786 57.7661 123.027 57.9132C123.181 58.0105 123.51 58.1268 124.016 58.2565L125.327 58.6003C125.901 58.7524 126.334 58.9523 126.627 59.2054C127.081 59.5968 127.307 60.1629 127.307 60.9044C127.307 61.6652 127.042 62.2963 126.511 62.8005C125.98 63.3031 125.227 63.5526 124.257 63.5526C123.267 63.5526 122.489 63.3051 121.92 62.8107C121.351 62.3168 121.069 61.6364 121.069 60.7715ZM127.847 55.0189H134.007V56.4909H131.731V63.339H130.131V56.4909H127.845V55.0189H127.847ZM139.146 56.6103C139.452 56.783 139.607 57.1216 139.607 57.6258C139.607 58.0941 139.449 58.4055 139.132 58.5644C138.954 58.6551 138.685 58.6996 138.327 58.6996H136.527V56.4653H138.375C138.717 56.4633 138.974 56.513 139.146 56.6103ZM134.974 55.0189V63.3405H136.526V60.0773H138.166C138.632 60.0773 138.952 60.1645 139.123 60.3422C139.293 60.52 139.38 60.8724 139.389 61.4038L139.398 62.1765C139.401 62.4209 139.423 62.6586 139.466 62.8927C139.485 63.0059 139.519 63.1561 139.569 63.339H141.319V63.1304C141.166 63.0279 141.07 62.8722 141.029 62.6554C141.001 62.5202 140.986 62.262 140.986 61.8828V61.3254C140.986 60.742 140.912 60.3083 140.767 60.0245C140.621 59.7407 140.373 59.5199 140.021 59.3662C140.441 59.2073 140.741 58.9389 140.922 58.5557C141.106 58.173 141.197 57.7847 141.197 57.3881C141.197 57.0617 141.151 56.7712 141.053 56.5145C140.959 56.2621 140.827 56.0257 140.66 55.8137C140.467 55.5648 140.217 55.3656 139.931 55.2326C139.643 55.1025 139.231 55.0292 138.699 55.0189H134.974ZM142.439 55.0189H144.017V63.3405H142.439V55.0189ZM149.509 60.1952H147.58L148.558 56.9214L149.509 60.1952ZM146.625 63.3409L147.151 61.6297H149.953L150.442 63.3405H152.165L149.473 55.0189H147.675L144.961 63.3405L146.625 63.3409ZM153.129 63.3409V55.0189H154.716V61.8449H158.484V63.3409H153.129ZM166.527 60.1952H164.598L165.578 56.9214L166.527 60.1952ZM163.643 63.3409L164.167 61.6297H166.971L167.459 63.3405H169.183L166.487 55.0189H164.694L161.979 63.3405L163.643 63.3409ZM170.12 63.3409V55.0189H171.786L174.815 60.8279V55.0189H176.297V63.3405H174.705L171.601 57.4291V63.3409H170.12ZM182.231 57.1441C182.472 57.5986 182.596 58.2479 182.596 59.0942C182.596 59.708 182.514 60.2382 182.351 60.6828C182.056 61.4909 181.534 61.8962 180.783 61.8962H179.318V56.4653H180.783C181.504 56.4633 181.989 56.6911 182.231 57.1441ZM177.776 55.0189V63.3405H181.05C182.202 63.3405 183.048 62.8229 183.6 61.787C184.008 61.0191 184.209 60.084 184.209 58.9763C184.209 58.5388 184.162 58.0807 184.064 57.5986C183.97 57.1207 183.786 56.6648 183.523 56.2548C183.194 55.7435 182.76 55.3915 182.229 55.1999C181.914 55.0871 181.522 55.0272 181.05 55.0205H177.776V55.0189ZM188.009 59.2464C188.009 57.7949 188.364 56.6754 189.074 55.889C189.693 55.2034 190.481 54.8617 191.439 54.8617C192.717 54.8617 193.654 55.3213 194.246 56.2374C194.571 56.7558 194.748 57.2718 194.773 57.7918H193.184C193.079 57.3916 192.949 57.0909 192.786 56.8875C192.496 56.5268 192.068 56.3474 191.501 56.3474C190.925 56.3474 190.468 56.6017 190.134 57.1129C189.799 57.6207 189.631 58.344 189.631 59.2771C189.631 60.209 189.809 60.9099 190.161 61.3731C190.514 61.8382 190.961 62.0708 191.506 62.0708C192.063 62.0708 192.486 61.8721 192.781 61.4724C192.942 61.2588 193.075 60.9355 193.184 60.5082H194.756C194.619 61.4141 194.268 62.1508 193.703 62.7201C193.137 63.2897 192.411 63.5731 191.526 63.5731C190.435 63.5731 189.573 63.1907 188.948 62.4213C188.322 61.6467 188.009 60.5902 188.009 59.2464ZM197.825 61.3356C197.448 60.8279 197.261 60.1045 197.261 59.1663C197.261 58.2293 197.448 57.5079 197.825 56.9982C198.199 56.4909 198.701 56.2358 199.331 56.2358C199.962 56.2358 200.461 56.4921 200.83 57.0018C201.199 57.5131 201.386 58.2345 201.386 59.1659C201.386 60.1045 201.199 60.8259 200.83 61.3356C200.461 61.8434 199.96 62.098 199.331 62.098C198.703 62.098 198.199 61.8449 197.825 61.3356ZM201.823 55.7352C201.248 55.0871 200.418 54.7655 199.331 54.7655C198.243 54.7655 197.414 55.0887 196.838 55.7352C196.069 56.4992 195.683 57.6431 195.683 59.1679C195.683 60.6635 196.069 61.8075 196.838 62.6022C197.414 63.2503 198.243 63.5719 199.331 63.5719C200.418 63.5719 201.248 63.2487 201.823 62.6022C202.589 61.8075 202.972 60.6635 202.972 59.1679C202.972 57.6431 202.589 56.4992 201.823 55.7352ZM207.852 61.5615L209.225 55.0189H211.511V63.3405H210.03V57.7129C210.03 57.5505 210.032 57.3234 210.035 57.0325C210.039 56.7404 210.042 56.5161 210.042 56.3573L208.603 63.3409H207.059L205.63 56.3569C205.63 56.5161 205.632 56.74 205.637 57.0321C205.639 57.3231 205.64 57.5501 205.64 57.7125V63.3405H204.16V55.0186H206.471L207.852 61.5607V61.5615ZM216.655 61.5615L218.027 55.0189H220.313V63.3405H218.831V57.7129C218.831 57.5505 218.832 57.3234 218.837 57.0325C218.839 56.7404 218.841 56.5161 218.841 56.3573L217.401 63.3409H215.859L214.429 56.3569C214.429 56.5161 214.431 56.74 214.436 57.0321C214.437 57.3231 214.439 57.5501 214.439 57.7125V63.3405H212.958V55.0186H215.27L216.655 61.5607V61.5615ZM227.408 55.0189V56.4909H223.383V58.2585H227.078V59.7029H223.383V61.8434H227.593V63.339H221.829V55.0174H227.408L227.408 55.0189ZM233.04 56.6103C233.347 56.783 233.501 57.1216 233.501 57.6258C233.501 58.0941 233.342 58.4055 233.027 58.5644C232.849 58.6551 232.58 58.6996 232.221 58.6996H230.422V56.4653H232.267C232.612 56.4633 232.869 56.513 233.04 56.6103ZM228.868 55.0189V63.3405H230.421V60.0773H232.06C232.527 60.0773 232.845 60.1645 233.018 60.3422C233.188 60.52 233.275 60.8724 233.284 61.4038L233.292 62.1765C233.298 62.5699 233.355 62.9609 233.463 63.3394H235.213V63.1304C235.06 63.0279 234.964 62.8722 234.923 62.6554C234.896 62.5202 234.881 62.262 234.881 61.8828V61.3254C234.881 60.742 234.807 60.3083 234.663 60.0245C234.517 59.7407 234.269 59.5199 233.918 59.3662C234.337 59.2073 234.637 58.9389 234.821 58.5557C235.002 58.173 235.093 57.7847 235.093 57.3881C235.093 57.0617 235.047 56.7712 234.949 56.5145C234.855 56.2624 234.722 56.0261 234.557 55.8137C234.364 55.5645 234.113 55.3652 233.827 55.2326C233.539 55.1025 233.128 55.0292 232.595 55.0189H228.868ZM237.07 62.4193C237.696 63.1888 238.554 63.5715 239.649 63.5715C240.534 63.5715 241.258 63.2877 241.824 62.7185C242.391 62.1508 242.742 61.4125 242.879 60.5062H241.304C241.196 60.9339 241.065 61.2568 240.902 61.4704C240.611 61.8706 240.187 62.0688 239.627 62.0688C239.085 62.0688 238.635 61.8382 238.283 61.3711C237.931 60.9083 237.754 60.2074 237.754 59.2755C237.754 58.3421 237.922 57.6191 238.256 57.1114C238.588 56.6001 239.044 56.347 239.622 56.347C240.189 56.347 240.617 56.5268 240.907 56.8871C241.068 57.0909 241.2 57.3916 241.303 57.7918H242.893C242.869 57.2718 242.694 56.7558 242.365 56.2378C241.774 55.3213 240.84 54.8617 239.56 54.8617C238.604 54.8617 237.816 55.2034 237.197 55.889C236.484 56.6754 236.128 57.7949 236.128 59.2464C236.13 60.5902 236.442 61.6482 237.07 62.4197V62.4193ZM245.543 55.0189H243.965V63.3405H245.543V55.0189ZM251.032 60.1952H249.102L250.084 56.9214L251.032 60.1952ZM248.15 63.3409L248.674 61.6297H251.475L251.965 63.3405H253.689L250.996 55.0189H249.2L246.486 63.3405L248.15 63.3409ZM254.652 63.3409V55.0189H256.241V61.8449H260.007V63.3409H254.652ZM268.165 56.5934C268.439 56.718 268.578 56.9746 268.578 57.3609C268.578 57.7113 268.473 57.9542 268.265 58.0925C268.058 58.2309 267.786 58.2995 267.452 58.2995H265.584V56.4633H267.257C267.625 56.4633 267.926 56.5063 268.165 56.5934ZM268.247 59.8156C268.574 59.978 268.737 60.2756 268.737 60.71C268.737 61.2209 268.567 61.5662 268.231 61.7476C268.045 61.8465 267.786 61.8946 267.452 61.8946H265.584V59.6741H267.479C267.81 59.6792 268.064 59.7265 268.247 59.8156ZM264.068 55.0189V63.3405H267.514C267.904 63.3405 268.264 63.3015 268.595 63.2278C268.912 63.16 269.209 63.0164 269.458 62.8092C269.68 62.6287 269.864 62.4062 270 62.1544C270.226 61.7629 270.341 61.3203 270.341 60.8279C270.341 60.3509 270.243 59.9441 270.046 59.6106C269.849 59.2755 269.556 59.0296 269.165 58.8754C269.421 58.7319 269.612 58.5746 269.744 58.4004C269.978 58.0929 270.096 57.6841 270.096 57.1764C270.096 56.6821 269.978 56.2599 269.744 55.9059C269.356 55.33 268.696 55.0343 267.764 55.0189H264.068ZM275.678 60.1952H273.749L274.729 56.9214L275.678 60.1952ZM272.796 63.3409L273.322 61.6297H276.123L276.612 63.3405H278.336L275.642 55.0189H273.846L271.132 63.3405L272.796 63.3409ZM280.754 63.3409V57.4291L283.862 63.3409H285.45V55.0189H283.968V60.8279L280.939 55.0189H279.273V63.3405L280.754 63.3409ZM286.953 63.3409V55.0189H288.516V58.4446L291.449 55.0189H293.504L290.387 58.4446L293.664 63.3405H291.62L289.273 59.7029L288.516 60.5559V63.3409H286.953ZM299.348 61.3356C298.973 60.8279 298.784 60.1045 298.784 59.1663C298.784 58.2293 298.973 57.5079 299.348 56.9982C299.723 56.4909 300.225 56.2358 300.854 56.2358C301.483 56.2358 301.985 56.4921 302.354 57.0018C302.724 57.5131 302.909 58.2345 302.909 59.1659C302.909 60.1045 302.725 60.8259 302.354 61.3356C301.985 61.8434 301.483 62.098 300.854 62.098C300.226 62.098 299.723 61.8449 299.348 61.3356ZM303.347 55.7352C302.773 55.0871 301.942 54.7655 300.854 54.7655C299.768 54.7655 298.937 55.0887 298.363 55.7352C297.592 56.4992 297.206 57.6431 297.206 59.1679C297.206 60.6635 297.592 61.8075 298.363 62.6022C298.937 63.2503 299.768 63.5719 300.854 63.5719C301.942 63.5719 302.773 63.2487 303.347 62.6022C304.115 61.8075 304.499 60.6635 304.499 59.1679C304.497 57.6431 304.113 56.4992 303.347 55.7352ZM305.708 63.3409V55.0312H311.099V56.4925H307.287V58.4071H310.626V59.8519H307.287V63.3405L305.708 63.3409ZM314.769 59.2464C314.769 57.7949 315.124 56.6754 315.839 55.889C316.457 55.2034 317.245 54.8617 318.201 54.8617C319.483 54.8617 320.417 55.3213 321.008 56.2374C321.336 56.7558 321.512 57.2718 321.536 57.7918H319.946C319.843 57.3916 319.709 57.0909 319.55 56.8875C319.26 56.5268 318.832 56.3474 318.265 56.3474C317.685 56.3474 317.229 56.6017 316.898 57.1129C316.563 57.6207 316.397 58.344 316.397 59.2771C316.397 60.209 316.572 60.9099 316.926 61.3731C317.28 61.8382 317.727 62.0708 318.27 62.0708C318.83 62.0708 319.254 61.8721 319.545 61.4724C319.708 61.2588 319.84 60.9355 319.947 60.5082H321.522C321.385 61.4141 321.032 62.1508 320.467 62.7201C319.901 63.2897 319.178 63.5731 318.292 63.5731C317.198 63.5731 316.339 63.1907 315.713 62.4213C315.081 61.6467 314.769 60.5902 314.769 59.2464ZM324.291 63.3409H322.716V55.0189H324.291V58.1899H327.262V55.0189H328.842V63.3405H327.262V59.6244H324.291L324.291 63.3409ZM330.233 55.0189H331.811V63.3405H330.233V55.0189ZM333.266 63.3405V55.0189H334.932L337.961 60.8279V55.0189H339.441V63.3405H337.852L334.747 57.4291V63.3409L333.266 63.3405ZM344.928 60.1952H342.999L343.978 56.9214L344.928 60.1952ZM342.046 63.3409L342.572 61.6297H345.373L345.864 63.3405H347.587L344.892 55.0189H343.098L340.384 63.3405L342.046 63.3409Z" fill="black"/>
<path d="M32.1872 20.4004V15.4492H16.0138V30.3138H25.9279V35.2716H16.0138V50.1393H32.1872V45.1834H20.9914V40.2256H30.9312V25.3563H20.9914V20.3988H32.1872V20.4004ZM0.983398 32.8166C0.983398 15.0105 15.4808 0.573242 33.3627 0.573242C51.2477 0.573242 65.7459 15.0101 65.7459 32.8166C65.7459 50.623 51.2477 65.0599 33.3627 65.0599C15.4808 65.0599 0.983398 50.623 0.983398 32.8166ZM33.3643 60.0614C48.4772 60.0614 60.7284 47.864 60.7284 32.815C60.7284 17.7659 48.4772 5.56856 33.3643 5.56856C18.2533 5.56856 6.00209 17.7659 6.00209 32.815C6.00209 47.864 18.2533 60.0614 33.3643 60.0614ZM34.6891 45.1968V50.1496H50.8265V35.2835H40.914V30.3276H50.8265V15.4583H34.6891V20.4142H45.8485V25.3701H35.9088V40.2409H45.8485V45.1968H34.6891ZM92.1191 48.069H350.983V46.4827H92.1191V48.069Z" fill="#AB1416"/>
</svg>
