<svg width="351" height="72" viewBox="0 0 351 72" fill="none" xmlns="http://www.w3.org/2000/svg">
<path d="M36.2878 0.0600586H15.7189V1.81364H22.2624V35.8941C22.2624 46.0598 19.4218 49.0332 13.0559 49.0332C11.9326 49.1543 10.8073 48.8234 9.92741 48.1133C9.04754 47.4032 8.48512 46.372 8.36384 45.2465C8.32593 44.9682 8.32593 44.6861 8.36384 44.4078C8.36384 40.6974 8.16094 38.4101 4.76238 38.4101C1.36383 38.4101 0.983398 41.8664 0.983398 42.9084C0.983398 47.61 3.06311 51.1934 12.4218 51.1934C23.5812 51.1934 29.6175 47.4321 29.6175 34.9792V1.78822H36.4907L36.2878 0.0600586Z" fill="#503629"/>
<path d="M39.0266 43.2646C38.4959 43.2457 37.967 43.3376 37.4736 43.5345C36.9803 43.7314 36.5331 44.0289 36.1607 44.4083C35.7812 44.7821 35.482 45.2296 35.2814 45.7235C35.0808 46.2173 34.983 46.747 34.994 47.2801C34.9859 47.8014 35.0854 48.3188 35.2861 48.7999C35.4869 49.2809 35.7846 49.7153 36.1607 50.0756C36.9244 50.8293 37.9547 51.2496 39.0266 51.2447C40.114 51.252 41.1609 50.8324 41.9433 50.0756C42.3193 49.7153 42.6171 49.2809 42.8178 48.7999C43.0186 48.3188 43.118 47.8014 43.1099 47.2801C43.1167 46.7594 43.0209 46.2425 42.8283 45.759C42.6356 45.2754 42.3498 44.8346 41.9871 44.4617C41.6244 44.0888 41.1919 43.7912 40.7144 43.5858C40.2369 43.3804 39.7237 43.2713 39.2041 43.2646H39.0266Z" fill="#503629"/>
<path d="M84.6786 43.265C84.1602 43.2515 83.6443 43.3409 83.1606 43.528C82.6768 43.7152 82.2348 43.9964 81.86 44.3555C81.4851 44.7145 81.1849 45.1443 80.9765 45.6202C80.7682 46.096 80.6559 46.6084 80.646 47.128V47.2804C80.646 47.8101 80.7592 48.3337 80.9779 48.8158C81.1966 49.298 81.5159 49.7277 81.9141 50.076C82.6809 50.825 83.7092 51.2445 84.7801 51.2451C85.3159 51.2566 85.8485 51.1589 86.3455 50.9579C86.8425 50.757 87.2936 50.4569 87.6714 50.076C88.0604 49.7231 88.3701 49.2913 88.58 48.8094C88.7899 48.3274 88.8951 47.8063 88.8888 47.2804C88.9027 46.7447 88.8037 46.212 88.5983 45.7172C88.3929 45.2223 88.0857 44.7765 87.6967 44.4086C87.3275 44.0393 86.8881 43.7478 86.4046 43.5513C85.9211 43.3549 85.4032 43.2575 84.8815 43.265" fill="#503629"/>
<path d="M70.4504 0.0600586H50.1605V1.81364H56.0699V40.7228C56.2245 42.3101 56.043 43.9122 55.5373 45.4244C55.3057 45.9673 54.9588 46.4531 54.5208 46.8481C54.0828 47.2431 53.5642 47.5378 53.0011 47.7117C51.7668 48.1278 50.4737 48.3423 49.1714 48.347V49.9735H70.7294V48.347C69.3302 48.3562 67.9373 48.1593 66.5953 47.7625C66.0345 47.5841 65.5181 47.2877 65.0807 46.8933C64.6433 46.4988 64.295 46.0154 64.0591 45.4752C63.6415 44.471 63.4593 43.3842 63.5265 42.2984V28.9814H68.9033C84.4757 28.9814 88.8634 22.8312 88.8634 14.4699C88.8634 6.10864 86.2257 0.0600586 70.4504 0.0600586ZM67.6605 26.9991H63.5772V2.04237H67.2801C79.3018 1.99154 82.1424 6.89648 82.1424 14.9274C82.1424 22.9582 77.425 27.177 67.8634 27.177" fill="#503629"/>
<path d="M153.157 45.2977C152.826 44.1944 152.68 43.0435 152.726 41.8922V1.81401H158.077V0.1875H145.219L129.9 38.1817C129.876 38.2448 129.835 38.2999 129.781 38.3404C129.727 38.3809 129.663 38.4052 129.595 38.4104C129.517 38.4134 129.439 38.3934 129.371 38.3528C129.304 38.3122 129.249 38.2527 129.215 38.1817C129.215 38.1817 113.11 0.644955 112.932 0.1875H98.7549V1.76318H104.969V43.8999C104.912 44.805 104.624 45.6802 104.132 46.4413C103.552 47.2014 102.756 47.7683 101.849 48.0678C100.877 48.2933 99.8788 48.3873 98.8817 48.3474V49.9739H112.932V48.3474C112.072 48.358 111.216 48.2293 110.396 47.9662C109.393 47.7375 108.499 47.1727 107.86 46.3651C107.361 45.6054 107.064 44.7306 106.998 43.8237L106.845 40.3165V7.04933H107.682C107.682 7.04933 126.019 49.4656 126.019 49.9485H127.795L145.092 7.40513H145.548V41.6889C145.571 42.8725 145.426 44.0533 145.117 45.196C144.928 45.705 144.64 46.1713 144.27 46.5682C143.9 46.9651 143.455 47.2848 142.961 47.5087C141.813 47.9145 140.603 48.1207 139.385 48.1187V49.7452H159.041V48.1187C157.794 48.1158 156.558 47.8921 155.389 47.4579C154.861 47.2211 154.392 46.8706 154.015 46.4313C153.638 45.992 153.362 45.4748 153.208 44.9165" fill="#503629"/>
<path d="M179.661 13.4023C169.161 13.4023 162.465 20.3404 162.465 32.463C162.465 50.2529 176.339 51.3966 179.306 51.3966C185.241 51.3966 196.502 47.7115 196.502 32.1326C196.502 19.883 189.299 13.4023 179.585 13.4023M179.585 49.1855C171.672 49.1855 170.454 45.2717 170.454 32.6409C170.454 22.8564 171.063 15.5117 179.585 15.5117C188.741 15.5117 188.791 23.136 188.791 31.9547C188.791 44.6618 186.61 49.0839 179.585 49.0839" fill="#503629"/>
<path d="M224.02 13.9365C217.73 13.9365 215.802 17.647 214.027 21.4083H213.545C213.545 21.4083 212.632 15.9442 212.302 14.3177H200.052V16.173H206.646V40.901C206.737 42.6337 206.46 44.3659 205.835 45.9838C205.175 47.2291 203.654 47.8391 201.168 47.8391H200.078V50.0247H220.367V47.8391H219.404C216.715 47.8391 215.574 47.2545 214.864 46.0855C214.147 44.4576 213.858 42.6724 214.027 40.901V28.016C214.027 23.721 217.273 18.7906 221.179 18.7906C225.085 18.7906 225.161 25.0679 229.802 22.5519C232.338 21.1796 231.882 13.9874 224.07 13.9874" fill="#503629"/>
<path d="M305.129 46.289C302.947 46.289 302.237 45.0691 302.11 43.0614V23.5687C302.241 22.2336 302.082 20.8859 301.645 19.6182C301.207 18.3504 300.501 17.1925 299.574 16.224C297.672 14.3433 294.071 13.3522 288.821 13.3522C284.897 13.0614 280.982 14.0221 277.636 16.0969C276.65 16.694 275.835 17.5368 275.27 18.5434C274.706 19.55 274.411 20.6859 274.415 21.8405C274.351 22.3043 274.398 22.7768 274.552 23.2187C274.707 23.6606 274.964 24.0594 275.302 24.3819C275.924 24.9122 276.719 25.1929 277.534 25.1698C279.563 25.1698 280.679 24.1278 281.136 21.4847C281.19 19.9481 281.752 18.4731 282.734 17.2914C283.392 16.6944 284.167 16.2415 285.01 15.9614C285.853 15.6814 286.745 15.5804 287.629 15.6649C288.624 15.5502 289.632 15.6774 290.568 16.0357C291.504 16.394 292.34 16.9729 293.005 17.7234C294.022 19.2634 294.52 21.0892 294.426 22.9333V28.9057C287.908 29.4902 272.513 30.7101 273.197 42.426C273.434 44.7935 274.557 46.9832 276.341 48.5537C278.125 50.1241 280.436 50.9586 282.81 50.8889C285.102 50.8195 287.353 50.2571 289.41 49.2398C291.466 48.2225 293.281 46.7742 294.73 44.9928C295.043 46.5818 295.914 48.0059 297.183 49.008C298.453 50.0101 300.039 50.524 301.654 50.4569C306.397 50.4569 309.263 48.1188 309.567 42.3498H308.324C308.02 44.8912 306.473 46.2127 305.179 46.2127M294.502 42.4514C294.527 42.489 294.54 42.5333 294.54 42.5785C294.54 42.6237 294.527 42.668 294.502 42.7056V42.858C292.397 45.2172 289.517 46.7413 286.386 47.153C285.653 47.1802 284.922 47.0624 284.235 46.8063C283.547 46.5501 282.917 46.1607 282.38 45.6603C281.843 45.1599 281.409 44.5584 281.105 43.89C280.8 43.2216 280.629 42.4996 280.603 41.7652C280.578 41.4863 280.578 41.2056 280.603 40.9266C280.603 34.2935 289.734 30.9642 294.705 30.9642L294.502 42.4514Z" fill="#503629"/>
<path d="M346.875 46.0349C345.941 44.4274 345.5 42.5802 345.607 40.7233V24.5853C345.711 22.518 345.301 20.4571 344.415 18.5876C343.59 17.0744 342.349 15.8306 340.839 15.0042C339.166 14.1868 337.322 13.7857 335.462 13.8351C333.079 13.7757 330.728 14.3903 328.678 15.6084C326.628 16.8266 324.962 18.599 323.871 20.7224H323.085L321.817 14.2672H310.835V16.1224H316.389V40.7233C316.432 42.1243 316.295 43.5249 315.984 44.8913C315.854 45.4156 315.596 45.8992 315.232 46.2986C314.869 46.6979 314.413 47.0003 313.904 47.1785C312.921 47.5363 311.88 47.7087 310.835 47.6868V49.9487H328.436V47.6614C327.762 47.6971 327.089 47.581 326.466 47.3215C325.843 47.062 325.285 46.6658 324.835 46.162C324.038 44.5934 323.696 42.8327 323.846 41.0791V31.7013C323.507 28.2542 323.967 24.7753 325.19 21.5356C325.903 20.2968 326.937 19.2742 328.183 18.5763C329.429 17.8784 330.839 17.531 332.266 17.571C333.244 17.4715 334.229 17.6587 335.103 18.1099C335.976 18.5611 336.7 19.2568 337.186 20.1124C338.05 22.8039 338.453 25.6222 338.378 28.4483V40.088C338.51 41.5251 338.51 42.9713 338.378 44.4084C338.328 44.9212 338.162 45.416 337.894 45.856C337.626 46.296 337.263 46.6698 336.831 46.9498C335.971 47.433 335.002 47.6867 334.016 47.6868V49.9741H350.984V47.7122C348.853 47.5598 347.458 47.0515 346.824 46.0603" fill="#503629"/>
<path d="M267.288 11.9543C266.721 12.1902 266.226 12.5737 265.856 13.0652C265.486 13.5566 265.254 14.1383 265.183 14.7499C264.904 16.1985 264.346 17.0626 263.611 17.2913C262.771 17.512 261.882 17.4586 261.074 17.1388C257.867 14.4124 253.734 13.0289 249.535 13.2759C246.028 13.002 242.556 14.1322 239.88 16.4187C237.203 18.7053 235.54 21.9618 235.256 25.4747C235.256 26.0084 235.256 26.5421 235.256 27.0758C235.256 34.7 238.172 38.2326 244.538 39.5795C244.944 39.5795 244.944 40.0878 244.538 40.1387C239.187 41.1298 234.393 42.6801 234.393 47.89C234.388 49.1058 234.762 50.2929 235.462 51.2859C236.162 52.279 237.154 53.0285 238.299 53.4303C241.691 54.5997 245.263 55.1589 248.85 55.0822C251.678 55.0552 254.506 55.1824 257.321 55.4634C258.967 55.6124 260.551 56.1621 261.937 57.0645C262.537 57.5597 263.009 58.1923 263.313 58.9089C263.618 59.6255 263.746 60.405 263.687 61.1816C263.661 62.402 263.287 63.5895 262.608 64.603C261.929 65.6166 260.975 66.4137 259.857 66.8998C256.864 68.371 253.549 69.0616 250.219 68.9075C247.142 69.131 244.066 68.451 241.368 66.9506C240.574 66.3976 239.971 65.6126 239.639 64.7028C239.308 63.7931 239.265 62.8029 239.517 61.8678C239.76 61.1397 239.707 60.3449 239.37 59.6554C239.033 58.9658 238.439 58.4368 237.716 58.1827H237.335C236.751 58.1082 236.158 58.197 235.621 58.4392C235.084 58.6813 234.624 59.0675 234.292 59.5551C233.707 60.5439 233.433 61.6864 233.506 62.8335C233.57 64.4802 234.186 66.0572 235.253 67.3109C236.32 68.5647 237.777 69.4224 239.39 69.7462C242.561 70.7593 245.876 71.2486 249.205 71.1948C253.044 71.3741 256.872 70.6609 260.39 69.1108C262.477 68.2323 264.262 66.7606 265.524 64.8772C266.786 62.9939 267.47 60.7815 267.491 58.5131C267.59 56.322 267.005 54.1544 265.817 52.312C262.266 47.4325 257.245 48.0933 245.933 47.5342C240.506 47.5342 239.44 46.5684 239.44 44.9928C239.44 42.4513 241.444 41.5618 249.256 40.3674C257.067 39.1729 264.245 36.3265 264.245 26.8979C264.268 24.5923 263.783 22.3099 262.824 20.2139C264.285 20.6201 265.828 20.6201 267.288 20.2139C267.963 20.0319 268.593 19.7122 269.138 19.2749C269.684 18.8376 270.133 18.2921 270.459 17.6725C270.804 17.1994 271.038 16.6542 271.143 16.0777C271.249 15.5012 271.223 14.9083 271.067 14.3432C270.408 12.2339 269.14 11.4714 267.212 12.056M249.712 38.0547C245.096 38.0547 242.332 36.3774 242.332 26.9741C242.332 20.341 244.64 15.4106 249.712 15.4106C255.495 15.4106 257.067 19.909 257.067 26.8216C257.067 36.6315 253.948 38.0547 249.712 38.0547Z" fill="#503629"/>
</svg>
