<svg width="351" height="95" viewBox="0 0 351 95" fill="none" xmlns="http://www.w3.org/2000/svg">
<path fill-rule="evenodd" clip-rule="evenodd" d="M203.05 71.2765C202.919 72.1671 202.645 72.9555 202.229 73.6419C201.807 74.3283 201.202 74.8785 200.41 75.287C199.617 75.6954 198.551 75.8996 197.228 75.8996C195.905 75.8996 194.759 75.7124 193.955 75.338C193.152 74.9636 192.547 74.4418 192.148 73.7724C191.749 73.103 191.487 72.3202 191.378 71.4239C191.264 70.5277 191.207 69.5633 191.207 68.5366C191.207 67.612 191.276 66.71 191.401 65.8194C191.532 64.9288 191.806 64.1403 192.228 63.4426C192.65 62.7449 193.254 62.1833 194.047 61.7578C194.839 61.3324 195.9 61.1168 197.228 61.1168C198.557 61.1168 199.697 61.3154 200.501 61.7068C201.305 62.0982 201.909 62.6314 202.309 63.3121C202.713 63.9928 202.97 64.7757 203.084 65.6776C203.198 66.5739 203.255 67.5382 203.255 68.565C203.255 69.4839 203.187 70.3915 203.056 71.2821L203.05 71.2765ZM195.968 70.7376C196.002 71.2991 196.071 71.7473 196.179 72.082C196.282 72.411 196.419 72.6379 196.584 72.757C196.749 72.8761 196.96 72.9385 197.223 72.9385C197.485 72.9385 197.702 72.8818 197.878 72.757C198.049 72.6379 198.186 72.411 198.283 72.082C198.38 71.753 198.443 71.3048 198.477 70.7376C198.511 70.176 198.528 69.4499 198.528 68.565C198.528 67.68 198.511 66.9483 198.477 66.3753C198.443 65.8024 198.38 65.3486 198.283 65.0196C198.186 64.6906 198.049 64.4637 197.878 64.3445C197.707 64.2254 197.491 64.163 197.223 64.163C196.955 64.163 196.749 64.2254 196.584 64.3445C196.419 64.4637 196.282 64.6906 196.179 65.0196C196.077 65.3486 196.002 65.7967 195.968 66.3753C195.934 66.9483 195.917 67.6744 195.917 68.565C195.917 69.4556 195.934 70.176 195.968 70.7376ZM161.398 71.197C161.398 71.9572 161.529 72.4677 161.792 72.7173C162.054 72.9669 162.35 73.0974 162.681 73.0974C163.097 73.0974 163.422 72.9272 163.656 72.5868C163.89 72.2465 164.01 71.5998 164.01 70.6411H168.275C168.24 72.3826 167.796 73.693 166.935 74.5779C166.079 75.4572 164.671 75.8996 162.71 75.8996C161.575 75.8996 160.617 75.7748 159.853 75.5196C159.083 75.2643 158.462 74.8502 157.988 74.2659C157.515 73.6816 157.179 72.9215 156.979 71.9799C156.78 71.0382 156.677 69.898 156.677 68.5593C156.677 67.2205 156.791 66.052 157.019 65.1103C157.247 64.1687 157.606 63.4029 158.097 62.8129C158.587 62.223 159.209 61.7919 159.973 61.5196C160.731 61.253 161.643 61.1168 162.71 61.1168C163.65 61.1168 164.477 61.2303 165.19 61.4572C165.897 61.6841 166.49 62.0642 166.969 62.5917C167.448 63.1249 167.807 63.8227 168.046 64.6849C168.28 65.5471 168.4 66.6249 168.4 67.9126V69.3534H161.404V71.2027L161.398 71.197ZM163.696 64.5204C163.513 64.1744 163.171 63.9985 162.67 63.9985C162.168 63.9985 161.854 64.1744 161.672 64.5204C161.489 64.8721 161.398 65.4223 161.398 66.1711V66.8008H163.964V66.1711C163.964 65.4223 163.873 64.8721 163.69 64.5204H163.696ZM124.382 74.8559L124.274 74.0163C123.96 74.646 123.544 75.1168 122.979 75.4288C122.415 75.7408 121.765 75.8996 121.035 75.8996C120.305 75.8996 119.718 75.8088 119.216 75.6273C118.72 75.4458 118.315 75.1735 118.002 74.8048C117.688 74.4418 117.46 74.005 117.323 73.5001C117.181 72.9952 117.112 72.4393 117.112 71.8267C117.112 71.163 117.181 70.5901 117.306 70.1022C117.437 69.6144 117.648 69.1946 117.945 68.8372C118.241 68.4799 118.64 68.1735 119.148 67.9239C119.655 67.6687 120.282 67.4588 121.029 67.2829L122.888 66.8405C123.396 66.7214 123.749 66.5398 123.96 66.3073C124.171 66.069 124.274 65.7343 124.274 65.3032C124.274 64.4353 123.875 63.9985 123.076 63.9985C122.626 63.9985 122.295 64.1233 122.084 64.3729C121.879 64.6225 121.765 65.116 121.748 65.8534H117.648C117.648 64.8324 117.831 64.0099 118.201 63.3915C118.566 62.7789 119.022 62.2967 119.564 61.962C120.106 61.6217 120.693 61.4005 121.326 61.287C121.953 61.1736 122.54 61.1168 123.088 61.1168C123.909 61.1168 124.667 61.1849 125.357 61.3154C126.047 61.4458 126.646 61.6784 127.142 62.0188C127.638 62.3591 128.025 62.8186 128.299 63.4029C128.573 63.9872 128.704 64.7416 128.704 65.6606V72.5585C128.704 73.2222 128.732 73.8064 128.784 74.3113C128.835 74.8161 128.961 75.2529 129.149 75.616H124.564C124.479 75.3721 124.416 75.1225 124.382 74.8559ZM123.937 72.2351C124.165 71.8551 124.274 71.2708 124.274 70.488V68.7919C124.08 68.9847 123.869 69.0982 123.584 69.1436C123.299 69.1889 122.979 69.2854 122.632 69.4442C122.267 69.62 122.016 69.847 121.873 70.1363C121.736 70.4199 121.668 70.8 121.668 71.2708C121.668 71.7416 121.771 72.116 121.982 72.394C122.192 72.6719 122.466 72.8137 122.814 72.8137C123.333 72.8137 123.709 72.6209 123.937 72.2408V72.2351ZM102.076 61.4799V75.6103H97.3554V61.4799H102.076ZM102.076 56.9532V60.4531H97.3554V56.9532H102.076ZM67.5862 61.4799V75.6103H62.8651V61.4799H67.5862ZM67.5862 56.9532V60.4531H62.8651V56.9532H67.5862ZM165.139 19.497C165.139 18.1526 166.182 17.0635 167.465 17.0635C168.748 17.0635 169.791 18.1526 169.791 19.497C169.791 20.8414 168.748 21.9305 167.465 21.9305C166.182 21.9305 165.139 20.8414 165.139 19.497ZM170.527 19.497C170.527 18.1526 171.564 17.0635 172.853 17.0635C174.142 17.0635 175.179 18.1526 175.179 19.497C175.179 20.8414 174.136 21.9305 172.853 21.9305C171.57 21.9305 170.527 20.8414 170.527 19.497ZM205.758 19.497C205.758 18.1526 206.796 17.0635 208.079 17.0635C209.362 17.0635 210.405 18.1526 210.405 19.497C210.405 20.8414 209.362 21.9305 208.079 21.9305C206.796 21.9305 205.758 20.8414 205.758 19.497ZM211.146 19.497C211.146 18.1526 212.184 17.0635 213.467 17.0635C214.75 17.0635 215.788 18.1526 215.788 19.497C215.788 20.8414 214.75 21.9305 213.467 21.9305C212.184 21.9305 211.146 20.8414 211.146 19.497ZM236.274 44.1671C236.274 42.8227 237.312 41.7336 238.595 41.7336C239.878 41.7336 240.927 42.8227 240.927 44.1671C240.927 45.5115 239.884 46.6063 238.595 46.6063C237.306 46.6063 236.274 45.5172 236.274 44.1671ZM221.096 44.1671C221.096 42.8227 222.134 41.7336 223.417 41.7336C224.7 41.7336 225.737 42.8227 225.737 44.1671C225.737 45.5115 224.7 46.6063 223.417 46.6063C222.134 46.6063 221.096 45.5172 221.096 44.1671ZM226.775 44.1671C226.775 42.8227 227.813 41.7336 229.101 41.7336C230.39 41.7336 231.428 42.8227 231.428 44.1671C231.428 45.5115 230.384 46.6063 229.101 46.6063C227.819 46.6063 226.775 45.5172 226.775 44.1671ZM120.02 44.1671C120.02 42.8227 121.064 41.7336 122.341 41.7336C123.618 41.7336 124.673 42.8227 124.673 44.1671C124.673 45.5115 123.629 46.6063 122.341 46.6063C121.052 46.6063 120.02 45.5172 120.02 44.1671ZM125.408 44.1671C125.408 42.8227 126.452 41.7336 127.735 41.7336C129.018 41.7336 130.061 42.8227 130.061 44.1671C130.061 45.5115 129.023 46.6063 127.735 46.6063C126.446 46.6063 125.408 45.5172 125.408 44.1671ZM25.3472 44.1671C25.3472 42.8227 26.3907 41.7336 27.6736 41.7336C28.9565 41.7336 29.9999 42.8227 29.9999 44.1671C29.9999 45.5115 28.9622 46.6063 27.6736 46.6063C26.385 46.6063 25.3472 45.5172 25.3472 44.1671ZM30.7411 44.1671C30.7411 42.8227 31.7789 41.7336 33.0618 41.7336C34.3447 41.7336 35.3824 42.8227 35.3824 44.1671C35.3824 45.5115 34.3447 46.6063 33.0618 46.6063C31.7789 46.6063 30.7411 45.5172 30.7411 44.1671ZM12.6094 19.4119C12.6094 18.0618 13.6528 16.9784 14.9357 16.9784C16.2186 16.9784 17.2564 18.0675 17.2564 19.4119C17.2564 20.7563 16.2129 21.8455 14.9357 21.8455C13.6585 21.8455 12.6094 20.7563 12.6094 19.4119ZM18.0033 19.4119C18.0033 18.0618 19.041 16.9784 20.3296 16.9784C21.6182 16.9784 22.656 18.0675 22.656 19.4119C22.656 20.7563 21.6125 21.8455 20.3296 21.8455C19.0467 21.8455 18.0033 20.7563 18.0033 19.4119ZM2.60841 44.1671C2.60841 42.8227 3.64614 41.7336 4.93475 41.7336C6.22336 41.7336 7.26109 42.8227 7.26109 44.1671C7.26109 45.5115 6.21766 46.6063 4.93475 46.6063C3.65185 46.6063 2.60841 45.5172 2.60841 44.1671ZM7.99662 44.1671C7.99662 42.8227 9.04006 41.7336 10.323 41.7336C11.6059 41.7336 12.6493 42.8227 12.6493 44.1671C12.6493 45.5115 11.6059 46.6063 10.323 46.6063C9.04006 46.6063 7.99662 45.5172 7.99662 44.1671ZM35.371 25.9184V39.4645H18.2656V30.5302H13.784V39.4645H0.983398V25.7709H6.22336V34.3479H9.64445L9.69576 25.6347L22.8784 25.6234V34.8244H30.8894V25.9241H35.371V25.9184ZM43.8439 30.2239H47.4189V34.813H43.8439V30.2239ZM88.7514 19.5424V39.4589H51.9234C51.9234 39.4589 51.2163 43.9119 48.6961 45.4264C46.4097 46.8049 41.5803 46.3511 41.5803 46.3511C41.5803 46.3511 45.1325 44.4961 46.2615 42.9986C47.3904 41.501 47.2023 39.4532 47.2023 39.4532H39.3395V26.0488H51.8721V34.8073H75.8425V30.1501H59.7349C59.7349 30.1501 56.7414 29.9743 56.7414 26.7976C56.7414 23.621 59.1704 22.3276 59.1704 22.3276L66.2862 16.5586H74.5196L63.2985 25.4929H76.4012C76.4012 25.4929 80.1416 25.8617 80.3298 28.6582C80.5122 31.4492 80.3298 34.813 80.3298 34.813H84.6404V19.5424H88.7514ZM92.8738 19.5424H97.1843V39.4589H92.8738V19.5424ZM130.306 26.0545V39.4589H118.891C118.891 39.4589 117.015 46.0731 111.216 46.1695C99.9896 46.3567 104.671 31.4548 104.671 31.4548C104.671 31.4548 103.958 40.0034 109.523 40.0318C115.527 40.0545 114.575 34.8187 114.575 34.8187V19.7296H119.074V34.8187H125.619V26.0602H130.3L130.306 26.0545ZM155.394 30.5245H159.705V34.813H155.394V30.5245ZM138.357 30.5245H142.48V34.813H138.357V30.5245ZM179.165 19.4913H183.276V39.4589H146.602C146.602 39.4589 146.231 44.1274 142.48 45.6136C138.733 47.0942 135.922 45.6136 135.922 45.6136C135.922 45.6136 138.357 45.4264 140.604 43.1914C142.85 40.9508 141.921 39.4589 141.921 39.4589H134.246V25.8673H146.602V34.813H150.901V26.0545H164.192V34.813H169.991V26.0545H174.672V34.813H179.171V19.4913H179.165ZM187.028 19.5424H191.338V39.4589H187.028V19.5424ZM241.127 25.8673V39.4589H198.813V26.0545H207.429V29.5999H203.871V34.813H217.914V25.8673H222.025V34.813H227.26V25.8673H231.576V34.813H236.634V25.8673H241.127ZM237.141 64.5204C236.959 64.1744 236.616 63.9985 236.115 63.9985C235.613 63.9985 235.299 64.1744 235.117 64.5204C234.934 64.8721 234.843 65.4223 234.843 66.1711V66.8008H237.409V66.1711C237.409 65.4223 237.318 64.8721 237.135 64.5204H237.141ZM234.843 71.197C234.843 71.9572 234.974 72.4677 235.237 72.7173C235.499 72.9669 235.795 73.0974 236.12 73.0974C236.537 73.0974 236.862 72.9272 237.095 72.5868C237.329 72.2465 237.449 71.5998 237.449 70.6411H241.714C241.68 72.3826 241.235 73.693 240.374 74.5779C239.519 75.4572 238.11 75.8996 236.155 75.8996C235.014 75.8996 234.062 75.7748 233.292 75.5196C232.522 75.2643 231.901 74.8502 231.428 74.2659C230.955 73.6816 230.618 72.9215 230.419 71.9799C230.219 71.0382 230.116 69.898 230.116 68.5593C230.116 67.2205 230.23 66.052 230.458 65.1103C230.687 64.1687 231.046 63.4029 231.536 62.8129C232.026 62.223 232.648 61.7919 233.412 61.5196C234.17 61.253 235.083 61.1168 236.149 61.1168C237.095 61.1168 237.916 61.2303 238.623 61.4572C239.33 61.6841 239.923 62.0642 240.408 62.5917C240.887 63.1249 241.246 63.8227 241.486 64.6849C241.72 65.5471 241.839 66.6249 241.839 67.9126V69.3534H234.843V71.2027V71.197ZM222.105 72.0309C222.157 72.2748 222.242 72.4734 222.368 72.6322C222.596 72.9612 222.926 73.1314 223.365 73.1314C223.73 73.1314 224.05 73.0293 224.318 72.8194C224.586 72.6095 224.722 72.3145 224.722 71.9288C224.722 71.509 224.551 71.1857 224.209 70.9645C223.867 70.7376 223.445 70.539 222.938 70.3632L221.301 69.8129C220.714 69.6201 220.172 69.3591 219.665 69.0244C219.157 68.6954 218.736 68.253 218.393 67.7027C218.051 67.1525 217.886 66.4321 217.886 65.5415C217.886 64.9118 218 64.3332 218.228 63.8C218.456 63.2667 218.804 62.8016 219.266 62.3988C219.728 61.9961 220.315 61.6841 221.022 61.4572C221.729 61.2303 222.567 61.1168 223.531 61.1168C227.083 61.1168 228.862 62.5974 228.862 65.5641H224.762C224.762 64.9572 224.654 64.5431 224.437 64.3275C224.221 64.112 223.913 64.0042 223.514 64.0042C223.166 64.0042 222.881 64.1006 222.658 64.2878C222.43 64.4807 222.322 64.7473 222.322 65.099C222.322 65.5018 222.493 65.8024 222.829 66.0009C223.172 66.1995 223.593 66.381 224.101 66.5342L225.737 67.0277C226.325 67.2035 226.866 67.4531 227.374 67.7708C227.881 68.0941 228.303 68.5252 228.645 69.0755C228.987 69.6257 229.158 70.3518 229.158 71.2538C229.158 71.9515 229.027 72.5868 228.765 73.1598C228.503 73.7327 228.132 74.2319 227.647 74.646C227.169 75.0657 226.57 75.3777 225.863 75.5876C225.156 75.7975 224.352 75.8996 223.462 75.8996C221.484 75.8996 220.064 75.5082 219.197 74.7311C218.331 73.9539 217.897 72.791 217.897 71.2481H222.031C222.031 71.526 222.054 71.787 222.111 72.0309H222.105ZM209.459 61.4799V70.8056C209.459 71.3956 209.55 71.8267 209.721 72.0876C209.898 72.3486 210.194 72.479 210.616 72.479C211.038 72.479 211.335 72.3486 211.511 72.0876C211.688 71.8267 211.774 71.4012 211.774 70.8056V61.4799H216.495V75.6103H211.939V73.8858C211.3 75.2302 210.149 75.8996 208.449 75.8996C207.925 75.8996 207.435 75.8542 206.99 75.7578C206.539 75.6614 206.152 75.4685 205.821 75.1849C205.485 74.8956 205.222 74.5042 205.028 74.0106C204.835 73.5171 204.738 72.8931 204.738 72.1444V61.4855H209.459V61.4799ZM181.634 56.9532V63.834H184.616V56.9532H189.502V75.616H184.616V67.9523H181.634V75.616H176.747V56.9532H181.634ZM151.431 65.6379C151.38 65.2805 151.3 64.9912 151.198 64.7643C151.004 64.3672 150.662 64.163 150.154 64.163C149.892 64.163 149.675 64.2311 149.493 64.3616C149.31 64.492 149.168 64.7246 149.065 65.065C148.962 65.4053 148.888 65.8534 148.843 66.4207C148.797 66.9823 148.78 67.7027 148.78 68.5706C148.78 69.4385 148.803 70.1533 148.843 70.7205C148.888 71.2821 148.962 71.7303 149.065 72.0593C149.168 72.3883 149.31 72.6209 149.493 72.7513C149.675 72.8818 149.898 72.9442 150.154 72.9442C150.587 72.9442 150.924 72.7797 151.158 72.4507C151.391 72.1217 151.505 71.509 151.505 70.6241V69.7108H155.77C155.77 70.8283 155.674 71.7756 155.48 72.5585C155.286 73.3413 154.966 73.988 154.51 74.4985C153.621 75.4458 152.167 75.9166 150.16 75.9166C149.248 75.9166 148.421 75.8372 147.668 75.6841C146.916 75.5252 146.277 75.1905 145.741 74.68C145.211 74.1638 144.794 73.4434 144.498 72.5131C144.201 71.5828 144.053 70.3461 144.053 68.8145C144.053 67.1411 144.219 65.8024 144.549 64.7927C144.88 63.783 145.33 63.0058 145.901 62.4669C146.471 61.928 147.138 61.5706 147.908 61.3948C148.677 61.2189 149.51 61.1339 150.399 61.1339C151.448 61.1339 152.315 61.2757 153.005 61.565C153.695 61.8543 154.248 62.257 154.659 62.7732C155.069 63.2894 155.36 63.9134 155.525 64.6338C155.691 65.3599 155.776 66.1654 155.776 67.0504H151.511C151.511 66.4774 151.483 66.0123 151.431 65.6549V65.6379ZM135.381 61.4799V63.1987C136.031 61.8032 137.177 61.1112 138.865 61.1112C139.389 61.1112 139.879 61.1679 140.324 61.2813C140.769 61.3948 141.162 61.599 141.493 61.894C141.824 62.189 142.092 62.5804 142.286 63.0682C142.48 63.5561 142.576 64.1857 142.576 64.9515V75.6103H137.855V66.2846C137.855 65.6946 137.77 65.2692 137.593 65.0026C137.416 64.7416 137.12 64.6112 136.698 64.6112C136.276 64.6112 135.979 64.7416 135.803 65.0026C135.626 65.2635 135.54 65.6889 135.54 66.2846V75.6103H130.819V61.4799H135.381ZM108.611 61.4799V63.1987C109.261 61.8032 110.407 61.1112 112.095 61.1112C112.619 61.1112 113.109 61.1679 113.554 61.2813C113.999 61.3948 114.392 61.599 114.723 61.894C115.054 62.189 115.322 62.5804 115.516 63.0682C115.71 63.5561 115.806 64.1857 115.806 64.9515V75.6103H111.085V66.2846C111.085 65.6946 111 65.2692 110.823 65.0026C110.646 64.7416 110.35 64.6112 109.928 64.6112C109.506 64.6112 109.209 64.7416 109.033 65.0026C108.856 65.2635 108.77 65.6889 108.77 66.2846V75.6103H104.049V61.4799H108.611ZM95.9642 56.9532V60.9069H89.7435V64.1176H95.5707V67.9466H89.7435V75.6103H84.857V56.9475H95.9642V56.9532ZM70.2205 61.4799V57.3219H74.9416V61.4799H76.8061V64.6509H74.9416V71.3842C74.9416 71.7813 75.0328 72.0649 75.2153 72.2351C75.3977 72.3996 75.6828 72.4847 76.0705 72.4847H76.8061V75.616C76.367 75.616 75.928 75.6273 75.4946 75.6557C75.0556 75.6841 74.6394 75.6954 74.2346 75.6954C73.5161 75.6954 72.906 75.6614 72.3986 75.6046C71.8911 75.5479 71.4749 75.3948 71.1499 75.1508C70.8249 74.9069 70.5911 74.5439 70.4428 74.0674C70.2946 73.5909 70.2205 72.9612 70.2205 72.1784V64.6622H68.6468V61.4912H70.2205V61.4799ZM33.8486 61.4799L35.0289 71.6395L36.4715 61.4799H41.5119L42.9031 71.6395L44.1347 61.4799H48.7018L45.8167 75.6103H40.4627L39.0202 65.6095L37.5263 75.6103H32.1723L29.2872 61.4799H33.8543H33.8486ZM21.3046 61.4799V70.8056C21.3046 71.3956 21.3902 71.8267 21.5669 72.0876C21.7437 72.3486 22.0402 72.479 22.4621 72.479C22.8841 72.479 23.1805 72.3486 23.3573 72.0876C23.5341 71.8267 23.6196 71.4012 23.6196 70.8056V61.4799H28.3407V75.6103H23.7849V73.8858C23.1463 75.2302 21.9946 75.8996 20.2954 75.8996C19.7709 75.8996 19.2805 75.8542 18.8358 75.7578C18.391 75.6614 17.9976 75.4685 17.6669 75.1849C17.3305 74.8956 17.0682 74.5042 16.8743 74.0106C16.6805 73.5171 16.5836 72.8931 16.5836 72.1444V61.4855H21.3046V61.4799ZM6.87337 56.9532V64.1176L10.5453 56.9532H15.7454L11.0186 65.1047L16.3213 75.6103H10.7563L7.89399 69.1038L6.86767 70.6695V75.6103H1.98692V56.9475H6.87337V56.9532ZM56.348 74.8559L56.2453 74.0163C55.9317 74.646 55.5155 75.1168 54.951 75.4288C54.3809 75.7408 53.7365 75.8996 53.001 75.8996C52.2655 75.8996 51.6839 75.8088 51.1821 75.6273C50.6861 75.4458 50.2813 75.1735 49.9677 74.8048C49.6541 74.4418 49.426 74.005 49.2891 73.5001C49.1466 72.9952 49.0782 72.4393 49.0782 71.8267C49.0782 71.163 49.1466 70.5901 49.272 70.1022C49.4032 69.6144 49.6141 69.1946 49.9106 68.8372C50.2071 68.4799 50.6063 68.1735 51.1137 67.9239C51.6212 67.6687 52.2484 67.4588 52.9953 67.2829L54.8541 66.8405C55.3616 66.7214 55.7151 66.5398 55.926 66.3073C56.137 66.069 56.2396 65.7343 56.2396 65.3032C56.2396 64.4353 55.8405 63.9985 55.0423 63.9985C54.5918 63.9985 54.2611 64.1233 54.0558 64.3729C53.8449 64.6225 53.7365 65.116 53.7194 65.8534H49.6198C49.6198 64.8324 49.8023 64.0099 50.1729 63.3915C50.5378 62.7789 50.994 62.2967 51.5356 61.962C52.0773 61.6217 52.6646 61.4005 53.2975 61.287C53.9247 61.1736 54.512 61.1168 55.0594 61.1168C55.8804 61.1168 56.6388 61.1849 57.3287 61.3154C58.0186 61.4458 58.6173 61.6784 59.1134 62.0188C59.6151 62.3591 59.9971 62.8186 60.2708 63.4029C60.5445 63.9872 60.6756 64.7416 60.6756 65.6606V72.5585C60.6756 73.2222 60.7042 73.8064 60.7555 74.3113C60.8068 74.8161 60.9322 75.2529 61.1204 75.616H56.5361C56.4449 75.3721 56.3879 75.1225 56.3537 74.8559H56.348ZM55.9032 72.2351C56.1313 71.8551 56.2396 71.2708 56.2396 70.488V68.7919C56.0458 68.9847 55.8348 69.0982 55.5497 69.1436C55.2646 69.1889 54.9453 69.2854 54.5975 69.4442C54.2326 69.62 53.9817 69.847 53.8392 70.1363C53.7023 70.4199 53.6282 70.8 53.6282 71.2708C53.6282 71.7416 53.7308 72.116 53.9418 72.394C54.1528 72.6719 54.4265 72.8137 54.7743 72.8137C55.2931 72.8137 55.6695 72.6209 55.8975 72.2408L55.9032 72.2351Z" fill="#00934C"/>
<path d="M265.559 0.22168H341.205C346.605 0.22168 350.984 4.5839 350.984 9.95018V85.2085C350.984 90.5804 346.599 94.9427 341.199 94.9427H265.553C260.154 94.9427 255.769 90.5804 255.769 85.2085V9.95585C255.769 4.5839 260.154 0.22168 265.553 0.22168H265.559Z" fill="#00934C"/>
<path fill-rule="evenodd" clip-rule="evenodd" d="M318.016 35.4374C318.016 35.4374 317.28 35.5338 317.28 36.1578C317.28 36.7818 317.976 36.9633 317.976 36.9633C317.976 36.9633 317.571 36.6229 317.645 36.1237C317.719 35.6189 318.01 35.4374 318.01 35.4374H318.016ZM316.841 40.3044V38.6651C316.841 38.6651 316.921 37.7631 317.827 37.7631C318.734 37.7631 318.654 38.58 318.654 38.58V40.2988H316.841V40.3044ZM316.014 48.5808H319.31V50.4641H316.014V48.5808ZM316.014 40.798H319.31V42.6813H316.014V40.798ZM316.676 43.396H318.654V48.0872H316.676V43.396ZM316.676 51.2072H318.654V61.9454H316.676V51.2072ZM293.156 60.981H296.788V58.9786H300.443V59.6763H297.917V61.0208H300.334V61.8263H293.161V60.9867L293.156 60.981ZM312.827 57.8952C312.827 57.8952 312.091 57.9916 312.091 58.6156C312.091 59.2396 312.787 59.4211 312.787 59.4211C312.787 59.4211 312.382 59.0807 312.456 58.5815C312.53 58.0823 312.827 57.8952 312.827 57.8952ZM308.573 61.9681C308.573 61.9681 310.004 60.1131 312.165 60.1131C314.326 60.1131 315.969 61.8943 315.969 61.8943L308.573 61.9681ZM309.332 42.9706C310.147 42.9706 311.151 42.3352 311.196 40.8433C311.23 39.6578 309.691 38.3587 309.469 37.678C309.24 36.9973 309.195 36.6343 309.195 36.6343C309.195 36.6343 308.75 37.2866 308.562 37.9503C308.379 38.58 306.88 39.7542 307.148 41.161C307.342 42.1594 308.06 42.9706 309.332 42.9706ZM308.197 43.4697H310.381L311.333 53.8279H307.193L308.197 43.4697ZM297.398 50.7534H299.992V53.255H297.398V50.7534ZM293.275 50.7534H295.87V53.255H293.275V50.7534ZM293.275 42.5565H295.87V45.0581H293.275V42.5565ZM299.764 45.1602C299.764 45.1602 299.924 44.7404 300.528 44.7404C301.132 44.7404 301.189 44.9957 301.566 44.9673C301.942 44.9389 302.256 44.7404 302.256 44.7404C302.256 44.7404 301.908 45.2736 301.452 45.302C300.99 45.3304 300.648 45.0297 300.329 45.0581C300.009 45.0864 299.764 45.1602 299.764 45.1602ZM299.331 44.6326C299.331 44.6326 299.49 43.9179 300.209 43.9179C300.927 43.9179 301.041 44.2072 301.646 44.0881C302.25 43.9746 302.643 43.8044 302.643 43.8044C302.643 43.8044 302.221 44.4341 301.532 44.5192C300.842 44.6043 300.631 44.1731 300.066 44.2923C299.502 44.4057 299.331 44.6383 299.331 44.6383V44.6326ZM299.331 41.4049C299.331 41.4049 299.314 40.7015 299.593 39.7826C299.867 38.8636 300.5 38.2907 300.5 38.2907C300.5 38.2907 300.471 38.8352 300.557 39.1813C300.642 39.5273 301.018 39.9981 301.018 39.9981C301.018 39.9981 301.218 39.3231 301.509 38.9203C301.794 38.5176 302.113 38.2339 302.113 38.2339C302.113 38.2339 301.851 39.567 301.971 40.1399C302.085 40.7129 302.313 41.4276 302.313 41.4276L299.331 41.3992V41.4049ZM297.592 42.8968H302.552C302.552 42.8968 302.427 43.4868 301.851 43.5435C301.275 43.6002 300.773 43.0273 299.895 43.3733C299.017 43.7193 298.783 44.3206 298.783 44.3206C298.783 44.3206 298.207 43.8328 297.979 43.5492C297.751 43.2655 297.592 42.9025 297.592 42.9025V42.8968ZM290.538 35.2445H291.2V36.4981H294.159V35.2218H294.855V37.8652H294.142V37.1164H291.166V37.8652H290.544V35.2445H290.538ZM289.204 37.8425V33.1173C289.204 33.1173 289.375 32.6181 289.82 32.6181H294.872V33.3725H289.917V34.2915H294.872V35.0403H289.917V37.8425H289.204ZM287.26 31.4665H288.144L288.104 32.2096C288.104 32.2096 288.497 31.4325 288.788 31.4268H294.843V32.0622H288.976C288.976 32.0622 288.275 33.52 288.218 35.1707C288.144 37.5305 288.822 38.285 288.822 38.285H294.917L294.878 39.0394H288.742C288.742 39.0394 288.44 38.9657 288.212 38.3644V38.926H287.249V31.4722L287.26 31.4665ZM303.904 31.6991V46.4535H287.26V40.8774H297.968V31.6991H303.904ZM312.473 31.6991V54.9794H287.26V49.0799H306.372V31.7048H312.468L312.473 31.6991ZM314.617 31.6991H320.878V63.1763H287.26V57.6002H314.612V31.6991H314.617ZM300.22 78.3222L295.22 73.4721H326.585C326.585 73.4721 329.225 73.1998 329.63 71.2541C330.041 69.3084 329.63 68.4972 329.63 68.4972L334.631 63.9308V73.1998C334.631 73.1998 333.131 78.3222 327.811 78.3222H300.214H300.22ZM323.404 71.0102L316.419 71.0953L338.599 49.0289C338.599 49.0289 340.27 46.9811 339.181 45.319C338.086 43.6569 337.219 43.3676 337.219 43.3676L337.51 36.6229L344.096 43.1748C344.096 43.1748 346.673 47.8547 342.915 51.5929L323.404 71.0045V71.0102ZM326.933 27.717L327.019 34.6659L304.839 12.5995C304.839 12.5995 302.78 10.9374 301.11 12.0209C299.439 13.1043 299.148 13.9723 299.148 13.9723L292.369 13.683L298.954 7.1311C298.954 7.1311 303.658 4.56142 307.416 8.30533L326.927 27.717H326.933ZM334.728 50.4754L329.852 55.4503V24.2453C329.852 24.2453 329.579 21.6246 327.623 21.2162C325.667 20.8077 324.846 21.2162 324.846 21.2162L320.256 16.2413H329.573C329.573 16.2413 334.722 17.7332 334.722 23.0257V50.4811L334.728 50.4754ZM279.568 67.4478L279.483 60.4989L301.663 82.5653C301.663 82.5653 303.721 84.2273 305.392 83.1439C307.062 82.0604 307.353 81.1925 307.353 81.1925L314.133 81.4818L307.547 88.0337C307.547 88.0337 302.843 90.5977 299.086 86.8594L279.574 67.4478H279.568ZM271.774 44.0313L276.655 39.0565V70.2614C276.655 70.2614 276.928 72.8821 278.878 73.2906C280.834 73.699 281.649 73.2906 281.649 73.2906L286.239 78.2654H276.923C276.923 78.2654 271.774 76.7679 271.774 71.481V44.0313ZM283.366 22.9576L290.35 22.8726L268.17 44.9389C268.17 44.9389 266.5 46.9868 267.589 48.6488C268.678 50.3109 269.55 50.6002 269.55 50.6002L269.259 57.3449L262.674 50.7931C262.674 50.7931 260.091 46.1132 263.848 42.3749L283.36 22.9633L283.366 22.9576ZM306.241 16.1846L311.242 21.0403H279.876C279.876 21.0403 277.242 21.3126 276.831 23.2526C276.421 25.1983 276.831 26.0095 276.831 26.0095L271.831 30.5759V21.3069C271.831 21.3069 273.33 16.1789 278.65 16.1789H306.241V16.1846Z" fill="white"/>
</svg>
