<svg width="351" height="70" viewBox="0 0 351 70" fill="none" xmlns="http://www.w3.org/2000/svg">
<path d="M94.0898 27.791C93.8129 28.0649 93.8129 28.4302 93.8129 28.7041C93.2593 33.544 92.7056 38.2926 92.0597 43.1324C91.5983 47.0591 91.137 50.9858 90.6756 54.9125C90.5833 55.3691 90.491 55.5517 90.0297 55.5517C86.8001 55.5517 83.4782 55.5517 80.2485 55.5517C80.1563 55.5517 80.1563 55.4604 80.064 55.4604C79.9717 54.6385 80.2485 53.908 80.3408 53.1774C81.1713 47.5157 82.0018 41.9453 82.74 36.2836C83.5704 30.8045 84.3086 25.3254 85.1391 19.9376C85.3237 18.3852 85.6005 16.8328 85.785 15.2804C85.8773 14.8238 86.0618 14.6411 86.5232 14.6411C90.491 14.6411 94.4589 14.6411 98.4267 14.6411C99.0726 14.6411 99.1649 15.0064 99.3494 15.3717C100.734 19.2984 102.025 23.3164 103.41 27.2431C104.794 31.3524 106.178 35.4617 107.654 39.571C108.023 39.4797 108.023 39.1144 108.116 38.9318C110.699 31.2611 113.375 23.6816 115.959 16.0109C116.513 14.3672 116.051 14.6411 117.804 14.6411C121.403 14.6411 125.002 14.6411 128.508 14.6411C129.616 14.6411 129.431 14.5498 129.616 15.6456C130.169 19.1157 130.631 22.4945 131.092 25.9646C131.646 29.9826 132.292 34.0919 132.845 38.1099C133.399 42.2192 134.045 46.2372 134.598 50.3466C134.875 52.0816 135.06 53.8166 135.337 55.4604C134.968 55.7343 134.691 55.643 134.414 55.643C131.461 55.643 128.601 55.643 125.648 55.643C124.725 55.643 124.725 55.643 124.54 54.7298C124.171 51.7163 123.802 48.6115 123.433 45.598C122.972 41.854 122.51 38.1099 122.049 34.3659C121.772 32.3569 121.588 30.3479 121.311 28.3389C121.311 28.2476 121.311 28.0649 121.219 27.8823C120.849 28.1562 120.849 28.5215 120.665 28.7955C117.62 37.2881 114.575 45.872 111.53 54.3646C110.976 55.8256 111.345 55.5517 109.777 55.5517C108.116 55.5517 106.547 55.5517 104.886 55.5517C103.963 55.5517 103.963 55.5517 103.686 54.7298C101.564 48.7028 99.4417 42.7671 97.2271 36.7401C96.3044 34.0006 95.2893 31.3524 94.3666 28.6128C94.3666 28.3389 94.2743 28.0649 94.0898 27.791Z" fill="#020100"/>
<path d="M220.322 25.5086C221.613 25.1433 222.813 24.8693 224.105 24.778C227.796 24.4127 231.302 24.778 234.716 26.4217C238.592 28.3394 241.083 31.3529 241.914 35.5536C242.652 39.2063 242.467 42.859 241.176 46.4204C239.422 51.0776 235.916 53.8172 231.21 55.0956C227.427 56.1915 223.643 56.2828 219.768 56.0088C216.815 55.8262 213.862 55.3696 210.909 54.5477C209.156 54.0911 209.156 54.0911 209.156 52.3561C209.156 39.0236 209.156 25.7825 209.156 12.4501C209.156 11.1716 209.156 11.1716 210.54 11.1716C213.493 11.1716 216.446 11.1716 219.399 11.1716C220.414 11.1716 220.322 11.0803 220.322 12.0848C220.322 16.1941 220.322 20.3034 220.322 24.3214C220.322 24.6867 220.322 25.052 220.322 25.5086ZM220.322 40.3934C220.322 42.859 220.322 45.3246 220.322 47.8815C220.322 48.4294 220.506 48.7034 221.06 48.7947C222.075 48.886 222.997 49.0686 224.012 48.9773C227.427 48.7034 229.549 47.0596 230.472 43.7722C231.21 41.3066 231.21 38.7497 230.379 36.1928C229.549 33.7272 227.888 32.1748 225.212 31.7182C223.828 31.4442 222.444 31.7182 221.06 31.9921C220.506 32.0835 220.322 32.3574 220.322 32.9966C220.414 35.4622 220.322 37.9278 220.322 40.3934Z" fill="#020100"/>
<path d="M327.269 38.0183C328.099 36.9225 328.838 36.0093 329.668 35.0048C332.067 31.9 334.466 28.7952 336.865 25.6904C337.142 25.3251 337.419 25.0512 338.065 25.0512C341.848 25.0512 345.724 25.0512 349.507 25.0512C349.599 25.0512 349.784 25.0512 349.968 25.2338C349.784 25.4164 349.599 25.6904 349.415 25.9643C346.093 30.0737 342.679 34.2743 339.357 38.3836C338.526 39.3881 338.711 39.1142 339.357 40.0273C343.048 44.8672 346.739 49.7071 350.43 54.5469C350.614 54.8209 350.891 55.0035 350.983 55.4601C350.707 55.4601 350.338 55.4601 350.061 55.4601C346.554 55.4601 343.14 55.4601 339.634 55.4601C338.803 55.4601 338.434 55.1862 337.973 54.5469C334.743 50.1637 331.513 45.8717 328.376 41.4884C328.099 41.1232 327.73 40.6666 327.453 40.21C327.177 40.5752 327.269 40.9405 327.269 41.2145C327.269 45.4151 327.269 49.7071 327.269 53.9077C327.269 54.0903 327.269 54.273 327.269 54.5469C327.269 55.2775 327.269 55.3688 326.438 55.3688C323.301 55.3688 320.071 55.3688 316.934 55.3688C316.196 55.3688 316.196 55.3688 316.196 54.6382C316.196 54.4556 316.196 54.273 316.196 54.0903C316.196 40.1187 316.196 26.147 316.196 12.1753C316.196 10.7142 316.011 10.9882 317.488 10.9882C320.44 10.9882 323.393 10.9882 326.346 10.9882C327.361 10.9882 327.269 10.8968 327.269 11.9013C327.269 20.12 327.269 28.4299 327.269 36.6486C327.084 37.1965 326.992 37.5617 327.269 38.0183Z" fill="#020100"/>
<path d="M176.307 67.6054C176.214 67.2402 176.491 66.8749 176.583 66.6009C178.152 63.2222 179.629 59.8434 181.197 56.4646C181.474 55.8254 181.566 55.2775 181.197 54.5469C176.86 45.0498 172.523 35.5527 168.186 26.0557C168.094 25.7817 167.817 25.5077 167.817 25.1425C168.094 24.9598 168.463 25.0511 168.74 25.0511C172.154 25.0511 175.568 25.0511 178.983 25.0511C179.998 25.0511 179.998 25.0511 180.274 25.9643C182.489 32.4479 184.704 38.8402 186.918 45.3238C187.011 45.6891 187.103 46.1457 187.472 46.5109C188.118 44.5932 188.764 42.7669 189.41 40.8492C191.071 35.918 192.824 30.8955 194.485 25.9643C194.762 25.1425 194.762 25.1425 195.592 25.1425C199.099 25.1425 202.697 25.1425 206.204 25.1425C206.388 25.1425 206.573 25.1425 206.85 25.1425C207.034 25.5077 206.757 25.6904 206.665 25.873C200.483 39.4794 194.393 53.1772 188.21 66.7836C187.933 67.4228 187.656 67.6967 186.826 67.6967C183.596 67.6054 180.274 67.6967 177.045 67.6967C176.86 67.6967 176.583 67.6967 176.307 67.6054Z" fill="#020100"/>
<path d="M279.655 41.0322C279.655 36.5576 279.655 31.9917 279.655 27.5171C279.655 26.5126 279.655 26.5126 280.67 26.2387C286.668 24.4123 292.758 23.7731 298.94 24.321C301.155 24.5036 303.277 24.8689 305.399 25.6908C306.322 26.0561 307.245 26.5126 308.075 27.1519C310.105 28.7043 311.305 30.7133 311.582 33.2702C311.766 35.6445 311.674 38.1101 311.674 40.4843C311.674 45.0502 311.674 49.5248 311.674 54.0907C311.674 54.3647 311.674 54.5473 311.674 54.8213C311.766 55.2779 311.49 55.4605 311.028 55.4605C309.367 55.4605 307.799 55.4605 306.138 55.4605C304.477 55.4605 302.816 55.4605 301.155 55.4605C300.324 55.4605 300.324 55.4605 300.324 54.6386C300.324 51.4425 300.324 48.2464 300.324 45.0502C300.324 41.9454 300.324 38.9319 300.324 35.8271C300.324 33.2702 299.032 31.9004 296.449 31.5351C294.972 31.3525 293.496 31.4438 292.02 31.8091C290.82 32.0831 290.82 32.0831 290.82 33.2702C290.82 39.0232 290.82 44.8676 290.82 50.6207C290.82 51.8991 290.82 53.1776 290.82 54.3647C290.82 55.2779 290.82 55.3692 289.897 55.3692C286.76 55.3692 283.715 55.3692 280.577 55.3692C279.47 55.3692 279.562 55.4605 279.562 54.3647C279.655 50.0727 279.655 45.5068 279.655 41.0322Z" fill="#020100"/>
<path d="M168.371 44.1369C168.371 47.0591 168.371 49.9812 168.371 52.9034C168.371 54.0906 168.371 54.0906 167.264 54.4558C165.234 55.0951 163.111 55.4603 160.989 55.7343C157.944 56.0996 154.899 56.2822 151.854 56.0996C148.716 55.9169 145.579 55.5517 142.626 54.2732C141.15 53.634 139.95 52.8121 138.843 51.7163C136.167 48.8854 135.521 42.4018 140.596 39.2057C142.257 38.2012 144.01 37.562 145.856 37.1054C148.532 36.3748 151.3 36.0096 154.068 35.8269C155.176 35.7356 156.191 35.6443 157.298 35.6443C157.667 35.6443 157.852 35.553 157.852 35.0964C158.036 33.0874 157.113 31.8089 155.176 31.1697C153.976 30.8044 152.776 30.8044 151.485 30.8044C148.439 30.8957 145.394 31.535 142.442 32.3568C141.519 32.6308 141.519 32.6308 141.15 31.8089C140.504 30.2565 139.766 28.7041 139.12 27.1517C138.843 26.4211 138.843 26.4211 139.489 26.2385C142.257 25.4166 145.118 24.7774 147.978 24.4121C150.839 24.0469 153.699 23.9556 156.56 24.1382C158.59 24.3208 160.62 24.6861 162.465 25.4166C165.972 26.8777 167.909 29.6173 168.371 33.27C168.555 35.0051 168.463 36.6488 168.555 38.3838C168.371 40.3928 168.371 42.2192 168.371 44.1369ZM157.759 45.5066C157.759 44.4108 157.759 43.315 157.759 42.2192C157.759 41.4887 157.759 41.4887 157.021 41.4887C155.545 41.58 153.976 41.6713 152.5 41.8539C151.208 42.0366 150.008 42.3105 148.901 42.9497C146.594 44.3195 146.594 47.2417 148.901 48.6115C149.455 48.9767 150.1 49.1594 150.839 49.342C152.961 49.7986 155.083 49.7073 157.206 49.342C157.667 49.2507 157.944 49.0681 157.852 48.5201C157.759 47.607 157.759 46.5111 157.759 45.5066Z" fill="#020100"/>
<path d="M245.79 26.6046C246.712 26.148 247.635 25.9653 248.558 25.6914C253.541 24.3216 258.616 23.865 263.783 24.3216C265.444 24.5042 267.013 24.7782 268.582 25.3261C272.734 26.7872 274.856 29.7094 275.225 34.0013C275.318 34.6406 275.318 35.2798 275.318 35.919C275.318 41.5808 275.318 47.3338 275.318 52.9955C275.318 54 275.502 53.9087 274.303 54.3653C271.627 55.2785 268.858 55.6438 265.998 55.9177C262.86 56.1917 259.631 56.283 256.494 55.9177C254.094 55.6438 251.695 55.2785 249.388 54.274C248.835 54 248.189 53.7261 247.635 53.3608C243.298 50.7126 243.021 45.964 244.129 43.0418C244.775 41.3068 246.066 40.1197 247.635 39.1152C249.757 37.8367 252.064 37.1975 254.463 36.6496C257.509 36.0103 260.554 35.7364 263.691 35.6451C264.614 35.6451 264.614 35.6451 264.614 34.7319C264.614 32.8142 263.876 31.8097 262.03 31.2618C260.83 30.8965 259.539 30.8052 258.247 30.8965C255.109 30.9878 252.064 31.6271 249.112 32.4489C248.281 32.7229 248.281 32.7229 247.912 31.901C247.358 30.166 246.528 28.4309 245.79 26.6046ZM264.798 45.4161C264.798 44.3203 264.798 43.3158 264.798 42.22C264.798 41.4894 264.798 41.3981 263.968 41.4894C262.491 41.5808 261.107 41.6721 259.631 41.8547C258.339 42.0373 257.047 42.3113 255.848 43.0418C253.633 44.3203 253.633 47.5164 255.848 48.7036C256.494 49.0688 257.047 49.3428 257.785 49.4341C259.908 49.8907 262.122 49.7994 264.245 49.4341C264.706 49.3428 264.891 49.1602 264.891 48.7036C264.798 47.6078 264.798 46.5119 264.798 45.4161Z" fill="#020100"/>
<path d="M35.2178 69.0667C53.7651 69.158 69.4518 54.3644 69.5441 35.1876C69.6363 16.0108 54.1342 1.0346 35.4946 0.943282C16.5783 0.851963 1.07609 16.0108 0.983813 34.9136C0.891538 53.8165 16.2092 69.0667 35.2178 69.0667Z" fill="#FECF01"/>
<path d="M35.2178 69.0667C16.2092 69.0667 0.891538 53.8165 0.983813 34.9136C1.07609 16.0108 16.5783 0.851963 35.4946 0.943282C54.0419 1.0346 69.6363 16.0108 69.5441 35.1876C69.4518 54.3644 53.7651 69.158 35.2178 69.0667ZM3.75206 35.005C3.75206 52.0815 17.501 66.4184 35.3101 66.3271C53.3037 66.3271 66.7758 51.7162 66.7758 35.005C66.7758 18.4764 53.396 3.68283 35.3101 3.68283C17.5933 3.68283 3.75206 17.9285 3.75206 35.005Z" fill="#020100"/>
<path d="M3.75244 35.0052C3.75244 17.9287 17.5937 3.68311 35.3105 3.68311C53.4886 3.68311 66.8685 18.4767 66.7762 35.0966C66.7762 51.8078 53.3041 66.3274 35.3105 66.4187C17.5014 66.4187 3.75244 52.0817 3.75244 35.0052ZM10.4885 30.622C10.3962 30.622 10.304 30.7133 10.304 30.8046H10.3962C10.4885 30.8046 10.5808 30.7133 10.4885 30.622C10.6731 30.7133 10.6731 30.5307 10.7653 30.4393C11.1344 30.2567 11.2267 29.9827 11.5035 29.7088C13.995 27.1519 16.6709 24.7776 19.9005 23.2252C20.2696 23.0426 20.4542 22.7686 20.5465 22.4033C21.1924 20.1204 22.6688 18.568 24.6988 17.4722C26.6366 16.4677 28.7589 15.5545 30.789 14.6413C31.8963 14.1847 33.0036 13.8194 34.1109 13.5455C34.48 13.4542 34.8491 13.3628 35.2182 13.5455C35.1259 14.0021 35.0336 14.3673 34.8491 14.8239C35.8641 14.7326 36.51 14.1847 36.6946 13.2715C36.9714 12.267 37.1559 11.1712 37.525 10.258C37.7096 9.71011 37.9864 9.07088 38.4478 8.70561C38.9092 8.24902 39.2783 8.24902 39.8319 8.52297C40.201 8.79692 40.4778 9.07088 40.8469 9.43615C43.2461 12.1757 44.3534 15.4632 44.7225 18.9332C44.907 20.303 44.8148 20.303 43.5229 20.4857C44.2611 21.9467 46.0143 23.2252 47.583 23.4078C48.7826 23.4992 49.4285 22.8599 49.3362 21.7641C49.3362 21.4902 49.1517 21.2162 49.3362 20.9422C50.3513 21.5815 51.3663 22.312 52.289 23.0426C53.2118 23.8644 54.0423 24.7776 54.6882 25.8734C55.3341 26.8779 55.5186 28.0651 55.98 29.1609C56.8105 25.0516 56.2568 21.3988 53.0272 18.294C54.4114 18.294 55.6109 18.8419 56.9028 19.3898C56.3491 18.6593 55.7955 18.1114 55.2418 17.5635C53.3041 15.8284 50.9972 14.6413 48.6903 13.6368C48.3212 13.4542 47.9521 13.3628 47.6753 12.9976C45.9221 10.6233 43.6152 8.88824 41.3083 7.06188C40.8469 6.69661 40.3856 6.42265 39.8319 6.24002C38.6323 5.87474 37.8019 6.1487 37.2482 7.24452C36.9714 7.70111 36.7868 8.24902 36.6023 8.70561C36.2332 9.52747 35.9564 10.4407 35.7718 11.3538C35.6796 11.7191 35.495 11.9017 35.1259 11.9931C34.6645 12.0844 34.3877 11.9017 34.1109 11.5365C33.465 10.8059 32.7268 10.1667 31.7117 9.80142C31.1581 9.61879 30.9735 9.61879 30.8813 10.1667C30.789 10.8059 30.6967 11.4452 30.6044 12.0844C30.6044 12.8149 30.3276 13.2715 29.4971 13.5455C27.1903 14.3673 24.8834 15.3718 22.7611 16.6503C20.9156 17.7461 19.4392 19.1159 18.8855 21.2162C18.7932 21.6728 18.4241 22.0381 17.9628 22.312C16.7632 23.0426 15.6559 23.8644 14.6409 24.8689C12.9799 26.4213 11.5035 28.1564 10.5808 30.348C10.4885 30.4393 10.3962 30.5307 10.4885 30.622ZM16.4864 33.0876C17.4091 31.9917 18.4241 30.9872 19.9005 30.5307C18.4241 29.8001 16.5786 31.3525 16.4864 33.0876H16.3941C16.3941 33.1789 16.3941 33.1789 16.4864 33.0876ZM24.8834 19.7551C25.0679 19.9377 25.2525 19.7551 25.437 19.6638C26.1752 19.2072 27.0057 18.9332 27.8362 18.7506C28.5744 18.568 29.4049 18.3853 30.1431 18.1114C30.6967 17.9287 31.2504 17.6548 31.7117 17.1982C31.8963 17.0156 32.0808 16.8329 31.8963 16.559C31.6195 16.0111 31.0658 15.9197 30.5122 15.7371C30.1431 15.6458 29.9585 15.8284 29.774 16.1024C29.4049 16.6503 28.8512 16.9242 28.2976 17.1982C27.6516 17.5635 27.0057 17.8374 26.3598 18.2027C25.8061 18.6593 25.2525 19.1159 24.8834 19.7551V19.8464C24.8834 19.7551 24.8834 19.7551 24.8834 19.7551ZM29.8662 23.2252C29.9585 23.3165 29.9585 23.3165 30.0508 23.3165C29.2203 26.0561 27.4671 27.7911 24.3297 28.2477C25.9907 29.1609 27.5594 29.3435 29.128 28.7043C29.4971 28.5217 29.774 28.2477 29.8662 27.8824C30.4199 25.9647 31.5272 24.5037 32.7268 22.9512C33.5572 21.9467 33.465 21.7641 32.1731 21.4902C32.1731 21.4902 32.0808 21.3988 31.9886 21.3075C32.5422 20.7596 33.1881 20.4857 33.8341 20.1204C34.7568 19.6638 35.6796 19.2985 36.4178 18.6593C37.3405 18.0201 37.3405 17.1982 36.4178 16.559C35.6796 16.0111 34.7568 15.6458 33.8341 15.8284C33.8341 15.7371 33.8341 15.7371 33.7418 15.7371C33.6495 15.7371 33.6495 15.7371 33.6495 15.8284C33.6495 15.8284 33.7418 15.8284 33.8341 15.9197C33.8341 16.0111 33.9263 16.0111 33.9263 16.1024C34.6645 16.8329 34.6645 17.0156 33.8341 17.6548C33.3727 18.0201 32.9113 18.294 32.4499 18.568C31.804 19.0246 31.1581 19.4812 30.9735 20.2117C30.789 21.0336 30.2353 21.2162 29.5894 21.2162C29.2203 21.2162 28.7589 21.2162 28.3898 21.1249C27.4671 20.9422 26.7289 20.9422 25.9907 21.5815C25.437 21.9467 24.9757 21.7641 24.6066 21.2162C24.5143 21.1249 24.6066 20.8509 24.422 20.8509C24.0529 21.1249 23.9606 21.3988 23.9606 21.8554C23.8684 22.7686 24.6988 23.0426 25.1602 23.5905C23.6838 25.4168 23.5915 25.8734 24.6066 26.7866C24.9757 26.6953 24.9757 26.33 25.1602 26.0561C25.437 25.6908 25.7139 25.2342 26.083 24.9602C26.2675 24.7776 26.4521 24.595 26.7289 24.6863C27.6516 24.9602 28.2976 24.5037 29.0358 23.9557C29.2203 23.7731 29.4971 23.4078 29.8662 23.2252ZM40.201 20.7596L40.1087 20.6683V20.7596C40.1087 20.8509 40.201 20.8509 40.201 20.7596C40.0165 21.0336 40.2933 21.2162 40.3856 21.4902C40.9392 22.9512 41.216 24.5037 40.9392 26.0561C40.7547 27.3345 40.3856 28.613 39.9242 29.8001C39.3705 31.1699 38.8169 32.5397 38.3555 33.9094C37.9864 35.1879 37.9864 36.4663 38.5401 37.6535C38.9092 38.5667 39.5551 39.4798 40.1087 40.3017C41.1238 41.7628 42.2311 43.2239 42.2311 45.4155C43.1538 44.0457 43.7075 42.8586 43.892 41.4888C43.9843 40.0277 43.6152 38.658 42.9693 37.3795C42.5079 36.4663 42.0465 35.6445 41.6774 34.7313C41.4006 34.0921 41.3083 33.3615 41.7697 32.7223C44.2611 34.7313 44.2611 34.7313 44.9993 34.64C43.9843 32.8136 43.7997 32.1744 43.7997 30.0741C43.7997 29.0696 43.892 28.0651 43.7997 26.9692C43.7075 24.321 42.3233 22.312 40.201 20.7596ZM34.6645 41.4888C36.6946 37.8361 36.8791 34.2747 34.7568 30.622C34.5723 30.348 34.48 30.1654 34.5723 29.8914C34.9414 28.2477 35.3105 26.604 36.0486 25.1429C36.6946 23.9557 37.525 22.8599 38.9092 22.4947C38.9092 22.4947 38.9092 22.4033 39.0014 22.312C38.171 21.9467 37.6173 21.7641 36.8791 21.6728C35.5873 21.5815 34.7568 22.0381 34.2032 23.2252C33.8341 23.9557 33.7418 24.6863 33.7418 25.5082C33.6495 26.5127 33.6495 27.5172 33.5572 28.4303C33.5572 28.7043 33.5572 28.9782 33.2804 29.1609C31.3426 28.613 30.5122 28.8869 29.3126 30.5307C29.128 30.8046 28.9435 31.0786 28.6667 31.3525C27.7439 32.5397 25.1602 32.5397 24.422 30.8959C24.2375 30.5307 24.0529 30.0741 23.8684 29.7088C23.2224 28.1564 21.4692 28.1564 20.3619 29.1609C20.5465 29.1609 20.731 29.1609 20.9156 29.1609C22.0229 29.3435 22.2997 29.6175 22.392 30.7133C22.392 31.0786 22.392 31.5352 22.4842 31.9004C22.6688 34.0007 24.3297 35.2792 26.3598 34.7313C28.2976 34.1834 29.6817 34.8226 30.9735 36.1924C31.2504 36.4663 31.5272 36.8316 31.804 37.1056C32.2654 35.8271 31.8963 34.5487 30.6967 33.6355C30.4199 33.4528 30.1431 33.2702 29.9585 33.1789C29.774 33.0876 29.774 32.9049 29.8662 32.7223C30.4199 31.7178 31.6195 31.5352 32.4499 32.2657C33.0036 32.8136 33.3727 33.4528 33.6495 34.1834C34.48 36.1011 34.7568 38.2014 34.6645 40.3017C34.6645 40.7583 34.5723 41.1236 34.6645 41.4888ZM48.9671 55.5518L48.8749 55.4605C50.3513 51.7165 50.8126 47.8811 50.5358 43.8631C51.274 44.1371 51.5508 44.7763 52.1045 45.2329C53.2118 41.0322 52.8427 37.1056 51.3663 33.0876C52.3813 33.1789 53.0272 33.8181 53.8577 34.0007C53.8577 31.7178 53.3963 29.6175 51.8277 27.8824C50.7204 26.6953 49.244 25.9647 47.9521 24.8689C48.1367 25.8734 48.5058 26.604 48.9671 27.3345C49.5208 28.1564 50.0744 28.9782 50.4435 29.8914C50.5358 30.2567 50.7204 30.5307 50.7204 30.9872C49.5208 30.622 48.5058 30.1654 47.2139 30.348C49.5208 33.6355 50.9049 37.1969 50.4435 41.3975C49.7976 41.0322 49.3362 40.667 48.7826 40.393C48.2289 40.1191 47.583 39.8451 46.9371 39.9364C46.9371 40.0277 46.9371 40.0277 46.9371 40.1191C47.0294 40.3017 47.1216 40.5757 47.2139 40.7583C48.3212 43.5892 48.5058 46.42 47.7676 49.3422C47.6753 49.8901 47.4907 50.438 47.0294 50.8946C46.7525 49.8901 46.7525 48.8856 46.0143 47.9724C45.6452 48.7943 45.3684 49.6162 44.907 50.3467C44.4457 50.9859 43.892 51.6252 43.1538 52.0817C42.1388 52.8123 41.5851 52.9949 40.8469 52.9036C41.216 52.3557 41.5851 51.8078 41.7697 51.1686C42.5079 48.7943 41.4929 46.42 39.2783 45.5068C37.4328 44.7763 35.7718 45.1416 34.2954 46.42C33.3727 47.1506 32.7268 48.0637 32.1731 49.1596C31.5272 50.3467 31.0658 51.6252 30.789 52.9949C30.4199 53.7255 30.1431 53.9081 29.5894 53.9081C28.2976 53.9994 27.0057 53.7255 25.8984 53.1776C24.2375 52.3557 23.9606 51.0772 24.9757 49.5248C25.2525 49.0682 25.6216 48.703 26.2675 48.7943C26.5443 48.8856 26.9134 48.7943 27.1903 48.703C29.5894 47.9724 31.6195 46.694 33.0959 44.5937C33.6495 43.8631 33.8341 42.9499 33.5572 42.0367C33.2804 40.9409 32.819 40.0277 31.9886 39.2059C30.0508 37.2882 26.7289 36.649 24.2375 37.7448C23.3147 38.1101 22.4842 38.658 21.6538 39.2972C20.6387 40.0277 19.6237 40.9409 18.5164 41.5802C18.2396 41.7628 17.9628 42.0367 17.5937 41.9454C16.3941 41.8541 15.3791 41.5802 14.5486 40.667C12.9799 38.7493 12.8877 37.5622 14.0872 35.4618C14.1795 35.2792 14.2718 35.0966 14.3641 34.9139C14.6409 34.4573 14.8254 33.9094 15.01 33.4528C15.1023 32.9962 15.01 32.7223 14.4563 32.7223C14.1795 32.7223 13.9027 32.5397 13.6259 32.357C12.5186 31.7178 11.5035 31.9004 10.3962 32.5397C10.1194 32.7223 9.93486 32.9962 9.47348 32.9962C9.28893 32.631 9.56576 32.2657 9.47348 31.8091C9.01211 32.2657 8.73529 32.8136 8.45846 33.2702C8.18164 33.9094 8.18164 34.4573 8.64301 35.0052C9.19666 35.8271 9.93486 36.649 10.7653 37.1969C11.2267 37.4708 11.4113 37.8361 11.5958 38.2927C12.0572 39.4798 12.6108 40.667 13.4413 41.6715C14.2718 42.7673 15.3791 43.4065 16.7632 43.5892C17.2246 43.6805 17.5014 43.7718 17.7782 44.1371C18.3319 44.8676 19.0701 45.4155 19.8083 45.7808C20.1774 45.9634 20.6387 46.2374 21.1924 46.1461C21.1001 45.4155 21.1001 44.7763 21.0078 44.1371C20.8233 41.7628 21.1001 41.3062 23.2224 40.1191C23.4993 39.9364 23.8684 39.8451 24.1452 39.6625C24.8834 39.3885 25.6216 39.2972 26.3598 39.3885C27.4671 39.5712 28.3898 40.0277 29.0358 41.1236C28.0207 41.3975 27.4671 42.0367 27.1903 42.8586C27.0057 43.4065 26.8212 43.9544 26.6366 44.5023C26.4521 45.0502 26.2675 45.5982 26.083 46.1461C25.5293 47.2419 24.7911 47.6072 23.5915 47.2419C23.2224 47.1506 22.8533 46.9679 22.392 46.7853C22.1151 46.694 21.9306 46.42 21.6538 46.6027C21.4692 47.7898 21.746 48.7943 22.2074 49.8901C22.392 50.3467 22.5765 50.8033 22.6688 51.3512C22.9456 52.5383 23.6838 53.5428 24.7911 54.0908C25.5293 54.456 26.2675 54.73 27.098 54.9126C28.8512 55.2779 30.6044 55.2779 32.2654 55.6432C32.3577 54.8213 32.3577 54.0908 32.4499 53.3602C32.6345 51.6252 33.2804 49.9814 34.2954 48.5203C34.8491 47.7898 35.495 47.2419 36.3255 46.8766C37.8941 46.2374 39.3705 47.0592 39.6474 48.703C39.7396 49.3422 39.7396 49.9814 39.5551 50.6207C39.186 52.0818 38.3555 53.1776 37.3405 54.2734C37.0637 54.5473 36.8791 54.8213 36.51 55.1866C38.0787 55.4605 39.3705 55.1866 40.7547 54.9126C42.1388 54.6387 43.3384 53.9994 44.8148 53.2689C44.3534 56.3737 42.6924 58.8393 41.216 61.3962C49.9822 59.2046 56.5337 54.1821 60.2247 45.9634C63.8234 37.9274 63.4543 29.8914 59.4865 22.1294C60.2247 25.3255 60.7783 28.613 60.7783 31.9004C60.7783 35.4618 60.3169 38.9319 59.0251 42.2194C58.9328 42.402 58.8405 42.676 58.5637 42.8586C58.4714 40.8496 57.8255 39.0232 57.4564 37.1969C56.995 35.1879 56.7182 33.0876 57.0873 30.9872C57.0873 30.8959 57.1796 30.7133 56.9028 30.622C56.2568 31.2612 55.8877 32.0831 55.6109 32.9049C55.2418 34.0921 55.1496 35.2792 55.1496 36.5577C55.1496 38.4753 55.2418 40.4843 55.1496 42.402C55.0573 44.9589 54.6882 47.5158 53.4886 49.7988C52.5659 52.3557 51.0895 54.2734 48.9671 55.5518ZM42.4156 19.1159C42.5079 17.1069 42.0465 15.2805 40.8469 13.6368C40.7547 13.4542 40.4778 13.2715 40.3856 13.0889C40.0165 12.7236 39.7396 12.8149 39.4628 13.1802C39.0014 13.9107 38.7246 14.7326 38.6323 15.5545C38.6323 15.8284 38.7246 16.1024 39.0014 16.1937C40.201 17.1069 41.3083 18.0201 42.4156 19.1159ZM22.5765 37.8361C23.1302 37.3795 23.407 36.8316 23.2224 36.1011C23.0379 35.3705 22.392 35.0052 21.746 34.8226C21.1924 34.64 20.6387 34.8226 20.1774 35.0966C18.6087 36.0097 17.5937 37.2882 16.9477 38.9319C16.8555 39.1146 16.7632 39.2972 16.9477 39.5712C17.2246 39.2972 17.5014 39.0232 17.7782 38.8406C18.6087 38.1101 19.5314 37.3795 20.6387 37.1056C21.2847 36.9229 21.746 37.0142 22.2074 37.5622C22.2997 37.6535 22.392 37.8361 22.5765 37.8361ZM15.9327 37.4708C16.3941 36.8316 16.8555 36.1924 17.3168 35.5532C18.3319 34.2747 19.5314 33.2702 21.3769 33.3615C20.731 32.1744 19.9005 31.9004 18.7932 32.7223C17.2246 33.9094 16.3941 35.5532 15.9327 37.4708Z" fill="#FECF01"/>
<path d="M48.967 55.5523C51.0893 54.1825 52.5657 52.3562 53.673 50.1645C54.8726 47.7903 55.2417 45.3247 55.334 42.7678C55.4263 40.8501 55.334 38.8411 55.334 36.9234C55.334 35.7363 55.4263 34.4578 55.7954 33.2707C56.0722 32.4488 56.4413 31.6269 57.0872 30.9877C57.364 31.079 57.2718 31.1703 57.2718 31.353C56.9027 33.4533 57.1795 35.4623 57.6409 37.5626C58.01 39.389 58.6559 41.2153 58.7482 43.2243C59.025 43.0417 59.1173 42.7678 59.2095 42.5851C60.5937 39.2977 61.055 35.8276 60.9628 32.2662C60.9628 28.9787 60.4091 25.6913 59.6709 22.4951C63.6387 30.3485 64.1001 38.2932 60.4091 46.3292C56.7181 54.5478 50.1666 59.5703 41.4005 61.7619C42.8769 59.2964 44.5378 56.8308 44.9992 53.6346C43.6151 54.3652 42.3232 54.9131 40.9391 55.2784C39.555 55.5523 38.1709 55.9176 36.6945 55.5523C37.0636 55.187 37.2481 54.9131 37.5249 54.6391C38.54 53.5433 39.2782 52.3562 39.7395 50.9864C39.9241 50.3472 39.9241 49.7079 39.8318 49.0687C39.555 47.425 38.0786 46.6031 36.5099 47.2424C35.6794 47.6076 35.0335 48.1555 34.4799 48.8861C33.3726 50.3472 32.8189 51.8996 32.6344 53.7259C32.5421 54.4565 32.5421 55.187 32.4498 56.0089C30.6966 55.6436 28.9434 55.6436 27.2824 55.2784C26.4519 55.0957 25.7137 54.8218 24.9755 54.4565C23.8682 53.8173 23.1301 52.9041 22.8532 51.7169C22.761 51.169 22.5764 50.7124 22.3919 50.2559C21.9305 49.2514 21.6537 48.1555 21.8382 46.9684C22.2073 46.7858 22.3919 47.0597 22.5764 47.151C22.9455 47.2423 23.3146 47.425 23.776 47.6076C24.8833 47.8816 25.7137 47.6076 26.2674 46.5118C26.5442 45.9639 26.6365 45.416 26.821 44.8681C27.0056 44.3202 27.1901 43.7723 27.3747 43.2243C27.7438 42.4025 28.2974 41.7633 29.2202 41.4893C28.6665 40.3935 27.6515 39.9369 26.5442 39.7543C25.806 39.6629 25.0678 39.7543 24.3296 40.0282C24.0528 40.1195 23.6837 40.3022 23.4069 40.4848C21.3768 41.6719 21.1 42.1285 21.1923 44.5028C21.1923 45.142 21.2846 45.7813 21.3768 46.5118C20.8232 46.6031 20.4541 46.3292 19.9927 46.1465C19.1622 45.6899 18.5163 45.142 17.9627 44.5028C17.6858 44.1375 17.409 44.0462 16.9476 43.9549C15.5635 43.7723 14.4562 43.133 13.6257 42.0372C12.7953 41.0327 12.2416 39.8456 11.7802 38.6584C11.5957 38.2018 11.3189 37.8366 10.9498 37.5626C10.1193 37.0147 9.38109 36.1928 8.82744 35.371C8.45834 34.8231 8.36607 34.2752 8.64289 33.6359C8.91972 33.088 9.19654 32.6314 9.65792 32.1748C9.84246 32.6314 9.47337 32.9967 9.65792 33.362C10.027 33.362 10.3038 33.088 10.5807 32.9054C11.5957 32.2662 12.703 32.0835 13.8103 32.7228C14.0871 32.9054 14.3639 32.9967 14.6408 33.088C15.1944 33.088 15.2867 33.362 15.1944 33.8186C15.1021 34.3665 14.8253 34.8231 14.5485 35.2797C14.4562 35.4623 14.3639 35.6449 14.2717 35.8276C12.9798 37.9279 13.1644 39.115 14.733 41.0327C15.5635 41.9459 16.5785 42.2198 17.7781 42.3112C18.1472 42.3112 18.424 42.0372 18.7009 41.9459C19.8082 41.3067 20.8232 40.3935 21.8382 39.6629C22.6687 39.115 23.4991 38.5671 24.4219 38.1105C26.9133 37.106 30.3275 37.7453 32.173 39.5716C33.0035 40.3935 33.4648 41.3067 33.7417 42.4025C33.9262 43.3157 33.8339 44.1375 33.2803 44.9594C31.8039 47.0597 29.8661 48.3382 27.3747 49.0687C27.0979 49.16 26.7288 49.16 26.4519 49.16C25.806 49.0687 25.4369 49.434 25.1601 49.8906C24.1451 51.443 24.4219 52.7214 26.0828 53.5433C27.2824 54.0912 28.482 54.2739 29.7738 54.2739C30.3275 54.2739 30.6043 54.0912 30.7889 53.452C31.0657 52.0822 31.5271 50.8038 32.173 49.6166C32.7266 48.6121 33.3726 47.6076 34.2953 46.8771C35.7717 45.6899 37.4327 45.2333 39.2782 45.9639C41.4928 46.7858 42.5078 49.16 41.7696 51.6256C41.585 52.2649 41.2159 52.8128 40.8468 53.3607C41.585 53.452 42.1387 53.178 43.1537 52.5388C43.7996 52.0822 44.4455 51.443 44.9069 50.8038C45.3683 50.0732 45.7374 49.3427 46.0142 48.4295C46.7524 49.2514 46.7524 50.3472 47.0292 51.3517C47.4906 50.8951 47.6752 50.3472 47.7674 49.7993C48.5056 46.8771 48.3211 43.9549 47.2138 41.2153C47.1215 41.0327 47.0292 40.7588 46.937 40.5761C46.937 40.5761 46.937 40.4848 46.937 40.3935C47.5829 40.3022 48.2288 40.5761 48.7825 40.8501C49.3361 41.124 49.7975 41.4893 50.4434 41.8546C50.9048 37.6539 49.5207 34.1838 47.2138 30.8051C48.4134 30.6224 49.5207 31.079 50.7202 31.4443C50.8125 30.9877 50.628 30.6224 50.4434 30.3485C50.0743 29.4353 49.5207 28.6134 48.967 27.7916C48.5056 27.061 48.0443 26.3305 47.952 25.326C49.2438 26.5131 50.7202 27.2437 51.8275 28.3395C53.3962 30.0745 53.9499 32.0835 53.8576 34.4578C53.0271 34.2752 52.3812 33.5446 51.3662 33.5446C52.7503 37.5626 53.2117 41.4893 52.1044 45.6899C51.4584 45.2333 51.2739 44.5941 50.5357 44.3202C50.8125 48.3382 50.3511 52.1735 48.8747 55.9176C48.7825 56.0089 48.7825 56.1002 48.8747 56.1915C48.8747 55.7349 48.8747 55.6436 48.967 55.5523ZM12.1493 33.088C11.4111 33.1793 10.8575 33.6359 10.3038 34.0012C9.93474 34.2752 9.93474 34.5491 10.2116 34.9144C10.7652 35.5536 11.3189 36.1928 11.9648 36.7408C12.3339 37.0147 12.6107 36.9234 12.703 36.4668C12.7953 36.1015 12.703 35.7363 12.4262 35.4623C11.5957 34.6404 11.688 34.5491 12.5184 33.8186C12.5184 33.8186 12.6107 33.8186 12.6107 33.7273C12.8875 33.4533 12.7953 33.362 12.5184 33.1793C12.3339 33.1793 12.2416 33.1793 12.1493 33.088ZM27.9283 46.3292C29.3125 45.7813 30.3275 45.2333 30.7889 44.5941C31.6193 43.4983 31.3425 42.8591 30.0507 42.6764C29.8661 42.6764 29.6816 42.5851 29.4047 42.7678C29.497 43.133 29.7738 43.5896 29.7738 43.9549C29.7738 44.5941 29.5893 44.8681 28.9434 44.7768C28.2052 44.6854 28.2052 44.6854 28.1129 45.3247C28.0206 45.5986 27.8361 45.8726 27.9283 46.3292ZM19.9927 42.0372C18.2395 42.8591 18.1472 43.407 19.4391 44.5028C19.7159 44.6854 19.9004 45.0507 20.2695 44.9594C20.1773 44.0462 20.085 43.133 19.9927 42.0372ZM22.4841 47.9729C22.5764 48.2468 22.5764 48.4295 22.5764 48.5208C22.6687 48.9774 22.8532 49.6166 23.3146 49.6166C23.776 49.7079 24.0528 49.16 24.3296 48.7034C23.776 48.4295 23.2223 48.2468 22.4841 47.9729Z" fill="#020100"/>
<path d="M10.5806 30.348C11.5033 28.2477 12.9797 26.5126 14.6407 24.8689C15.6557 23.8644 16.763 23.0425 17.9626 22.312C18.4239 22.038 18.7008 21.7641 18.8853 21.2162C19.439 19.1159 20.9154 17.7461 22.7609 16.6503C24.8832 15.3718 27.19 14.3673 29.4969 13.5455C30.3274 13.2715 30.5119 12.8149 30.6042 12.0844C30.6042 11.4451 30.6965 10.8059 30.881 10.1667C30.9733 9.61877 31.1579 9.52746 31.7115 9.80141C32.6343 10.1667 33.4647 10.8059 34.1107 11.5365C34.3875 11.9017 34.6643 12.0844 35.1257 11.993C35.4948 11.9017 35.7716 11.7191 35.7716 11.3538C35.9562 10.4406 36.233 9.52746 36.6021 8.70559C36.7866 8.15768 36.9712 7.70109 37.248 7.2445C37.8017 6.24 38.7244 5.87473 39.8317 6.24C40.3854 6.42264 40.8467 6.69659 41.3081 7.06186C43.615 8.79691 46.0141 10.6233 47.6751 12.9975C47.9519 13.3628 48.321 13.4541 48.6901 13.6368C51.0892 14.6413 53.3038 15.8284 55.2416 17.5635C55.7953 18.1114 56.3489 18.568 56.9026 19.3898C55.6107 18.8419 54.5034 18.3853 53.027 18.294C56.2566 21.3988 56.8103 25.1429 55.9798 29.1609C55.5184 28.065 55.3339 26.8779 54.688 25.8734C54.042 24.7776 53.3038 23.8644 52.2888 23.0425C51.3661 22.2207 50.4433 21.5815 49.336 20.9422C49.1515 21.3075 49.336 21.4901 49.336 21.7641C49.4283 22.9512 48.6901 23.5905 47.5828 23.4078C46.0141 23.2252 44.1686 21.9467 43.5227 20.4856C44.8146 20.303 44.8146 20.303 44.7223 18.9332C44.3532 15.3718 43.2459 12.1757 40.8467 9.43614C40.5699 9.07087 40.2008 8.79691 39.8317 8.52296C39.2781 8.15768 38.909 8.249 38.4476 8.70559C37.9862 9.16218 37.8017 9.71009 37.5248 10.258C37.1557 11.2625 36.8789 12.267 36.6944 13.2715C36.5098 14.1847 35.8639 14.7326 34.8489 14.8239C34.9411 14.3673 35.0334 13.9107 35.218 13.5455C34.8489 13.3628 34.4798 13.5455 34.1107 13.5455C33.0034 13.8194 31.8961 14.1847 30.7888 14.6413C28.7587 15.5545 26.7287 16.4676 24.6986 17.4721C22.5763 18.568 21.1922 20.1204 20.5463 22.4033C20.454 22.7686 20.2694 23.0425 19.9003 23.2252C16.6707 24.7776 13.9947 27.2432 11.5033 29.7088C11.2265 29.9827 11.0419 30.2567 10.7651 30.4393C10.6728 30.4393 10.5806 30.348 10.5806 30.348Z" fill="#020100"/>
<path d="M34.6644 41.4885C34.5722 41.1232 34.6644 40.7579 34.6644 40.3927C34.7567 38.2923 34.3876 36.2833 33.6494 34.2743C33.3726 33.5438 33.0035 32.9046 32.4498 32.3567C31.6194 31.6261 30.4198 31.8088 29.8661 32.8133C29.7739 32.9959 29.7739 33.0872 29.9584 33.2698C30.2352 33.4525 30.5121 33.5438 30.6966 33.7264C31.8962 34.6396 32.2653 35.8268 31.8039 37.1965C31.5271 36.8313 31.2503 36.5573 30.9734 36.2833C29.6816 35.0049 28.2052 34.3657 26.3597 34.8223C24.3296 35.3702 22.6687 34.0917 22.4841 31.9914C22.4841 31.6261 22.4841 31.1695 22.3919 30.8043C22.2996 29.7084 22.0228 29.4345 20.9155 29.2518C20.7309 29.2518 20.5464 29.2518 20.3618 29.2518C21.4691 28.2473 23.3146 28.2473 23.8683 29.7998C24.0528 30.165 24.2374 30.6216 24.4219 30.9869C25.1601 32.5393 27.7438 32.6306 28.6666 31.4435C28.8511 31.1695 29.0357 30.8956 29.3125 30.6216C30.5121 28.9779 31.3425 28.7039 33.2803 29.2518C33.5571 29.0692 33.5571 28.7953 33.5571 28.5213C33.6494 27.5168 33.6494 26.5123 33.7417 25.5991C33.7417 24.7773 33.9262 24.0467 34.2031 23.3162C34.7567 22.129 35.5872 21.6724 36.879 21.7638C37.6172 21.8551 38.2631 21.9464 39.0013 22.403C39.0013 22.4943 39.0013 22.5856 38.9091 22.5856C37.5249 23.0422 36.6945 24.0467 36.0485 25.2338C35.3103 26.6949 34.849 28.3387 34.5722 29.9824C34.4799 30.2563 34.6644 30.5303 34.7567 30.7129C36.879 34.2743 36.6945 37.9271 34.6644 41.4885Z" fill="#020100"/>
<path d="M40.2005 20.7598C42.2305 22.3122 43.6146 24.2299 43.7069 26.8781C43.7069 27.8826 43.7069 28.8871 43.7069 29.9829C43.7069 32.0832 43.8915 32.7224 44.9065 34.5488C44.1683 34.5488 44.1683 34.5488 41.6769 32.6311C41.2155 33.2704 41.3078 34.0009 41.5846 34.6401C41.9537 35.5533 42.4151 36.4665 42.8764 37.2884C43.5224 38.5668 43.8915 39.9366 43.7992 41.3977C43.7069 42.7674 43.1533 44.0459 42.1382 45.3244C42.1382 43.224 41.0309 41.7629 40.0159 40.2105C39.4623 39.3887 38.8163 38.5668 38.4472 37.5623C37.8936 36.2839 37.8013 35.0967 38.2627 33.8183C38.7241 32.4485 39.2777 31.0787 39.8314 29.7089C40.2927 28.5218 40.6618 27.2434 40.8464 25.9649C41.1232 24.4125 40.9387 22.8601 40.2927 21.399C40.2927 21.3077 40.0159 21.0337 40.2005 20.7598Z" fill="#020100"/>
<path d="M29.866 23.2253C29.4046 23.4079 29.2201 23.7732 28.851 24.0472C28.205 24.5037 27.4668 24.9603 26.5441 24.7777C26.2673 24.6864 26.0827 24.869 25.8982 25.0517C25.5291 25.4169 25.2522 25.7822 24.9754 26.1475C24.7909 26.4214 24.6986 26.6954 24.4218 26.878C23.4067 25.8735 23.499 25.5082 24.9754 23.6819C24.514 23.134 23.6836 22.86 23.7758 21.9468C23.7758 21.5816 23.8681 21.2163 24.2372 20.9423C24.514 20.9423 24.4218 21.2163 24.4218 21.3076C24.7909 21.9468 25.2522 22.1295 25.8059 21.6729C26.5441 21.125 27.3746 21.0337 28.205 21.2163C28.5741 21.3076 29.0355 21.3076 29.4046 21.3076C30.1428 21.3076 30.6042 21.2163 30.7887 20.3031C30.9733 19.5726 31.6192 19.116 32.2651 18.6594C32.7265 18.2941 33.1879 18.0202 33.6493 17.7462C34.4797 17.107 34.4797 16.9243 33.7415 16.1938C33.7415 16.1938 33.6493 16.1025 33.6493 16.0112C34.6643 15.9198 35.4948 16.2851 36.233 16.7417C37.1557 17.3809 37.1557 18.1115 36.233 18.842C35.4025 19.4812 34.4797 19.8465 33.6493 20.3031C33.0033 20.6684 32.3574 20.9423 31.8038 21.4902C31.896 21.5816 31.896 21.6729 31.9883 21.6729C33.2802 21.8555 33.3724 22.0382 32.542 23.134C31.3424 24.6864 30.2351 26.2388 29.6814 28.0652C29.5892 28.4304 29.3123 28.7044 28.9432 28.887C27.3746 29.5263 25.8059 29.3436 24.1449 28.4304C27.2823 28.0652 29.0355 26.2388 29.866 23.4992C29.9583 23.4079 29.9583 23.3166 29.866 23.2253C29.866 23.134 29.9583 23.0427 29.866 23.2253ZM27.7437 22.2208C27.7437 22.7687 28.0205 23.3166 27.2823 23.4992C27.19 23.4992 27.0055 23.4992 27.19 23.6819C27.2823 23.7732 27.3746 23.8645 27.4668 23.8645C27.6514 23.9558 27.8359 23.7732 27.9282 23.6819C28.2973 23.2253 28.6664 22.7687 29.1278 22.3121C28.5741 22.2208 28.205 22.2208 27.7437 22.2208Z" fill="#020100"/>
<path d="M42.4161 19.1155C41.3088 18.0197 40.2015 17.1065 39.0019 16.2846C38.7251 16.102 38.6328 15.9193 38.6328 15.6454C38.6328 14.7322 38.9096 14.0017 39.4633 13.2711C39.7401 12.9058 40.0169 12.8145 40.386 13.1798C40.5706 13.3624 40.7551 13.5451 40.8474 13.7277C41.9547 15.2801 42.4161 17.1065 42.4161 19.1155Z" fill="#020100"/>
<path d="M22.5766 37.8365C22.3921 37.7452 22.2998 37.6539 22.2075 37.4713C21.8384 36.9234 21.2848 36.832 20.6389 37.0147C19.5316 37.3799 18.6088 38.0192 17.7783 38.7497C17.5015 39.0237 17.2247 39.2976 16.9479 39.4803C16.7633 39.2063 16.8556 39.0237 16.9479 38.841C17.5938 37.1973 18.6088 35.9189 20.1775 35.0057C20.6389 34.7317 21.1925 34.5491 21.7462 34.7317C22.4844 34.9144 23.038 35.2796 23.2226 36.0102C23.4071 36.832 23.1303 37.3799 22.5766 37.8365Z" fill="#020100"/>
<path d="M24.8828 19.7554C25.2519 19.1161 25.8056 18.6595 26.4515 18.2943C27.0974 17.929 27.7433 17.655 28.3893 17.2898C28.9429 17.0158 29.4966 16.7419 29.8657 16.1939C30.0502 15.92 30.1425 15.646 30.6039 15.8287C31.1575 16.0113 31.7112 16.1026 31.988 16.6505C32.1725 16.9245 31.988 17.1071 31.8034 17.2898C31.3421 17.7463 30.7884 18.0203 30.2348 18.2029C29.4966 18.4769 28.7584 18.6595 27.9279 18.8422C27.0974 19.0248 26.2669 19.2988 25.5287 19.7554C25.2519 19.7554 25.0674 19.8467 24.8828 19.7554Z" fill="#020100"/>
<path d="M15.9326 37.4709C16.394 35.5533 17.2245 34.0009 18.7931 32.8137C19.9004 31.9919 20.8232 32.2658 21.3768 33.4529C19.5313 33.3616 18.3318 34.3661 17.3167 35.6446C16.8554 36.1925 16.394 36.8317 15.9326 37.4709Z" fill="#020100"/>
<path d="M16.4858 33.0875C16.5781 31.2612 18.4236 29.8001 19.9 30.4393C18.4236 30.9872 17.4086 31.9917 16.4858 33.0875Z" fill="#020100"/>
<path d="M10.4884 30.6226C10.581 30.7142 10.4884 30.8059 10.3958 30.8059H10.3032C10.3032 30.7142 10.3958 30.6226 10.4884 30.6226Z" fill="#020100"/>
<path d="M33.8346 15.9201C33.742 15.9201 33.742 15.9201 33.6494 15.8285C33.6494 15.8285 33.6494 15.7368 33.742 15.7368C33.742 15.7368 33.8346 15.8285 33.8346 15.9201Z" fill="#020100"/>
<path d="M10.4886 30.6231C10.3959 30.5314 10.4886 30.4398 10.5812 30.3481C10.6738 30.4398 10.6738 30.4398 10.7664 30.5314C10.6738 30.5314 10.6738 30.7147 10.4886 30.6231Z" fill="#020100"/>
<path d="M40.2941 20.7601C40.2015 20.8518 40.2015 20.8518 40.1089 20.7601V20.6685C40.2015 20.6685 40.2015 20.7601 40.2941 20.7601Z" fill="#020100"/>
<path d="M12.1488 33.0874C12.241 33.0874 12.4256 33.0874 12.5179 33.1787C12.7947 33.27 12.887 33.4527 12.6101 33.7266C12.6101 33.7266 12.5179 33.7266 12.5179 33.8179C11.6874 34.5485 11.6874 34.6398 12.4256 35.4617C12.7024 35.7356 12.887 36.1009 12.7024 36.4662C12.6101 36.9228 12.3333 37.0141 11.9642 36.7401C11.3183 36.1922 10.6724 35.6443 10.211 34.9138C9.93417 34.5485 9.93417 34.3659 10.3033 34.0006C10.8569 33.6353 11.4106 33.27 12.1488 33.0874Z" fill="#FECF01"/>
<path d="M27.928 46.3289C27.8357 45.9636 28.0203 45.5983 28.1125 45.2331C28.2048 44.5938 28.2048 44.5938 28.943 44.6852C29.5889 44.7765 29.7735 44.5938 29.7735 43.8633C29.7735 43.4067 29.4967 43.0414 29.4044 42.6762C29.5889 42.4935 29.8658 42.5848 30.0503 42.5848C31.3422 42.7675 31.619 43.4067 30.7885 44.5025C30.3271 45.1418 29.3121 45.781 27.928 46.3289Z" fill="#FECF01"/>
<path d="M19.9928 42.0371C20.085 43.1329 20.1773 44.0461 20.3619 45.0506C19.9928 45.0506 19.7159 44.7767 19.5314 44.594C18.2395 43.4069 18.3318 42.859 19.9928 42.0371Z" fill="#FECF01"/>
<path d="M22.4844 47.9727C23.2226 48.2466 23.7762 48.5206 24.3299 48.7032C24.053 49.1598 23.7762 49.7077 23.3149 49.6164C22.8535 49.5251 22.6689 48.9772 22.5767 48.5206C22.5767 48.3379 22.5766 48.2466 22.4844 47.9727Z" fill="#FECF01"/>
<path d="M48.9676 55.552C48.9676 55.6436 48.875 55.7352 48.7824 55.6436C48.6898 55.552 48.7824 55.4603 48.7824 55.3687C48.875 55.5519 48.875 55.552 48.9676 55.552Z" fill="#FECF01"/>
<path d="M27.7432 22.2212C28.2046 22.2212 28.5737 22.2212 29.1274 22.2212C28.666 22.7691 28.2969 23.2257 27.9278 23.591C27.7432 23.7736 27.5587 23.8649 27.3741 23.7736C27.2819 23.7736 27.1896 23.6823 27.0973 23.591C27.005 23.4083 27.0973 23.4083 27.1896 23.4083C28.0201 23.2257 27.7432 22.7691 27.7432 22.2212Z" fill="#FECF01"/>
<path d="M29.8662 23.2253C29.8662 23.1337 29.9588 23.042 30.0514 23.1337C30.144 23.2253 30.0514 23.317 30.0514 23.4086C29.9588 23.317 29.9588 23.2253 29.8662 23.2253Z" fill="#FECF01"/>
</svg>
