<svg width="417" height="81" viewBox="0 0 417 81" fill="none" xmlns="http://www.w3.org/2000/svg">
<path d="M110.704 31.9226C110.375 32.2484 110.375 32.6827 110.375 33.0084C109.716 38.763 109.058 44.4091 108.29 50.1637C107.741 54.8326 107.193 59.5014 106.644 64.1702C106.535 64.7131 106.425 64.9303 105.876 64.9303C102.036 64.9303 98.0864 64.9303 94.2464 64.9303C94.1367 64.9303 94.1367 64.8217 94.027 64.8217C93.9172 63.8445 94.2464 62.9759 94.3561 62.1073C95.3436 55.3754 96.331 48.7522 97.2087 42.0204C98.1961 35.5057 99.0739 28.991 100.061 22.585C100.281 20.7391 100.61 18.8933 100.829 17.0475C100.939 16.5046 101.158 16.2874 101.707 16.2874C106.425 16.2874 111.143 16.2874 115.86 16.2874C116.628 16.2874 116.738 16.7218 116.957 17.1561C118.603 21.8249 120.139 26.6023 121.785 31.2712C123.431 36.1572 125.076 41.0432 126.832 45.9292C127.271 45.8206 127.271 45.3863 127.38 45.1691C130.452 36.0486 133.634 27.0366 136.706 17.9161C137.365 15.9617 136.816 16.2874 138.901 16.2874C143.179 16.2874 147.458 16.2874 151.627 16.2874C152.944 16.2874 152.725 16.1789 152.944 17.4818C153.602 21.6078 154.151 25.6251 154.7 29.7511C155.358 34.5285 156.126 39.4145 156.784 44.1919C157.442 49.0779 158.21 53.8554 158.869 58.7414C159.198 60.8043 159.417 62.8673 159.746 64.8217C159.308 65.1474 158.978 65.0389 158.649 65.0389C155.138 65.0389 151.737 65.0389 148.226 65.0389C147.129 65.0389 147.129 65.0389 146.91 63.9531C146.471 60.37 146.032 56.6784 145.593 53.0953C145.045 48.6436 144.496 44.1919 143.947 39.7402C143.618 37.3515 143.399 34.9628 143.07 32.5741C143.07 32.4655 143.07 32.2484 142.96 32.0312C142.521 32.357 142.521 32.7913 142.302 33.117C138.681 43.2147 135.06 53.421 131.44 63.5188C130.782 65.256 131.22 64.9303 129.355 64.9303C127.38 64.9303 125.515 64.9303 123.54 64.9303C122.443 64.9303 122.443 64.9303 122.114 63.9531C119.591 56.787 117.067 49.7294 114.434 42.5633C113.337 39.3059 112.13 36.1572 111.033 32.8998C111.033 32.5741 110.923 32.2484 110.704 31.9226Z" fill="#020100"/>
<path d="M260.794 29.2085C262.33 28.7741 263.756 28.4484 265.292 28.3398C269.681 27.9055 273.85 28.3398 277.91 30.2942C282.518 32.5744 285.48 36.1574 286.467 41.152C287.345 45.4951 287.126 49.8382 285.59 54.0728C283.505 59.6102 279.336 62.8676 273.741 64.3877C269.242 65.6906 264.744 65.7992 260.136 65.4734C256.625 65.2563 253.114 64.7134 249.603 63.7362C247.519 63.1933 247.519 63.1933 247.519 61.1303C247.519 45.278 247.519 29.5342 247.519 13.6818C247.519 12.1618 247.519 12.1617 249.164 12.1617C252.675 12.1617 256.186 12.1617 259.697 12.1617C260.904 12.1617 260.794 12.0532 260.794 13.2475C260.794 18.1335 260.794 23.0195 260.794 27.7969C260.794 28.2313 260.794 28.6656 260.794 29.2085ZM260.794 46.9066C260.794 49.8382 260.794 52.7698 260.794 55.81C260.794 56.4615 261.014 56.7872 261.672 56.8958C262.879 57.0044 263.976 57.2215 265.183 57.1129C269.242 56.7872 271.766 54.8328 272.863 50.924C273.74 47.9924 273.741 44.9522 272.753 41.9121C271.766 38.9805 269.791 37.1346 266.609 36.5917C264.963 36.266 263.318 36.5917 261.672 36.9175C261.014 37.0261 260.794 37.3518 260.794 38.1118C260.904 41.0434 260.794 43.975 260.794 46.9066Z" fill="#020100"/>
<path d="M387.955 44.0832C388.942 42.7802 389.82 41.6945 390.807 40.5001C393.66 36.8085 396.513 33.1168 399.365 29.4252C399.694 28.9909 400.024 28.6651 400.792 28.6651C405.29 28.6651 409.898 28.6651 414.396 28.6651C414.506 28.6651 414.725 28.6651 414.945 28.8823C414.725 29.0994 414.506 29.4252 414.287 29.7509C410.337 34.6369 406.277 39.6315 402.328 44.5175C401.34 45.7118 401.56 45.3861 402.328 46.4719C406.716 52.2265 411.105 57.9811 415.493 63.7357C415.713 64.0615 416.042 64.2786 416.152 64.8215C415.823 64.8215 415.384 64.8215 415.055 64.8215C410.885 64.8215 406.826 64.8215 402.657 64.8215C401.669 64.8215 401.23 64.4958 400.682 63.7357C396.842 58.524 393.002 53.4209 389.271 48.2091C388.942 47.7748 388.503 47.2319 388.174 46.689C387.845 47.1233 387.955 47.5577 387.955 47.8834C387.955 52.878 387.955 57.9811 387.955 62.9757C387.955 63.1929 387.955 63.41 387.955 63.7357C387.955 64.6044 387.955 64.7129 386.967 64.7129C383.237 64.7129 379.397 64.7129 375.667 64.7129C374.789 64.7129 374.789 64.7129 374.789 63.8443C374.789 63.6272 374.789 63.41 374.789 63.1929C374.789 46.5805 374.789 29.9681 374.789 13.3557C374.789 11.6184 374.57 11.9441 376.325 11.9441C379.836 11.9441 383.347 11.9441 386.858 11.9441C388.065 11.9441 387.955 11.8356 387.955 13.0299C387.955 22.8019 387.955 32.6825 387.955 42.4545C387.735 43.106 387.626 43.5403 387.955 44.0832Z" fill="#020100"/>
<path d="M208.46 79.2621C208.35 78.8278 208.679 78.3935 208.789 78.0677C210.654 74.0504 212.41 70.033 214.275 66.0156C214.604 65.2556 214.714 64.6041 214.275 63.7355C209.118 52.4434 203.962 41.1513 198.805 29.8592C198.695 29.5335 198.366 29.2077 198.366 28.7734C198.695 28.5563 199.134 28.6648 199.463 28.6648C203.523 28.6648 207.582 28.6648 211.642 28.6648C212.849 28.6648 212.849 28.6648 213.178 29.7506C215.811 37.4596 218.444 45.0601 221.077 52.7691C221.187 53.2034 221.297 53.7463 221.736 54.1806C222.504 51.9005 223.272 49.7289 224.04 47.4488C226.014 41.5856 228.099 35.6138 230.074 29.7506C230.403 28.7734 230.403 28.7734 231.391 28.7734C235.56 28.7734 239.839 28.7734 244.008 28.7734C244.227 28.7734 244.447 28.7734 244.776 28.7734C244.995 29.2077 244.666 29.4249 244.556 29.642C237.205 45.8201 229.964 62.1068 222.613 78.2849C222.284 79.0449 221.955 79.3707 220.968 79.3707C217.128 79.2621 213.178 79.3707 209.338 79.3707C209.118 79.3707 208.789 79.3707 208.46 79.2621Z" fill="#020100"/>
<path d="M331.341 47.6665C331.341 42.3462 331.341 36.9173 331.341 31.597C331.341 30.4027 331.341 30.4027 332.548 30.0769C339.68 27.9054 346.921 27.1453 354.272 27.7968C356.905 28.014 359.429 28.4483 361.952 29.4255C363.049 29.8598 364.146 30.4027 365.134 31.1627C367.547 33.0085 368.974 35.3972 369.303 38.4374C369.522 41.2604 369.413 44.192 369.413 47.0151C369.413 52.444 369.413 57.7643 369.413 63.1932C369.413 63.5189 369.413 63.736 369.413 64.0618C369.522 64.6047 369.193 64.8218 368.645 64.8218C366.67 64.8218 364.805 64.8218 362.83 64.8218C360.855 64.8218 358.88 64.8218 356.905 64.8218C355.918 64.8218 355.918 64.8218 355.918 63.8446C355.918 60.0444 355.918 56.2442 355.918 52.444C355.918 48.7523 355.918 45.1692 355.918 41.4776C355.918 38.4374 354.382 36.8088 351.31 36.3744C349.554 36.1573 347.799 36.2659 346.043 36.7002C344.617 37.0259 344.617 37.0259 344.617 38.4374C344.617 45.2778 344.617 52.2268 344.617 59.0672C344.617 60.5873 344.617 62.1074 344.617 63.5189C344.617 64.6047 344.617 64.7132 343.52 64.7132C339.79 64.7132 336.169 64.7132 332.439 64.7132C331.122 64.7132 331.232 64.8218 331.232 63.5189C331.341 58.4157 331.341 52.9868 331.341 47.6665Z" fill="#020100"/>
<path d="M199.024 51.3578C199.024 54.8323 199.024 58.3068 199.024 61.7813C199.024 63.1928 199.024 63.1928 197.708 63.6271C195.294 64.3871 192.771 64.8215 190.247 65.1472C186.627 65.5815 183.006 65.7987 179.385 65.5815C175.655 65.3643 171.925 64.93 168.414 63.41C166.658 62.6499 165.232 61.6727 163.915 60.3698C160.734 57.0039 159.966 49.2948 166 45.4946C167.975 44.3003 170.06 43.5402 172.254 42.9973C175.436 42.1287 178.727 41.6944 182.018 41.4772C183.335 41.3687 184.542 41.2601 185.859 41.2601C186.297 41.2601 186.517 41.1515 186.517 40.6086C186.736 38.2199 185.639 36.6998 183.335 35.9398C181.909 35.5055 180.482 35.5055 178.946 35.5055C175.326 35.614 171.705 36.3741 168.194 37.3513C167.097 37.677 167.097 37.677 166.658 36.6998C165.89 34.854 165.013 33.0082 164.245 31.1623C163.915 30.2937 163.915 30.2937 164.683 30.0766C167.975 29.0994 171.376 28.3393 174.777 27.905C178.178 27.4707 181.58 27.3621 184.981 27.5793C187.395 27.7964 189.808 28.2307 192.003 29.0994C196.172 30.8366 198.476 34.0939 199.024 38.4371C199.244 40.5 199.134 42.4544 199.244 44.5174C199.024 46.9061 199.024 49.0777 199.024 51.3578ZM186.407 52.9865C186.407 51.6835 186.407 50.3806 186.407 49.0777C186.407 48.2091 186.407 48.2091 185.529 48.2091C183.774 48.3176 181.909 48.4262 180.153 48.6434C178.617 48.8605 177.191 49.1863 175.874 49.9463C173.132 51.575 173.132 55.0495 175.874 56.6781C176.533 57.1124 177.301 57.3296 178.178 57.5467C180.702 58.0896 183.225 57.9811 185.749 57.5467C186.297 57.4382 186.627 57.221 186.517 56.5695C186.407 55.4838 186.407 54.1808 186.407 52.9865Z" fill="#020100"/>
<path d="M291.076 30.5118C292.173 29.9689 293.27 29.7517 294.367 29.426C300.292 27.7973 306.326 27.2544 312.47 27.7973C314.445 28.0145 316.31 28.3402 318.176 28.9917C323.113 30.7289 325.636 34.2034 326.075 39.3066C326.185 40.0666 326.185 40.8267 326.185 41.5867C326.185 48.3185 326.185 55.1589 326.185 61.8908C326.185 63.0851 326.404 62.9765 324.978 63.5194C321.796 64.6052 318.505 65.0395 315.104 65.3652C311.373 65.691 307.533 65.7996 303.803 65.3652C300.95 65.0395 298.098 64.6052 295.355 63.4108C294.696 63.0851 293.928 62.7594 293.27 62.3251C288.114 59.1763 287.784 53.5303 289.101 50.0558C289.869 47.9928 291.405 46.5813 293.27 45.3869C295.794 43.8668 298.537 43.1068 301.389 42.4553C305.01 41.6953 308.63 41.3696 312.361 41.261C313.458 41.261 313.458 41.261 313.458 40.1752C313.458 37.8951 312.58 36.7007 310.386 36.0492C308.959 35.6149 307.423 35.5064 305.887 35.6149C302.157 35.7235 298.537 36.4836 295.026 37.4608C294.038 37.7865 294.038 37.7865 293.599 36.8093C292.941 34.7463 291.954 32.6833 291.076 30.5118ZM313.677 52.8788C313.677 51.5759 313.677 50.3815 313.677 49.0786C313.677 48.21 313.677 48.1014 312.69 48.21C310.934 48.3185 309.289 48.4271 307.533 48.6443C305.997 48.8614 304.461 49.1872 303.035 50.0558C300.402 51.5759 300.402 55.3761 303.035 56.7876C303.803 57.2219 304.461 57.5476 305.339 57.6562C307.862 58.1991 310.495 58.0905 313.019 57.6562C313.567 57.5476 313.787 57.3305 313.787 56.7876C313.677 55.4847 313.677 54.1817 313.677 52.8788Z" fill="#020100"/>
<path d="M40.7049 80.9995C62.7576 81.1081 81.4092 63.5185 81.519 40.7172C81.6287 17.9158 63.1965 0.109066 41.034 0.000487993C18.5424 -0.10809 0.110208 17.9158 0.000493108 40.3914C-0.109222 62.867 18.1035 80.9995 40.7049 80.9995Z" fill="#FECF01"/>
<path d="M40.7049 80.9995C18.1035 80.9995 -0.109222 62.867 0.000493108 40.3914C0.110208 17.9158 18.5424 -0.10809 41.034 0.000487993C63.0868 0.109066 81.6287 17.9158 81.519 40.7172C81.4092 63.5185 62.7576 81.1081 40.7049 80.9995ZM3.29195 40.5C3.29195 60.804 19.6395 77.8507 40.8146 77.7422C62.2091 77.7422 78.2275 60.3697 78.2275 40.5C78.2275 20.8474 62.3188 3.25782 40.8146 3.25782C19.7492 3.25782 3.29195 20.196 3.29195 40.5Z" fill="#020100"/>
<path d="M3.29248 40.5005C3.29248 20.1964 19.7498 3.2583 40.8151 3.2583C62.429 3.2583 78.3377 20.8479 78.228 40.6091C78.228 60.4788 62.2096 77.7427 40.8151 77.8512C19.6401 77.8512 3.29248 60.8045 3.29248 40.5005ZM11.3017 35.2887C11.192 35.2887 11.0823 35.3973 11.0823 35.5059H11.192C11.3017 35.5059 11.4114 35.3973 11.3017 35.2887C11.5211 35.3973 11.5211 35.1802 11.6308 35.0716C12.0697 34.8544 12.1794 34.5287 12.5086 34.203C15.4709 31.1628 18.6526 28.3398 22.4927 26.4939C22.9315 26.2768 23.1509 25.9511 23.2607 25.5167C24.0287 22.8023 25.7841 20.9565 28.1979 19.6535C30.5019 18.4592 33.0253 17.3734 35.4391 16.2876C36.7556 15.7447 38.0722 15.3104 39.3888 14.9847C39.8277 14.8761 40.2665 14.7675 40.7054 14.9847C40.5957 15.5276 40.486 15.9619 40.2665 16.5048C41.4734 16.3962 42.2414 15.7447 42.4608 14.659C42.79 13.4646 43.0094 12.1617 43.4483 11.0759C43.6677 10.4244 43.9968 9.66439 44.5454 9.23008C45.094 8.68719 45.5329 8.68719 46.1912 9.01292C46.63 9.33866 46.9592 9.66439 47.398 10.0987C50.2506 13.356 51.5672 17.2648 52.0061 21.3908C52.2255 23.0195 52.1158 23.0195 50.5798 23.2366C51.4575 24.9739 53.5421 26.4939 55.4072 26.7111C56.8335 26.8197 57.6015 26.0596 57.4918 24.7567C57.4918 24.431 57.2724 24.1052 57.4918 23.7795C58.6987 24.5395 59.9056 25.4082 61.0027 26.2768C62.0999 27.254 63.0873 28.3398 63.8553 29.6427C64.6233 30.8371 64.8428 32.2486 65.3913 33.5515C66.3788 28.6655 65.7205 24.3224 61.8804 20.6307C63.5262 20.6307 64.9525 21.2822 66.4885 21.9337C65.8302 21.0651 65.1719 20.4136 64.5136 19.7621C62.2096 17.6991 59.4667 16.2876 56.7238 15.0933C56.285 14.8761 55.8461 14.7675 55.517 14.3332C53.4324 11.5102 50.6895 9.44723 47.9466 7.27568C47.398 6.84137 46.8494 6.51563 46.1912 6.29848C44.7649 5.86417 43.7774 6.1899 43.1191 7.49283C42.79 8.03572 42.5705 8.68719 42.3511 9.23008C41.9123 10.2073 41.5831 11.2931 41.3637 12.3788C41.254 12.8131 41.0345 13.0303 40.5957 13.1389C40.0471 13.2475 39.718 13.0303 39.3888 12.596C38.6208 11.7274 37.7431 10.9673 36.5362 10.533C35.8779 10.3159 35.6585 10.3159 35.5488 10.9673C35.4391 11.7274 35.3293 12.4874 35.2196 13.2475C35.2196 14.1161 34.8905 14.659 33.903 14.9847C31.1602 15.9619 28.4173 17.1563 25.8938 18.6763C23.6995 19.9793 21.9441 21.6079 21.2858 24.1052C21.1761 24.6481 20.7372 25.0824 20.1886 25.4082C18.7623 26.2768 17.4458 27.254 16.2389 28.4483C14.264 30.2942 12.5086 32.3571 11.4114 34.963C11.3017 35.0716 11.192 35.1802 11.3017 35.2887ZM18.4332 38.2203C19.5303 36.9174 20.7372 35.7231 22.4927 35.1802C20.7372 34.3116 18.5429 36.1574 18.4332 38.2203H18.3235C18.3235 38.3289 18.3235 38.3289 18.4332 38.2203ZM28.4173 22.368C28.6367 22.5851 28.8561 22.368 29.0756 22.2594C29.9533 21.7165 30.9407 21.3908 31.9282 21.1736C32.8059 20.9565 33.7933 20.7393 34.6711 20.4136C35.3293 20.1964 35.9876 19.8707 36.5362 19.3278C36.7556 19.1107 36.9751 18.8935 36.7556 18.5678C36.4265 17.9163 35.7682 17.8077 35.1099 17.5906C34.6711 17.482 34.4516 17.6991 34.2322 18.0249C33.7933 18.6763 33.135 19.0021 32.4767 19.3278C31.7087 19.7621 30.9407 20.0879 30.1727 20.5222C29.5144 21.0651 28.8561 21.6079 28.4173 22.368V22.4766C28.4173 22.368 28.4173 22.368 28.4173 22.368ZM34.3419 26.4939C34.4516 26.6025 34.4516 26.6025 34.5613 26.6025C33.5739 29.8599 31.4893 31.9228 27.759 32.4657C29.7339 33.5515 31.599 33.7687 33.4642 33.0086C33.903 32.7915 34.2322 32.4657 34.3419 32.0314C35.0002 29.7513 36.3168 28.014 37.7431 26.1682C38.7305 24.9739 38.6208 24.7567 37.0848 24.431C37.0848 24.431 36.9751 24.3224 36.8654 24.2138C37.5236 23.5623 38.2917 23.2366 39.0597 22.8023C40.1568 22.2594 41.254 21.8251 42.1317 21.0651C43.2288 20.305 43.2288 19.3278 42.1317 18.5678C41.254 17.9163 40.1568 17.482 39.0597 17.6991C39.0597 17.5906 39.0597 17.5906 38.9499 17.5906C38.8402 17.5906 38.8402 17.5906 38.8402 17.6991C38.8402 17.6991 38.9499 17.6991 39.0597 17.8077C39.0597 17.9163 39.1694 17.9163 39.1694 18.0249C40.0471 18.8935 40.0471 19.1107 39.0597 19.8707C38.5111 20.305 37.9625 20.6307 37.4139 20.9565C36.6459 21.4994 35.8779 22.0423 35.6585 22.9109C35.4391 23.8881 34.7808 24.1052 34.0128 24.1052C33.5739 24.1052 33.0253 24.1052 32.5865 23.9967C31.4893 23.7795 30.6116 23.7795 29.7339 24.5395C29.0756 24.9739 28.527 24.7567 28.0881 24.1052C27.9784 23.9967 28.0881 23.6709 27.8687 23.6709C27.4298 23.9967 27.3201 24.3224 27.3201 24.8653C27.2104 25.9511 28.1979 26.2768 28.7464 26.9283C26.991 29.0998 26.8813 29.6427 28.0881 30.7285C28.527 30.6199 28.527 30.1856 28.7464 29.8599C29.0756 29.4255 29.4047 28.8827 29.8436 28.5569C30.063 28.3398 30.2824 28.1226 30.6116 28.2312C31.7087 28.5569 32.4767 28.014 33.3545 27.3626C33.5739 27.1454 33.903 26.7111 34.3419 26.4939ZM46.63 23.5623L46.5203 23.4538V23.5623C46.5203 23.6709 46.63 23.6709 46.63 23.5623C46.4106 23.8881 46.7397 24.1052 46.8494 24.431C47.5077 26.1682 47.8369 28.014 47.5077 29.8599C47.2883 31.3799 46.8494 32.9 46.3009 34.3115C45.6426 35.9402 44.9843 37.5689 44.4357 39.1975C43.9968 40.7176 43.9969 42.2377 44.6551 43.6492C45.094 44.735 45.862 45.8208 46.5203 46.798C47.7272 48.5352 49.0438 50.2725 49.0438 52.8783C50.1409 51.2497 50.7992 49.8382 51.0186 48.2095C51.1283 46.4723 50.6895 44.8436 49.9215 43.3235C49.3729 42.2377 48.8243 41.2605 48.3855 40.1747C48.0563 39.4147 47.9466 38.5461 48.4952 37.786C51.4575 40.1747 51.4575 40.1748 52.3352 40.0662C51.1283 37.8946 50.9089 37.1346 50.9089 34.6373C50.9089 33.4429 51.0186 32.2486 50.9089 30.9456C50.7992 27.7969 49.1535 25.4082 46.63 23.5623ZM40.0471 48.2095C42.4608 43.8664 42.6803 39.6319 40.1568 35.2887C39.9374 34.963 39.8277 34.7459 39.9374 34.4201C40.3762 32.4657 40.8151 30.5113 41.6928 28.7741C42.4608 27.3626 43.4483 26.0596 45.094 25.6253C45.094 25.6253 45.094 25.5167 45.2037 25.4082C44.2163 24.9739 43.558 24.7567 42.6803 24.6481C41.1443 24.5395 40.1568 25.0824 39.4985 26.4939C39.0597 27.3626 38.9499 28.2312 38.9499 29.2084C38.8402 30.4027 38.8402 31.5971 38.7305 32.6829C38.7305 33.0086 38.7305 33.3343 38.4014 33.5515C36.0974 32.9 35.1099 33.2258 33.6836 35.1802C33.4642 35.5059 33.2448 35.8316 32.9156 36.1574C31.8185 37.5689 28.7464 37.5689 27.8687 35.6145C27.6493 35.1802 27.4298 34.6373 27.2104 34.203C26.4424 32.3571 24.3578 32.3571 23.0412 33.5515C23.2607 33.5515 23.4801 33.5515 23.6995 33.5515C25.0161 33.7687 25.3453 34.0944 25.455 35.3973C25.455 35.8316 25.455 36.3745 25.5647 36.8088C25.7841 39.3061 27.759 40.8262 30.1727 40.1747C32.4767 39.5233 34.1225 40.2833 35.6585 41.912C35.9876 42.2377 36.3168 42.672 36.6459 42.9978C37.1945 41.4777 36.7556 39.9576 35.3293 38.8718C35.0002 38.6547 34.6711 38.4375 34.4516 38.3289C34.2322 38.2203 34.2322 38.0032 34.3419 37.786C35.0002 36.5917 36.4265 36.3745 37.4139 37.2431C38.0722 37.8946 38.5111 38.6547 38.8402 39.5233C39.8277 41.8034 40.1568 44.3007 40.0471 46.798C40.0471 47.3409 39.9374 47.7752 40.0471 48.2095ZM57.053 64.9305L56.9433 64.8219C58.6987 60.3702 59.2473 55.81 58.9181 51.0325C59.7959 51.3583 60.125 52.1183 60.7833 52.6612C62.0999 47.6666 61.661 42.9978 59.9056 38.2203C61.1124 38.3289 61.8804 39.089 62.8679 39.3061C62.8679 36.5917 62.3193 34.0944 60.4541 32.0314C59.1376 30.6199 57.3821 29.7513 55.8461 28.4483C56.0655 29.6427 56.5044 30.5113 57.053 31.3799C57.7113 32.3571 58.3696 33.3343 58.8084 34.4201C58.9181 34.8544 59.1376 35.1802 59.1376 35.7231C57.7113 35.2887 56.5044 34.7459 54.9684 34.963C57.7113 38.8718 59.357 43.1063 58.8084 48.1009C58.0404 47.6666 57.4918 47.2323 56.8335 46.9066C56.1752 46.5808 55.4072 46.2551 54.6392 46.3637C54.6392 46.4723 54.6392 46.4723 54.6392 46.5808C54.7489 46.798 54.8587 47.1237 54.9684 47.3409C56.285 50.7068 56.5044 54.0727 55.6267 57.5472C55.517 58.1987 55.2975 58.8501 54.749 59.393C54.4198 58.1987 54.4198 57.0043 53.5421 55.9185C53.1032 56.8957 52.7741 57.8729 52.2255 58.7416C51.6769 59.5016 51.0186 60.2616 50.1409 60.8045C48.934 61.6731 48.2757 61.8903 47.398 61.7817C47.8369 61.1303 48.2757 60.4788 48.4952 59.7188C49.3729 56.8957 48.166 54.0727 45.5329 52.9869C43.3386 52.1183 41.3637 52.5526 39.6082 54.0727C38.5111 54.9413 37.7431 56.0271 37.0848 57.33C36.3168 58.7416 35.7682 60.2616 35.4391 61.8903C35.0002 62.7589 34.6711 62.9761 34.0128 62.9761C32.4767 63.0847 30.9407 62.7589 29.6241 62.1075C27.6493 61.1303 27.3201 59.6102 28.527 57.7644C28.8561 57.2215 29.295 56.7872 30.063 56.8957C30.3922 57.0043 30.831 56.8957 31.1602 56.7871C34.0128 55.9185 36.4265 54.3984 38.1819 51.9011C38.8402 51.0325 39.0597 49.9468 38.7305 48.861C38.4014 47.558 37.8528 46.4723 36.8654 45.4951C34.5613 43.2149 30.6116 42.4549 27.6493 43.7578C26.5521 44.1921 25.5647 44.8436 24.5772 45.6036C23.3704 46.4723 22.1635 47.558 20.8469 48.3181C20.5178 48.5352 20.1886 48.861 19.7498 48.7524C18.3235 48.6438 17.1166 48.3181 16.1292 47.2323C14.264 44.9522 14.1543 43.5407 15.5806 41.0434C15.6903 40.8262 15.8 40.6091 15.9097 40.3919C16.2389 39.849 16.4583 39.1975 16.6777 38.6547C16.7875 38.1118 16.6777 37.786 16.0195 37.786C15.6903 37.786 15.3612 37.5689 15.032 37.3517C13.7154 36.5917 12.5086 36.8088 11.192 37.5689C10.8628 37.786 10.6434 38.1118 10.0948 38.1118C9.8754 37.6775 10.2045 37.2431 10.0948 36.7003C9.54625 37.2431 9.21711 37.8946 8.88796 38.4375C8.55881 39.1976 8.55881 39.849 9.10739 40.5005C9.76568 41.4777 10.6434 42.4549 11.6308 43.1063C12.1794 43.4321 12.3988 43.8664 12.6183 44.4093C13.1669 45.8208 13.8251 47.2323 14.8126 48.4267C15.8 49.7296 17.1166 50.4896 18.7623 50.7068C19.3109 50.8154 19.6401 50.924 19.9692 51.3583C20.6275 52.2269 21.5052 52.8783 22.3829 53.3127C22.8218 53.5298 23.3704 53.8555 24.0287 53.747C23.919 52.8783 23.919 52.1183 23.8092 51.3583C23.5898 48.5352 23.919 47.9924 26.4424 46.5808C26.7716 46.3637 27.2104 46.2551 27.5396 46.038C28.4173 45.7122 29.295 45.6036 30.1727 45.7122C31.4893 45.9294 32.5865 46.4723 33.3545 47.7752C32.1476 48.1009 31.4893 48.861 31.1602 49.8382C30.9407 50.4896 30.7213 51.1411 30.5019 51.7926C30.2824 52.444 30.063 53.0955 29.8436 53.747C29.1853 55.0499 28.3076 55.4842 26.8813 55.0499C26.4424 54.9413 26.0035 54.7242 25.455 54.507C25.1258 54.3984 24.9064 54.0727 24.5772 54.2899C24.3578 55.7014 24.687 56.8957 25.2355 58.1987C25.455 58.7416 25.6744 59.2844 25.7841 59.9359C26.1133 61.3474 26.991 62.5418 28.3076 63.1932C29.1853 63.6276 30.063 63.9533 31.0504 64.1704C33.135 64.6047 35.2196 64.6048 37.1945 65.0391C37.3042 64.0619 37.3042 63.1932 37.4139 62.3246C37.6334 60.2616 38.4014 58.3072 39.6082 56.57C40.2665 55.7014 41.0345 55.0499 42.022 54.6156C43.8871 53.8555 45.6426 54.8327 45.9717 56.7871C46.0814 57.5472 46.0814 58.3072 45.862 59.0673C45.4231 60.8045 44.4357 62.1075 43.2288 63.4104C42.8997 63.7361 42.6803 64.0619 42.2414 64.4962C44.1066 64.8219 45.6426 64.4962 47.2883 64.1704C48.934 63.8447 50.3603 63.0847 52.1158 62.216C51.5672 65.9077 49.5923 68.8393 47.8369 71.8795C58.2598 69.2736 66.0496 63.3018 70.4382 53.5298C74.7171 43.975 74.2783 34.4201 69.5605 25.191C70.4382 28.9912 71.0965 32.9 71.0965 36.8088C71.0965 41.0434 70.548 45.1693 69.0119 49.0781C68.9022 49.2953 68.7925 49.621 68.4634 49.8382C68.3536 47.4495 67.5856 45.2779 67.1468 43.1063C66.5982 40.7176 66.2691 38.2203 66.7079 35.7231C66.7079 35.6145 66.8176 35.3973 66.4885 35.2887C65.7205 36.0488 65.2816 37.026 64.9525 38.0032C64.5136 39.4147 64.4039 40.8262 64.4039 42.3463C64.4039 44.6264 64.5136 47.0152 64.4039 49.2953C64.2942 52.3355 63.8553 55.3756 62.429 58.0901C61.3319 61.1303 59.5764 63.4104 57.053 64.9305ZM49.2632 21.6079C49.3729 19.2192 48.8243 17.0477 47.398 15.0933C47.2883 14.8761 46.9592 14.659 46.8494 14.4418C46.4106 14.0075 46.0814 14.1161 45.7523 14.5504C45.2037 15.419 44.8746 16.3962 44.7649 17.3734C44.7649 17.6991 44.8746 18.0249 45.2037 18.1335C46.63 19.2192 47.9466 20.305 49.2632 21.6079ZM25.6744 43.8664C26.3327 43.3235 26.6618 42.672 26.4424 41.8034C26.223 40.9348 25.455 40.5005 24.687 40.2833C24.0287 40.0662 23.3704 40.2833 22.8218 40.6091C20.9566 41.6948 19.7498 43.2149 18.9818 45.1693C18.872 45.3865 18.7623 45.6036 18.9818 45.9294C19.3109 45.6036 19.6401 45.2779 19.9692 45.0607C20.9566 44.1921 22.0538 43.3235 23.3704 42.9978C24.1384 42.7806 24.687 42.8892 25.2355 43.5407C25.3453 43.6492 25.455 43.8664 25.6744 43.8664ZM17.7749 43.4321C18.3235 42.672 18.8721 41.912 19.4206 41.152C20.6275 39.6319 22.0538 38.4375 24.2481 38.5461C23.4801 37.1346 22.4927 36.8088 21.1761 37.786C19.3109 39.1975 18.3235 41.1519 17.7749 43.4321Z" fill="#FECF01"/>
<path d="M57.053 64.9311C59.5764 63.3025 61.3319 61.1309 62.6485 58.525C64.0748 55.702 64.5136 52.7704 64.6233 49.7302C64.7331 47.4501 64.6233 45.0614 64.6233 42.7813C64.6233 41.3698 64.7331 39.8497 65.1719 38.4382C65.5011 37.461 65.9399 36.4838 66.7079 35.7237C67.0371 35.8323 66.9274 35.9409 66.9274 36.158C66.4885 38.6553 66.8176 41.044 67.3662 43.5413C67.8051 45.7129 68.5731 47.8844 68.6828 50.2731C69.0119 50.056 69.1217 49.7302 69.2314 49.5131C70.8771 45.6043 71.4257 41.4783 71.316 37.2438C71.316 33.335 70.6577 29.4262 69.7799 25.626C74.4977 34.9637 75.0463 44.4099 70.6577 53.9648C66.2691 63.7368 58.4793 69.7086 48.0563 72.3144C49.8118 69.3828 51.7866 66.4512 52.3352 62.651C50.6895 63.5196 49.1535 64.1711 47.5077 64.6054C45.862 64.9311 44.2163 65.3654 42.4608 64.9311C42.8997 64.4968 43.1191 64.1711 43.4483 63.8454C44.6552 62.5424 45.5329 61.1309 46.0814 59.5022C46.3009 58.7422 46.3009 57.9822 46.1912 57.2221C45.862 55.2677 44.1066 54.2905 42.2414 55.0506C41.254 55.4849 40.486 56.1363 39.8277 57.005C38.5111 58.7422 37.8528 60.588 37.6334 62.7596C37.5237 63.6282 37.5237 64.4968 37.4139 65.474C35.3293 65.0397 33.2448 65.0397 31.2699 64.6054C30.2824 64.3882 29.4047 64.0625 28.527 63.6282C27.2104 62.8682 26.3327 61.7824 26.0036 60.3709C25.8938 59.7194 25.6744 59.1765 25.455 58.6336C24.9064 57.4393 24.5773 56.1363 24.7967 54.7248C25.2355 54.5077 25.455 54.8334 25.6744 54.942C26.1133 55.0506 26.5521 55.2677 27.1007 55.4849C28.4173 55.8106 29.4047 55.4849 30.063 54.1819C30.3922 53.5305 30.5019 52.879 30.7213 52.2275C30.9407 51.5761 31.1602 50.9246 31.3796 50.2731C31.8185 49.2959 32.4768 48.5359 33.5739 48.2102C32.9156 46.9072 31.7087 46.3643 30.3922 46.1472C29.5144 46.0386 28.6367 46.1472 27.759 46.4729C27.4298 46.5815 26.991 46.7986 26.6618 47.0158C24.2481 48.4273 23.919 48.9702 24.0287 51.7932C24.0287 52.5533 24.1384 53.3133 24.2481 54.1819C23.5898 54.2905 23.151 53.9648 22.6024 53.7476C21.6149 53.2047 20.8469 52.5533 20.1886 51.7932C19.8595 51.3589 19.5303 51.2503 18.9818 51.1418C17.336 50.9246 16.0195 50.1646 15.032 48.8616C14.0446 47.6673 13.3863 46.2558 12.8377 44.8442C12.6183 44.3014 12.2891 43.867 11.8503 43.5413C10.8628 42.8898 9.98512 41.9126 9.32683 40.9354C8.88796 40.284 8.77825 39.6325 9.1074 38.8725C9.43654 38.221 9.76569 37.6781 10.3143 37.1352C10.5337 37.6781 10.0948 38.1124 10.3143 38.5467C10.7531 38.5467 11.0823 38.221 11.4114 38.0038C12.6183 37.2438 13.9349 37.0266 15.2515 37.7867C15.5806 38.0038 15.9097 38.1124 16.2389 38.221C16.8972 38.221 17.0069 38.5467 16.8972 39.0896C16.7875 39.7411 16.4583 40.284 16.1292 40.8269C16.0195 41.044 15.9097 41.2612 15.8 41.4783C14.264 43.9756 14.4834 45.3871 16.3486 47.6673C17.336 48.753 18.5429 49.0788 19.9692 49.1874C20.4081 49.1874 20.7372 48.8616 21.0664 48.753C22.3829 47.993 23.5898 46.9072 24.7967 46.0386C25.7841 45.3871 26.7716 44.7357 27.8687 44.1928C30.831 42.9984 34.8905 43.7585 37.0848 45.93C38.0722 46.9072 38.6208 47.993 38.95 49.2959C39.1694 50.3817 39.0597 51.3589 38.4014 52.3361C36.6459 54.8334 34.3419 56.3535 31.3796 57.2221C31.0505 57.3307 30.6116 57.3307 30.2824 57.3307C29.5144 57.2221 29.0756 57.6564 28.7464 58.1993C27.5396 60.0451 27.8687 61.5652 29.8436 62.5424C31.2699 63.1939 32.6962 63.411 34.2322 63.411C34.8905 63.411 35.2196 63.1939 35.4391 62.4338C35.7682 60.8052 36.3168 59.2851 37.0848 57.8736C37.7431 56.6792 38.5111 55.4849 39.6082 54.6162C41.3637 53.2047 43.3386 52.6618 45.5329 53.5305C48.166 54.5077 49.3729 57.3307 48.4952 60.2623C48.2758 61.0223 47.8369 61.6738 47.398 62.3253C48.2758 62.4338 48.934 62.1081 50.1409 61.3481C50.9089 60.8052 51.6769 60.0451 52.2255 59.2851C52.7741 58.4165 53.2129 57.5478 53.5421 56.4621C54.4198 57.4393 54.4198 58.7422 54.749 59.9366C55.2975 59.3937 55.517 58.7422 55.6267 58.0907C56.5044 54.6162 56.285 51.1418 54.9684 47.8844C54.8587 47.6673 54.749 47.3415 54.6392 47.1244C54.6392 47.1244 54.6392 47.0158 54.6392 46.9072C55.4072 46.7986 56.1753 47.1244 56.8335 47.4501C57.4918 47.7758 58.0404 48.2102 58.8084 48.6445C59.357 43.6499 57.7113 39.5239 54.9684 35.5066C56.3947 35.2894 57.7113 35.8323 59.1376 36.2666C59.2473 35.7237 59.0279 35.2894 58.8084 34.9637C58.3696 33.8779 57.7113 32.9007 57.053 31.9235C56.5044 31.0549 55.9558 30.1862 55.8461 28.9919C57.3821 30.4034 59.1376 31.272 60.4542 32.575C62.3193 34.6379 62.9776 37.0266 62.8679 39.8497C61.8805 39.6325 61.1124 38.7639 59.9056 38.7639C61.5513 43.5413 62.0999 48.2102 60.7833 53.2047C60.0153 52.6618 59.7959 51.9018 58.9181 51.5761C59.2473 56.3535 58.6987 60.9138 56.9433 65.3654C56.8335 65.474 56.8335 65.5826 56.9433 65.6912C56.9433 65.1483 56.9433 65.0397 57.053 64.9311ZM13.2766 38.221C12.3989 38.3296 11.7406 38.8725 11.0823 39.3068C10.6434 39.6325 10.6434 39.9582 10.9726 40.3926C11.6308 41.1526 12.2891 41.9126 13.0571 42.5641C13.496 42.8898 13.8252 42.7813 13.9349 42.2384C14.0446 41.8041 13.9349 41.3698 13.6057 41.044C12.6183 40.0668 12.728 39.9582 13.7154 39.0896C13.7154 39.0896 13.8252 39.0896 13.8252 38.981C14.1543 38.6553 14.0446 38.5467 13.7154 38.3296C13.496 38.3296 13.3863 38.3296 13.2766 38.221ZM32.0379 53.9648C33.6836 53.3133 34.8905 52.6618 35.4391 51.9018C36.4265 50.5989 36.0974 49.8388 34.5613 49.6217C34.3419 49.6217 34.1225 49.5131 33.7933 49.7302C33.9031 50.1646 34.2322 50.7074 34.2322 51.1418C34.2322 51.9018 34.0128 52.2275 33.2448 52.119C32.367 52.0104 32.367 52.0104 32.2573 52.7704C32.1476 53.0962 31.9282 53.4219 32.0379 53.9648ZM22.6024 48.8616C20.5178 49.8388 20.4081 50.4903 21.9441 51.7932C22.2732 52.0104 22.4927 52.4447 22.9315 52.3361C22.8218 51.2503 22.7121 50.1646 22.6024 48.8616ZM25.5647 55.9192C25.6744 56.2449 25.6744 56.4621 25.6744 56.5706C25.7841 57.1135 26.0036 57.8736 26.5521 57.8736C27.1007 57.9822 27.4298 57.3307 27.759 56.7878C27.1007 56.4621 26.4424 56.2449 25.5647 55.9192Z" fill="#020100"/>
<path d="M11.4111 34.9629C12.5083 32.4656 14.2637 30.4027 16.2386 28.4483C17.4455 27.2539 18.7621 26.2767 20.1884 25.4081C20.7369 25.0823 21.0661 24.7566 21.2855 24.1052C21.9438 21.6079 23.6992 19.9792 25.8936 18.6763C28.417 17.1562 31.1599 15.9618 33.9028 14.9846C34.8902 14.6589 35.1096 14.116 35.2194 13.2474C35.2194 12.4873 35.3291 11.7273 35.5485 10.9672C35.6582 10.3158 35.8776 10.2072 36.5359 10.5329C37.6331 10.9672 38.6205 11.7273 39.3885 12.5959C39.7177 13.0302 40.0468 13.2474 40.5954 13.1388C41.0343 13.0302 41.3634 12.8131 41.3634 12.3787C41.5828 11.293 41.912 10.2072 42.3508 9.22999C42.5703 8.57853 42.7897 8.03564 43.1189 7.49275C43.7771 6.29839 44.8743 5.86408 46.1909 6.29839C46.8492 6.51555 47.3978 6.84128 47.9463 7.27559C50.6892 9.33857 53.5418 11.5101 55.5167 14.3331C55.8458 14.7675 56.2847 14.876 56.7236 15.0932C59.5761 16.2875 62.2093 17.6991 64.5133 19.762C65.1716 20.4135 65.8299 20.9564 66.4882 21.9336C64.9522 21.2821 63.6356 20.7392 61.8802 20.6307C65.7202 24.3223 66.3785 28.774 65.3911 33.5514C64.8425 32.2485 64.6231 30.837 63.855 29.6426C63.087 28.3397 62.2093 27.2539 61.0024 26.2767C59.9053 25.2995 58.8081 24.5395 57.4916 23.7794C57.2721 24.2137 57.4916 24.4309 57.4916 24.7566C57.6013 26.1681 56.7235 26.9282 55.407 26.711C53.5418 26.4939 51.3475 24.9738 50.5795 23.2365C52.1155 23.0194 52.1155 23.0194 52.0058 21.3907C51.5669 17.1562 50.2504 13.3559 47.3978 10.0986C47.0686 9.6643 46.6297 9.33857 46.1909 9.01284C45.5326 8.57853 45.0937 8.6871 44.5452 9.22999C43.9966 9.77288 43.7771 10.4243 43.448 11.0758C43.0091 12.2702 42.68 13.4645 42.4606 14.6589C42.2411 15.7447 41.4731 16.3961 40.2663 16.5047C40.376 15.9618 40.4857 15.4189 40.7051 14.9846C40.2663 14.7675 39.8274 14.9846 39.3885 14.9846C38.072 15.3103 36.7554 15.7447 35.4388 16.2875C33.025 17.3733 30.6113 18.4591 28.1976 19.6535C25.6741 20.9564 24.0284 22.8022 23.2604 25.5167C23.1507 25.951 22.9312 26.2767 22.4924 26.4939C18.6523 28.3397 15.4706 31.2713 12.5083 34.2029C12.1791 34.5286 11.9597 34.8543 11.6306 35.0715C11.5208 35.0715 11.4111 34.9629 11.4111 34.9629Z" fill="#020100"/>
<path d="M40.0469 48.2089C39.9372 47.7746 40.0469 47.3403 40.0469 46.906C40.1566 44.4087 39.7177 42.02 38.84 39.6313C38.5109 38.7627 38.072 38.0026 37.4137 37.3511C36.4263 36.4825 35 36.6997 34.3417 37.894C34.232 38.1112 34.232 38.2198 34.4514 38.4369C34.7806 38.6541 35.1097 38.7627 35.3291 38.9798C36.7554 40.0656 37.1943 41.4771 36.6457 43.1058C36.3166 42.6715 35.9874 42.3457 35.6583 42.02C34.1223 40.4999 32.3668 39.7399 30.1725 40.2827C27.7588 40.9342 25.7839 39.4141 25.5645 36.9168C25.5645 36.4825 25.5645 35.9396 25.4548 35.5053C25.345 34.2024 25.0159 33.8767 23.6993 33.6595C23.4799 33.6595 23.2604 33.6595 23.041 33.6595C24.3576 32.4651 26.5519 32.4651 27.2102 34.311C27.4296 34.7453 27.6491 35.2882 27.8685 35.7225C28.7462 37.5683 31.8182 37.6769 32.9154 36.2654C33.1348 35.9396 33.3543 35.6139 33.6834 35.2882C35.1097 33.3338 36.0971 33.008 38.4012 33.6595C38.7303 33.4423 38.7303 33.1166 38.7303 32.7909C38.84 31.5965 38.84 30.4022 38.9497 29.3164C38.9497 28.3392 39.1692 27.4706 39.4983 26.6019C40.1566 25.1904 41.144 24.6475 42.6801 24.7561C43.5578 24.8647 44.3258 24.9733 45.2035 25.5162C45.2035 25.6247 45.2035 25.7333 45.0938 25.7333C43.4481 26.2762 42.4606 27.4706 41.6926 28.8821C40.8149 30.6193 40.2663 32.5737 39.9372 34.5281C39.8275 34.8539 40.0469 35.1796 40.1566 35.3967C42.6801 39.6313 42.4606 43.9744 40.0469 48.2089Z" fill="#020100"/>
<path d="M46.6294 23.5625C49.0431 25.4083 50.6888 27.6885 50.7986 30.8372C50.7986 32.0316 50.7986 33.2259 50.7986 34.5289C50.7986 37.0261 51.018 37.7862 52.2249 39.9577C51.3471 39.9577 51.3471 39.9577 48.3848 37.6776C47.8363 38.4377 47.946 39.3063 48.2751 40.0663C48.714 41.1521 49.2626 42.2379 49.8111 43.2151C50.5791 44.7352 51.018 46.3638 50.9083 48.1011C50.7986 49.7297 50.1403 51.2498 48.9334 52.7699C48.9334 50.2726 47.6168 48.5354 46.41 46.6896C45.7517 45.7124 44.9837 44.7352 44.5448 43.5408C43.8865 42.0207 43.7768 40.6092 44.3254 39.0891C44.8739 37.4605 45.5322 35.8318 46.1905 34.2031C46.7391 32.7916 47.178 31.2715 47.3974 29.7514C47.7265 27.9056 47.5071 26.0598 46.7391 24.3225C46.7391 24.214 46.41 23.8882 46.6294 23.5625Z" fill="#020100"/>
<path d="M34.3416 26.4938C33.793 26.711 33.5735 27.1453 33.1347 27.471C32.3667 28.0139 31.489 28.5568 30.3918 28.3396C30.0627 28.2311 29.8432 28.4482 29.6238 28.6654C29.1849 29.0997 28.8558 29.534 28.5266 29.9683C28.3072 30.294 28.1975 30.6198 27.8683 30.8369C26.6615 29.6426 26.7712 29.2083 28.5266 27.0367C27.9781 26.3852 26.9906 26.0595 27.1003 24.9737C27.1003 24.5394 27.2101 24.1051 27.6489 23.7794C27.9781 23.7794 27.8683 24.1051 27.8683 24.2137C28.3072 24.9737 28.8558 25.1909 29.5141 24.648C30.3918 23.9965 31.3792 23.8879 32.3667 24.1051C32.8055 24.2137 33.3541 24.2137 33.793 24.2137C34.6707 24.2137 35.2193 24.1051 35.4387 23.0193C35.6581 22.1507 36.4261 21.6078 37.1942 21.0649C37.7427 20.6306 38.2913 20.3049 38.8399 19.9791C39.8273 19.2191 39.8273 19.0019 38.9496 18.1333C38.9496 18.1333 38.8399 18.0247 38.8399 17.9162C40.0467 17.8076 41.0342 18.2419 41.9119 18.7848C43.0091 19.5448 43.0091 20.4135 41.9119 21.2821C40.9245 22.0421 39.8273 22.4764 38.8399 23.0193C38.0719 23.4536 37.3039 23.7794 36.6456 24.4308C36.7553 24.5394 36.7553 24.648 36.865 24.648C38.401 24.8651 38.5107 25.0823 37.5233 26.3852C36.097 28.2311 34.7804 30.0769 34.1221 32.2484C34.0124 32.6827 33.6833 33.0085 33.2444 33.2256C31.3792 33.9857 29.5141 33.7685 27.5392 32.6827C31.2695 32.2484 33.3541 30.0769 34.3416 26.8195C34.4513 26.711 34.4513 26.6024 34.3416 26.4938C34.4513 26.2767 34.3416 26.3852 34.3416 26.4938ZM31.8181 25.2995C31.8181 25.9509 32.1472 26.6024 31.2695 26.8195C31.1598 26.8195 30.9404 26.8195 31.1598 27.0367C31.2695 27.1453 31.3792 27.2539 31.489 27.2539C31.7084 27.3624 31.9278 27.1453 32.0375 27.0367C32.4764 26.4938 32.9153 25.9509 33.4638 25.408C32.8055 25.2995 32.3667 25.2995 31.8181 25.2995Z" fill="#020100"/>
<path d="M49.2635 21.6075C47.9469 20.3045 46.6303 19.2188 45.204 18.2416C44.8749 18.0244 44.7651 17.8073 44.7651 17.4815C44.7651 16.3957 45.0943 15.5271 45.7526 14.6585C46.0817 14.2242 46.4109 14.1156 46.8497 14.5499C47.0692 14.7671 47.2886 14.9842 47.3983 15.2014C48.7149 17.0472 49.2635 19.2188 49.2635 21.6075Z" fill="#020100"/>
<path d="M25.6743 43.8665C25.4549 43.7579 25.3452 43.6493 25.2354 43.4321C24.7966 42.7807 24.1383 42.6721 23.3703 42.8893C22.0537 43.3236 20.9565 44.0836 19.9691 44.9522C19.64 45.278 19.3108 45.6037 18.9817 45.8209C18.7622 45.4951 18.872 45.278 18.9817 45.0608C19.7497 43.1064 20.9565 41.5863 22.8217 40.5005C23.3703 40.1748 24.0286 39.9577 24.6869 40.1748C25.5646 40.392 26.2229 40.8263 26.4423 41.6949C26.6617 42.6721 26.3326 43.3236 25.6743 43.8665Z" fill="#020100"/>
<path d="M28.4165 22.3681C28.8554 21.608 29.5137 21.0651 30.2817 20.6308C31.0497 20.1965 31.8177 19.8708 32.5857 19.4365C33.244 19.1107 33.9023 18.785 34.3411 18.1335C34.5606 17.8078 34.6703 17.4821 35.2189 17.6992C35.8771 17.9164 36.5354 18.025 36.8646 18.6764C37.084 19.0022 36.8646 19.2193 36.6452 19.4365C36.0966 19.9794 35.4383 20.3051 34.78 20.5222C33.9023 20.848 33.0245 21.0651 32.0371 21.2823C31.0497 21.4994 30.0622 21.8252 29.1845 22.3681C28.8554 22.3681 28.6359 22.4766 28.4165 22.3681Z" fill="#020100"/>
<path d="M17.7744 43.4322C18.323 41.152 19.3104 39.3062 21.1756 37.8947C22.4922 36.9175 23.5893 37.2432 24.2476 38.6547C22.0533 38.5462 20.627 39.7405 19.4201 41.2606C18.8716 41.9121 18.323 42.6721 17.7744 43.4322Z" fill="#020100"/>
<path d="M18.4326 38.2204C18.5423 36.0489 20.7366 34.3116 22.4921 35.0717C20.7366 35.7231 19.5298 36.9175 18.4326 38.2204Z" fill="#020100"/>
<path d="M11.3018 35.2891C11.4119 35.398 11.3018 35.507 11.1917 35.507H11.0815C11.0815 35.398 11.1917 35.2891 11.3018 35.2891Z" fill="#020100"/>
<path d="M39.0601 17.8083C38.95 17.8083 38.95 17.8083 38.8398 17.6993C38.8398 17.6993 38.8398 17.5903 38.95 17.5903C38.95 17.5903 39.0601 17.6993 39.0601 17.8083Z" fill="#020100"/>
<path d="M11.3015 35.2898C11.1914 35.1808 11.3015 35.0719 11.4116 34.9629C11.5217 35.0719 11.5217 35.0719 11.6318 35.1808C11.5217 35.1808 11.5217 35.3988 11.3015 35.2898Z" fill="#020100"/>
<path d="M46.7407 23.5626C46.6306 23.6716 46.6306 23.6716 46.5205 23.5626V23.4536C46.6306 23.4536 46.6306 23.5626 46.7407 23.5626Z" fill="#020100"/>
<path d="M13.2759 38.2197C13.3857 38.2197 13.6051 38.2197 13.7148 38.3283C14.044 38.4369 14.1537 38.654 13.8245 38.9798C13.8245 38.9798 13.7148 38.9798 13.7148 39.0883C12.7274 39.957 12.7274 40.0655 13.6051 41.0427C13.9342 41.3685 14.1537 41.8028 13.9342 42.2371C13.8245 42.78 13.4954 42.8886 13.0565 42.5628C12.2885 41.9114 11.5205 41.2599 10.9719 40.3913C10.6428 39.957 10.6428 39.7398 11.0816 39.3055C11.7399 38.8712 12.3982 38.4369 13.2759 38.2197Z" fill="#FECF01"/>
<path d="M32.0372 53.9642C31.9275 53.5299 32.1469 53.0956 32.2567 52.6613C32.3664 51.9012 32.3664 51.9012 33.2441 52.0098C34.0121 52.1184 34.2315 51.9012 34.2315 51.0326C34.2315 50.4897 33.9024 50.0554 33.7927 49.6211C34.0121 49.4039 34.3412 49.5125 34.5607 49.5125C36.0967 49.7297 36.4258 50.4897 35.4384 51.7926C34.8898 52.5527 33.683 53.3127 32.0372 53.9642Z" fill="#FECF01"/>
<path d="M22.602 48.8613C22.7117 50.1643 22.8214 51.25 23.0408 52.4444C22.602 52.4444 22.2728 52.1187 22.0534 51.9015C20.5174 50.49 20.6271 49.8385 22.602 48.8613Z" fill="#FECF01"/>
<path d="M25.5649 55.9185C26.4427 56.2442 27.101 56.5699 27.7592 56.7871C27.4301 57.33 27.101 57.9814 26.5524 57.8729C26.0038 57.7643 25.7844 57.1128 25.6747 56.5699C25.6747 56.3528 25.6747 56.2442 25.5649 55.9185Z" fill="#FECF01"/>
<path d="M57.0533 64.9303C57.0533 65.0393 56.9432 65.1483 56.8331 65.0393C56.723 64.9303 56.8331 64.8214 56.8331 64.7124C56.9432 64.9303 56.9432 64.9303 57.0533 64.9303Z" fill="#FECF01"/>
<path d="M31.8178 25.2998C32.3664 25.2998 32.8053 25.2998 33.4636 25.2998C32.915 25.9513 32.4761 26.4942 32.0373 26.9285C31.8178 27.1456 31.5984 27.2542 31.379 27.1456C31.2693 27.1456 31.1596 27.037 31.0498 26.9285C30.9401 26.7113 31.0498 26.7113 31.1596 26.7113C32.147 26.4942 31.8178 25.9513 31.8178 25.2998Z" fill="#FECF01"/>
<path d="M34.3418 26.494C34.3418 26.385 34.4519 26.276 34.562 26.385C34.6721 26.494 34.562 26.6029 34.562 26.7119C34.4519 26.6029 34.4519 26.494 34.3418 26.494Z" fill="#FECF01"/>
</svg>
