<svg width="351" height="105" viewBox="0 0 351 105" fill="none" xmlns="http://www.w3.org/2000/svg">
<path d="M53.2142 0.174979C50.3065 7.60573 47.1834 14.9288 44.0603 22.4672L39.7526 32.3749L35.3373 22.4672C31.9988 15.0365 28.8757 7.60573 25.968 0.174979H1.73724V2.11344C4.42955 2.11344 6.5834 4.37498 6.5834 7.06728C6.15263 12.1288 5.72186 17.298 5.29109 22.3595L3.67571 37.9749C2.92186 45.4056 2.06032 52.8364 0.983398 60.2671H8.73725C9.16801 52.8364 9.81417 45.4056 10.568 37.9749L12.9372 14.498C16.3834 21.6057 19.6142 28.8211 22.8449 36.0364L23.7065 37.9749C26.9372 45.298 30.0603 52.7287 33.0757 60.2671H35.4449C38.3526 52.8364 41.4757 45.4056 44.7065 37.9749L46.1065 34.7441C49.2296 27.5288 52.4603 20.3134 55.7988 13.2057L58.2757 37.9749C59.0296 45.4056 59.6757 52.8364 60.1065 60.2671H77.8757C76.7988 52.8364 75.9373 45.4056 75.1834 37.9749L73.568 22.3595C72.8142 14.9288 72.168 7.49805 71.7373 0.0672969H53.2142V0.174979ZM132.906 54.2364C134.845 50.4672 136.999 46.698 139.153 43.1441L160.691 7.17496V5.66728H113.199V16.7596H115.03C115.03 14.0673 117.076 11.9134 119.66 11.8057C121.168 11.8057 122.676 11.698 124.076 11.698H139.368C137.43 15.3596 135.383 19.0211 133.23 22.5749L111.583 58.7595V60.2671H162.845V53.8056C159.183 54.1287 155.63 54.2364 151.968 54.2364H132.906ZM220.676 60.2671C220.783 60.2671 220.999 60.2671 221.107 60.2671C220.783 56.6056 220.676 52.8364 220.676 49.1749V35.6057H241.891V49.1749C241.891 52.9441 241.783 56.6056 241.46 60.2671H257.83C257.507 56.6056 257.399 52.8364 257.399 49.1749V16.8672C257.399 13.098 257.507 9.4365 257.83 5.66728H237.045V7.39036H237.476C239.845 7.39036 241.676 9.22112 241.783 11.5903C241.783 13.3134 241.891 15.1442 241.891 16.8672V29.6826H220.676V16.8672C220.676 13.098 220.783 9.4365 221.107 5.66728H200.322V7.39036H200.753C203.014 7.39036 204.953 9.22111 205.06 11.4826C205.168 13.2057 205.168 15.0365 205.168 16.7596V54.6672C203.014 54.9902 200.753 55.0979 198.599 55.0979C196.23 55.0979 193.86 54.8825 191.491 54.5595C184.922 53.2672 183.953 47.1287 183.953 43.3595V16.6519C183.953 12.9903 184.168 9.43651 184.383 5.77498H163.599V7.49804H164.03C166.399 7.49804 168.23 9.32881 168.337 11.5903C168.445 13.3134 168.445 15.1442 168.445 16.8672V40.6672C168.445 46.0518 170.168 57.8979 184.707 60.0518C189.23 60.6979 193.86 61.021 198.599 61.021C206.03 61.021 213.353 60.6979 220.676 60.2671ZM327.722 33.0211C327.722 51.6518 311.676 61.021 295.845 61.021C280.014 61.021 263.968 51.5441 263.968 33.0211C263.968 14.3903 280.014 5.02112 295.845 5.02112C311.676 4.91343 327.722 14.3903 327.722 33.0211ZM312.107 33.0211C312.107 22.898 307.907 10.9442 295.737 10.9442C283.676 10.9442 279.368 22.898 279.368 33.0211C279.368 43.1441 283.568 55.0979 295.737 55.0979C307.907 54.9902 312.107 43.1441 312.107 33.0211ZM104.26 16.8672C104.26 13.098 104.368 9.4365 104.691 5.66728H83.368V7.60574H83.7988C86.5988 7.60574 88.7526 9.86727 88.7526 12.6673C88.7526 14.0673 88.8603 15.4673 88.8603 16.8672V49.1749C88.8603 52.9441 88.7526 56.6056 88.4296 60.2671H104.799C104.476 56.6056 104.368 52.8364 104.368 49.1749L104.26 16.8672Z" fill="#183181"/>
<path d="M30.7066 90.206C73.7835 80.5137 118.476 75.4522 164.353 75.4522C229.184 75.4522 291.753 85.1445 350.66 103.237C350.876 103.344 350.984 103.56 350.984 103.775C350.984 103.991 350.66 104.206 350.445 104.098C289.922 94.1906 227.891 88.483 164.676 87.406C120.091 86.6522 75.3989 88.1599 31.0297 92.0368C30.5989 92.0368 30.1681 91.8214 30.0604 91.3906C29.9527 90.8522 30.2758 90.3137 30.7066 90.206Z" fill="#ED1A3A"/>
</svg>
