<svg width="391" height="78" viewBox="0 0 391 78" fill="none" xmlns="http://www.w3.org/2000/svg">
<path d="M390.081 77.049C389.972 77.1033 389.864 77.1033 389.755 77.1033C259.837 77.1033 129.918 77.1033 0 77.1033V0H390.244V76.9946L390.081 77.049Z" fill="#26366F"/>
<path d="M3.36888 73.7887H386.984V3.31445C259.945 3.36879 132.907 3.36879 5.86835 3.31445C4.99897 3.31445 4.18392 3.31445 3.36888 3.31445C3.42321 26.1901 3.42321 49.12 3.36888 71.9956C3.31454 72.5933 3.31454 73.191 3.36888 73.7887Z" fill="white"/>
<path d="M5.70508 71.7241C5.70508 71.4524 5.70508 71.1807 5.70508 70.9091C5.81375 49.0658 5.70508 27.2226 5.70508 5.37939H384.701C384.701 5.81409 384.756 6.30311 384.756 6.7378C384.756 28.3093 384.756 49.8265 384.756 71.3981C384.538 71.6154 384.212 71.7241 383.941 71.7784L5.70508 71.7241ZM7.17216 70.42H383.56L383.506 6.52045C258.532 6.52045 133.559 6.79214 8.58491 6.52045C8.04154 6.52045 7.49818 6.52046 7.00915 6.57479C7.00915 27.603 7.11783 48.6855 6.95482 69.7137C6.90048 69.9853 6.95482 70.257 7.17216 70.42Z" fill="#26366F"/>
<path d="M342.699 61.0197C341.123 61.074 339.493 61.0197 337.918 60.9653C337.863 52.7605 337.918 44.5014 337.863 36.2966C337.863 36.0249 337.863 35.7533 337.918 35.4816L343.569 35.4272C343.569 43.5234 343.623 51.5651 343.569 59.6069C343.569 60.0416 343.569 60.5307 343.514 60.9653C343.188 61.0197 342.917 61.0197 342.699 61.0197Z" fill="#E04918"/>
<path d="M366.39 18.1484C365.792 17.768 365.303 17.2246 364.977 16.6269C364.434 17.1703 363.891 17.6593 363.293 18.1484C362.967 18.42 363.021 17.931 363.239 17.605L365.195 14.5622C366.064 14.6165 365.792 14.2361 366.825 14.7252C368.02 15.2685 367.966 16.1379 367.694 17.2246C367.531 17.7137 367.096 18.094 366.607 18.257L366.39 18.1484Z" fill="#26366F"/>
<path d="M277.333 30.9174C276.083 30.8088 274.833 30.8631 273.801 30.0481C273.095 29.4504 272.66 28.581 272.551 27.6573C272.551 25.9728 272.823 24.2884 273.366 22.7127C273.421 22.441 273.692 23.1473 273.747 23.3647C273.91 24.6144 274.29 25.8098 274.833 26.8966C275.866 27.3312 276.953 27.5486 278.094 27.6029C281.354 27.6573 285.375 27.4942 287.874 25.1034L287.059 23.1473L288.526 19.6155C290.156 21.6803 290.374 24.6144 289.015 26.8966C286.733 30.8631 281.408 31.2978 277.333 30.9174Z" fill="#26366F"/>
<path d="M294.177 24.9947C294.123 22.8213 294.123 20.6478 294.177 18.42L296.459 16.2466L296.513 23.9623L294.231 25.8098C294.177 25.5381 294.177 25.2664 294.177 24.9947Z" fill="#26366F"/>
<path d="M282.386 16.6811C281.245 16.7354 280.158 16.7354 279.017 16.6811L280.375 14.6707L283.744 14.725L282.766 16.6811H282.386Z" fill="#26366F"/>
<path d="M317.27 31.3519C317.27 26.516 317.27 21.6801 317.27 16.8441C317.27 16.6268 317.324 16.4094 317.433 16.2464L319.063 15.051L319.117 28.0374C321.019 28.4721 322.758 27.9831 324.442 27.0594C324.008 25.8096 323.627 25.1576 324.062 23.8535C324.279 23.2015 325.312 22.6581 325.964 22.6038C326.67 22.5494 327.811 22.4951 328.355 22.9841C329.333 23.9079 329.007 25.701 328.463 26.7333C329.876 26.8964 331.234 26.679 332.593 26.2443C332.81 26.1356 333.028 26.027 333.245 25.9183C333.028 25.2663 332.919 24.5599 333.028 23.8535C333.028 23.4188 333.354 22.9841 333.734 22.8211C334.658 22.4951 335.636 22.5495 336.505 23.0385C336.777 23.2558 336.94 23.5275 336.994 23.8535C337.157 24.4512 337.429 24.7229 337.266 25.4293C337.211 25.701 337.048 25.9726 336.885 26.19C335.255 28.4721 329.387 29.8849 326.725 30.2109C326.453 30.2652 326.236 30.2652 325.964 30.2109L325.312 29.3958C323.899 30.1565 322.432 30.8086 320.911 31.2976C319.715 31.5693 318.465 31.6236 317.27 31.3519Z" fill="#26366F"/>
<path d="M286.298 31.7325C285.918 31.7325 285.592 31.5151 285.918 31.3521C291.623 29.1243 296.948 26.0272 300.806 21.0826C301.675 19.8872 302.273 18.5831 302.708 17.1703C303.197 16.8443 303.686 16.5726 304.175 16.3553L305.044 16.1379V27.4942C305.859 27.8203 306.783 27.9289 307.652 27.7659C308.848 27.5486 309.935 27.1139 310.967 26.4619C310.913 25.4295 311.347 23.908 312.325 23.419C312.434 23.3647 312.597 23.3103 312.706 23.256C313.358 23.2017 314.064 23.3103 314.662 23.6364C315.586 24.1797 315.477 25.2665 315.151 26.1358C314.39 28.2006 310.043 29.9937 308.033 30.5914C306.348 31.0804 304.664 31.3521 302.925 31.3521C302.925 28.4723 302.925 25.5381 302.925 22.6583C302.925 22.1149 302.925 21.5172 302.599 22.0063C300.1 25.5925 297.329 28.744 293.253 30.4827C291.026 31.4065 288.689 31.8412 286.298 31.7325Z" fill="#26366F"/>
<path d="M119.866 60.5307C120.246 57.7595 120.029 54.8797 119.214 52.2172C118.833 50.8588 118.29 49.5547 117.584 48.305C115.41 44.4471 112.313 41.1869 108.564 38.7961C104.597 36.188 100.576 34.9926 96.501 32.8734C94.2189 31.6237 92.0454 30.1566 90.0893 28.4179L87.5355 30.4826C90.1437 31.5694 92.7518 32.6561 95.3056 33.9058C100.631 36.4596 105.412 40.2632 108.564 45.2078C110.9 48.8483 112.259 52.9779 112.53 57.2705C112.585 58.1942 112.53 59.1179 112.313 59.9873L112.204 60.5307C107.857 60.2046 103.184 60.5306 98.8375 60.4763C99.7069 54.9883 97.8594 49.5547 94.5449 45.2078C90.9044 40.4262 85.5794 37.1117 80.0914 34.8839C79.8741 34.8295 79.7111 34.7752 79.4937 34.7209L77.3203 35.6989C84.1667 39.8828 89.7633 46.4575 91.1217 54.5536C91.5564 56.5098 91.5021 58.5745 91.0674 60.5307C80.1458 60.259 69.1155 60.5307 58.1395 60.5307C57.9765 58.6832 57.5962 57.6508 57.8135 55.6947C58.7916 47.2182 64.2252 39.9372 71.5063 35.6446L69.3872 34.7752C63.3558 37.166 58.4656 40.4262 54.5533 45.5882C52.9232 47.8159 51.7822 50.3154 51.1301 52.9779C50.5324 55.423 50.5868 58.0312 50.8041 60.5307C46.8376 60.3133 42.8167 60.3133 38.8501 60.5307C38.5784 60.5307 38.3068 60.5306 37.9807 60.4763C37.1114 54.771 38.6871 49.1743 41.893 44.4471C44.9358 39.8285 49.5544 36.4053 54.4447 33.9602C56.8355 32.7648 59.2806 31.841 61.7257 30.7543L59.0089 28.5809C57.1071 30.2109 55.0967 31.6237 52.8689 32.8734C49.2284 34.7752 45.5878 35.9163 42.0016 38.0354C36.7853 41.1326 32.3841 46.0228 30.591 51.8368C29.6673 54.5536 29.5043 57.4335 30.0476 60.259C29.6129 60.422 29.1782 60.4763 28.7436 60.5307C24.8857 60.3676 20.9191 60.3676 17.0069 60.5307C16.1919 57.7595 16.6265 54.608 17.3329 51.8368C19.0717 45.1535 24.0706 39.4481 29.8846 35.8619C33.3078 33.7428 37.1657 32.4387 40.7519 30.6456C44.6098 28.7439 48.4677 25.6467 50.5868 21.8975C51.5105 20.3761 52.1082 18.6373 52.2712 16.8442C52.3255 16.6269 52.3799 16.3552 52.5429 16.1378H55.0424C55.3684 19.3437 56.7268 22.3322 58.9546 24.6143C61.128 22.2778 62.4864 19.3437 62.8125 16.1378L65.3663 16.0835C65.801 19.3437 67.2137 22.3865 69.4415 24.8316C70.5282 23.7449 71.3976 22.4409 72.104 21.0824C72.9734 19.1263 73.082 18.0939 73.5711 16.1378H76.1792C76.5052 19.2893 77.8636 22.2778 79.9828 24.6143C81.9932 22.1692 83.5146 19.3437 83.8406 16.1922H86.4488C86.7205 19.235 88.0245 22.1148 90.0893 24.397C92.0998 22.0605 93.3495 19.1807 93.6755 16.1378H96.2293C96.7727 20.4847 99.1092 24.1796 102.478 26.9508C104.108 28.3092 105.847 29.5589 107.749 30.537C111.715 32.6017 115.573 33.7428 119.431 36.2423C125.354 39.9915 130.19 45.8055 131.983 52.6519C132.417 54.445 132.689 56.2381 132.743 58.0855C132.743 58.9006 132.635 59.7699 132.417 60.585C128.179 60.3133 123.995 60.4763 119.866 60.5307ZM69.4958 31.8954L71.9953 30.7L69.6045 28.7982L67.0507 30.8086C67.8657 31.1347 68.6808 31.515 69.4958 31.8954ZM79.3307 31.6237L79.6024 31.7324C80.5261 31.2977 81.3955 30.9173 82.2649 30.4283L79.9828 28.5265L77.2659 30.7C77.9723 30.9717 78.6787 31.2977 79.3307 31.6237ZM74.2774 33.9602C74.9838 34.0145 75.6358 33.4711 76.2335 33.0908L74.6035 32.4387L72.919 33.3081C73.3537 33.5798 73.7884 33.7972 74.2774 33.9602ZM122.745 57.7595L129.864 57.7052C129.864 57.4335 129.864 57.1618 129.864 56.8901C129.755 54.771 129.266 52.6519 128.451 50.6414C126.277 45.2621 122.039 40.9152 117.04 37.9267C113.454 35.8076 109.759 34.6665 106.173 32.7648C101.446 30.3196 97.3704 26.5161 94.9796 21.7345C94.1646 23.3646 93.1322 24.9403 91.9911 26.4074C93.6755 27.9288 95.5773 29.2329 97.5877 30.3196C101.446 32.3301 105.575 33.6885 109.27 36.0249C111.715 37.6007 113.943 39.4481 115.899 41.5129C119.866 45.8055 122.854 51.8368 122.745 57.7595ZM84.8187 28.7439L85.036 28.9069L88.1875 26.4074C87.0465 24.9947 86.0141 23.4189 85.199 21.8431C84.384 23.5276 83.2973 25.1577 82.0475 26.5704C82.8626 27.3311 83.8406 28.0375 84.8187 28.7439ZM71.5606 26.7878L74.7121 29.0699C75.9075 28.3092 76.9943 27.4941 78.0266 26.5161C76.7769 25.049 75.7445 23.4189 74.9295 21.6801C74.0058 23.5276 72.8647 25.2663 71.5606 26.7878ZM101.772 57.7595L109.922 57.7052C109.868 56.5098 109.705 55.3144 109.487 54.1733C109.161 52.5432 108.672 50.9674 107.912 49.5004C105.249 44.1211 100.902 40.1545 95.7403 37.2204C92.3171 35.2642 88.4049 34.2318 85.036 32.1671L83.2429 33.1994C85.9054 34.5579 88.5136 36.1336 90.9587 37.818C96.7184 42.1106 102.098 50.2067 101.772 57.7595ZM64.1709 29.1242L64.3339 29.2329L67.5397 26.8421C66.2357 25.3207 65.0946 23.6906 64.1709 21.9518C63.2472 23.6363 62.2148 25.212 60.965 26.6791C62.0518 27.5485 63.0841 28.3635 64.1709 29.1242ZM26.4614 57.7052H27.0048C27.0048 55.9664 27.2221 54.282 27.6025 52.5975C29.1239 45.8598 33.9055 39.9372 39.6652 36.2423C43.6861 33.6885 47.6526 32.4387 51.7278 30.2653C53.6296 29.2329 55.4227 27.9832 57.0528 26.5704C55.7487 25.1033 54.662 23.4732 53.847 21.6801C51.4018 26.7334 47.0006 30.5913 42.056 33.0908C38.3068 34.9926 34.7749 36.0793 31.1344 38.3614C29.4499 39.4481 27.8742 40.6435 26.4071 42.0563C22.3319 46.0228 19.3434 51.4565 19.3977 57.2705C19.3977 57.4335 19.452 57.5965 19.5064 57.7595C21.8428 57.7052 24.125 57.7052 26.4614 57.7052ZM40.5345 57.7052L47.9786 57.6508C47.9786 54.9883 48.4133 52.3259 49.337 49.8264C52.6516 41.8389 58.1939 36.6226 66.1813 33.2538C65.5293 33.0908 64.9316 32.7648 64.4426 32.3301C60.965 34.3405 57.1615 35.4272 53.6839 37.4377C52.1082 38.3614 50.5868 39.3938 49.174 40.5349C44.2294 44.4471 40.0999 51.2391 40.5345 57.7052ZM60.639 57.7052H88.7309C88.6766 56.0751 88.4592 54.4993 87.9702 52.9779C85.9598 46.0772 80.7435 40.3719 74.3861 37.1117C71.941 38.4701 69.6588 40.1002 67.5941 42.0019C63.5188 45.9685 60.2043 51.8912 60.639 57.7052Z" fill="#26366F"/>
<path d="M344.221 30.2654C343.134 29.3417 342.047 27.9833 342.156 26.5162C342.265 24.7774 343.188 22.9843 344.221 21.6259C344.873 20.7565 345.688 19.9958 346.557 19.3981C347.427 18.8004 348.296 18.3114 349.274 17.8767C349.6 17.8224 349.98 17.768 350.306 17.7137C351.502 19.2351 351.882 21.1912 351.393 23.0387C350.958 24.5058 349.437 24.9948 348.133 25.2121C347.807 25.2665 347.427 25.2665 347.101 25.2665V22.8757C347.698 22.8757 348.296 22.8757 348.948 22.8213C350.089 22.3866 349.437 20.9739 348.948 20.2675C348.187 20.7022 343.569 23.8537 343.949 24.9948C343.895 26.2445 345.144 27.4399 346.231 27.8746C349.111 29.07 354.816 26.7335 357.098 24.9404L357.153 17.279C357.696 16.6813 358.348 16.138 359 15.6489V27.7659C360.576 28.4723 362.152 28.0376 363.456 27.0596C363.401 25.7555 363.184 24.8318 364.054 23.7994C364.706 22.9843 365.792 22.604 366.825 22.8213L367.205 22.8757C368.835 23.5277 367.748 25.9728 367.205 26.9509C368.563 27.2769 369.052 27.3312 370.357 26.7335C371.28 26.2989 372.095 25.5925 372.639 24.7231L371.552 23.2017L373.345 20.2675C374.106 21.2456 374.214 22.604 374.269 23.7994C374.16 24.7231 373.943 25.6468 373.508 26.5162C371.824 29.233 368.346 29.9394 365.358 30.2111L364.488 29.3417C362.423 30.4828 360.25 31.3521 357.859 31.1891C357.588 31.1348 357.261 31.0261 357.044 30.9175V27.3856C354.327 29.396 351.176 31.1891 347.753 31.4608C346.449 31.4065 345.199 31.0261 344.221 30.2654Z" fill="#26366F"/>
<path d="M195.502 61.074C195.394 60.8567 195.339 60.585 195.339 60.3676C195.339 56.8901 195.448 53.3582 195.176 49.8807C195.122 49.283 194.905 48.7396 194.524 48.3049C193.709 47.4899 192.46 47.2726 191.373 47.7616C190.558 48.1963 189.96 48.957 189.851 49.8807C189.525 53.3039 189.743 57.5421 189.797 61.074H184.092C184.092 55.1513 184.255 49.2287 183.929 43.306H188.765L189.036 44.9904C189.036 45.1534 189.308 45.1534 189.471 45.2621C191.155 43.1973 193.981 42.5996 196.48 43.143C197.35 43.3603 198.165 43.795 198.817 44.3927C199.632 45.2078 200.773 47.1095 200.827 48.3049C201.045 52.5432 200.936 56.7814 200.882 61.074H195.502Z" fill="#26366F"/>
<path d="M370.303 34.1233L368.618 32.9279C369.107 32.0042 369.705 31.1348 370.303 30.2654C370.411 30.1567 370.574 30.4284 370.683 30.4827C371.226 30.8088 371.77 31.1348 372.259 31.5695L370.574 34.2863L370.303 34.1233Z" fill="#26366F"/>
<path d="M252.447 61.0197C250.871 61.074 249.241 61.074 247.665 60.9654C247.394 55.097 247.122 49.2831 247.122 43.4147C247.122 43.2517 246.742 43.5234 246.579 43.5777C245.112 49.0657 243.318 54.608 241.634 59.9873C241.58 60.2047 241.417 60.422 241.308 60.585C239.95 60.6937 238.646 60.6937 237.287 60.585C237.124 60.4763 236.961 60.3677 236.907 60.2047C235.331 54.608 233.864 48.9027 232.288 43.2517C232.234 42.98 232.016 43.7407 232.016 44.0124C232.016 44.5015 232.125 44.9905 232.071 45.5882C231.908 50.3698 231.69 55.2057 231.473 59.9873C231.419 60.3133 231.31 60.6393 231.201 60.9654L226.257 61.074C226.746 52.9779 227.181 44.9361 227.833 36.84C230.169 36.7313 232.56 36.7313 234.896 36.84C235.114 36.9487 235.277 37.166 235.385 37.3834C236.798 42.5997 238.483 47.7616 239.515 53.0323C241.145 47.5986 242.721 42.2737 244.351 36.84C246.796 36.677 249.295 36.6227 251.741 36.7857C251.958 44.7731 252.556 52.8692 252.936 60.911L252.447 61.0197Z" fill="#E04918"/>
<path d="M278.474 61.4545C276.681 61.3458 275.322 60.4764 274.127 59.2267C273.584 58.629 273.258 57.3249 273.258 56.5099C273.149 55.3145 273.366 54.1191 273.801 53.0323C274.399 51.6739 276.735 50.3155 278.094 49.8808C279.778 49.5005 281.462 49.2831 283.147 49.2831C283.473 48.9028 283.527 48.3594 283.201 47.9791C282.767 47.49 282.223 47.1097 281.571 46.9467C280.647 46.8923 279.778 46.8923 278.854 47.001C277.605 47.164 276.464 47.5987 275.377 48.2507L274.399 44.6102C275.214 44.1755 276.029 43.8495 276.898 43.5778C277.279 43.4691 279.669 43.0344 279.995 43.0344C282.441 42.9258 285.103 43.1975 287.005 44.8276C288.472 46.023 289.015 48.1421 289.07 49.9352C289.178 53.63 289.015 57.3249 289.233 61.0198C287.711 61.0741 286.19 61.0741 284.668 61.0198C284.071 60.8024 284.125 59.8787 284.071 59.444C282.604 60.8024 280.593 61.5631 278.474 61.4545ZM280.05 57.3792C281.462 57.7053 282.875 56.9989 283.473 55.6948C283.69 54.9341 283.745 54.1191 283.636 53.3584C283.582 53.1953 283.745 52.8693 283.527 52.815C282.115 52.652 279.452 52.8693 278.909 54.4994C278.583 55.4231 278.528 56.0208 279.235 56.8359C279.452 57.1076 279.724 57.3249 280.05 57.3792Z" fill="#E04918"/>
<path d="M150.131 61.2916C149.044 61.2372 148.012 61.1286 146.925 60.9112V37.0032C151.381 36.2968 158.716 35.8078 162.465 38.6876C164.422 40.2091 164.693 43.1432 163.661 45.2623C163.118 46.4034 161.705 47.3815 160.618 47.9792C163.226 48.6855 165.074 51.0763 165.019 53.8475C165.128 58.7921 160.672 61.0742 156.271 61.2916C154.315 61.3459 152.196 61.3459 150.131 61.2916ZM152.631 46.1861C153.88 46.3491 155.13 46.2947 156.38 46.023C157.304 45.86 158.064 45.2623 158.499 44.4473C158.771 43.7409 158.771 42.2738 158.119 41.7305C156.543 40.4264 154.532 40.5351 152.631 40.8611C152.576 42.5999 152.576 44.393 152.631 46.1861ZM152.631 56.999C153.88 57.2707 155.184 57.2707 156.38 56.9447C157.412 56.7817 158.282 56.184 158.879 55.3146C159.368 54.6625 159.423 52.8694 158.934 52.2174C157.467 50.2613 154.858 50.2613 152.631 50.4243C152.576 52.5978 152.576 54.8256 152.631 56.999Z" fill="#26366F"/>
<path d="M214.465 61.0741C213.107 58.7377 211.694 56.4012 210.336 54.0647C209.684 54.4451 209.249 55.0428 209.032 55.7492C208.814 57.4879 209.032 59.3354 209.032 61.1285H203.381C203.435 52.8693 203.381 44.6102 203.381 36.3511C203.381 36.0794 203.381 35.7534 203.381 35.4817H208.923C208.923 35.8077 208.978 36.0794 208.978 36.4054C208.923 40.8067 208.978 45.2079 208.923 49.6091C208.923 50.1525 208.923 50.7502 209.195 50.3155C210.553 48.0877 211.966 45.9143 213.487 43.7951C213.596 43.6321 213.759 43.5235 213.922 43.4691L220.551 43.3605L214.194 50.5872L221.475 61.0741H214.465Z" fill="#26366F"/>
<path d="M169.584 61.2372C167.845 60.6939 166.541 59.3354 165.943 57.651C165.726 56.51 165.726 55.3146 165.943 54.1192C167.573 50.0983 171.812 49.0659 175.778 49.2289C175.887 49.0659 175.941 48.8485 176.05 48.6855C176.104 48.1422 175.506 47.4901 175.017 47.2728C172.844 46.2947 170.019 47.0011 168.008 48.1965C167.736 47.1641 167.41 46.2404 167.139 45.208C167.084 44.9906 167.03 44.719 167.084 44.5016C169.91 43.0345 173.116 42.5999 176.213 43.1432C178.604 43.5779 180.723 45.208 181.375 47.5445C182.353 51.2937 181.646 56.9447 181.973 61.0742H176.919L176.593 59.4441C175.778 60.3135 174.691 60.9655 173.496 61.2916C172.192 61.5632 170.834 61.5632 169.584 61.2372ZM171.866 56.9447C172.355 57.325 173.605 57.7054 174.257 57.2707C174.854 56.999 175.887 56.347 176.05 55.6949C176.213 54.9342 176.322 54.1192 176.267 53.3584C176.213 53.1411 176.376 52.8151 176.213 52.8151C174.637 52.7064 172.301 52.9238 171.486 54.5539C171.051 55.3689 171.214 56.347 171.866 56.9447Z" fill="#26366F"/>
<path d="M323.627 61.3457C322.269 61.0196 320.476 59.7699 320.041 58.4115C319.335 56.075 319.117 54.771 320.421 52.5975C321.073 51.7825 321.889 51.1304 322.812 50.5871C324.931 49.609 327.268 49.1743 329.604 49.283C329.767 48.794 329.713 48.2506 329.496 47.7616C327.376 45.9685 323.899 47.0552 321.726 48.1419L320.693 44.5557C323.41 43.306 326.453 42.817 329.441 43.0886C330.093 43.1973 330.745 43.306 331.397 43.5233C332.104 43.8493 332.756 44.2297 333.408 44.7187C334.06 45.4251 334.549 46.2401 334.929 47.1095C335.147 47.8702 335.31 48.631 335.418 49.446C335.418 52.5432 334.984 58.1398 335.744 60.911C334.169 60.9653 332.593 61.0196 331.017 60.9653C330.582 60.4763 330.311 59.8786 330.202 59.2265C329.278 60.4763 328.844 60.4763 327.54 61.1283C326.833 61.5087 324.334 61.5087 323.627 61.3457ZM326.344 57.3791C326.887 57.4334 327.376 57.4334 327.92 57.4334C328.789 57.1618 329.441 56.5641 329.822 55.749C330.039 54.8253 330.039 53.8472 329.93 52.9235C329.115 52.7605 328.3 52.8148 327.54 53.0322C326.507 53.3039 324.986 54.1189 325.04 55.3687C324.986 56.1294 325.475 57.1618 326.344 57.3791Z" fill="#E04918"/>
<path d="M367.151 61.237C366.227 60.8566 365.412 60.3132 364.76 59.6069C363.999 58.4658 363.564 57.1074 363.564 55.6947C363.401 53.0322 363.564 50.3153 363.564 47.5985L361.228 47.3268V43.3603H363.51C363.564 42.4366 363.564 41.4585 363.564 40.5348C363.564 40.3174 363.89 40.0458 364.053 39.9371C365.195 39.5024 366.39 39.2307 367.531 38.9047C367.966 38.796 368.455 38.7417 368.889 38.7417L368.998 43.3603L373.019 43.4146V47.3268C372.15 47.5985 371.226 47.5985 370.302 47.4355C369.813 47.3812 369.378 47.4899 368.944 47.7615C368.889 50.424 368.998 53.0322 369.161 55.6403C370.302 56.9987 371.172 56.9444 372.802 56.5097C372.693 57.9224 372.693 59.2808 372.693 60.6393C372.53 60.8566 372.53 60.9653 372.15 61.074C370.574 61.4543 368.835 61.5086 367.151 61.237Z" fill="#E04918"/>
<path d="M259.239 61.1828C257.663 60.6938 257.12 60.1504 256.196 58.8463C255.761 57.8139 255.435 56.7815 255.164 55.7491C255.055 51.6739 255.109 47.5444 255.109 43.4691L260.652 43.4148C260.652 47.1097 260.543 50.8589 260.815 54.5538C260.869 55.3145 261.249 56.0752 261.901 56.5099C263.26 57.1619 264.835 56.8359 265.814 55.7491C265.814 55.6948 266.085 55.0428 266.085 54.9884C266.411 51.2392 266.248 47.3813 266.248 43.5778C268.15 43.4148 270.052 43.4148 271.954 43.5235L272.008 61.1285H267.226L267.118 58.629C265.162 61.1285 262.336 61.9978 259.239 61.1828Z" fill="#E04918"/>
<path d="M348.514 61.2371C347.97 61.0741 347.427 60.8024 346.938 60.4221C345.036 59.0637 344.493 56.7272 344.873 54.5538C345.199 53.0867 346.069 51.8369 347.318 51.0219C348.296 50.4785 349.329 50.0438 350.416 49.7178C351.883 49.4461 353.35 49.3375 354.817 49.3375C355.088 48.6311 354.871 47.816 354.273 47.327C353.784 47.1097 353.241 46.9467 352.698 46.8923C350.687 46.7293 348.677 47.164 346.938 48.0877L345.96 44.5559C348.514 43.1431 351.394 42.8714 354.273 43.0344C354.328 43.0344 356.501 43.4691 356.61 43.5235C358.24 44.1755 359.544 45.4796 360.196 47.1097C360.468 48.1421 360.631 49.1745 360.685 50.2069C360.685 53.7931 360.522 57.4336 360.848 60.9654C359.327 61.0741 357.751 61.0741 356.23 60.8568C355.686 60.7481 355.577 59.4984 355.577 59.118C354.002 61.5632 351.068 61.6175 348.514 61.2371ZM351.611 57.3792C352.1 57.4879 352.643 57.4879 353.187 57.3249C355.469 56.7272 355.36 54.7168 355.251 52.815C353.784 52.5433 351.231 52.9237 350.579 54.4994C350.361 54.9884 350.307 55.5318 350.47 56.0752C350.579 56.7272 351.013 57.1619 351.611 57.3792Z" fill="#E04918"/>
<path d="M317.379 61.0741C315.857 61.0741 314.336 61.074 312.869 61.0197C312.814 57.3248 312.977 53.5756 312.651 49.8808C312.543 48.631 311.619 47.653 310.369 47.4356C309.119 47.2726 307.652 48.7397 307.598 49.8808C307.326 53.5756 307.489 57.3248 307.489 61.0197H302.056C302.056 57.3248 302.164 53.63 302.056 49.8808C301.784 49.1744 301.458 48.5223 301.078 47.9246C300.697 47.7616 300.263 47.5986 299.882 47.49C299.23 47.5986 298.361 47.7616 297.872 48.305C297.546 48.8484 297.22 49.3917 296.948 49.9351C296.894 53.6843 297.002 57.4335 296.894 61.1284L291.623 61.1827C291.569 60.8024 291.569 60.422 291.569 60.0417C291.623 54.5537 291.732 49.0114 291.406 43.5234H296.024C296.133 44.2298 296.187 44.8818 296.187 45.5882C296.187 45.8055 296.622 45.4252 296.731 45.2622C298.306 43.5234 299.882 43.0344 302.164 43.0887C304.229 43.143 305.479 44.2841 306.62 45.8599C307.326 44.9905 308.196 44.2298 309.174 43.6864C309.826 43.4691 310.478 43.2517 311.13 43.143C312.597 42.98 314.064 43.2517 315.422 43.9038C316.781 44.6101 317.813 46.9466 317.976 48.4137C318.357 51.9455 318.248 56.4555 318.194 60.096C318.139 60.4763 318.031 60.8024 317.868 61.1827L317.379 61.0741Z" fill="#E04918"/>
</svg>
