<svg width="351" height="82" viewBox="0 0 351 82" fill="none" xmlns="http://www.w3.org/2000/svg">
<path d="M178.803 68.2196V32.7294L163.633 55.7243H163.316L148.011 32.9691V68.214H136.599V13.7231H149.355L163.633 36.573L177.899 13.7231H190.202V68.2196H178.803ZM222.542 68.8272C207.957 68.8272 199.316 60.733 199.316 44.8623V13.7231H210.706V44.5585C210.706 53.344 215.433 57.8677 222.687 57.8677C229.939 57.8677 234.655 53.514 234.655 44.932V13.7231H246.059V44.4833C246.07 60.8082 237.116 68.8272 222.542 68.8272ZM266.597 25.0756V36.4309H290.551V47.7806H266.597V68.2112H255.187V13.7231H297.391V25.0756H266.597ZM327.995 68.9164C311.1 68.9164 299.673 57.104 299.673 41.1469V40.988C299.673 25.6581 311.498 13.0625 327.925 13.0625C337.7 13.0625 343.505 15.6714 349.149 20.5017L341.575 29.485C337.426 26.0456 333.881 24.0053 327.617 24.0053C318.909 24.0053 312.209 31.6619 312.209 40.8208V40.9853C312.209 50.8689 318.87 58.099 328.494 58.099C332.842 58.099 336.16 57.0204 339.585 54.8602V47.7778H327.043V36.4281H350.983V60.3372C345.28 65.056 337.924 68.9164 327.995 68.9164Z" fill="#5A5A5A"/>
<path d="M75.5334 0.126953C69.5554 0.126953 63.8966 1.39237 58.7838 3.68349C53.6626 1.39237 48.0038 0.126953 42.0314 0.126953C19.3654 0.126953 0.983398 18.4225 0.983398 40.9937C0.983398 63.5594 19.3626 81.8494 42.0314 81.8494C48.0038 81.8494 53.6654 80.57 58.7838 78.3095C63.8966 80.57 69.5554 81.8494 75.5334 81.8494C98.1966 81.8494 116.584 63.5594 116.584 40.9937C116.581 18.4225 98.1966 0.126953 75.5334 0.126953ZM58.7838 77.9249C38.2906 77.9249 21.6698 61.3909 21.6698 40.9937C21.6698 20.591 38.2906 4.04305 58.7838 4.04305C79.2686 4.04305 95.8894 20.591 95.8894 40.9937C95.8894 61.3909 79.2686 77.9249 58.7838 77.9249ZM75.847 40.9937C75.847 50.3729 68.2198 57.996 58.7838 57.996C49.345 57.996 41.715 50.3756 41.715 40.9937C41.715 31.6035 49.345 23.9859 58.7838 23.9859C68.2198 23.9887 75.847 31.6035 75.847 40.9937Z" fill="#E60000"/>
</svg>
