<svg width="325" height="69" viewBox="0 0 325 69" fill="none" xmlns="http://www.w3.org/2000/svg">
<path fill-rule="evenodd" clip-rule="evenodd" d="M242.217 40.6965C242.217 37.2668 240.089 33.8316 236.006 33.0153V32.8509C239.275 31.7058 241.561 28.6012 241.561 25.3322C241.561 19.7749 237.311 16.8328 229.795 16.8328C225.382 16.8328 220.806 16.8328 217.865 16.9953V51.1555C222.278 51.1555 226.036 51.318 228.16 51.318C238.783 51.3199 242.217 45.5982 242.217 40.6965ZM234.371 26.3129C234.371 29.4194 232.081 31.2164 227.34 31.2164H224.728V22.2276C225.872 22.2276 227.177 22.0632 228.649 22.0632C232.899 22.0651 234.371 23.8621 234.371 26.3129ZM235.025 40.8591C235.025 43.9655 232.738 45.9269 228.323 45.9269C226.851 45.9269 225.545 45.7644 224.73 45.7644V36.1181H227.671C232.081 36.1181 235.025 37.4275 235.025 40.8591ZM267.057 51.1573C266.895 49.1959 266.895 46.7414 266.895 44.7837V34.1604C266.895 28.7656 264.446 25.4966 256.272 25.4966C252.842 25.4966 249.569 26.1504 246.954 26.9667L247.61 32.524C249.734 31.2164 252.84 30.5626 255.127 30.5626C258.885 30.5626 260.191 31.8702 260.191 34.4854V35.7949C251.368 35.7949 245.318 39.0639 245.318 45.1088C245.318 49.1959 247.933 51.6486 252.672 51.6486C256.597 51.6486 259.699 49.6872 261.009 46.9095C260.846 48.2152 260.68 49.6872 260.68 51.1592L267.057 51.1573ZM260.193 40.6965C260.193 43.6405 257.906 46.7414 254.637 46.7414C252.84 46.7414 251.693 45.7644 251.693 44.1299C251.693 42.0023 253.165 40.0427 260.193 40.0427V40.6965ZM295.496 51.1573V33.5047C295.496 29.0925 293.699 25.4966 287.817 25.4966C283.567 25.4966 280.623 27.6205 278.99 30.5626C279.319 29.0925 279.319 27.1311 279.319 25.986H273.108V51.1555H279.644V39.0602C279.644 34.6461 282.422 30.8877 285.693 30.8877C288.142 30.8877 288.962 32.5222 288.962 35.1392V51.1555L295.496 51.1573ZM324.588 51.1573L314.946 37.5901L323.934 25.9879H315.762L308.243 36.4468V14.2194H301.707V51.1573H308.243V38.7333L316.251 51.1573H324.588ZM112.609 33.5047C112.609 21.5738 105.255 16.3434 95.6102 16.3434C85.4782 16.3434 77.3057 23.3708 77.3057 34.4836C77.3057 45.2731 82.8611 51.8093 94.3026 51.8093C104.437 51.8111 112.609 44.7837 112.609 33.5047ZM103.62 34.1604C103.62 41.8398 98.8811 44.6175 94.7939 44.6175C88.9097 44.6175 86.2945 40.534 86.2945 33.8316C86.2945 26.8042 90.5442 23.5352 94.9564 23.5352C100.514 23.5352 103.62 27.1311 103.62 34.1604ZM142.518 50.3392L141.537 43.3117C139.738 43.9655 136.96 44.455 134.999 44.455C128.298 44.455 125.356 40.6965 125.356 33.9942C125.356 27.7849 128.625 23.8621 134.672 23.8621C136.96 23.8621 139.249 24.189 141.373 24.8428L142.353 17.651C140.067 16.9972 137.287 16.8347 134.836 16.8347C122.579 16.8347 116.041 24.189 116.041 35.3036C116.041 43.1492 119.799 51.6486 133.364 51.6486C136.471 51.6486 139.74 51.1573 142.518 50.3392ZM175.043 40.534C175.043 37.1006 172.753 33.8316 168.995 33.0153V32.8509C172.264 31.5433 174.388 28.6012 174.388 25.4966C174.388 19.7768 169.649 16.8347 161.64 16.8347C157.064 16.8347 151.508 16.8346 148.075 16.9972V51.1573C153.468 51.1573 157.555 51.3199 159.842 51.3199C170.629 51.3199 175.043 45.9269 175.043 40.534ZM165.403 26.6417C165.403 29.2569 163.275 30.727 159.19 30.727H156.739V23.2083H160.17C163.764 23.2083 165.403 24.5159 165.403 26.6417ZM165.888 40.6965C165.888 43.3117 163.764 44.9462 160.006 44.9462C158.698 44.9462 157.391 44.7837 156.737 44.7837V36.6094H159.515C163.439 36.6094 165.888 37.9188 165.888 40.6965ZM205.116 50.3392L204.136 43.3117C202.335 43.9655 199.557 44.455 197.762 44.455C191.06 44.455 188.116 40.6965 188.116 33.9942C188.116 27.7849 191.387 23.8621 197.271 23.8621C199.557 23.8621 201.845 24.189 203.969 24.8428L204.95 17.651C202.664 16.9972 200.048 16.8347 197.433 16.8347C185.175 16.8347 178.639 24.189 178.639 35.3036C178.639 43.1492 182.398 51.6486 195.961 51.6486C199.23 51.6486 202.501 51.1573 205.116 50.3392ZM20.9218 23.3727L6.70258 13.8944C8.99088 10.7879 11.7686 8.01019 15.0376 5.88626L27.2955 18.471C24.8428 19.6124 22.5545 21.2469 20.9218 23.3727ZM17.1597 32.3615L0.979053 26.1504C1.95975 22.2276 3.43173 18.6317 5.55566 15.3645L20.1018 24.3534C18.4691 26.6417 17.4884 29.4194 17.1597 32.3615ZM36.6112 39.7158L19.1229 33.0153C19.6287 30.3439 20.7477 27.8263 22.3919 25.661L36.6112 34.6498V39.7158ZM36.6112 33.8316L23.0457 24.8428C24.6803 22.8814 26.806 21.4113 29.2569 20.4306L36.6112 27.7849V33.8316ZM1.9616 45.4357C0.650799 41.8216 -0.0131468 38.0048 0.000197209 34.1604C0.000197209 31.8702 0.162724 29.7463 0.653998 27.6205L17.1615 33.5047V34.1585C17.1615 38.0795 18.4691 41.8379 20.9218 44.7819H21.0843C19.5867 42.1398 18.7984 39.1551 18.796 36.1181C18.796 35.4643 18.796 34.8123 18.9586 34.1585L36.6112 40.3659V45.4338L1.9616 45.4357ZM3.10667 48.5421C2.9423 47.8883 2.6154 47.2327 2.29035 46.5807H12.5868L14.3857 48.5421H29.5856L26.3166 51.9718H7.51891C7.02763 50.1766 5.2306 48.7047 3.10667 48.5421ZM42.0041 49.3566C43.1571 48.6892 44.2508 47.9243 45.2731 47.0702C45.9269 46.5789 46.5807 45.9269 47.0702 45.2731C49.6854 42.1667 51.3199 38.4082 51.3199 34.1585C51.3201 31.9048 50.8764 29.6731 50.014 27.5909C49.1517 25.5087 47.8876 23.6167 46.294 22.0231C44.7003 20.4295 42.8084 19.1654 40.7262 18.303C38.6439 17.4407 36.4122 16.9969 34.1585 16.9972C32.1971 16.9972 30.2357 17.3241 28.6012 17.9779L16.6703 4.73933C21.9823 1.65116 28.0141 0.0166321 34.1585 0.000212491C38.6488 -0.0156533 43.0979 0.8571 47.2495 2.56821C51.4011 4.27932 55.173 6.79497 58.3481 9.97022C61.5232 13.1455 64.0386 16.9176 65.7495 21.0692C67.4604 25.2209 68.3329 29.67 68.3168 34.1604C68.3168 52.9544 53.1169 68.3168 34.1585 68.3168C24.8428 68.3168 16.3434 64.5584 10.1323 58.3473H51.9718L52.2987 58.0223L8.17086 56.2215L7.84396 55.8965H54.5889L54.7514 55.5677L5.8844 53.2813L5.72003 53.115H24.6803C24.6803 53.1169 34.321 53.4438 42.0041 49.3566Z" fill="#C82E37"/>
</svg>
