<svg width="351" height="75" viewBox="0 0 351 75" fill="none" xmlns="http://www.w3.org/2000/svg">
<path fill-rule="evenodd" clip-rule="evenodd" d="M262.163 44.7317C262.163 41.0336 259.869 37.3294 255.466 36.4492V36.2719C258.991 35.0372 261.456 31.6895 261.456 28.1646C261.456 22.1722 256.874 18.9998 248.768 18.9998C244.011 18.9998 239.076 18.9998 235.905 19.175V56.0095C240.663 56.0095 244.716 56.1848 247.006 56.1848C258.461 56.1868 262.163 50.0172 262.163 44.7317ZM253.703 29.222C253.703 32.5717 251.234 34.5095 246.122 34.5095H243.306V24.8169C244.538 24.8169 245.946 24.6396 247.534 24.6396C252.116 24.6416 253.703 26.5793 253.703 29.222ZM254.408 44.907C254.408 48.2567 251.943 50.3716 247.181 50.3716C245.594 50.3716 244.186 50.1964 243.308 50.1964V39.7949H246.478C251.234 39.7949 254.408 41.2068 254.408 44.907ZM288.949 56.0115C288.773 53.8966 288.773 51.2499 288.773 49.1389V37.6839C288.773 31.8667 286.133 28.3418 277.318 28.3418C273.62 28.3418 270.091 29.0468 267.271 29.927L267.978 35.9194C270.268 34.5094 273.618 33.8045 276.084 33.8045C280.136 33.8045 281.544 35.2144 281.544 38.0344V39.4463C272.031 39.4463 265.507 42.9713 265.507 49.4894C265.507 53.8966 268.327 56.5413 273.437 56.5413C277.669 56.5413 281.014 54.4263 282.426 51.4311C282.251 52.8391 282.072 54.4263 282.072 56.0135L288.949 56.0115ZM281.546 44.7317C281.546 47.9062 279.081 51.2499 275.556 51.2499C273.618 51.2499 272.381 50.1964 272.381 48.4339C272.381 46.1397 273.969 44.0268 281.546 44.0268V44.7317ZM319.613 56.0115V36.9769C319.613 32.2192 317.676 28.3418 311.333 28.3418C306.75 28.3418 303.576 30.632 301.816 33.8045C302.17 32.2192 302.17 30.1043 302.17 28.8696H295.473V56.0095H302.521V42.9673C302.521 38.2076 305.516 34.155 309.043 34.155C311.683 34.155 312.568 35.9174 312.568 38.7394V56.0095L319.613 56.0115ZM350.983 56.0115L340.586 41.3821L350.278 28.8716H341.466L333.359 40.1493V16.1818H326.311V56.0115H333.359V42.6148L341.994 56.0115H350.983ZM122.409 36.9769C122.409 24.1119 114.478 18.472 104.079 18.472C93.1536 18.472 84.3413 26.0496 84.3413 38.0324C84.3413 49.6667 90.3316 56.7145 102.669 56.7145C113.596 56.7165 122.409 49.1389 122.409 36.9769ZM112.716 37.6839C112.716 45.9645 107.606 48.9597 103.199 48.9597C96.8538 48.9597 94.0338 44.5565 94.0338 37.3294C94.0338 29.7518 98.6162 26.2269 103.374 26.2269C109.366 26.2269 112.716 30.1043 112.716 37.6839ZM154.659 55.1293L153.601 47.5517C151.661 48.2567 148.666 48.7844 146.551 48.7844C139.326 48.7844 136.154 44.7318 136.154 37.5046C136.154 30.8093 139.679 26.5794 146.199 26.5794C148.666 26.5794 151.134 26.9318 153.424 27.6368L154.481 19.882C152.016 19.177 149.019 19.0017 146.376 19.0017C133.159 19.0017 126.109 26.9318 126.109 38.9166C126.109 47.3764 130.161 56.5413 144.789 56.5413C148.139 56.5413 151.663 56.0115 154.659 55.1293ZM189.731 44.5565C189.731 40.8543 187.261 37.3294 183.209 36.4492V36.2719C186.734 34.8619 189.024 31.6895 189.024 28.3418C189.024 22.1742 183.914 19.0017 175.279 19.0017C170.344 19.0017 164.353 19.0017 160.651 19.177V56.0115C166.466 56.0115 170.873 56.1868 173.339 56.1868C184.971 56.1868 189.731 50.3716 189.731 44.5565ZM179.335 29.5765C179.335 32.3965 177.041 33.9817 172.636 33.9817H169.993V25.8744H173.693C177.569 25.8744 179.335 27.2843 179.335 29.5765ZM179.859 44.7317C179.859 47.5517 177.569 49.3142 173.516 49.3142C172.106 49.3142 170.696 49.1389 169.991 49.1389V40.3246H172.986C177.218 40.3246 179.859 41.7366 179.859 44.7317ZM222.158 55.1293L221.101 47.5517C219.159 48.2567 216.164 48.7844 214.228 48.7844C207.001 48.7844 203.826 44.7318 203.826 37.5046C203.826 30.8093 207.353 26.5794 213.698 26.5794C216.164 26.5794 218.631 26.9318 220.921 27.6368L221.979 19.882C219.513 19.177 216.693 19.0017 213.874 19.0017C200.656 19.0017 193.608 26.9318 193.608 38.9166C193.608 47.3764 197.661 56.5413 212.286 56.5413C215.811 56.5413 219.338 56.0115 222.158 55.1293ZM23.5432 26.0516L8.21072 15.8313C10.6782 12.4816 13.6734 9.48642 17.1983 7.19621L30.4158 20.7662C27.7711 21.9969 25.3036 23.7594 23.5432 26.0516ZM19.4865 35.7442L2.0391 29.0468C3.09658 24.8169 4.68379 20.9395 6.974 17.4165L22.659 27.1091C20.8985 29.5765 19.841 32.5717 19.4865 35.7442ZM40.4608 43.6743L21.6035 36.4492C22.1488 33.5686 23.3555 30.854 25.1284 28.5191L40.4608 38.2116V43.6743ZM40.4608 37.3294L25.8334 27.6368C27.5958 25.5219 29.888 23.9366 32.5307 22.8792L40.4608 30.8093V37.3294ZM3.09857 49.8419C1.68515 45.9449 0.969222 41.8293 0.983611 37.6839C0.983611 35.2144 1.15886 32.9242 1.6886 30.632L19.4885 36.9769V37.6819C19.4885 41.9098 20.8985 45.9625 23.5432 49.1369H23.7184C22.1036 46.288 21.2535 43.0696 21.251 39.7949C21.251 39.0899 21.251 38.3869 21.4262 37.6819L40.4608 44.3753V49.8399L3.09857 49.8419ZM4.33329 53.1916C4.15605 52.4866 3.80356 51.7796 3.45306 51.0766H14.5556L16.4953 53.1916H32.8852L29.3603 56.8898H9.09095C8.56122 54.9541 6.6235 53.3668 4.33329 53.1916ZM46.276 54.0698C47.5192 53.3502 48.6985 52.5254 49.8009 51.6044C50.5059 51.0746 51.2109 50.3716 51.7386 49.6667C54.5586 46.317 56.321 42.2643 56.321 37.6819C56.3213 35.2517 55.8428 32.8453 54.913 30.6001C53.9831 28.3548 52.6201 26.3148 50.9017 24.5964C49.1833 22.878 47.1432 21.5149 44.898 20.5851C42.6527 19.6552 40.2463 19.1767 37.8162 19.177C35.7012 19.177 33.5862 19.5295 31.8238 20.2345L18.9588 5.95949C24.6867 2.62955 31.1907 0.867055 37.8162 0.84935C42.658 0.832242 47.4555 1.77332 51.932 3.6184C56.4086 5.46347 60.4759 8.17606 63.8995 11.5999C67.3232 15.0237 70.0356 19.0912 71.8804 23.5678C73.7252 28.0445 74.6661 32.842 74.6487 37.6839C74.6487 57.9492 58.2588 74.5144 37.8162 74.5144C27.7711 74.5144 18.6063 70.4618 11.9089 63.7644H57.024L57.3765 63.4139L9.79395 61.4722L9.44146 61.1217H59.846L60.0212 60.7672L7.32849 58.3017L7.15125 58.1225H27.5958C27.5958 58.1245 37.9914 58.477 46.276 54.0698Z" fill="#C82E37"/>
</svg>
