<svg width="408" height="90" viewBox="0 0 408 90" fill="none" xmlns="http://www.w3.org/2000/svg">
<path d="M100.359 34.5981H116.676C120.234 34.5981 122.565 35.0889 123.792 35.9477C125.264 37.0519 125.878 39.2603 125.878 42.8183C125.878 46.3762 125.142 48.5846 123.792 49.6888C122.688 50.5476 120.234 51.0384 116.676 51.0384H106.984V56.314H100.236V34.5981H100.359ZM107.106 45.3947H116.799C117.535 45.3947 118.148 45.272 118.639 44.904C119.13 44.5359 119.375 43.7998 119.375 42.8183C119.375 41.8367 119.13 41.2233 118.639 40.7326C118.271 40.3645 117.658 40.2418 116.799 40.2418H107.106V45.3947Z" fill="#EC1C24"/>
<path d="M158.39 34.5981V47.8485C158.39 51.7745 157.531 54.2283 155.814 55.2098C154.219 56.1913 150.538 56.682 144.526 56.682C138.637 56.682 134.834 56.1913 133.239 55.2098C131.521 54.2283 130.663 51.6518 130.663 47.8485V34.5981H137.41V47.8485C137.41 49.198 137.779 50.0569 138.515 50.4249C139.373 50.9157 141.336 51.0384 144.526 51.0384C147.594 51.0384 149.557 50.793 150.415 50.4249C151.274 50.0569 151.642 49.198 151.642 47.8485V34.5981H158.39Z" fill="#EC1C24"/>
<path d="M182.192 34.5981C184.277 34.5981 185.75 34.8435 186.731 35.457C188.203 36.3158 188.817 38.1561 188.817 40.7326C188.817 41.8367 188.571 42.8183 188.203 43.5544C187.835 44.2905 187.222 44.904 186.608 45.1493C188.571 46.0081 189.553 47.7258 189.553 50.3022C189.553 52.5106 189.062 54.1056 187.958 54.9644C186.976 55.8232 185.259 56.314 182.805 56.314H162.562V34.5981H182.192ZM169.432 42.8183H181.333C181.824 42.8183 182.314 42.6956 182.56 42.4502C182.805 42.2048 183.05 41.8367 183.05 41.346C183.05 40.8552 182.928 40.4872 182.682 40.2418C182.437 39.9964 181.946 39.8737 181.455 39.8737H169.555V42.8183H169.432ZM169.432 51.0384H180.965C182.314 51.0384 182.928 50.5476 182.928 49.4434C182.928 48.7073 182.805 48.2165 182.437 47.9712C182.069 47.7258 181.578 47.6031 180.965 47.6031H169.432V51.0384Z" fill="#EC1C24"/>
<path d="M193.847 34.5981H200.595V50.6703H215.808V56.314H193.847V34.5981Z" fill="#EC1C24"/>
<path d="M219.244 56.4375V34.7217H225.992V56.4375H219.244Z" fill="#EC1C24"/>
<path d="M242.922 34.2305C249.179 34.2305 252.983 34.7212 254.455 35.8254C255.682 36.6842 256.295 39.138 256.295 42.9413H249.547C249.547 41.7144 249.179 40.8556 248.566 40.4876C247.707 40.1195 245.867 39.8741 242.922 39.8741C239.61 39.8741 237.769 40.1195 237.156 40.6103C236.542 41.101 236.297 42.696 236.297 45.3951C236.297 48.0942 236.542 49.6892 237.156 50.1799C237.769 50.6707 239.61 50.9161 242.922 50.9161C245.867 50.9161 247.707 50.7934 248.443 50.4253C249.179 50.0572 249.547 49.1984 249.547 47.9715H256.295C256.295 51.8976 255.682 54.2286 254.455 55.0875C252.983 56.069 249.179 56.6824 242.922 56.6824C236.665 56.6824 232.862 56.069 231.635 54.9648C230.285 53.8606 229.672 50.6707 229.672 45.5178C229.672 40.3649 230.285 37.175 231.512 36.0708C232.862 34.8439 236.665 34.2305 242.922 34.2305Z" fill="#EC1C24"/>
<path d="M295.923 34.5981C298.009 34.5981 299.481 34.8435 300.463 35.457C301.935 36.3158 302.548 38.1561 302.548 40.7326C302.548 41.8367 302.303 42.8183 301.935 43.5544C301.567 44.2905 300.953 44.904 300.34 45.1493C302.303 46.0081 303.284 47.7258 303.284 50.3022C303.284 52.5106 302.794 54.1056 301.689 54.9644C300.585 55.8232 298.99 56.314 296.537 56.314H276.293V34.5981H295.923ZM283.164 42.8183H295.064C295.555 42.8183 296.046 42.6956 296.291 42.4502C296.537 42.2048 296.782 41.8367 296.782 41.346C296.782 40.8552 296.659 40.4872 296.414 40.2418C296.168 39.9964 295.678 39.8737 295.187 39.8737H283.286V42.8183H283.164ZM283.164 51.0384H294.696C296.046 51.0384 296.659 50.5476 296.659 49.4434C296.659 48.7073 296.537 48.2165 296.168 47.9712C295.8 47.7258 295.31 47.6031 294.696 47.6031H283.164V51.0384Z" fill="#EC1C24"/>
<path d="M316.535 34.5981H328.068L338.864 56.314H331.012L328.926 52.6333H315.676L313.59 56.314H305.738L316.535 34.5981ZM322.792 39.5057H321.81L318.252 47.1123H326.473L322.792 39.5057Z" fill="#EC1C24"/>
<path d="M372.726 56.4375H361.807L350.274 40.3653C350.152 40.12 350.029 39.8746 349.906 39.6292C349.784 39.3838 349.661 39.2611 349.538 39.2611C349.538 39.5065 349.538 39.6292 349.538 39.8746C349.906 40.9788 350.029 41.4695 350.029 41.5922V56.4375H343.281V34.7217H354.201L365.611 50.7938C365.733 51.0392 365.856 51.2846 365.979 51.53C366.101 51.7753 366.224 51.898 366.347 51.898C366.347 51.6527 366.347 51.53 366.347 51.2846C366.224 50.7938 365.979 50.1804 365.856 49.567V34.7217H372.604V56.4375H372.726Z" fill="#EC1C24"/>
<path d="M378.738 34.5981H385.486V42.2048H388.921L396.528 34.5981H405.73L394.81 44.904L407.079 56.314H397.387L388.921 47.8485H385.486V56.314H378.738V34.5981Z" fill="#EC1C24"/>
<path d="M51.0383 0H20.857L0 20.857V42.2047L20.1209 62.3256H51.7744L71.8953 42.2047V20.857L51.0383 0ZM35.9476 56.5593L11.1646 31.7762L35.9476 6.99323L60.7307 31.7762L35.9476 56.5593Z" fill="#EC1C24"/>
<path d="M51.0383 27.2373H20.857L0 48.0943V69.442L20.1209 89.5629H51.7744L71.8953 69.442V48.0943L51.0383 27.2373ZM35.9476 83.7966L11.1646 59.0135L35.9476 34.2305L60.7307 59.0135L35.9476 83.7966Z" fill="#EC1C24"/>
</svg>
