<svg width="351" height="78" viewBox="0 0 351 78" fill="none" xmlns="http://www.w3.org/2000/svg">
<path d="M87.27 30.2617H101.3C104.359 30.2617 106.363 30.6837 107.418 31.4221C108.684 32.3714 109.211 34.2702 109.211 37.3292C109.211 40.3883 108.578 42.287 107.418 43.2364C106.468 43.9748 104.359 44.3967 101.3 44.3967H92.9662V48.9326H87.1646V30.2617H87.27ZM93.0717 39.5444H101.405C102.038 39.5444 102.565 39.4389 102.987 39.1225C103.409 38.806 103.62 38.1731 103.62 37.3292C103.62 36.4854 103.409 35.9579 102.987 35.536C102.671 35.2195 102.143 35.114 101.405 35.114H93.0717V39.5444Z" fill="#EC1C24"/>
<path d="M137.164 30.2617V41.6541C137.164 45.0297 136.426 47.1394 134.949 47.9832C133.578 48.8271 130.413 49.2491 125.245 49.2491C120.181 49.2491 116.911 48.8271 115.54 47.9832C114.063 47.1394 113.325 44.9242 113.325 41.6541V30.2617H119.126V41.6541C119.126 42.8145 119.443 43.5529 120.076 43.8693C120.814 44.2913 122.502 44.3967 125.245 44.3967C127.882 44.3967 129.569 44.1858 130.308 43.8693C131.046 43.5529 131.363 42.8145 131.363 41.6541V30.2617H137.164Z" fill="#EC1C24"/>
<path d="M157.629 30.2617C159.422 30.2617 160.688 30.4727 161.532 31.0001C162.797 31.7385 163.325 33.3208 163.325 35.536C163.325 36.4854 163.114 37.3292 162.797 37.9621C162.481 38.5951 161.954 39.1225 161.426 39.3335C163.114 40.0718 163.958 41.5486 163.958 43.7638C163.958 45.6626 163.536 47.0339 162.586 47.7723C161.743 48.5107 160.266 48.9326 158.156 48.9326H140.751V30.2617H157.629ZM146.658 37.3292H156.89C157.312 37.3292 157.734 37.2237 157.945 37.0128C158.156 36.8018 158.367 36.4854 158.367 36.0634C158.367 35.6415 158.262 35.325 158.051 35.114C157.84 34.9031 157.418 34.7976 156.996 34.7976H146.764V37.3292H146.658ZM146.658 44.3967H156.574C157.734 44.3967 158.262 43.9748 158.262 43.0254C158.262 42.3925 158.156 41.9706 157.84 41.7596C157.523 41.5486 157.101 41.4432 156.574 41.4432H146.658V44.3967Z" fill="#EC1C24"/>
<path d="M167.649 30.2617H173.451V44.0803H186.531V48.9326H167.649V30.2617Z" fill="#EC1C24"/>
<path d="M189.485 49.0386V30.3677H195.287V49.0386H189.485Z" fill="#EC1C24"/>
<path d="M209.844 29.9453C215.224 29.9453 218.494 30.3673 219.76 31.3166C220.815 32.055 221.342 34.1647 221.342 37.4348H215.54C215.54 36.3799 215.224 35.6415 214.696 35.3251C213.958 35.0086 212.376 34.7976 209.844 34.7976C206.996 34.7976 205.414 35.0086 204.886 35.4305C204.359 35.8525 204.148 37.2238 204.148 39.5445C204.148 41.8652 204.359 43.2365 204.886 43.6584C205.414 44.0803 206.996 44.2913 209.844 44.2913C212.376 44.2913 213.958 44.1858 214.591 43.8694C215.224 43.5529 215.54 42.8145 215.54 41.7597H221.342C221.342 45.1352 220.815 47.1394 219.76 47.8778C218.494 48.7217 215.224 49.2491 209.844 49.2491C204.464 49.2491 201.194 48.7217 200.139 47.7723C198.979 46.823 198.452 44.0803 198.452 39.65C198.452 35.2196 198.979 32.477 200.034 31.5276C201.194 30.4727 204.464 29.9453 209.844 29.9453Z" fill="#EC1C24"/>
<path d="M255.413 30.2617C257.207 30.2617 258.472 30.4727 259.316 31.0001C260.582 31.7385 261.11 33.3208 261.11 35.536C261.11 36.4854 260.899 37.3292 260.582 37.9621C260.266 38.5951 259.738 39.1225 259.211 39.3335C260.899 40.0718 261.742 41.5486 261.742 43.7638C261.742 45.6626 261.32 47.0339 260.371 47.7723C259.422 48.5107 258.05 48.9326 255.941 48.9326H238.536V30.2617H255.413ZM244.443 37.3292H254.675C255.097 37.3292 255.519 37.2237 255.73 37.0128C255.941 36.8018 256.152 36.4854 256.152 36.0634C256.152 35.6415 256.046 35.325 255.835 35.114C255.624 34.9031 255.202 34.7976 254.78 34.7976H244.548V37.3292H244.443ZM244.443 44.3967H254.358C255.519 44.3967 256.046 43.9748 256.046 43.0254C256.046 42.3925 255.941 41.9706 255.624 41.7596C255.308 41.5486 254.886 41.4432 254.358 41.4432H244.443V44.3967Z" fill="#EC1C24"/>
<path d="M273.135 30.2617H283.05L292.333 48.9326H285.582L283.789 45.7681H272.396L270.603 48.9326H263.852L273.135 30.2617ZM278.515 34.4811H277.671L274.612 41.0212H281.679L278.515 34.4811Z" fill="#EC1C24"/>
<path d="M321.447 49.0386H312.059L302.144 35.22C302.038 35.009 301.933 34.7981 301.827 34.5871C301.722 34.3761 301.616 34.2706 301.511 34.2706C301.511 34.4816 301.511 34.5871 301.511 34.7981C301.827 35.7474 301.933 36.1694 301.933 36.2749V49.0386H296.131V30.3677H305.519L315.329 44.1863C315.435 44.3972 315.54 44.6082 315.646 44.8192C315.751 45.0301 315.857 45.1356 315.962 45.1356C315.962 44.9246 315.962 44.8192 315.962 44.6082C315.857 44.1862 315.646 43.6588 315.54 43.1314V30.3677H321.342V49.0386H321.447Z" fill="#EC1C24"/>
<path d="M326.616 30.2617H332.418V36.8018H335.371L341.912 30.2617H349.823L340.435 39.1225L350.983 48.9326H342.65L335.371 41.6541H332.418V48.9326H326.616V30.2617Z" fill="#EC1C24"/>
<path d="M44.8653 0.514648H18.9159L0.983398 18.4471V36.8016L18.283 54.1012H45.4982L62.7978 36.8016V18.4471L44.8653 0.514648ZM31.8906 49.1434L10.5826 27.8353L31.8906 6.52731L53.1986 27.8353L31.8906 49.1434Z" fill="#EC1C24"/>
<path d="M44.8653 23.9326H18.9159L0.983398 41.8651V60.2196L18.283 77.5191H45.4982L62.7978 60.2196V41.8651L44.8653 23.9326ZM31.8906 72.5613L10.5826 51.2533L31.8906 29.9453L53.1986 51.2533L31.8906 72.5613Z" fill="#EC1C24"/>
</svg>
