<svg width="351" height="113" viewBox="0 0 351 113" fill="none" xmlns="http://www.w3.org/2000/svg">
<path d="M350.983 56.6679L299.73 107.927L248.471 56.6679L299.73 5.4292L350.983 56.6679Z" fill="#EF3E42"/>
<path d="M0.983398 112.832L12.2942 33.4833C14.82 15.977 33.3014 0.699779 53.1235 0.699779C73.2394 0.699779 82.7827 14.6767 80.8469 28.0863L79.2049 39.6384C77.8617 49.3229 70.7061 58.6383 58.042 65.5264L71.0074 87.5034C72.4988 89.9207 73.0963 93.6434 72.4988 97.5694C71.158 105.944 64.8963 112.832 58.042 112.832C54.3211 112.832 51.3359 110.791 49.5533 107.623L30.4718 74.6435L27.1953 97.7451C26.0002 106.129 19.7385 112.832 13.0323 112.832H0.983398ZM46.2693 17.0966C41.9433 17.0966 37.9211 21.384 37.1805 26.7835L33.9165 50.6985C33.1733 56.103 36.0054 60.393 40.3264 60.393C44.6448 60.393 48.667 56.1005 49.4152 50.6985L52.6791 26.7835C53.4248 21.384 50.5852 17.0966 46.2693 17.0966ZM93.4834 18.2111C94.8216 8.52164 102.422 0.519043 110.172 0.519043C117.92 0.519043 123.137 8.52415 121.794 18.2111L116.286 58.2568H131.639L137.298 18.2111C138.636 8.52164 146.241 0.519043 153.994 0.519043C161.742 0.519043 166.957 8.52415 165.614 18.2111L154.886 95.137C153.542 104.819 145.942 112.834 138.189 112.834C130.444 112.834 125.226 104.819 126.565 95.137L129.997 70.1778H114.501L111.068 95.137C109.723 104.819 102.125 112.834 94.3797 112.834H80.3623L93.4834 18.2111ZM244.267 32.7403C243.072 40.1932 239.045 47.4552 231.889 54.1601C236.81 59.3788 238.894 66.2644 237.852 72.9742L236.81 79.8648C234.129 97.5619 215.793 112.829 196.124 112.829H164.971L176.445 33.3051C178.988 15.7938 197.467 0.521553 217.282 0.521553C237.4 0.521553 247.092 14.4885 245 27.9031L244.267 32.7403ZM205.959 57.8903C201.038 57.8903 196.423 62.9157 195.524 69.0658L193.29 85.086C192.398 91.2286 195.675 96.2566 200.593 96.2566C205.512 96.2566 210.285 91.2286 211.176 85.086L213.413 69.0658C214.312 62.9157 210.872 57.8903 205.959 57.8903ZM211.922 17.0991C207.006 17.0991 202.531 22.1296 201.487 28.2746L199.702 39.2644C198.65 45.4119 202.087 50.4374 207.006 50.4374C211.924 50.4374 216.541 45.4119 217.591 39.2644L219.373 28.2746C220.418 22.1296 216.838 17.0991 211.922 17.0991Z" fill="#0067B1"/>
</svg>
