<svg width="179" height="58" viewBox="0 0 179 58" fill="none" xmlns="http://www.w3.org/2000/svg">
<path d="M179 28.7162L152.788 54.9315L126.572 28.7162L152.788 2.51123L179 28.7162Z" fill="#EF3E42"/>
<path d="M0 57.4399L5.78467 16.8589C7.07643 7.90566 16.5284 0.0924339 26.666 0.0924339C36.9539 0.0924339 41.8346 7.24065 40.8446 14.0987L40.0048 20.0068C39.3178 24.9597 35.6582 29.7239 29.1815 33.2467L35.8123 44.4864C36.5751 45.7227 36.8807 47.6265 36.5751 49.6344C35.8894 53.9172 32.6869 57.4399 29.1815 57.4399C27.2785 57.4399 25.7518 56.3962 24.8401 54.776L15.0812 37.9094L13.4055 49.7243C12.7943 54.0122 9.5919 57.4399 6.16219 57.4399H0ZM23.1605 8.47824C20.9481 8.47824 18.891 10.671 18.5122 13.4324L16.843 25.6632C16.4629 28.4273 17.9113 30.6213 20.1212 30.6213C22.3297 30.6213 24.3868 28.426 24.7694 25.6632L26.4387 13.4324C26.8201 10.671 25.3678 8.47824 23.1605 8.47824ZM47.3072 9.04825C47.9916 4.09276 51.8784 0 55.8423 0C59.8049 0 62.4732 4.09405 61.7862 9.04825L58.969 29.5288H66.821L69.7153 9.04825C70.3997 4.09276 74.2891 0 78.2542 0C82.2168 0 84.8838 4.09405 84.1969 9.04825L78.7101 48.3904C78.0231 53.342 74.1363 57.4412 70.1711 57.4412C66.2098 57.4412 63.5415 53.342 64.2259 48.3904L65.9812 35.6255H58.056L56.3007 48.3904C55.6125 53.342 51.7269 57.4412 47.7656 57.4412H40.5967L47.3072 9.04825ZM124.422 16.4789C123.811 20.2905 121.752 24.0046 118.092 27.4336C120.609 30.1026 121.675 33.6241 121.142 37.0557L120.609 40.5797C119.237 49.6306 109.86 57.4386 99.8007 57.4386H83.8681L89.7363 16.7678C91.037 7.81194 100.488 0.00128371 110.621 0.00128371C120.911 0.00128371 125.867 7.14437 124.797 14.005L124.422 16.4789ZM104.83 29.3413C102.314 29.3413 99.9535 31.9115 99.4938 35.0568L98.351 43.25C97.8952 46.3915 99.5709 48.963 102.086 48.963C104.602 48.963 107.043 46.3915 107.499 43.25L108.643 35.0568C109.102 31.9115 107.343 29.3413 104.83 29.3413ZM107.88 8.47952C105.366 8.47952 103.078 11.0523 102.543 14.195L101.63 19.8155C101.092 22.9595 102.85 25.5297 105.366 25.5297C107.881 25.5297 110.243 22.9595 110.779 19.8155L111.691 14.195C112.225 11.0523 110.394 8.47952 107.88 8.47952Z" fill="#0067B1"/>
</svg>
