<svg width="351" height="134" viewBox="0 0 351 134" fill="none" xmlns="http://www.w3.org/2000/svg">
<path d="M310.42 44.2511C310.738 44.2708 314.13 45.813 314.746 46.0701L319.031 47.9484C319.487 48.1857 319.924 48.3636 320.459 48.5811L324.804 50.499C325.776 50.9339 326.709 51.3689 327.721 51.7841C328.713 52.1993 329.586 52.6343 330.577 53.0297L336.351 55.5803C336.886 55.8176 336.708 55.8571 337.72 55.2442C340.239 53.7218 340.894 53.6229 343.473 51.6062L345.1 50.1035C345.219 49.9849 345.219 49.9849 345.318 49.8465C348.274 46.3271 349.266 43.6579 349.266 38.5766C349.266 35.9469 348.294 33.5348 347.342 31.8146C346.806 30.8458 346.171 30.0945 345.477 29.2838C344.406 28.0185 343.374 27.1683 341.985 26.239C341.092 25.6458 341.251 25.4086 339.188 26.7926L313.059 42.4914C312.583 42.7682 312.166 43.0252 311.71 43.302C311.055 43.6777 310.54 43.8359 310.42 44.2511ZM299.37 85.8113C299.271 85.7322 299.37 85.7916 299.211 85.6729C298.556 85.1589 298.378 85.2775 297.465 84.3878C297.445 84.368 297.426 84.3482 297.426 84.3482C297.406 84.3284 297.386 84.3087 297.386 84.2889C297.267 84.1505 297.188 84.0714 297.068 83.9132C296.85 83.6167 296.692 83.3201 296.592 82.9247C296.017 80.6707 300.719 78.5353 302.544 77.4676C303.239 77.0524 305.877 75.6486 306.135 75.2928L297.882 71.7141C297.287 71.4373 296.751 71.2593 296.196 70.9627C295.64 70.6859 295.124 70.5278 294.569 70.251L286.276 66.6129C284.689 65.8418 282.03 64.8335 280.502 64.0822C280.364 64.0228 280.245 63.9438 280.086 63.8844C279.768 63.7658 279.729 63.8054 279.649 63.8844C279.193 64.6753 278.142 65.3673 277.566 67.6015C277.169 69.1833 277.15 71.1605 277.606 72.7027C278.399 75.5102 280.899 77.4479 283.28 78.654C286.514 80.2752 291.712 82.549 295.263 84.0516C296.473 84.5459 298.16 85.4554 299.37 85.8113Z" fill="#A4D09F"/>
<path d="M279.312 21.8299C279.094 22.4231 278.637 23.0558 278.34 23.7676C277.348 26.1006 277.288 28.928 278.241 31.2017C279.312 33.7325 281.951 35.5318 284.57 36.7774C287.228 38.0428 290.085 39.2884 292.823 40.4549C294.212 41.0481 295.541 41.6808 296.969 42.2739C297.922 42.6694 300.322 43.8952 301.155 44.0534C300.719 43.48 296.691 42.1948 297.545 39.4861C298.1 37.7067 300.421 36.5797 302.128 35.5515L315.757 27.109C322.503 21.7508 324.348 12.7349 319.269 5.53799C319.13 5.34027 318.971 5.14255 318.813 4.92506L317.622 3.58058C317.602 3.56081 317.582 3.54104 317.563 3.54104L316.749 2.78971C316.551 2.59199 316.372 2.49314 316.154 2.31519L314.309 1.03003C313.734 0.674133 313.912 0.812536 313 1.36615L310.976 2.57222C309.567 3.32355 306.076 5.57753 304.409 6.56612L279.312 21.8299ZM264.353 116.912C264.353 119.186 265.166 121.677 265.96 123.22C269.69 130.614 278.3 134.549 285.78 131.543C286.097 131.425 286.335 131.306 286.692 131.188C287.664 130.851 289.152 130.001 290.085 129.487L306.393 119.226C306.691 119.048 306.909 118.85 307.206 118.771L305.56 117.881C305.044 117.664 304.528 117.407 303.933 117.15C299.866 115.469 294.985 113.017 290.958 111.376C290.422 111.159 289.887 110.902 289.351 110.645L284.49 108.47C284.014 108.272 281.435 107.066 281.197 107.066C280.919 107.066 272.011 112.404 270.702 113.195L265.484 116.299C265.166 116.477 264.67 116.814 264.353 116.912ZM338.156 98.3862C338.394 98.0105 338.612 97.9117 338.89 97.6151C340.775 95.4995 341.35 92.6919 340.537 89.9239C338.989 84.6448 331.807 82.549 326.867 80.3346C325.518 79.7414 324.169 79.1483 322.78 78.5551C322.483 78.4167 319.11 76.7954 318.813 76.9536C319.943 77.527 321.233 78.5551 321.035 80.038C320.876 81.2639 319.388 82.4897 318.515 83.0038L311.988 86.7406C311.69 86.8988 311.77 86.7406 311.67 87.0965L318.257 89.9832C319.388 90.517 320.459 90.9125 321.59 91.4463L337.739 98.5839C338.235 98.6235 338.097 98.5642 338.156 98.3862Z" fill="#77ADD2"/>
<path d="M318.833 76.9342C319.13 76.7761 322.503 78.4171 322.8 78.5358C324.169 79.1289 325.538 79.7221 326.887 80.3152C331.827 82.5297 338.99 84.6255 340.557 89.9045C341.37 92.6726 340.795 95.4802 338.91 97.5957C338.632 97.9121 338.394 97.9912 338.176 98.3668C338.613 98.268 340.061 97.3189 340.497 97.0224C344.029 94.6497 346.628 92.8307 348.77 88.8764C351.766 83.3205 351.746 75.135 348.552 69.7571C348.294 69.3221 348.155 69.0849 347.878 68.6696C346.747 66.989 345.259 65.4271 344.148 64.4978C344.068 64.4385 344.049 64.4187 343.989 64.3594C343.791 64.1815 343.672 64.1024 343.453 63.9244C339.743 60.9389 337.025 59.9503 332.919 58.0324C332.462 57.8149 332.066 57.6963 331.609 57.4788L326.53 55.2446C324.209 54.1572 321.174 52.9709 318.932 51.9032C316.769 50.8751 313.635 49.5899 311.333 48.5618L303.735 45.2203C303.239 45.0028 302.921 44.8447 302.445 44.6469C302.247 44.5679 302.048 44.4888 301.85 44.3701C301.612 44.2317 301.533 44.1131 301.156 44.0736C300.322 43.9154 297.922 42.7093 296.969 42.2941C295.561 41.6812 294.212 41.0683 292.823 40.4751C290.085 39.3086 287.228 38.0629 284.57 36.7976C281.931 35.5322 279.292 33.7329 278.241 31.2219C277.289 28.9482 277.348 26.1406 278.34 23.7877C278.658 23.0562 279.094 22.4235 279.312 21.8501C278.221 22.6212 277.289 23.1155 276.078 24.0843C275.324 24.6775 273.717 26.0615 273.162 26.7535C272.606 27.4653 272.23 27.7421 271.456 28.7504C270.285 30.3124 269.591 31.7162 268.877 33.4957C268.321 34.8599 267.567 37.7861 267.567 39.6051C267.567 40.2972 267.468 40.5542 267.468 41.266C267.468 45.2599 268.599 49.5108 271.059 52.5161L272.289 54.0188C272.745 54.5526 273.301 54.9876 273.757 55.383C275.245 56.688 276.297 57.4788 278.042 58.5267C279.491 59.3967 281.237 60.3655 282.824 61.0575L295.739 66.7122C296.176 66.8902 296.612 67.1077 297.009 67.2856L303.397 70.0734C304.27 70.4689 305.104 70.8248 305.996 71.2004C306.413 71.3586 306.83 71.5761 307.286 71.7738L311.155 73.4742C312.444 73.9882 318.198 76.4795 318.833 76.9342ZM21.6165 34.0097C21.6165 35.5915 21.9736 37.0546 22.6283 38.3595C26.6558 46.3275 42.6464 43.4409 46.2771 49.6887C47.2492 51.3496 46.9318 53.8013 46.039 55.4226C44.6701 57.9336 40.9204 58.9617 37.8453 58.9617C34.9685 58.9617 32.8655 58.7838 30.3657 57.4591C29.7309 57.1229 29.3738 56.8264 28.8579 56.4309C27.0724 55.0667 26.0804 52.7336 25.9217 50.4796C25.8423 49.1747 26.7748 49.5108 20.7237 49.5108C20.565 49.5108 20.4261 49.5701 20.4261 49.7085C20.4261 53.0499 21.3189 56.0355 23.1838 58.3686C23.7195 59.0408 24.4536 59.8317 25.1281 60.326C27.0724 61.7891 29.2746 62.837 31.695 63.3313C35.3852 64.0826 39.3332 64.1617 43.0035 63.1138C45.543 62.3822 46.8326 61.6507 48.7372 60.2469C49.3522 59.7921 50.0069 59.0606 50.4632 58.4674C50.7013 58.1511 50.9592 57.7952 51.1774 57.4195C52.8043 54.4735 53.1415 50.5785 51.7131 47.4545C51.1179 46.1298 50.3838 45.2994 49.3522 44.3306C45.9795 41.2264 39.3531 40.3762 35.2661 39.3481C32.0918 38.5375 27.37 37.5687 27.37 33.5748C27.37 25.8835 39.2142 25.8638 42.8051 29.3041C43.559 30.0356 44.1145 30.5497 44.6304 31.6964C44.9875 32.5269 45.4835 34.0097 45.4835 35.1367H50.979C50.979 34.1086 50.8401 33.0409 50.6418 32.1512C50.2053 30.1938 49.7291 29.0668 48.638 27.5048C48.1023 26.7337 47.6857 26.3383 47.031 25.6858C46.5151 25.1718 45.7215 24.6775 45.0867 24.3018C41.2577 22.0083 35.7621 21.8303 31.4371 22.7794C30.5443 22.9771 28.6397 23.6493 27.8461 24.0843C27.1914 24.4402 26.4375 24.8554 25.8622 25.3102C23.1442 27.5246 21.6165 30.5299 21.6165 34.0097ZM0.983398 98.2877C0.983398 101.333 1.34051 104.377 2.15393 106.79C2.57056 108.015 2.90783 108.925 3.4435 109.993C4.47516 112.049 5.74489 113.631 7.37173 115.133C8.06611 115.766 8.62162 116.102 9.33584 116.577C15.0298 120.313 25.0686 120.294 30.5046 115.904L31.695 114.837C31.8537 114.698 31.8537 114.718 32.0124 114.56C34.7701 111.653 36.2581 107.798 36.6946 103.824C36.7342 103.409 36.893 103.053 36.4962 103.053H31.0205C30.9808 104.99 30.2269 107.64 29.1952 109.34L27.5287 111.476C27.5089 111.495 27.489 111.515 27.4692 111.515C26.8938 112.069 26.5367 112.385 25.8225 112.8C21.5768 115.351 15.129 114.758 11.4984 111.456L11.0619 111.021C9.01841 108.787 8.58194 107.758 7.6098 104.911C6.34007 101.214 6.47895 95.3022 7.709 91.6247C9.53424 86.1874 13.2442 82.5692 19.95 82.5692C21.438 82.5692 22.9656 82.8262 24.0965 83.2217C25.4059 83.6764 26.6558 84.3487 27.5684 85.2186L27.866 85.5152C29.1357 86.6619 30.0682 88.4612 30.4649 90.1418C30.5443 90.4977 30.5641 90.9524 30.9213 90.9524C37.2699 90.9524 36.516 91.3479 36.1787 89.7068C36.0795 89.2323 35.9605 88.6589 35.8216 88.2041C35.3058 86.5433 34.1353 84.1707 32.9449 82.9844L32.6076 82.6285C32.5878 82.6087 32.5679 82.589 32.5679 82.5692L32.31 82.2528C32.191 82.1144 32.2108 82.1342 32.0521 82.0156C31.1792 81.3433 30.7427 80.7502 29.4135 80.0582C25.6043 78.0612 23.3624 77.6856 18.9779 77.6856C15.129 77.6856 11.1611 79.1685 8.30419 81.3829C6.63767 82.6878 5.44729 84.0521 4.35612 85.8315C3.22527 87.6901 3.18559 87.9669 2.37217 90.0034C1.51907 92.1783 0.983398 95.8756 0.983398 98.2877ZM139.126 48.8386C139.126 45.7542 139.999 42.3534 141.546 40.6135C143.114 38.8538 144.939 38.1025 147.538 38.1025C150.395 38.1025 152.597 39.2493 153.867 40.8705C155.275 42.6698 156.148 45.4971 156.148 47.7511C156.148 50.2621 156.069 52.3975 154.918 54.7108C154.204 56.1343 153.192 57.3404 151.784 58.1313C149.482 59.4165 145.891 59.4362 143.649 58.072C140.416 56.1343 139.126 52.5161 139.126 48.8386ZM156.049 33.2386C156.049 33.5748 155.95 33.5352 156.01 34.0888L156.049 37.5291C155.633 37.2523 154.978 35.9671 152.617 34.8006C148.986 32.9816 144.284 33.1398 140.713 34.939C138.769 35.9078 137.241 37.3709 136.13 39.1504C134.9 41.1473 134.127 43.2234 133.849 45.6355L133.631 48.9374C133.65 49.3526 133.71 49.2933 133.73 49.7085C133.75 49.9853 133.71 50.3017 133.73 50.5785C133.829 51.8834 134.305 53.7222 134.682 54.8887C135.158 56.2925 136.19 58.2697 137.162 59.4362C140.832 63.786 147.558 64.8735 152.498 62.6788C153.728 62.1252 154.383 61.5716 155.256 60.6621C155.533 60.3853 155.752 59.9503 156.01 59.7526L155.99 61.6902C155.99 61.71 155.97 61.9077 155.97 61.9275L156.01 63.0742H161.188V23.59C161.188 23.3725 161.128 23.2934 160.89 23.2934H155.99L156.049 33.2386ZM228.94 59.0803C226.182 59.0803 225.091 58.9222 222.968 57.3206C222.512 56.9845 222.274 56.6682 221.916 56.2332C221.242 55.4226 220.805 54.5526 220.369 53.4849C218.96 50.0051 219.575 43.5793 221.778 40.9299C222.512 40.0599 223.087 39.4667 224.178 38.9329C227.352 37.3512 231.856 38.0234 234.197 40.7914C235.546 42.3732 236.578 45.3587 236.578 47.4941C236.578 49.8271 236.677 51.053 235.903 53.3663C235.209 55.4028 234.138 57.0636 232.273 58.1313C231.499 58.5267 230.11 59.0803 228.94 59.0803ZM236.459 37.5291C236.241 37.3907 235.526 36.4614 234.951 36.0067C233.185 34.6424 230.487 33.5352 228.047 33.5352C225.19 33.5352 223.603 33.6934 221.123 34.939C217.036 36.9755 214.873 41.2264 214.278 45.6553C213.108 54.4537 217.254 63.7662 227.65 63.7662C230.249 63.7662 233.165 62.9951 234.911 61.4529L236.459 59.7723V63.094H241.637V23.2934H236.459V37.5291ZM228.94 114.362C227.055 114.362 225.884 114.382 224.198 113.433C222.353 112.405 221.103 110.784 220.389 108.747C219.516 106.216 219.635 105.406 219.635 102.855C219.635 99.5334 221.202 95.6779 224.158 94.2148C227.333 92.633 231.836 93.3053 234.177 96.0733C235.526 97.655 236.558 100.641 236.558 102.776C236.558 105.129 236.657 106.315 235.883 108.648C235.209 110.665 234.078 112.365 232.253 113.413C231.499 113.828 230.09 114.362 228.94 114.362ZM236.459 92.811C236.3 92.6923 235.467 91.7038 234.951 91.2885C233.642 90.2604 232.471 89.7266 230.824 89.252C226.698 88.0855 222.254 89.0543 218.96 91.6444C216.976 93.2064 215.687 95.6383 214.873 98.1098C214.417 99.4543 213.941 102.618 214.139 104.239C214.278 105.406 214.06 105.228 214.417 107.482C214.556 108.391 214.854 109.498 215.151 110.269C216.004 112.504 216.957 114.085 218.544 115.667C218.861 115.983 219.119 116.201 219.496 116.478L221.103 117.506C222.115 118.06 223.087 118.435 224.317 118.692C227.69 119.364 230.884 119.127 233.9 117.466C234.574 117.091 235.665 116.142 236.082 115.548C236.241 115.311 236.241 115.232 236.479 115.054V118.376H241.657V78.5753H236.479V92.811H236.459ZM177.773 59.0803H176.405C174.123 59.0803 171.802 57.7952 171.802 55.561C171.802 53.9397 172.06 52.615 173.548 51.6462C176.524 49.669 181.325 50.2621 184.598 49.0165C184.936 48.8781 185.193 48.7199 185.511 48.6606C185.511 52.0614 186.047 53.8804 184.142 56.3716C182.892 57.9731 180.015 59.0803 177.773 59.0803ZM167.397 43.4804H172.576C172.576 36.8173 181.285 37.7466 183.527 38.8934C185.313 39.8029 185.471 41.3055 185.471 42.9861C185.471 44.0142 184.519 44.7458 183.765 45.1017C180.888 46.4066 173.21 45.8135 168.727 49.4119C167.318 50.5389 166.286 52.9115 166.286 54.691C166.286 57.1032 166.405 58.8233 168.032 60.7609L168.409 61.1564C170.413 62.9951 172.615 63.7465 176.067 63.7465C178.289 63.7465 180.194 63.2719 181.741 62.5799C182.575 62.2043 183.19 61.8088 183.904 61.3145C184.063 61.1959 184.201 61.1366 184.36 60.9982L185.749 59.7526C185.868 60.2666 185.908 60.8598 186.106 61.3541C186.304 61.8286 186.562 62.2636 186.9 62.6195C188.15 63.9244 190.411 63.9837 192.058 63.5092C192.375 63.4104 192.613 63.3708 192.871 63.2522C193.169 63.1138 193.288 62.9754 193.586 62.8963V58.8035C192.752 58.8826 190.808 59.9305 190.649 57.8347V51.0135C190.649 47.9884 190.649 44.9633 190.649 41.9382C190.669 37.3116 188.586 35.196 184.817 34.1086C181.404 33.12 175.313 33.3573 172.218 35.0774C171.742 35.3344 171.008 35.7892 170.611 36.1055C168.489 37.9245 167.397 40.4553 167.397 43.4804ZM81.4922 114.362C79.8455 114.362 78.3973 114.402 76.9887 113.393C75.0245 111.99 75.1634 108.51 77.2664 106.928C77.564 106.711 78.4965 106.276 78.9131 106.137C79.548 105.92 80.2423 105.761 80.9367 105.623C83.3968 105.129 85.8768 105.168 88.3964 104.279C88.7733 104.14 88.9916 104.002 89.309 103.923C89.309 105.999 89.6264 108.45 88.8329 110.171C88.4162 111.1 87.5433 112.148 86.7695 112.701C86.3132 113.037 85.8371 113.275 85.2617 113.552C84.369 113.987 82.8016 114.362 81.4922 114.362ZM71.2352 98.7623H76.4133C76.4133 91.9806 85.3014 93.068 87.4441 94.2148C89.1304 95.1045 89.3288 96.5281 89.3288 98.1889C89.3288 99.2763 88.4361 100.047 87.6028 100.384C85.8172 101.095 83.0794 101.313 81.0359 101.649C78.06 102.143 74.6476 102.875 72.4652 104.812C70.6003 106.453 70.144 108.589 70.144 111.08C70.144 113.927 71.3542 115.766 72.9414 117.051C75.4412 119.068 79.8257 119.424 82.9207 118.732C84.5078 118.376 85.3411 118.04 86.6108 117.348C87.0473 117.11 87.3251 116.952 87.702 116.675L89.6066 115.074C89.9439 119.206 93.6935 119.681 96.6298 118.574C96.9472 118.455 97.1258 118.277 97.4234 118.198V114.105C96.6298 114.164 97.2051 114.402 95.4593 114.402C94.1895 114.402 94.4871 112.009 94.4871 110.882V97.141C94.4871 95.5988 94.2887 94.4125 93.7927 93.3448C91.8683 89.1136 86.71 88.8566 82.6429 88.8566C79.5083 88.8566 76.2348 89.9638 74.5087 91.3676C72.5843 92.9296 71.2352 95.2627 71.2352 98.7623ZM84.2301 58.9815C82.6032 58.9815 81.3534 58.9419 80.0439 58.0917C77.941 56.7275 78.0997 53.129 80.2423 51.6066C82.9604 49.669 88.4757 50.0644 91.3525 48.9176C91.6699 48.7792 91.9675 48.6211 92.2651 48.5618C92.2651 50.0842 92.3048 51.6462 92.2651 53.1488C92.2453 54.3747 91.4715 55.6203 90.8565 56.3321C89.5471 57.8743 87.1068 58.9815 84.2301 58.9815ZM74.1714 43.3816H79.3496C79.3694 42.6105 79.6075 41.5428 79.8654 40.9694C80.5201 39.5656 81.5914 38.7747 83.1389 38.3793C86.3529 37.5687 92.3643 37.5489 92.3643 42.4918C92.3643 43.7374 91.7096 44.4492 90.8366 44.8644C89.1106 45.7146 85.9164 45.8728 84.1706 46.2287C80.1431 47.0393 75.6594 47.5929 73.7746 51.7648C72.247 55.1458 73.1001 60.4446 77.1275 62.4613C80.4804 64.1419 85.3411 64.0035 88.6146 62.4613C89.7455 61.9275 90.8168 61.275 91.7493 60.4248C92.0667 60.1282 92.3048 59.8119 92.6619 59.5746C92.6619 61.9472 94.2094 63.6674 96.5703 63.6674C98.2765 63.6674 99.0304 63.5092 100.379 62.7974V58.7047C99.6851 58.764 100.102 59.0012 98.4154 59.0012C97.1655 59.0012 97.4432 56.5496 97.4432 55.4028V41.5625C97.4432 40.139 97.2051 38.6561 96.6893 37.7268C94.5863 33.8318 90.0232 33.4759 85.9958 33.4759C83.0199 33.4759 79.9844 34.1679 77.6037 35.9474C75.3023 37.6082 74.231 40.5542 74.1714 43.3816ZM149.601 93.4041C151.724 93.4041 153.748 94.195 155.156 95.579C156.426 96.8246 157.577 99.0786 157.617 100.917H141.765C142.023 100.384 142.122 95.9942 146.368 94.0961C147.26 93.7007 148.312 93.4041 149.601 93.4041ZM136.289 103.646C136.289 104.793 136.448 105.92 136.587 106.948C136.864 108.965 137.817 111.91 139.047 113.571C139.602 114.323 139.979 114.876 140.674 115.568C141.566 116.458 142.876 117.269 144.026 117.783C144.463 117.98 144.761 118.119 145.296 118.277C145.752 118.415 146.248 118.554 146.764 118.672C151.129 119.542 155.156 118.929 158.608 116.32C160.434 114.936 161.783 112.484 162.398 110.25C162.755 108.965 163.152 109.301 157.716 109.301C157.259 109.301 157.299 110.19 156.724 111.139C155.93 112.425 155.077 113.314 153.589 113.868C151.407 114.698 148.451 114.481 146.348 113.611C143.213 112.306 141.765 108.965 141.765 105.603H162.795C163.231 105.603 163.152 104.555 163.132 104.298C163.013 102.519 163.053 101.412 162.537 99.4147C161.981 97.2003 161.446 96.0338 160.335 94.195C160.096 93.7996 159.839 93.503 159.541 93.1273C159.362 92.9098 159.343 92.8703 159.144 92.6528C156.962 90.3593 154.085 88.8171 150.752 88.8171C147.895 88.8171 146.229 88.9555 143.709 90.2802C138.848 92.811 136.289 98.2284 136.289 103.646ZM197.335 93.4041C199.776 93.4041 201.224 94.195 202.89 95.579C204.101 96.5676 205.331 99.217 205.37 100.917H189.518C189.856 96.8246 192.931 93.4041 197.335 93.4041ZM184.023 103.646C184.023 109.241 186.285 115.469 191.721 117.822C192.613 118.198 193.447 118.475 194.478 118.672C198.347 119.444 202.732 119.009 205.767 116.735C207.731 115.272 208.505 114.046 209.497 111.97C209.735 111.476 209.795 111.238 209.973 110.704C210.548 109.044 210.37 109.419 208.584 109.419C207.434 109.419 206.303 109.419 205.152 109.419C204.676 111.476 203.228 113.156 201.224 113.888C198.069 115.054 193.467 114.362 191.284 111.436L190.471 110.19C190.352 109.953 190.253 109.716 190.153 109.439C189.657 108.174 189.499 107.185 189.499 105.603H210.529C211.005 105.603 210.826 104.832 210.826 103.547C210.826 100.7 209.973 97.8725 208.803 95.5197C207.572 93.0878 206.164 91.6049 203.882 90.2802C199.022 87.4726 191.423 88.6391 187.614 93.3844C185.233 96.3303 184.023 99.6125 184.023 103.646ZM41.5751 118.376H46.7532V101.708C46.7532 99.5927 47.6261 96.7653 49.2927 95.3615C49.3125 95.3418 49.3323 95.322 49.3522 95.322C53.5185 91.8422 60.4425 93.2064 60.4425 98.2877V118.376H65.6603V98.2877C65.6603 95.8954 64.9659 93.5821 63.4978 91.7631C63.3787 91.6247 63.3787 91.6049 63.2399 91.4269C62.5851 90.6954 61.4543 89.9836 60.4822 89.5882C56.4349 87.9867 49.9672 88.6194 47.1103 92.5539L46.773 93.0087V78.5753H41.5949V118.376H41.5751ZM109.783 38.1223V34.8995C109.783 34.4843 109.883 34.1284 109.486 34.1284H105.081C104.863 34.1284 104.784 34.1877 104.784 34.4249V62.7974C104.784 63.0149 104.843 63.094 105.081 63.094H109.783C110.16 63.094 110.081 62.7777 110.081 62.4218V46.723C110.081 44.5085 110.557 42.393 111.946 40.7717C115.239 36.9162 123.79 36.7382 123.79 43.6979V63.094H128.948V43.777C128.948 39.9017 127.579 35.7694 123.75 34.3261C119.842 32.8432 114.327 33.2584 111.212 36.3428C110.557 36.9953 110.398 37.2918 109.942 37.9048L109.783 38.1223ZM121.509 109.894C121.509 111.831 121.886 114.046 122.878 115.548C125.258 119.127 129.544 118.771 133.551 118.771C133.849 118.771 133.849 118.356 133.849 117.704L133.829 114.777C133.829 114.599 133.829 114.758 133.849 114.481C133.869 114.105 133.829 114.085 133.769 113.809C131.151 113.809 128.294 114.342 127.203 112.247C126.925 111.693 126.726 110.843 126.726 109.993V94.0961H133.571C133.789 94.0961 133.869 94.0368 133.869 93.7996V89.5091H126.726V80.9281H121.548L121.509 109.894ZM69.5687 34.1877L62.5653 34.1679C62.3471 33.4561 62.5058 27.0303 62.5058 25.7254L57.4269 25.6265V53.129C57.4269 56.2925 57.407 59.1199 59.5497 61.2552C60.1647 61.8682 60.7798 62.3624 61.6329 62.6788C63.8946 63.5092 65.2833 63.4697 67.6839 63.4697C70.0448 63.4697 69.648 63.8058 69.648 62.0066C69.648 60.84 69.648 59.6735 69.648 58.4872C67.6244 58.4872 64.9064 58.7838 63.716 57.7754C62.3074 56.6089 62.605 54.6119 62.605 52.1404V38.7747C64.5691 38.7747 66.5134 38.755 68.4775 38.7747C69.0528 38.7747 69.5488 38.9329 69.648 38.4782V34.4843C69.6083 34.1877 69.6877 34.4249 69.5687 34.1877ZM172.972 94.7684V89.4102H168.072V118.376H173.25C173.25 114.995 173.052 105.267 173.448 102.479C173.746 100.344 174.381 98.4657 175.77 96.884C176.543 95.9942 177.754 95.2627 179.004 94.8475C179.718 94.6102 180.313 94.5113 181.146 94.3532C181.92 94.2148 182.971 94.3729 183.606 94.0764L183.507 88.8171C181.722 88.8171 180.472 88.7775 178.746 89.43C176.444 90.3 175.016 91.6642 173.687 93.6612C173.548 93.8589 173.429 94.017 173.329 94.195C173.21 94.4916 173.25 94.5707 172.972 94.7684ZM106.748 94.7684V89.4102H101.848V118.376H107.026V105.208C107.026 100.977 108.276 96.3303 112.64 94.9068C114.089 94.4323 115.775 94.2148 117.303 94.195V88.8368C115.2 88.8368 114.644 88.7578 112.541 89.4498C108.772 90.7152 107.125 94.4916 106.748 94.7684ZM202.91 39.4865V35.2949C202.91 33.7527 203.624 34.1284 198.01 34.1284V63.094H202.91C203.386 63.094 203.208 62.1845 203.208 61.2355V50.3214C203.208 48.6804 203.267 47.6523 203.525 46.2485C204.398 41.5032 207.87 38.9329 212.592 39.012C213.028 39.012 213.465 39.1306 213.465 38.7154V33.555C211.679 33.555 210.429 33.5154 208.703 34.1679C207.771 34.5238 207.037 34.939 206.303 35.4728C205.767 35.8683 204.815 36.7778 204.418 37.2918C204.14 37.6477 203.862 37.9839 203.644 38.3595L203.089 39.269C203.069 39.2888 203.049 39.3086 203.049 39.3283C202.87 39.5458 203.049 39.3283 202.91 39.4865Z" fill="#0071A9"/>
<path d="M299.37 85.8121C298.16 85.4563 296.473 84.5665 295.263 84.0525C291.712 82.5498 286.514 80.2563 283.28 78.6548C280.879 77.4685 278.399 75.5111 277.606 72.7035C277.169 71.1415 277.169 69.1841 277.566 67.6023C278.142 65.3681 279.173 64.6761 279.649 63.8853C279.292 63.9643 279.173 64.1225 278.876 64.3202C278.578 64.518 278.399 64.6168 278.102 64.8145L275.047 66.851C273.42 68.0571 271.733 69.5202 270.523 71.1217C268.063 74.4236 267.23 76.9742 266.773 81.2251C266.139 87.0578 268.004 92.4357 271.813 96.2319L272.448 96.8646C273.36 97.6752 273.38 97.7938 274.471 98.644C277.209 100.799 280.959 102.757 284.133 104.121L331.331 125.138L336.252 127.748C339.823 129.785 341.569 130.892 344.763 133.205C345.1 133.442 345.06 133.581 345.536 133.699C346.191 133.225 347.6 130.674 347.977 129.785C350.437 123.734 350.695 117.17 347.501 111.654L343.949 107.205C340.596 104.2 338.89 103.389 335.081 101.511L330.657 99.5733C330.26 99.4151 329.982 99.2767 329.566 99.0988C322.681 96.1528 315.142 92.5939 308.298 89.7665C307.881 89.5885 307.663 89.4699 307.226 89.2722L300.501 86.3262C300.124 86.1285 299.786 85.8912 299.37 85.8121Z" fill="#21A947"/>
<path d="M69.569 34.1874C69.2119 34.0095 63.1807 34.1083 62.6251 34.1083V25.9228C62.5656 25.6856 62.6251 25.8635 62.526 25.7251C62.526 27.0103 62.3672 33.4361 62.5855 34.1676L69.569 34.1874Z" fill="#00354E"/>
</svg>
