<svg width="324" height="124" viewBox="0 0 324 124" fill="none" xmlns="http://www.w3.org/2000/svg">
<path d="M286.459 40.2127C286.753 40.231 289.894 41.6587 290.463 41.8966L294.43 43.6354C294.852 43.8551 295.257 44.0198 295.752 44.2212L299.775 45.9966C300.675 46.3993 301.538 46.802 302.474 47.1863C303.393 47.5707 304.201 47.9734 305.119 48.3395L310.464 50.7006C310.96 50.9203 310.794 50.9569 311.731 50.3895C314.064 48.9801 314.67 48.8886 317.057 47.0216L318.563 45.6305C318.674 45.5207 318.674 45.5207 318.765 45.3926C321.502 42.1345 322.42 39.6636 322.42 34.9595C322.42 32.5252 321.52 30.2921 320.639 28.6997C320.143 27.8029 319.555 27.1073 318.912 26.3569C317.921 25.1854 316.965 24.3984 315.68 23.5381C314.853 22.989 315 22.7694 313.09 24.0506L288.902 38.5837C288.461 38.8399 288.075 39.0779 287.653 39.3341C287.047 39.6819 286.569 39.8283 286.459 40.2127ZM276.229 78.6868C276.137 78.6136 276.229 78.6685 276.082 78.5587C275.476 78.0828 275.311 78.1926 274.466 77.3689C274.447 77.3506 274.429 77.3323 274.429 77.3323C274.411 77.314 274.392 77.2957 274.392 77.2774C274.282 77.1493 274.209 77.0761 274.099 76.9296C273.896 76.6551 273.75 76.3805 273.658 76.0145C273.125 73.9278 277.478 71.9511 279.168 70.9627C279.81 70.5783 282.253 69.2787 282.492 68.9493L274.852 65.6363C274.301 65.3801 273.805 65.2154 273.29 64.9408C272.776 64.6845 272.299 64.5381 271.784 64.2819L264.107 60.914C262.638 60.2002 260.177 59.2667 258.763 58.5712C258.634 58.5162 258.524 58.443 258.377 58.3881C258.083 58.2783 258.046 58.3149 257.973 58.3881C257.55 59.1203 256.577 59.7609 256.044 61.8292C255.677 63.2935 255.659 65.1238 256.081 66.5515C256.816 69.1506 259.13 70.9444 261.334 72.0609C264.328 73.5618 269.14 75.6667 272.427 77.0578C273.548 77.5154 275.109 78.3573 276.229 78.6868Z" fill="#A4D09F"/>
<path d="M257.661 19.4564C257.459 20.0055 257.036 20.5912 256.761 21.2501C255.842 23.4099 255.787 26.0274 256.669 28.1323C257.661 30.4751 260.103 32.1407 262.528 33.2939C264.989 34.4653 267.634 35.6184 270.168 36.6983C271.454 37.2474 272.684 37.8332 274.007 38.3823C274.888 38.7483 277.111 39.8832 277.882 40.0296C277.478 39.4988 273.75 38.3091 274.539 35.8015C275.054 34.1541 277.202 33.1108 278.782 32.159L291.4 24.3434C297.644 19.3832 299.352 11.0367 294.65 4.37423C294.522 4.19119 294.375 4.00816 294.228 3.80682L293.126 2.56218C293.108 2.54387 293.089 2.52557 293.071 2.52557L292.318 1.83003C292.134 1.647 291.969 1.55548 291.767 1.39075L290.059 0.201015C289.526 -0.12845 289.692 -0.000324765 288.847 0.512175L286.973 1.62869C285.669 2.32423 282.437 4.41084 280.894 5.32601L257.661 19.4564ZM243.812 107.478C243.812 109.583 244.566 111.889 245.3 113.317C248.753 120.163 256.724 123.805 263.648 121.023C263.942 120.913 264.162 120.803 264.493 120.693C265.393 120.382 266.77 119.595 267.634 119.119L282.731 109.62C283.006 109.455 283.208 109.272 283.484 109.199L281.959 108.375C281.482 108.174 281.004 107.936 280.453 107.698C276.688 106.142 272.17 103.872 268.442 102.353C267.946 102.152 267.45 101.914 266.954 101.676L262.454 99.6626C262.014 99.4796 259.626 98.3631 259.405 98.3631C259.148 98.3631 250.902 103.305 249.69 104.037L244.859 106.911C244.566 107.076 244.106 107.387 243.812 107.478ZM312.135 90.3278C312.356 89.98 312.558 89.8885 312.815 89.614C314.56 87.6555 315.092 85.0564 314.339 82.4939C312.907 77.6068 306.258 75.6666 301.685 73.6166C300.436 73.0675 299.187 72.5184 297.901 71.9693C297.626 71.8412 294.504 70.3403 294.228 70.4867C295.275 71.0175 296.469 71.9693 296.285 73.3421C296.138 74.4769 294.761 75.6117 293.953 76.0876L287.91 79.547C287.635 79.6934 287.708 79.547 287.616 79.8765L293.714 82.5488C294.761 83.043 295.752 83.409 296.799 83.9032L311.749 90.5108C312.209 90.5474 312.08 90.4925 312.135 90.3278Z" fill="#77ADD2"/>
<path d="M294.247 70.4688C294.522 70.3224 297.644 71.8416 297.92 71.9514C299.187 72.5005 300.454 73.0497 301.703 73.5988C306.276 75.6488 312.907 77.5889 314.358 82.476C315.111 85.0385 314.578 87.6376 312.833 89.5961C312.576 89.8889 312.356 89.9622 312.154 90.3099C312.558 90.2184 313.899 89.3398 314.303 89.0653C317.572 86.8689 319.978 85.1849 321.961 81.5242C324.735 76.3809 324.716 68.8032 321.759 63.8247C321.521 63.422 321.392 63.2023 321.135 62.818C320.088 61.2622 318.71 59.8162 317.682 58.9559C317.609 58.901 317.59 58.8827 317.535 58.8278C317.351 58.663 317.241 58.5898 317.039 58.4251C313.605 55.6613 311.088 54.7461 307.287 52.9706C306.864 52.7693 306.497 52.6595 306.074 52.4581L301.373 50.3898C299.224 49.3831 296.414 48.2849 294.338 47.2965C292.336 46.3447 289.435 45.155 287.304 44.2032L280.27 41.1099C279.811 40.9086 279.517 40.7621 279.076 40.5791C278.892 40.5059 278.709 40.4327 278.525 40.3229C278.305 40.1947 278.231 40.0849 277.882 40.0483C277.111 39.9019 274.888 38.7854 274.007 38.401C272.703 37.8336 271.454 37.2662 270.168 36.7171C267.634 35.6372 264.989 34.484 262.528 33.3126C260.085 32.1412 257.643 30.4755 256.669 28.151C255.788 26.0461 255.843 23.447 256.761 21.2688C257.055 20.5916 257.459 20.0059 257.661 19.4751C256.651 20.1889 255.788 20.6465 254.667 21.5434C253.969 22.0925 252.482 23.3738 251.967 24.0144C251.453 24.6733 251.104 24.9296 250.388 25.863C249.304 27.309 248.661 28.6086 248 30.2559C247.486 31.5188 246.788 34.2278 246.788 35.9117C246.788 36.5523 246.696 36.7903 246.696 37.4492C246.696 41.1465 247.743 45.0818 250.021 47.8639L251.159 49.255C251.582 49.7492 252.096 50.1519 252.518 50.518C253.896 51.726 254.869 52.4581 256.485 53.4282C257.826 54.2336 259.442 55.1305 260.912 55.7711L272.868 61.0059C273.272 61.1706 273.676 61.372 274.044 61.5367L279.958 64.1175C280.766 64.4836 281.537 64.813 282.364 65.1608C282.749 65.3072 283.135 65.5086 283.557 65.6916L287.139 67.2657C288.333 67.7416 293.659 70.0479 294.247 70.4688ZM19.101 30.7318C19.101 32.1961 19.4316 33.5505 20.0376 34.7586C23.766 42.1349 38.5692 39.4626 41.9303 45.2465C42.8302 46.784 42.5364 49.0537 41.7099 50.5546C40.4426 52.8791 36.9714 53.8309 34.1246 53.8309C31.4615 53.8309 29.5147 53.6662 27.2005 52.4398C26.6128 52.1287 26.2822 51.8541 25.8047 51.488C24.1517 50.2251 23.2334 48.0653 23.0864 45.9787C23.013 44.7706 23.8762 45.0818 18.2745 45.0818C18.1275 45.0818 17.999 45.1367 17.999 45.2648C17.999 48.3581 18.8255 51.122 20.5519 53.2818C21.0478 53.9041 21.7273 54.6363 22.3518 55.0938C24.1517 56.4483 26.1904 57.4184 28.431 57.876C31.8472 58.5715 35.5021 58.6447 38.8998 57.6747C41.2507 56.9974 42.4445 56.3202 44.2077 55.0206C44.7771 54.5997 45.3831 53.9224 45.8056 53.3733C46.026 53.0805 46.2647 52.751 46.4668 52.4032C47.9728 49.676 48.285 46.0702 46.9626 43.1782C46.4117 41.9519 45.7321 41.1831 44.7771 40.2863C41.6548 37.4126 35.5204 36.6255 31.737 35.6738C28.7984 34.9233 24.4272 34.0264 24.4272 30.3291C24.4272 23.209 35.3919 23.1907 38.7162 26.3755C39.4141 27.0528 39.9283 27.5287 40.4059 28.5903C40.7365 29.359 41.1956 30.7318 41.1956 31.7751H46.2831C46.2831 30.8233 46.1545 29.8349 45.9709 29.0113C45.5668 27.1992 45.126 26.1559 44.1159 24.7099C43.62 23.9961 43.2343 23.63 42.6282 23.026C42.1507 22.5501 41.416 22.0925 40.8283 21.7447C37.2836 19.6215 32.1961 19.4568 28.1923 20.3354C27.3658 20.5184 25.6026 21.1407 24.868 21.5434C24.2619 21.8729 23.564 22.2572 23.0313 22.6782C20.5152 24.7282 19.101 27.5104 19.101 30.7318ZM0 90.2367C0 93.0555 0.330594 95.8742 1.08361 98.1072C1.4693 99.2421 1.78153 100.084 2.27742 101.072C3.23247 102.976 4.40791 104.44 5.91395 105.831C6.55677 106.417 7.07103 106.728 7.73221 107.168C13.0033 110.627 22.2967 110.609 27.3291 106.545L28.431 105.557C28.578 105.429 28.578 105.447 28.7249 105.301C31.2778 102.61 32.6553 99.0407 33.0593 95.3617C33.0961 94.9773 33.243 94.6479 32.8757 94.6479H27.8066C27.7699 96.4416 27.0719 98.8943 26.1169 100.468L24.5741 102.445C24.5558 102.463 24.5374 102.482 24.519 102.482C23.9864 102.994 23.6558 103.287 22.9946 103.672C19.0642 106.033 13.0952 105.484 9.73414 102.427L9.33008 102.024C7.43835 99.9559 7.0343 99.0041 6.13435 96.3684C4.9589 92.9456 5.08747 87.4729 6.22618 84.0684C7.91588 79.0349 11.3504 75.6854 17.5582 75.6854C18.9357 75.6854 20.3499 75.9233 21.3967 76.2894C22.6089 76.7104 23.766 77.3327 24.6108 78.138L24.8863 78.4126C26.0618 79.4742 26.925 81.1398 27.2923 82.6956C27.3658 83.0251 27.3842 83.4461 27.7148 83.4461C33.592 83.4461 32.8941 83.8122 32.5818 82.293C32.49 81.8537 32.3798 81.3229 32.2512 80.9019C31.7737 79.3644 30.6901 77.168 29.5881 76.0697L29.2759 75.7403C29.2575 75.722 29.2392 75.7037 29.2392 75.6854L29.0004 75.3925C28.8902 75.2644 28.9086 75.2827 28.7616 75.1729C27.9535 74.5505 27.5495 74.0014 26.3189 73.3608C22.7926 71.5121 20.7172 71.1644 16.6582 71.1644C13.0952 71.1644 9.42192 72.5372 6.77717 74.5872C5.2344 75.7952 4.13242 77.0581 3.12227 78.7055C2.07539 80.426 2.03866 80.6822 1.28564 82.5675C0.49589 84.5809 0 88.0037 0 90.2367ZM127.885 44.4595C127.885 41.6041 128.693 38.4559 130.125 36.8452C131.576 35.2162 133.266 34.5206 135.672 34.5206C138.317 34.5206 140.355 35.5822 141.531 37.0831C142.835 38.7488 143.643 41.3662 143.643 43.4528C143.643 45.7773 143.569 47.7541 142.504 49.8956C141.843 51.2135 140.906 52.33 139.602 53.0622C137.472 54.2519 134.147 54.2702 132.072 53.0072C129.078 51.2135 127.885 47.8639 127.885 44.4595ZM143.551 30.018C143.551 30.3291 143.459 30.2925 143.514 30.805L143.551 33.9898C143.165 33.7336 142.559 32.5438 140.374 31.4639C137.013 29.78 132.66 29.9264 129.354 31.5921C127.554 32.4889 126.14 33.8434 125.111 35.4907C123.973 37.3394 123.256 39.2613 122.999 41.4943L122.797 44.551C122.815 44.9354 122.871 44.8805 122.889 45.2648C122.907 45.5211 122.871 45.8139 122.889 46.0702C122.981 47.2782 123.422 48.9805 123.771 50.0604C124.211 51.3599 125.166 53.1903 126.066 54.2702C129.464 58.297 135.69 59.3037 140.263 57.272C141.402 56.7595 142.008 56.247 142.816 55.405C143.074 55.1488 143.276 54.7461 143.514 54.563L143.496 56.3568C143.496 56.3751 143.478 56.5581 143.478 56.5764L143.514 57.638H148.308V21.0858C148.308 20.8845 148.253 20.8113 148.032 20.8113H143.496L143.551 30.018ZM211.029 53.9407C208.476 53.9407 207.466 53.7943 205.501 52.3117C205.078 52.0005 204.858 51.7077 204.527 51.305C203.903 50.5546 203.499 49.7492 203.095 48.7608C201.791 45.5394 202.36 39.5907 204.399 37.138C205.078 36.3327 205.611 35.7836 206.621 35.2894C209.56 33.8251 213.729 34.4474 215.896 37.0099C217.145 38.4742 218.1 41.238 218.1 43.2148C218.1 45.3747 218.192 46.5095 217.475 48.651C216.833 50.5363 215.841 52.0738 214.114 53.0622C213.398 53.4282 212.112 53.9407 211.029 53.9407ZM217.99 33.9898C217.788 33.8617 217.126 33.0014 216.594 32.5805C214.959 31.3175 212.461 30.2925 210.202 30.2925C207.558 30.2925 206.088 30.4389 203.793 31.5921C200.009 33.4773 198.007 37.4126 197.456 41.5126C196.373 49.6577 200.211 58.2787 209.835 58.2787C212.241 58.2787 214.941 57.5648 216.557 56.1372L217.99 54.5814V57.6563H222.783V20.8113H217.99V33.9898ZM211.029 105.118C209.284 105.118 208.2 105.136 206.639 104.257C204.931 103.305 203.774 101.805 203.113 99.9193C202.305 97.5764 202.415 96.826 202.415 94.4648C202.415 91.3898 203.866 87.8206 206.603 86.4662C209.541 85.0019 213.71 85.6242 215.878 88.1867C217.126 89.651 218.082 92.4148 218.082 94.3916C218.082 96.5697 218.173 97.668 217.457 99.8278C216.833 101.695 215.786 103.269 214.096 104.239C213.398 104.623 212.094 105.118 211.029 105.118ZM217.99 85.1666C217.843 85.0568 217.071 84.1416 216.594 83.7572C215.382 82.8055 214.298 82.3113 212.774 81.872C208.953 80.7921 204.839 81.6889 201.791 84.0867C199.954 85.5327 198.76 87.784 198.007 90.072C197.585 91.3166 197.144 94.2452 197.328 95.7461C197.456 96.826 197.254 96.6613 197.585 98.7479C197.713 99.5898 197.989 100.615 198.264 101.329C199.054 103.397 199.936 104.861 201.405 106.326C201.699 106.618 201.938 106.82 202.286 107.076L203.774 108.028C204.711 108.54 205.611 108.888 206.749 109.126C209.872 109.748 212.829 109.529 215.62 107.991C216.245 107.643 217.255 106.765 217.641 106.216C217.788 105.996 217.788 105.923 218.008 105.758V108.833H222.802V71.988H218.008V85.1666H217.99ZM163.662 53.9407H162.395C160.283 53.9407 158.134 52.751 158.134 50.6827C158.134 49.1818 158.373 47.9555 159.75 47.0586C162.505 45.2282 166.95 45.7773 169.98 44.6242C170.292 44.4961 170.531 44.3497 170.825 44.2947C170.825 47.443 171.321 49.1269 169.558 51.4331C168.401 52.9157 165.738 53.9407 163.662 53.9407ZM154.057 39.4992H158.85C158.85 33.3309 166.913 34.1912 168.988 35.2528C170.641 36.0947 170.788 37.4858 170.788 39.0416C170.788 39.9934 169.907 40.6706 169.209 41.0001C166.546 42.2081 159.438 41.659 155.287 44.9903C153.983 46.0336 153.028 48.23 153.028 49.8773C153.028 52.1104 153.138 53.7028 154.644 55.4965L154.993 55.8626C156.848 57.5648 158.887 58.2604 162.083 58.2604C164.14 58.2604 165.903 57.8211 167.335 57.1805C168.107 56.8327 168.676 56.4666 169.337 56.009C169.484 55.8992 169.613 55.8443 169.76 55.7162L171.045 54.563C171.156 55.0389 171.192 55.588 171.376 56.0456C171.56 56.4849 171.798 56.8876 172.111 57.2171C173.268 58.4251 175.361 58.48 176.886 58.0407C177.18 57.9492 177.4 57.9126 177.639 57.8028C177.914 57.6747 178.025 57.5465 178.3 57.4733V53.6845C177.529 53.7577 175.729 54.7278 175.582 52.7876V46.4729C175.582 43.6724 175.582 40.872 175.582 38.0715C175.6 33.7885 173.672 31.83 170.182 30.8233C167.023 29.9081 161.385 30.1278 158.52 31.7202C158.079 31.9581 157.399 32.3791 157.032 32.672C155.067 34.3559 154.057 36.6988 154.057 39.4992ZM74.5305 105.118C73.0061 105.118 71.6653 105.154 70.3613 104.221C68.5431 102.921 68.6716 99.6997 70.6184 98.2354C70.8939 98.034 71.7572 97.6314 72.1428 97.5032C72.7306 97.3019 73.3734 97.1554 74.0162 97.0273C76.2936 96.5697 78.5894 96.6063 80.9219 95.7827C81.2709 95.6546 81.4729 95.5264 81.7668 95.4532C81.7668 97.3751 82.0607 99.6447 81.326 101.237C80.9403 102.097 80.1322 103.068 79.4159 103.58C78.9935 103.891 78.5527 104.111 78.0201 104.367C77.1936 104.77 75.7426 105.118 74.5305 105.118ZM65.0351 90.676H69.8287C69.8287 84.3979 78.0568 85.4046 80.0404 86.4662C81.6015 87.2898 81.7852 88.6077 81.7852 90.1452C81.7852 91.1519 80.9587 91.8657 80.1873 92.1769C78.5343 92.8358 75.9998 93.0372 74.108 93.3483C71.3531 93.8059 68.1941 94.4831 66.1738 96.2769C64.4474 97.7961 64.0249 99.7729 64.0249 102.079C64.0249 104.715 65.1453 106.417 66.6146 107.607C68.9287 109.474 72.9877 109.803 75.8528 109.163C77.3221 108.833 78.0935 108.522 79.269 107.881C79.673 107.662 79.9302 107.515 80.2791 107.259L82.0423 105.776C82.3545 109.602 85.8257 110.041 88.544 109.016C88.8378 108.906 89.0031 108.742 89.2786 108.668V104.88C88.544 104.934 89.0766 105.154 87.4604 105.154C86.2849 105.154 86.5604 102.939 86.5604 101.896V89.1751C86.5604 87.7474 86.3767 86.6492 85.9176 85.6608C84.136 81.7439 79.3608 81.5059 75.5957 81.5059C72.6938 81.5059 69.6634 82.5309 68.0655 83.8305C66.284 85.2764 65.0351 87.4363 65.0351 90.676ZM77.065 53.8492C75.559 53.8492 74.4019 53.8126 73.1897 53.0255C71.2429 51.7626 71.3898 48.4313 73.3734 47.022C75.8896 45.2282 80.9954 45.5943 83.6585 44.5327C83.9524 44.4046 84.2279 44.2581 84.5034 44.2032C84.5034 45.6126 84.5401 47.0586 84.5034 48.4497C84.485 49.5845 83.7687 50.7376 83.1994 51.3965C81.9872 52.8242 79.7281 53.8492 77.065 53.8492ZM67.7533 39.4077H72.5469C72.5653 38.6938 72.7857 37.7055 73.0244 37.1747C73.6305 35.8751 74.6223 35.143 76.0549 34.7769C79.0302 34.0264 84.5952 34.0081 84.5952 38.584C84.5952 39.7372 83.9891 40.3961 83.181 40.7805C81.5831 41.5675 78.6262 41.7139 77.0099 42.0434C73.2816 42.7938 69.1308 43.3064 67.386 47.1684C65.9718 50.2983 66.7615 55.2037 70.4899 57.0706C73.5938 58.6264 78.0935 58.4983 81.124 57.0706C82.1709 56.5764 83.1626 55.9724 84.0258 55.1854C84.3197 54.9108 84.5401 54.618 84.8707 54.3983C84.8707 56.5947 86.3033 58.1872 88.4889 58.1872C90.0684 58.1872 90.7663 58.0407 92.0152 57.3818V53.593C91.3724 53.6479 91.7581 53.8675 90.1969 53.8675C89.0398 53.8675 89.297 51.5979 89.297 50.5363V37.7238C89.297 36.4059 89.0766 35.0331 88.5991 34.1729C86.6522 30.5671 82.428 30.2376 78.6996 30.2376C75.9447 30.2376 73.1346 30.8782 70.9307 32.5255C68.8002 34.063 67.8084 36.7903 67.7533 39.4077ZM137.582 85.7157C139.547 85.7157 141.421 86.4479 142.725 87.7291C143.9 88.8822 144.965 90.9688 145.002 92.6711H130.327C130.566 92.1769 130.658 88.1135 134.588 86.3563C135.415 85.9903 136.388 85.7157 137.582 85.7157ZM125.258 95.197C125.258 96.2586 125.405 97.3019 125.534 98.2537C125.791 100.121 126.672 102.848 127.811 104.385C128.325 105.081 128.674 105.593 129.317 106.234C130.144 107.058 131.356 107.808 132.421 108.284C132.825 108.467 133.101 108.595 133.597 108.742C134.019 108.87 134.478 108.998 134.956 109.108C138.996 109.913 142.725 109.346 145.92 106.93C147.61 105.648 148.859 103.379 149.428 101.31C149.759 100.121 150.126 100.432 145.094 100.432C144.671 100.432 144.708 101.255 144.175 102.134C143.441 103.324 142.651 104.147 141.274 104.66C139.253 105.429 136.517 105.227 134.57 104.422C131.668 103.214 130.327 100.121 130.327 97.009H149.796C150.2 97.009 150.126 96.0389 150.108 95.801C149.998 94.1537 150.034 93.1287 149.557 91.28C149.043 89.23 148.547 88.1501 147.518 86.4479C147.298 86.0818 147.059 85.8072 146.784 85.4595C146.618 85.2581 146.6 85.2215 146.416 85.0202C144.396 82.897 141.733 81.4693 138.647 81.4693C136.003 81.4693 134.46 81.5974 132.127 82.8238C127.627 85.1666 125.258 90.1818 125.258 95.197ZM181.771 85.7157C184.03 85.7157 185.371 86.4479 186.914 87.7291C188.034 88.6443 189.173 91.097 189.21 92.6711H174.535C174.847 88.8822 177.694 85.7157 181.771 85.7157ZM169.448 95.197C169.448 100.377 171.541 106.143 176.574 108.321C177.4 108.668 178.172 108.925 179.127 109.108C182.708 109.822 186.767 109.419 189.577 107.314C191.395 105.959 192.112 104.825 193.03 102.903C193.25 102.445 193.305 102.226 193.471 101.731C194.003 100.194 193.838 100.542 192.185 100.542C191.12 100.542 190.073 100.542 189.008 100.542C188.567 102.445 187.226 104.001 185.371 104.678C182.451 105.758 178.19 105.118 176.17 102.409L175.417 101.255C175.306 101.036 175.215 100.816 175.123 100.56C174.664 99.3885 174.517 98.4733 174.517 97.009H193.985C194.426 97.009 194.26 96.2952 194.26 95.1055C194.26 92.4697 193.471 89.8523 192.387 87.6742C191.248 85.4229 189.944 84.0501 187.832 82.8238C183.332 80.2247 176.298 81.3046 172.772 85.6974C170.568 88.4247 169.448 91.463 169.448 95.197ZM37.5775 108.833H42.3711V93.4032C42.3711 91.4447 43.1792 88.8273 44.722 87.5278C44.7403 87.5095 44.7587 87.4912 44.7771 87.4912C48.634 84.2697 55.0438 85.5327 55.0438 90.2367V108.833H59.8742V90.2367C59.8742 88.022 59.2313 85.8805 57.8722 84.1965C57.762 84.0684 57.762 84.0501 57.6335 83.8854C57.0274 83.2081 55.9805 82.5492 55.0805 82.1831C51.3338 80.7005 45.3464 81.2863 42.7017 84.9287L42.3894 85.3496V71.988H37.5958V108.833H37.5775ZM100.721 34.5389V31.5555C100.721 31.1711 100.813 30.8416 100.445 30.8416H96.368C96.166 30.8416 96.0925 30.8965 96.0925 31.1162V57.3818C96.0925 57.5831 96.1476 57.6563 96.368 57.6563H100.721C101.07 57.6563 100.996 57.3635 100.996 57.034V42.501C100.996 40.451 101.437 38.4925 102.723 36.9916C105.772 33.4224 113.687 33.2577 113.687 39.7005V57.6563H118.463V39.7738C118.463 36.1863 117.195 32.3608 113.651 31.0247C110.033 29.6519 104.927 30.0363 102.043 32.8916C101.437 33.4956 101.29 33.7702 100.868 34.3376L100.721 34.5389ZM111.575 100.981C111.575 102.775 111.924 104.825 112.843 106.216C115.047 109.529 119.014 109.199 122.724 109.199C122.999 109.199 122.999 108.815 122.999 108.211L122.981 105.502C122.981 105.337 122.981 105.484 122.999 105.227C123.018 104.88 122.981 104.861 122.926 104.605C120.501 104.605 117.857 105.099 116.846 103.159C116.589 102.647 116.406 101.859 116.406 101.072V86.3563H122.742C122.944 86.3563 123.018 86.3014 123.018 86.0818V82.1099H116.406V74.1662H111.612L111.575 100.981ZM63.4923 30.8965L57.009 30.8782C56.807 30.2193 56.9539 24.2706 56.9539 23.0626L52.2521 22.9711V48.4314C52.2521 51.3599 52.2338 53.9773 54.2173 55.9541C54.7867 56.5215 55.356 56.9791 56.1458 57.272C58.2396 58.0407 59.5252 58.0041 61.7475 58.0041C63.9331 58.0041 63.5658 58.3153 63.5658 56.6497C63.5658 55.5697 63.5658 54.4898 63.5658 53.3916C61.6924 53.3916 59.1762 53.6662 58.0743 52.7327C56.7703 51.6528 57.0457 49.8041 57.0457 47.5162V35.143C58.864 35.143 60.6639 35.1247 62.4822 35.143C63.0148 35.143 63.474 35.2894 63.5658 34.8684V31.1711C63.5291 30.8965 63.6025 31.1162 63.4923 30.8965ZM159.218 86.9787V82.0184H154.681V108.833H159.475C159.475 105.703 159.291 96.6979 159.658 94.1171C159.934 92.1403 160.522 90.4014 161.807 88.9371C162.523 88.1135 163.644 87.4363 164.801 87.0519C165.462 86.8322 166.013 86.7407 166.784 86.5943C167.501 86.4662 168.474 86.6126 169.062 86.3381L168.97 81.4693C167.317 81.4693 166.16 81.4327 164.562 82.0367C162.432 82.8421 161.109 84.105 159.879 85.9537C159.75 86.1367 159.64 86.2831 159.548 86.4479C159.438 86.7224 159.475 86.7956 159.218 86.9787ZM97.9108 86.9787V82.0184H93.3743V108.833H98.1679V96.643C98.1679 92.726 99.325 88.4247 103.366 87.1068C104.706 86.6675 106.267 86.4662 107.682 86.4479V81.4876C105.735 81.4876 105.221 81.4144 103.274 82.055C99.7841 83.2264 98.2597 86.7224 97.9108 86.9787ZM186.932 35.8019V31.9215C186.932 30.4938 187.593 30.8416 182.396 30.8416V57.6563H186.932C187.373 57.6563 187.208 56.8144 187.208 55.9358V45.8322C187.208 44.313 187.263 43.3613 187.502 42.0617C188.31 37.6688 191.524 35.2894 195.895 35.3626C196.299 35.3626 196.703 35.4724 196.703 35.088V30.3108C195.05 30.3108 193.893 30.2742 192.295 30.8782C191.432 31.2077 190.752 31.5921 190.073 32.0863C189.577 32.4523 188.695 33.2943 188.328 33.7702C188.071 34.0997 187.814 34.4108 187.612 34.7586L187.098 35.6005C187.079 35.6188 187.061 35.6372 187.061 35.6555C186.896 35.8568 187.061 35.6555 186.932 35.8019Z" fill="#0071A9"/>
<path d="M276.229 78.6873C275.109 78.3579 273.548 77.5342 272.427 77.0583C269.14 75.6672 264.328 73.544 261.334 72.0614C259.112 70.9632 256.816 69.1512 256.081 66.5521C255.677 65.1061 255.677 63.294 256.045 61.8297C256.577 59.7614 257.532 59.1208 257.973 58.3887C257.643 58.4619 257.532 58.6083 257.257 58.7914C256.981 58.9744 256.816 59.0659 256.541 59.2489L253.712 61.1342C252.206 62.2507 250.645 63.6052 249.525 65.0878C247.247 68.1445 246.476 70.5056 246.053 74.4409C245.466 79.8405 247.192 84.819 250.718 88.3333L251.306 88.919C252.151 89.6695 252.169 89.7793 253.18 90.5663C255.714 92.5614 259.185 94.3735 262.124 95.6364L305.817 115.093L310.372 117.509C313.678 119.394 315.294 120.419 318.251 122.561C318.564 122.781 318.527 122.909 318.968 123.019C319.574 122.579 320.878 120.218 321.227 119.394C323.504 113.794 323.743 107.717 320.786 102.61L317.498 98.4918C314.394 95.7096 312.815 94.9592 309.289 93.2204L305.193 91.4266C304.826 91.2802 304.569 91.1521 304.183 90.9873C297.81 88.2601 290.831 84.9655 284.494 82.348C284.108 82.1833 283.906 82.0735 283.502 81.8905L277.276 79.1632C276.927 78.9802 276.615 78.7605 276.229 78.6873Z" fill="#21A947"/>
<path d="M63.4925 30.8964C63.1619 30.7317 57.5786 30.8232 57.0643 30.8232V23.2455C57.0092 23.0259 57.0643 23.1906 56.9725 23.0625C56.9725 24.2522 56.8256 30.2009 57.0276 30.8781L63.4925 30.8964Z" fill="#00354E"/>
</svg>
