<svg width="246" height="64" viewBox="0 0 246 64" fill="none" xmlns="http://www.w3.org/2000/svg">
<path d="M36.3918 15.7478C36.3918 11.6682 36.3918 7.58851 36.3918 3.50884C36.3918 3.10087 36.4082 2.69813 36.5233 2.30586C36.9616 0.81521 38.4191 -0.136713 40.0081 0.0201978C41.5148 0.171878 42.7641 1.47946 42.8408 2.9858C42.8518 3.20548 42.8518 3.43038 42.8518 3.65006C42.8518 11.8879 42.8518 20.1256 42.8518 28.3634C42.8518 28.9597 42.7751 28.876 43.3997 28.876C44.9996 28.8812 46.605 28.876 48.205 28.876C48.2981 28.876 48.3967 28.8708 48.4899 28.876C48.6323 28.8812 48.6817 28.8133 48.6817 28.6877C48.6762 28.5727 48.6817 28.4524 48.6817 28.3373C48.6817 20.0472 48.6817 11.7571 48.6817 3.467C48.6817 3.00673 48.72 2.55169 48.8734 2.11757C49.3666 0.731525 50.7254 -0.10533 52.2541 0.0149675C53.6349 0.124805 54.8567 1.25456 55.0869 2.63014C55.1362 2.92827 55.1471 3.2264 55.1471 3.52976C55.1471 11.8042 55.1471 20.0838 55.1471 28.3582C55.1471 28.9649 55.0759 28.8708 55.6951 28.876C58.2813 28.8812 60.8729 28.8812 63.4591 28.876C64.1933 28.876 64.8782 29.0068 65.4864 29.4043C66.6206 30.1418 67.1576 31.1669 66.911 32.4745C66.6645 33.7664 65.7933 34.5562 64.4837 34.9275C64.1385 35.0269 63.7824 35.0321 63.4262 35.0321C60.851 35.0321 58.2758 35.0321 55.7005 35.0321C55.6074 35.0321 55.5088 35.0374 55.4156 35.0321C55.2293 35.0164 55.1307 35.0792 55.1471 35.2727C55.1581 35.3773 55.1471 35.4819 55.1471 35.5866C55.1471 43.8766 55.1471 52.1668 55.1471 60.4568C55.1471 61.1368 55.0376 61.7801 54.6704 62.3764C53.9801 63.4852 52.6979 64.071 51.3939 63.867C50.1063 63.663 49.0268 62.6588 48.7638 61.414C48.6926 61.0793 48.6871 60.7393 48.6871 60.3993C48.6871 52.1249 48.6871 43.8453 48.6871 35.5709C48.6871 34.9484 48.7748 35.0374 48.1173 35.0374C46.5283 35.0321 44.9394 35.0374 43.3504 35.0374C43.2572 35.0374 43.1586 35.0426 43.0655 35.0374C42.9066 35.0321 42.8463 35.1054 42.8518 35.2518C42.8572 35.3669 42.8518 35.4872 42.8518 35.6022C42.8518 43.8766 42.8518 52.1563 42.8518 60.4307C42.8518 60.891 42.8244 61.346 42.6655 61.7854C42.1614 63.1976 40.7368 64.0606 39.2081 63.8775C37.7506 63.7049 36.5452 62.481 36.4192 61.0426C36.3972 60.7811 36.3918 60.5196 36.3918 60.2581C36.3918 52.0203 36.3918 43.7825 36.3918 35.5447C36.3918 34.9694 36.4411 35.0321 35.8712 35.0321C34.2713 35.0321 32.6659 35.0321 31.066 35.0321C30.9838 35.0321 30.9016 35.0374 30.8194 35.0321C30.6167 35.0112 30.5564 35.1106 30.5674 35.2884C30.5728 35.393 30.5674 35.4976 30.5674 35.6022C30.5674 43.8505 30.5674 52.104 30.5674 60.3522C30.5674 60.7707 30.5454 61.1891 30.4304 61.5971C30.0304 63.004 28.7099 63.9455 27.2031 63.8984C25.7456 63.8513 24.4745 62.8 24.1786 61.3983C24.1128 61.074 24.1019 60.7497 24.1019 60.4202C24.1019 52.1301 24.1019 43.84 24.1019 35.5499C24.1019 34.9589 24.1841 35.0321 23.554 35.0321C21.954 35.0269 20.3486 35.0321 18.7487 35.0321C18.6555 35.0321 18.5569 35.0374 18.4638 35.0321C18.3213 35.0269 18.2665 35.0949 18.272 35.2257C18.2775 35.3303 18.272 35.4349 18.272 35.5395C18.272 43.84 18.272 52.1458 18.272 60.4464C18.272 60.8282 18.2555 61.2048 18.1514 61.5709C17.7186 63.0668 16.283 64.0239 14.6886 63.8827C13.1927 63.7467 11.9818 62.5385 11.8449 61.027C11.8229 60.7916 11.812 60.5562 11.812 60.3209C11.812 52.0988 11.812 43.8714 11.812 35.6493C11.812 35.5709 11.812 35.4924 11.812 35.4139C11.812 35.0321 11.8065 35.0269 11.412 35.0269C8.75458 35.0269 6.09715 35.0217 3.43973 35.0269C2.70552 35.0269 2.02061 34.87 1.42338 34.462C0.305619 33.7036 -0.187511 32.668 0.064533 31.3918C0.316577 30.0999 1.20421 29.3154 2.51922 28.9702C2.86441 28.876 3.22056 28.876 3.57671 28.876C6.16291 28.876 8.75458 28.876 11.3408 28.876C11.8284 28.876 11.801 28.9388 11.801 28.4314C11.801 20.1309 11.801 11.8251 11.801 3.52453C11.801 3.03811 11.8394 2.56215 12.0038 2.09664C12.3818 1.01919 13.5544 -0.115791 15.3132 0.0149675C16.6611 0.114344 17.9049 1.18133 18.1898 2.49938C18.261 2.82366 18.2665 3.14794 18.2665 3.47223C18.2665 11.7623 18.2665 20.0524 18.2665 28.3425C18.2665 28.9702 18.1734 28.876 18.8309 28.876C20.4472 28.8812 22.0636 28.876 23.68 28.876C24.1293 28.876 24.0964 28.9074 24.0964 28.4733C24.0964 20.157 24.0964 11.8408 24.0964 3.52453C24.0964 3.21071 24.1019 2.89689 24.1567 2.5883C24.4197 1.15518 25.7895 -0.0844091 27.5264 0.00450677C29.0387 0.082962 30.3537 1.28594 30.5235 2.80797C30.5509 3.06949 30.5674 3.33101 30.5674 3.59252C30.5674 11.8565 30.5674 20.1204 30.5674 28.3844C30.5674 28.9649 30.5126 28.8812 31.0934 28.8812C32.6933 28.8865 34.2987 28.8812 35.8986 28.8812C35.9918 28.8812 36.0904 28.876 36.1836 28.8812C36.3205 28.8865 36.3863 28.8237 36.3863 28.693C36.3863 28.5779 36.3863 28.4576 36.3863 28.3425C36.3918 24.1426 36.3918 19.9426 36.3918 15.7478Z" fill="#ED1D25"/>
<path d="M236.307 31.5327C236.334 31.606 236.405 31.6164 236.465 31.6373C237.896 32.129 239.167 32.8926 240.372 33.7661C243.041 35.6856 244.673 38.2537 245.495 41.3082C246.032 43.3062 246.12 45.3304 245.857 47.3754C245.638 49.0387 245.161 50.6235 244.361 52.1141C243.325 54.0493 241.857 55.6341 240.049 56.9313C237.512 58.7566 234.646 59.8132 231.518 60.2682C229.605 60.5454 227.682 60.6605 225.748 60.6605C217.584 60.6605 209.42 60.6605 201.256 60.6657C200.588 60.6657 200.023 60.467 199.563 60.0015C199.212 59.6458 199.031 59.2169 198.999 58.7305C198.988 58.5893 198.993 58.4428 198.993 58.3016C198.993 41.7894 198.993 25.272 198.993 8.75984C198.993 8.52447 198.988 8.28911 199.042 8.05897C199.262 7.11751 200.078 6.45849 201.081 6.42711C201.245 6.42187 201.409 6.42188 201.574 6.42188C209.162 6.42188 216.751 6.42188 224.34 6.42188C225.973 6.42188 227.6 6.44803 229.222 6.60494C231.359 6.80892 233.435 7.23258 235.353 8.21065C238.657 9.89482 240.86 12.4472 242.038 15.826C242.684 17.6828 242.893 19.5919 242.734 21.548C242.63 22.8556 242.41 24.1423 241.972 25.3871C241.052 27.997 239.315 29.9532 236.772 31.2503C236.63 31.3235 236.482 31.3967 236.339 31.47C236.328 31.4857 236.323 31.5118 236.307 31.5327ZM211.639 44.5615C211.639 46.9779 211.639 49.3996 211.639 51.816C211.639 52.156 211.645 52.156 211.995 52.1612C212.077 52.1612 212.16 52.1612 212.242 52.1612C215.842 52.1612 219.447 52.156 223.047 52.1612C223.841 52.1612 224.636 52.1455 225.43 52.0932C226.581 52.0147 227.715 51.8421 228.805 51.476C230.855 50.7856 232.263 49.4885 232.833 47.4643C233.331 45.6808 233.359 43.8711 232.871 42.0771C232.268 39.8594 230.805 38.3792 228.559 37.6052C227.43 37.2181 226.252 37.0455 225.058 37.0403C220.702 37.0298 216.346 37.035 211.995 37.035C211.951 37.035 211.913 37.0403 211.875 37.035C211.727 37.0194 211.639 37.0717 211.656 37.2286C211.661 37.3175 211.656 37.4116 211.656 37.5005C211.639 39.8542 211.639 42.2079 211.639 44.5615ZM211.639 21.6631C211.639 23.818 211.639 25.9781 211.639 28.133C211.639 28.4834 211.645 28.4887 211.979 28.4887C215.896 28.4834 219.814 28.4939 223.726 28.4678C224.855 28.4625 225.956 28.2638 227.008 27.8506C228.647 27.2072 229.781 26.1036 230.318 24.4822C230.926 22.6464 230.915 20.7948 230.29 18.9695C229.742 17.369 228.669 16.1712 227.041 15.4651C226.011 15.0153 224.921 14.8689 223.803 14.8689C219.902 14.8689 215.995 14.8689 212.094 14.8689C212.012 14.8689 211.929 14.8741 211.847 14.8689C211.688 14.8584 211.623 14.9264 211.634 15.0781C211.639 15.167 211.634 15.2611 211.634 15.3501C211.639 17.4579 211.639 19.5605 211.639 21.6631Z" fill="#07377B"/>
<path d="M189.009 32.3753C189.009 36.0156 188.714 38.9341 187.99 41.8108C187.234 44.834 186.051 47.6897 184.286 50.3049C182.034 53.6366 179.087 56.2466 175.388 58.0719C172.835 59.3272 170.123 60.1118 167.284 60.5145C165.219 60.8074 163.142 60.8911 161.06 60.7969C157.427 60.6348 153.932 59.8973 150.639 58.3858C147.789 57.0782 145.324 55.2737 143.264 52.9828C141.143 50.6239 139.604 47.946 138.519 45.0222C137.702 42.8255 137.171 40.5608 136.847 38.249C136.491 35.6861 136.404 33.118 136.552 30.5394C136.749 27.0351 137.406 23.6197 138.738 20.3298C140.19 16.7366 142.332 13.5827 145.357 11.0093C147.707 9.01136 150.392 7.55733 153.373 6.58448C155.022 6.04576 156.715 5.66917 158.436 5.44427C160.6 5.16183 162.77 5.1043 164.95 5.24029C166.967 5.36581 168.945 5.6744 170.884 6.2079C174.774 7.28012 178.188 9.13689 181.054 11.8828C183.103 13.8442 184.708 16.1089 185.936 18.6195C187.119 21.0359 187.903 23.5674 188.396 26.193C188.829 28.4682 188.998 30.7591 189.009 32.3753ZM176.484 33.0082C176.484 30.5708 176.259 28.1544 175.651 25.7798C175.092 23.5883 174.227 21.5276 172.824 19.6969C171.262 17.6623 169.235 16.2292 166.698 15.4917C164.759 14.9269 162.781 14.8066 160.77 15.0576C159.148 15.2616 157.625 15.7323 156.211 16.5221C154.008 17.7565 152.414 19.5296 151.241 21.674C149.861 24.2055 149.214 26.9305 148.94 29.7497C148.787 31.324 148.759 32.9036 148.836 34.4883C148.935 36.502 149.17 38.5 149.685 40.4562C150.233 42.5483 151.055 44.5306 152.397 46.2932C153.811 48.1552 155.619 49.5203 157.893 50.2997C160.277 51.1104 162.731 51.262 165.219 50.8645C168.764 50.2944 171.449 48.4952 173.372 45.6237C174.539 43.8716 175.268 41.952 175.744 39.9384C176.281 37.6579 176.479 35.3409 176.484 33.0082Z" fill="#07377B"/>
<path d="M126.492 25.5074C126.492 30.5023 126.508 35.4973 126.486 40.4923C126.475 42.7832 126.322 45.0584 125.861 47.3179C125.16 50.7699 123.368 53.5733 120.536 55.8119C117.758 57.9982 114.602 59.3738 111.084 60.0433C109.106 60.4199 107.106 60.6029 105.095 60.6866C103.134 60.7703 101.178 60.7284 99.2269 60.582C96.3887 60.3676 93.6107 59.8707 90.9752 58.8089C88.1534 57.6792 85.7151 56.0211 83.6933 53.8296C82.0605 52.0618 81.0961 49.9749 80.5701 47.6945C80.1647 45.9527 79.9893 44.1849 79.9126 42.4066C79.8743 41.3867 79.8524 40.3667 79.8469 39.3468C79.8414 28.9908 79.8414 18.6399 79.8469 8.28385C79.8469 8.06418 79.8469 7.83927 79.8798 7.6196C80.0496 6.61537 80.8934 5.89882 81.9509 5.89359C84.8001 5.88836 87.6493 5.88313 90.4985 5.89359C91.6765 5.89882 92.6025 6.78275 92.6354 7.90727C92.6409 8.06418 92.6354 8.22109 92.6354 8.378C92.6354 18.5353 92.6354 28.6926 92.6354 38.8552C92.6354 40.2778 92.6354 41.7057 92.8107 43.1231C92.9477 44.2581 93.1888 45.3669 93.8025 46.3712C94.1696 46.9779 94.6518 47.4905 95.1942 47.956C96.6846 49.2426 98.3667 50.1998 100.35 50.5764C103.517 51.1779 106.564 50.9163 109.374 49.2531C110.147 48.798 110.843 48.2541 111.5 47.6526C112.646 46.6013 113.204 45.278 113.446 43.8083C113.681 42.37 113.714 40.9212 113.714 39.4671C113.714 29.0744 113.714 18.6818 113.719 8.28385C113.719 8.06418 113.714 7.83927 113.752 7.6196C113.922 6.62584 114.777 5.89359 115.829 5.89359C118.689 5.88313 121.555 5.88313 124.415 5.89359C125.555 5.89882 126.459 6.76705 126.503 7.86542C126.508 8.00664 126.503 8.15309 126.503 8.29431C126.497 14.0268 126.497 19.7644 126.492 25.5074C126.497 25.5074 126.492 25.5074 126.492 25.5074Z" fill="#07377B"/>
</svg>
