<svg width="351" height="92" viewBox="0 0 351 92" fill="none" xmlns="http://www.w3.org/2000/svg">
<path d="M52.7603 23.1047C52.7603 17.3003 52.7603 11.4959 52.7603 5.69147C52.7603 5.11103 52.7837 4.53803 52.9474 3.97991C53.5711 1.85907 55.6447 0.504709 57.9054 0.727955C60.0492 0.94376 61.8267 2.80415 61.9358 4.94731C61.9514 5.25986 61.9514 5.57985 61.9514 5.89239C61.9514 17.6128 61.9514 29.3333 61.9514 41.0537C61.9514 41.9021 61.8422 41.783 62.7309 41.783C65.0073 41.7904 67.2914 41.783 69.5677 41.783C69.7002 41.783 69.8406 41.7755 69.9731 41.783C70.1758 41.7904 70.2459 41.6937 70.2459 41.5151C70.2381 41.3514 70.2459 41.1802 70.2459 41.0165C70.2459 29.2216 70.2459 17.4268 70.2459 5.63194C70.2459 4.97708 70.3005 4.32967 70.5188 3.71202C71.2204 1.74001 73.1537 0.549358 75.3287 0.720514C77.2932 0.876786 79.0316 2.48416 79.359 4.44129C79.4292 4.86546 79.4448 5.28963 79.4448 5.72124C79.4448 17.4938 79.4448 29.2737 79.4448 41.0463C79.4448 41.9095 79.3435 41.7755 80.2244 41.783C83.9039 41.7904 87.5912 41.7904 91.2708 41.783C92.3154 41.783 93.2899 41.969 94.1552 42.5346C95.7689 43.5838 96.5328 45.0424 96.182 46.9028C95.8312 48.7408 94.5917 49.8645 92.7286 50.3929C92.2374 50.5343 91.7307 50.5417 91.224 50.5417C87.5601 50.5417 83.8961 50.5417 80.2322 50.5417C80.0996 50.5417 79.9593 50.5491 79.8268 50.5417C79.5617 50.5194 79.4214 50.6087 79.4448 50.884C79.4604 51.0328 79.4448 51.1817 79.4448 51.3305C79.4448 63.1254 79.4448 74.9202 79.4448 86.7151C79.4448 87.6825 79.2889 88.5978 78.7666 89.4461C77.7843 91.0237 75.9601 91.8572 74.1048 91.567C72.2728 91.2767 70.7371 89.848 70.3629 88.0769C70.2615 87.6006 70.2537 87.1169 70.2537 86.6332C70.2537 74.8607 70.2537 63.0807 70.2537 51.3082C70.2537 50.4226 70.3785 50.5491 69.443 50.5491C67.1823 50.5417 64.9215 50.5491 62.6608 50.5491C62.5283 50.5491 62.3879 50.5566 62.2554 50.5491C62.0293 50.5417 61.9436 50.6459 61.9514 50.8542C61.9592 51.018 61.9514 51.1891 61.9514 51.3528C61.9514 63.1254 61.9514 74.9053 61.9514 86.6779C61.9514 87.3327 61.9124 87.9801 61.6863 88.6052C60.9691 90.6145 58.9423 91.8423 56.7673 91.5819C54.6936 91.3363 52.9786 89.595 52.7993 87.5485C52.7681 87.1764 52.7603 86.8044 52.7603 86.4323C52.7603 74.7119 52.7603 62.9914 52.7603 51.271C52.7603 50.4524 52.8305 50.5417 52.0197 50.5417C49.7434 50.5417 47.4593 50.5417 45.183 50.5417C45.066 50.5417 44.9491 50.5491 44.8322 50.5417C44.5437 50.5119 44.458 50.6533 44.4736 50.9063C44.4813 51.0552 44.4736 51.204 44.4736 51.3528C44.4736 63.0881 44.4736 74.8309 44.4736 86.5662C44.4736 87.1616 44.4424 87.7569 44.2787 88.3373C43.7096 90.3391 41.8308 91.6786 39.687 91.6116C37.6134 91.5446 35.8048 90.0489 35.3838 88.0546C35.2903 87.5932 35.2747 87.1318 35.2747 86.663C35.2747 74.8681 35.2747 63.0733 35.2747 51.2784C35.2747 50.4375 35.3916 50.5417 34.4951 50.5417C32.2188 50.5343 29.9347 50.5417 27.6584 50.5417C27.5258 50.5417 27.3855 50.5491 27.253 50.5417C27.0503 50.5343 26.9723 50.631 26.9801 50.817C26.9879 50.9659 26.9801 51.1147 26.9801 51.2635C26.9801 63.0733 26.9801 74.8904 26.9801 86.7002C26.9801 87.2434 26.9567 87.7792 26.8086 88.3001C26.1928 90.4284 24.1503 91.7902 21.8818 91.5893C19.7536 91.3958 18.0307 89.6768 17.8358 87.5262C17.8047 87.1913 17.7891 86.8565 17.7891 86.5216C17.7891 74.8235 17.7891 63.1179 17.7891 51.4198C17.7891 51.3082 17.7891 51.1965 17.7891 51.0849C17.7891 50.5417 17.7813 50.5343 17.22 50.5343C13.4391 50.5343 9.65821 50.5268 5.87733 50.5343C4.83271 50.5343 3.85826 50.311 3.00853 49.7306C1.41822 48.6515 0.716614 47.1781 1.07521 45.3624C1.43381 43.5243 2.69671 42.4081 4.56766 41.9169C5.05879 41.783 5.5655 41.783 6.07222 41.783C9.75176 41.783 13.4391 41.783 17.1186 41.783C17.8125 41.783 17.7735 41.8723 17.7735 41.1505C17.7735 29.3407 17.7735 17.5235 17.7735 5.71379C17.7735 5.02173 17.828 4.34455 18.0619 3.68225C18.5998 2.14929 20.2681 0.534475 22.7705 0.720514C24.6882 0.861903 26.4578 2.37998 26.8632 4.25525C26.9645 4.71663 26.9723 5.178 26.9723 5.63938C26.9723 17.4342 26.9723 29.2291 26.9723 41.024C26.9723 41.9169 26.8398 41.783 27.7753 41.783C30.075 41.7904 32.3747 41.783 34.6744 41.783C35.3137 41.783 35.2669 41.8276 35.2669 41.21C35.2669 29.3779 35.2669 17.5459 35.2669 5.71379C35.2669 5.2673 35.2747 4.82081 35.3526 4.38176C35.7268 2.34277 37.6758 0.579124 40.147 0.705631C42.2986 0.817254 44.1695 2.52881 44.4112 4.6943C44.4502 5.06638 44.4736 5.43846 44.4736 5.81053C44.4736 17.5682 44.4736 29.3258 44.4736 41.0835C44.4736 41.9095 44.3956 41.7904 45.2219 41.7904C47.4983 41.7979 49.7824 41.7904 52.0587 41.7904C52.1912 41.7904 52.3316 41.783 52.4641 41.7904C52.659 41.7979 52.7525 41.7086 52.7525 41.5225C52.7525 41.3588 52.7525 41.1877 52.7525 41.024C52.7603 35.0484 52.7603 29.0728 52.7603 23.1047Z" fill="#ED1D25"/>
<path d="M337.192 45.5638C337.231 45.6679 337.332 45.6828 337.418 45.7126C339.453 46.4121 341.261 47.4986 342.976 48.7413C346.773 51.4723 349.096 55.1261 350.265 59.472C351.029 62.3147 351.154 65.1945 350.78 68.1042C350.468 70.4706 349.79 72.7254 348.651 74.8462C347.178 77.5996 345.089 79.8544 342.516 81.6999C338.907 84.297 334.83 85.8002 330.378 86.4476C327.658 86.842 324.921 87.0057 322.17 87.0057C310.554 87.0057 298.939 87.0057 287.323 87.0131C286.372 87.0131 285.569 86.7303 284.914 86.0681C284.415 85.562 284.158 84.9518 284.111 84.2598C284.096 84.0588 284.104 83.8505 284.104 83.6496C284.104 60.1566 284.104 36.6562 284.104 13.1633C284.104 12.8284 284.096 12.4935 284.174 12.1661C284.485 10.8266 285.647 9.889 287.074 9.84436C287.308 9.83691 287.541 9.83691 287.775 9.83691C298.572 9.83691 309.369 9.83691 320.166 9.83691C322.489 9.83691 324.805 9.87412 327.112 10.0974C330.152 10.3876 333.107 10.9904 335.835 12.3819C340.536 14.7781 343.67 18.4096 345.346 23.2168C346.266 25.8586 346.562 28.5747 346.336 31.3579C346.188 33.2182 345.876 35.0489 345.253 36.8199C343.943 40.5333 341.472 43.3164 337.854 45.1619C337.652 45.2661 337.441 45.3703 337.239 45.4745C337.223 45.4968 337.215 45.534 337.192 45.5638ZM302.096 64.1006C302.096 67.5386 302.096 70.9841 302.096 74.422C302.096 74.9057 302.104 74.9057 302.603 74.9132C302.72 74.9132 302.836 74.9132 302.953 74.9132C308.075 74.9132 313.205 74.9057 318.326 74.9132C319.457 74.9132 320.587 74.8909 321.717 74.8164C323.355 74.7048 324.968 74.4593 326.52 73.9383C329.435 72.9561 331.439 71.1106 332.249 68.2307C332.959 65.6931 332.998 63.1183 332.304 60.5659C331.446 57.4107 329.365 55.3047 326.169 54.2034C324.563 53.6527 322.887 53.4071 321.187 53.3997C314.99 53.3848 308.792 53.3923 302.603 53.3923C302.54 53.3923 302.486 53.3997 302.431 53.3923C302.221 53.3699 302.096 53.4443 302.119 53.6676C302.127 53.7941 302.119 53.928 302.119 54.0546C302.096 57.4032 302.096 60.7519 302.096 64.1006ZM302.096 31.5216C302.096 34.5875 302.096 37.6608 302.096 40.7268C302.096 41.2253 302.104 41.2328 302.579 41.2328C308.153 41.2253 313.727 41.2402 319.293 41.203C320.899 41.1956 322.466 40.9128 323.963 40.3249C326.294 39.4096 327.907 37.8394 328.671 35.5326C329.536 32.9206 329.521 30.2863 328.632 27.6892C327.853 25.4121 326.325 23.7079 324.009 22.7033C322.544 22.0634 320.992 21.855 319.402 21.855C313.852 21.855 308.293 21.855 302.743 21.855C302.626 21.855 302.509 21.8624 302.392 21.855C302.166 21.8401 302.072 21.9369 302.088 22.1527C302.096 22.2792 302.088 22.4131 302.088 22.5396C302.096 25.5386 302.096 28.5301 302.096 31.5216Z" fill="#07377B"/>
<path d="M269.899 46.7615C269.899 51.9408 269.478 56.0932 268.449 60.1861C267.374 64.4873 265.69 68.5504 263.18 72.2711C259.976 77.0114 255.782 80.7247 250.52 83.3218C246.887 85.1078 243.028 86.224 238.99 86.797C236.051 87.2137 233.096 87.3328 230.134 87.1989C224.965 86.9682 219.992 85.9189 215.307 83.7683C211.253 81.9079 207.745 79.3406 204.814 76.0812C201.797 72.7251 199.606 68.915 198.063 64.7552C196.901 61.6297 196.145 58.4075 195.685 55.1184C195.178 51.472 195.054 47.8182 195.264 44.1495C195.545 39.1637 196.48 34.3044 198.375 29.6236C200.441 24.5113 203.489 20.0241 207.792 16.3628C211.136 13.5202 214.956 11.4514 219.197 10.0673C221.543 9.3008 223.952 8.765 226.4 8.44502C229.479 8.04318 232.566 7.96132 235.669 8.1548C238.538 8.3334 241.352 8.77245 244.112 9.53148C249.646 11.057 254.503 13.6987 258.58 17.6056C261.496 20.3961 263.78 23.6183 265.526 27.1903C267.21 30.6283 268.325 34.23 269.026 37.9656C269.642 41.2027 269.884 44.4621 269.899 46.7615ZM252.079 47.6619C252.079 44.1942 251.759 40.7562 250.894 37.3777C250.099 34.2597 248.867 31.3278 246.871 28.7232C244.649 25.8285 241.765 23.7895 238.156 22.7402C235.396 21.9365 232.582 21.7654 229.721 22.1226C227.413 22.4128 225.246 23.0825 223.235 24.2062C220.101 25.9624 217.833 28.4851 216.164 31.5361C214.2 35.1378 213.28 39.0149 212.89 43.0259C212.672 45.2658 212.633 47.5131 212.742 49.7679C212.882 52.6329 213.218 55.4756 213.95 58.2587C214.73 61.2353 215.899 64.0557 217.809 66.5635C219.82 69.2126 222.393 71.1549 225.628 72.2637C229.019 73.4171 232.512 73.6329 236.051 73.0674C241.095 72.2562 244.914 69.6963 247.651 65.6109C249.311 63.118 250.348 60.387 251.026 57.522C251.79 54.2775 252.071 50.9809 252.079 47.6619Z" fill="#07377B"/>
<path d="M180.951 36.9907C180.951 44.0973 180.975 51.204 180.944 58.3107C180.928 61.5701 180.71 64.8071 180.055 68.0219C179.057 72.9333 176.508 76.922 172.477 80.1069C168.525 83.2175 164.035 85.1746 159.03 86.1271C156.216 86.6629 153.37 86.9234 150.509 87.0425C147.718 87.1615 144.935 87.102 142.16 86.8936C138.122 86.5885 134.17 85.8816 130.42 84.3709C126.405 82.7636 122.936 80.4046 120.059 77.2866C117.736 74.7714 116.364 71.8022 115.616 68.5577C115.039 66.0796 114.79 63.5644 114.68 61.0343C114.626 59.5832 114.595 58.1321 114.587 56.681C114.579 41.9467 114.579 27.2199 114.587 12.4857C114.587 12.1731 114.587 11.8531 114.634 11.5406C114.875 10.1118 116.076 9.09233 117.58 9.08489C121.634 9.07745 125.688 9.07001 129.742 9.08489C131.418 9.09233 132.735 10.35 132.782 11.9499C132.79 12.1731 132.782 12.3964 132.782 12.6196C132.782 27.0711 132.782 41.5226 132.782 55.9815C132.782 58.0056 132.782 60.0371 133.031 62.0538C133.226 63.6686 133.569 65.2462 134.442 66.675C134.965 67.5382 135.651 68.2675 136.423 68.9298C138.543 70.7604 140.936 72.1222 143.758 72.658C148.264 73.5137 152.599 73.1417 156.598 70.7753C157.697 70.1278 158.687 69.3539 159.622 68.4981C161.252 67.0024 162.047 65.1197 162.39 63.0286C162.725 60.9822 162.772 58.9209 162.772 56.8521C162.772 42.0658 162.772 27.2795 162.78 12.4857C162.78 12.1731 162.772 11.8531 162.826 11.5406C163.068 10.1267 164.284 9.08489 165.781 9.08489C169.85 9.07001 173.927 9.07001 177.997 9.08489C179.618 9.09233 180.905 10.3276 180.967 11.8904C180.975 12.0913 180.967 12.2996 180.967 12.5006C180.959 20.6565 180.959 28.8199 180.951 36.9907C180.951 36.9907 180.959 36.9907 180.951 36.9907Z" fill="#07377B"/>
</svg>
